<?xml version="1.0" encoding="utf-8" standalone="no"?>
<!DOCTYPE svg PUBLIC "-//W3C//DTD SVG 1.1//EN"
  "http://www.w3.org/Graphics/SVG/1.1/DTD/svg11.dtd">
<svg xmlns:xlink="http://www.w3.org/1999/xlink" width="1080pt" height="360pt" viewBox="0 0 1080 360" xmlns="http://www.w3.org/2000/svg" version="1.1">
 <metadata>
  <rdf:RDF xmlns:dc="http://purl.org/dc/elements/1.1/" xmlns:cc="http://creativecommons.org/ns#" xmlns:rdf="http://www.w3.org/1999/02/22-rdf-syntax-ns#">
   <cc:Work>
    <dc:type rdf:resource="http://purl.org/dc/dcmitype/StillImage"/>
    <dc:date>2024-02-28T12:02:12.038028</dc:date>
    <dc:format>image/svg+xml</dc:format>
    <dc:creator>
     <cc:Agent>
      <dc:title>Matplotlib v3.5.3, https://matplotlib.org/</dc:title>
     </cc:Agent>
    </dc:creator>
   </cc:Work>
  </rdf:RDF>
 </metadata>
 <defs>
  <style type="text/css">*{stroke-linejoin: round; stroke-linecap: butt}</style>
 </defs>
 <g id="figure_1">
  <g id="patch_1">
   <path d="M 0 360 
L 1080 360 
L 1080 0 
L 0 0 
z
" style="fill: #ffffff"/>
  </g>
  <g id="axes_1">
   <g id="patch_2">
    <path d="M 135 320.4 
L 515.454545 320.4 
L 515.454545 43.2 
L 135 43.2 
z
" style="fill: #ffffff"/>
   </g>
   <g id="matplotlib.axis_1">
    <g id="xtick_1">
     <g id="line2d_1">
      <path d="M 152.120368 320.4 
L 152.120368 43.2 
" clip-path="url(#pb5ece1f702)" style="fill: none; stroke: #b0b0b0; stroke-width: 0.8; stroke-linecap: square"/>
     </g>
     <g id="line2d_2">
      <defs>
       <path id="m5212d326cd" d="M 0 0 
L 0 3.5 
" style="stroke: #000000; stroke-width: 0.8"/>
      </defs>
      <g>
       <use xlink:href="#m5212d326cd" x="152.120368" y="320.4" style="stroke: #000000; stroke-width: 0.8"/>
      </g>
     </g>
     <g id="text_1">
      <!-- 0.0 -->
      <g transform="translate(144.168806 334.998438)scale(0.1 -0.1)">
       <defs>
        <path id="DejaVuSans-30" d="M 2034 4250 
Q 1547 4250 1301 3770 
Q 1056 3291 1056 2328 
Q 1056 1369 1301 889 
Q 1547 409 2034 409 
Q 2525 409 2770 889 
Q 3016 1369 3016 2328 
Q 3016 3291 2770 3770 
Q 2525 4250 2034 4250 
z
M 2034 4750 
Q 2819 4750 3233 4129 
Q 3647 3509 3647 2328 
Q 3647 1150 3233 529 
Q 2819 -91 2034 -91 
Q 1250 -91 836 529 
Q 422 1150 422 2328 
Q 422 3509 836 4129 
Q 1250 4750 2034 4750 
z
" transform="scale(0.015625)"/>
        <path id="DejaVuSans-2e" d="M 684 794 
L 1344 794 
L 1344 0 
L 684 0 
L 684 794 
z
" transform="scale(0.015625)"/>
       </defs>
       <use xlink:href="#DejaVuSans-30"/>
       <use xlink:href="#DejaVuSans-2e" x="63.623047"/>
       <use xlink:href="#DejaVuSans-30" x="95.410156"/>
      </g>
     </g>
    </g>
    <g id="xtick_2">
     <g id="line2d_3">
      <path d="M 195.375467 320.4 
L 195.375467 43.2 
" clip-path="url(#pb5ece1f702)" style="fill: none; stroke: #b0b0b0; stroke-width: 0.8; stroke-linecap: square"/>
     </g>
     <g id="line2d_4">
      <g>
       <use xlink:href="#m5212d326cd" x="195.375467" y="320.4" style="stroke: #000000; stroke-width: 0.8"/>
      </g>
     </g>
     <g id="text_2">
      <!-- 2.5 -->
      <g transform="translate(187.423904 334.998438)scale(0.1 -0.1)">
       <defs>
        <path id="DejaVuSans-32" d="M 1228 531 
L 3431 531 
L 3431 0 
L 469 0 
L 469 531 
Q 828 903 1448 1529 
Q 2069 2156 2228 2338 
Q 2531 2678 2651 2914 
Q 2772 3150 2772 3378 
Q 2772 3750 2511 3984 
Q 2250 4219 1831 4219 
Q 1534 4219 1204 4116 
Q 875 4013 500 3803 
L 500 4441 
Q 881 4594 1212 4672 
Q 1544 4750 1819 4750 
Q 2544 4750 2975 4387 
Q 3406 4025 3406 3419 
Q 3406 3131 3298 2873 
Q 3191 2616 2906 2266 
Q 2828 2175 2409 1742 
Q 1991 1309 1228 531 
z
" transform="scale(0.015625)"/>
        <path id="DejaVuSans-35" d="M 691 4666 
L 3169 4666 
L 3169 4134 
L 1269 4134 
L 1269 2991 
Q 1406 3038 1543 3061 
Q 1681 3084 1819 3084 
Q 2600 3084 3056 2656 
Q 3513 2228 3513 1497 
Q 3513 744 3044 326 
Q 2575 -91 1722 -91 
Q 1428 -91 1123 -41 
Q 819 9 494 109 
L 494 744 
Q 775 591 1075 516 
Q 1375 441 1709 441 
Q 2250 441 2565 725 
Q 2881 1009 2881 1497 
Q 2881 1984 2565 2268 
Q 2250 2553 1709 2553 
Q 1456 2553 1204 2497 
Q 953 2441 691 2322 
L 691 4666 
z
" transform="scale(0.015625)"/>
       </defs>
       <use xlink:href="#DejaVuSans-32"/>
       <use xlink:href="#DejaVuSans-2e" x="63.623047"/>
       <use xlink:href="#DejaVuSans-35" x="95.410156"/>
      </g>
     </g>
    </g>
    <g id="xtick_3">
     <g id="line2d_5">
      <path d="M 238.630565 320.4 
L 238.630565 43.2 
" clip-path="url(#pb5ece1f702)" style="fill: none; stroke: #b0b0b0; stroke-width: 0.8; stroke-linecap: square"/>
     </g>
     <g id="line2d_6">
      <g>
       <use xlink:href="#m5212d326cd" x="238.630565" y="320.4" style="stroke: #000000; stroke-width: 0.8"/>
      </g>
     </g>
     <g id="text_3">
      <!-- 5.0 -->
      <g transform="translate(230.679003 334.998438)scale(0.1 -0.1)">
       <use xlink:href="#DejaVuSans-35"/>
       <use xlink:href="#DejaVuSans-2e" x="63.623047"/>
       <use xlink:href="#DejaVuSans-30" x="95.410156"/>
      </g>
     </g>
    </g>
    <g id="xtick_4">
     <g id="line2d_7">
      <path d="M 281.885664 320.4 
L 281.885664 43.2 
" clip-path="url(#pb5ece1f702)" style="fill: none; stroke: #b0b0b0; stroke-width: 0.8; stroke-linecap: square"/>
     </g>
     <g id="line2d_8">
      <g>
       <use xlink:href="#m5212d326cd" x="281.885664" y="320.4" style="stroke: #000000; stroke-width: 0.8"/>
      </g>
     </g>
     <g id="text_4">
      <!-- 7.5 -->
      <g transform="translate(273.934101 334.998438)scale(0.1 -0.1)">
       <defs>
        <path id="DejaVuSans-37" d="M 525 4666 
L 3525 4666 
L 3525 4397 
L 1831 0 
L 1172 0 
L 2766 4134 
L 525 4134 
L 525 4666 
z
" transform="scale(0.015625)"/>
       </defs>
       <use xlink:href="#DejaVuSans-37"/>
       <use xlink:href="#DejaVuSans-2e" x="63.623047"/>
       <use xlink:href="#DejaVuSans-35" x="95.410156"/>
      </g>
     </g>
    </g>
    <g id="xtick_5">
     <g id="line2d_9">
      <path d="M 325.140763 320.4 
L 325.140763 43.2 
" clip-path="url(#pb5ece1f702)" style="fill: none; stroke: #b0b0b0; stroke-width: 0.8; stroke-linecap: square"/>
     </g>
     <g id="line2d_10">
      <g>
       <use xlink:href="#m5212d326cd" x="325.140763" y="320.4" style="stroke: #000000; stroke-width: 0.8"/>
      </g>
     </g>
     <g id="text_5">
      <!-- 10.0 -->
      <g transform="translate(314.00795 334.998438)scale(0.1 -0.1)">
       <defs>
        <path id="DejaVuSans-31" d="M 794 531 
L 1825 531 
L 1825 4091 
L 703 3866 
L 703 4441 
L 1819 4666 
L 2450 4666 
L 2450 531 
L 3481 531 
L 3481 0 
L 794 0 
L 794 531 
z
" transform="scale(0.015625)"/>
       </defs>
       <use xlink:href="#DejaVuSans-31"/>
       <use xlink:href="#DejaVuSans-30" x="63.623047"/>
       <use xlink:href="#DejaVuSans-2e" x="127.246094"/>
       <use xlink:href="#DejaVuSans-30" x="159.033203"/>
      </g>
     </g>
    </g>
    <g id="xtick_6">
     <g id="line2d_11">
      <path d="M 368.395861 320.4 
L 368.395861 43.2 
" clip-path="url(#pb5ece1f702)" style="fill: none; stroke: #b0b0b0; stroke-width: 0.8; stroke-linecap: square"/>
     </g>
     <g id="line2d_12">
      <g>
       <use xlink:href="#m5212d326cd" x="368.395861" y="320.4" style="stroke: #000000; stroke-width: 0.8"/>
      </g>
     </g>
     <g id="text_6">
      <!-- 12.5 -->
      <g transform="translate(357.263049 334.998438)scale(0.1 -0.1)">
       <use xlink:href="#DejaVuSans-31"/>
       <use xlink:href="#DejaVuSans-32" x="63.623047"/>
       <use xlink:href="#DejaVuSans-2e" x="127.246094"/>
       <use xlink:href="#DejaVuSans-35" x="159.033203"/>
      </g>
     </g>
    </g>
    <g id="xtick_7">
     <g id="line2d_13">
      <path d="M 411.65096 320.4 
L 411.65096 43.2 
" clip-path="url(#pb5ece1f702)" style="fill: none; stroke: #b0b0b0; stroke-width: 0.8; stroke-linecap: square"/>
     </g>
     <g id="line2d_14">
      <g>
       <use xlink:href="#m5212d326cd" x="411.65096" y="320.4" style="stroke: #000000; stroke-width: 0.8"/>
      </g>
     </g>
     <g id="text_7">
      <!-- 15.0 -->
      <g transform="translate(400.518147 334.998438)scale(0.1 -0.1)">
       <use xlink:href="#DejaVuSans-31"/>
       <use xlink:href="#DejaVuSans-35" x="63.623047"/>
       <use xlink:href="#DejaVuSans-2e" x="127.246094"/>
       <use xlink:href="#DejaVuSans-30" x="159.033203"/>
      </g>
     </g>
    </g>
    <g id="xtick_8">
     <g id="line2d_15">
      <path d="M 454.906058 320.4 
L 454.906058 43.2 
" clip-path="url(#pb5ece1f702)" style="fill: none; stroke: #b0b0b0; stroke-width: 0.8; stroke-linecap: square"/>
     </g>
     <g id="line2d_16">
      <g>
       <use xlink:href="#m5212d326cd" x="454.906058" y="320.4" style="stroke: #000000; stroke-width: 0.8"/>
      </g>
     </g>
     <g id="text_8">
      <!-- 17.5 -->
      <g transform="translate(443.773246 334.998438)scale(0.1 -0.1)">
       <use xlink:href="#DejaVuSans-31"/>
       <use xlink:href="#DejaVuSans-37" x="63.623047"/>
       <use xlink:href="#DejaVuSans-2e" x="127.246094"/>
       <use xlink:href="#DejaVuSans-35" x="159.033203"/>
      </g>
     </g>
    </g>
    <g id="xtick_9">
     <g id="line2d_17">
      <path d="M 498.161157 320.4 
L 498.161157 43.2 
" clip-path="url(#pb5ece1f702)" style="fill: none; stroke: #b0b0b0; stroke-width: 0.8; stroke-linecap: square"/>
     </g>
     <g id="line2d_18">
      <g>
       <use xlink:href="#m5212d326cd" x="498.161157" y="320.4" style="stroke: #000000; stroke-width: 0.8"/>
      </g>
     </g>
     <g id="text_9">
      <!-- 20.0 -->
      <g transform="translate(487.028345 334.998438)scale(0.1 -0.1)">
       <use xlink:href="#DejaVuSans-32"/>
       <use xlink:href="#DejaVuSans-30" x="63.623047"/>
       <use xlink:href="#DejaVuSans-2e" x="127.246094"/>
       <use xlink:href="#DejaVuSans-30" x="159.033203"/>
      </g>
     </g>
    </g>
    <g id="text_10">
     <!-- U/t -->
     <g transform="translate(317.923366 348.676562)scale(0.1 -0.1)">
      <defs>
       <path id="DejaVuSans-55" d="M 556 4666 
L 1191 4666 
L 1191 1831 
Q 1191 1081 1462 751 
Q 1734 422 2344 422 
Q 2950 422 3222 751 
Q 3494 1081 3494 1831 
L 3494 4666 
L 4128 4666 
L 4128 1753 
Q 4128 841 3676 375 
Q 3225 -91 2344 -91 
Q 1459 -91 1007 375 
Q 556 841 556 1753 
L 556 4666 
z
" transform="scale(0.015625)"/>
       <path id="DejaVuSans-2f" d="M 1625 4666 
L 2156 4666 
L 531 -594 
L 0 -594 
L 1625 4666 
z
" transform="scale(0.015625)"/>
       <path id="DejaVuSans-74" d="M 1172 4494 
L 1172 3500 
L 2356 3500 
L 2356 3053 
L 1172 3053 
L 1172 1153 
Q 1172 725 1289 603 
Q 1406 481 1766 481 
L 2356 481 
L 2356 0 
L 1766 0 
Q 1100 0 847 248 
Q 594 497 594 1153 
L 594 3053 
L 172 3053 
L 172 3500 
L 594 3500 
L 594 4494 
L 1172 4494 
z
" transform="scale(0.015625)"/>
      </defs>
      <use xlink:href="#DejaVuSans-55"/>
      <use xlink:href="#DejaVuSans-2f" x="73.193359"/>
      <use xlink:href="#DejaVuSans-74" x="106.884766"/>
     </g>
    </g>
   </g>
   <g id="matplotlib.axis_2">
    <g id="ytick_1">
     <g id="line2d_19">
      <path d="M 135 307.800023 
L 515.454545 307.800023 
" clip-path="url(#pb5ece1f702)" style="fill: none; stroke: #b0b0b0; stroke-width: 0.8; stroke-linecap: square"/>
     </g>
     <g id="line2d_20">
      <defs>
       <path id="mbdc9900c64" d="M 0 0 
L -3.5 0 
" style="stroke: #000000; stroke-width: 0.8"/>
      </defs>
      <g>
       <use xlink:href="#mbdc9900c64" x="135" y="307.800023" style="stroke: #000000; stroke-width: 0.8"/>
      </g>
     </g>
     <g id="text_11">
      <!-- 0.0 -->
      <g transform="translate(112.096875 311.599241)scale(0.1 -0.1)">
       <use xlink:href="#DejaVuSans-30"/>
       <use xlink:href="#DejaVuSans-2e" x="63.623047"/>
       <use xlink:href="#DejaVuSans-30" x="95.410156"/>
      </g>
     </g>
    </g>
    <g id="ytick_2">
     <g id="line2d_21">
      <path d="M 135 256.89667 
L 515.454545 256.89667 
" clip-path="url(#pb5ece1f702)" style="fill: none; stroke: #b0b0b0; stroke-width: 0.8; stroke-linecap: square"/>
     </g>
     <g id="line2d_22">
      <g>
       <use xlink:href="#mbdc9900c64" x="135" y="256.89667" style="stroke: #000000; stroke-width: 0.8"/>
      </g>
     </g>
     <g id="text_12">
      <!-- 0.2 -->
      <g transform="translate(112.096875 260.695888)scale(0.1 -0.1)">
       <use xlink:href="#DejaVuSans-30"/>
       <use xlink:href="#DejaVuSans-2e" x="63.623047"/>
       <use xlink:href="#DejaVuSans-32" x="95.410156"/>
      </g>
     </g>
    </g>
    <g id="ytick_3">
     <g id="line2d_23">
      <path d="M 135 205.993317 
L 515.454545 205.993317 
" clip-path="url(#pb5ece1f702)" style="fill: none; stroke: #b0b0b0; stroke-width: 0.8; stroke-linecap: square"/>
     </g>
     <g id="line2d_24">
      <g>
       <use xlink:href="#mbdc9900c64" x="135" y="205.993317" style="stroke: #000000; stroke-width: 0.8"/>
      </g>
     </g>
     <g id="text_13">
      <!-- 0.4 -->
      <g transform="translate(112.096875 209.792535)scale(0.1 -0.1)">
       <defs>
        <path id="DejaVuSans-34" d="M 2419 4116 
L 825 1625 
L 2419 1625 
L 2419 4116 
z
M 2253 4666 
L 3047 4666 
L 3047 1625 
L 3713 1625 
L 3713 1100 
L 3047 1100 
L 3047 0 
L 2419 0 
L 2419 1100 
L 313 1100 
L 313 1709 
L 2253 4666 
z
" transform="scale(0.015625)"/>
       </defs>
       <use xlink:href="#DejaVuSans-30"/>
       <use xlink:href="#DejaVuSans-2e" x="63.623047"/>
       <use xlink:href="#DejaVuSans-34" x="95.410156"/>
      </g>
     </g>
    </g>
    <g id="ytick_4">
     <g id="line2d_25">
      <path d="M 135 155.089964 
L 515.454545 155.089964 
" clip-path="url(#pb5ece1f702)" style="fill: none; stroke: #b0b0b0; stroke-width: 0.8; stroke-linecap: square"/>
     </g>
     <g id="line2d_26">
      <g>
       <use xlink:href="#mbdc9900c64" x="135" y="155.089964" style="stroke: #000000; stroke-width: 0.8"/>
      </g>
     </g>
     <g id="text_14">
      <!-- 0.6 -->
      <g transform="translate(112.096875 158.889182)scale(0.1 -0.1)">
       <defs>
        <path id="DejaVuSans-36" d="M 2113 2584 
Q 1688 2584 1439 2293 
Q 1191 2003 1191 1497 
Q 1191 994 1439 701 
Q 1688 409 2113 409 
Q 2538 409 2786 701 
Q 3034 994 3034 1497 
Q 3034 2003 2786 2293 
Q 2538 2584 2113 2584 
z
M 3366 4563 
L 3366 3988 
Q 3128 4100 2886 4159 
Q 2644 4219 2406 4219 
Q 1781 4219 1451 3797 
Q 1122 3375 1075 2522 
Q 1259 2794 1537 2939 
Q 1816 3084 2150 3084 
Q 2853 3084 3261 2657 
Q 3669 2231 3669 1497 
Q 3669 778 3244 343 
Q 2819 -91 2113 -91 
Q 1303 -91 875 529 
Q 447 1150 447 2328 
Q 447 3434 972 4092 
Q 1497 4750 2381 4750 
Q 2619 4750 2861 4703 
Q 3103 4656 3366 4563 
z
" transform="scale(0.015625)"/>
       </defs>
       <use xlink:href="#DejaVuSans-30"/>
       <use xlink:href="#DejaVuSans-2e" x="63.623047"/>
       <use xlink:href="#DejaVuSans-36" x="95.410156"/>
      </g>
     </g>
    </g>
    <g id="ytick_5">
     <g id="line2d_27">
      <path d="M 135 104.186611 
L 515.454545 104.186611 
" clip-path="url(#pb5ece1f702)" style="fill: none; stroke: #b0b0b0; stroke-width: 0.8; stroke-linecap: square"/>
     </g>
     <g id="line2d_28">
      <g>
       <use xlink:href="#mbdc9900c64" x="135" y="104.186611" style="stroke: #000000; stroke-width: 0.8"/>
      </g>
     </g>
     <g id="text_15">
      <!-- 0.8 -->
      <g transform="translate(112.096875 107.985829)scale(0.1 -0.1)">
       <defs>
        <path id="DejaVuSans-38" d="M 2034 2216 
Q 1584 2216 1326 1975 
Q 1069 1734 1069 1313 
Q 1069 891 1326 650 
Q 1584 409 2034 409 
Q 2484 409 2743 651 
Q 3003 894 3003 1313 
Q 3003 1734 2745 1975 
Q 2488 2216 2034 2216 
z
M 1403 2484 
Q 997 2584 770 2862 
Q 544 3141 544 3541 
Q 544 4100 942 4425 
Q 1341 4750 2034 4750 
Q 2731 4750 3128 4425 
Q 3525 4100 3525 3541 
Q 3525 3141 3298 2862 
Q 3072 2584 2669 2484 
Q 3125 2378 3379 2068 
Q 3634 1759 3634 1313 
Q 3634 634 3220 271 
Q 2806 -91 2034 -91 
Q 1263 -91 848 271 
Q 434 634 434 1313 
Q 434 1759 690 2068 
Q 947 2378 1403 2484 
z
M 1172 3481 
Q 1172 3119 1398 2916 
Q 1625 2713 2034 2713 
Q 2441 2713 2670 2916 
Q 2900 3119 2900 3481 
Q 2900 3844 2670 4047 
Q 2441 4250 2034 4250 
Q 1625 4250 1398 4047 
Q 1172 3844 1172 3481 
z
" transform="scale(0.015625)"/>
       </defs>
       <use xlink:href="#DejaVuSans-30"/>
       <use xlink:href="#DejaVuSans-2e" x="63.623047"/>
       <use xlink:href="#DejaVuSans-38" x="95.410156"/>
      </g>
     </g>
    </g>
    <g id="ytick_6">
     <g id="line2d_29">
      <path d="M 135 53.283258 
L 515.454545 53.283258 
" clip-path="url(#pb5ece1f702)" style="fill: none; stroke: #b0b0b0; stroke-width: 0.8; stroke-linecap: square"/>
     </g>
     <g id="line2d_30">
      <g>
       <use xlink:href="#mbdc9900c64" x="135" y="53.283258" style="stroke: #000000; stroke-width: 0.8"/>
      </g>
     </g>
     <g id="text_16">
      <!-- 1.0 -->
      <g transform="translate(112.096875 57.082476)scale(0.1 -0.1)">
       <use xlink:href="#DejaVuSans-31"/>
       <use xlink:href="#DejaVuSans-2e" x="63.623047"/>
       <use xlink:href="#DejaVuSans-30" x="95.410156"/>
      </g>
     </g>
    </g>
    <g id="text_17">
     <!-- $\Delta$ -->
     <g transform="translate(106.017187 185.25)rotate(-90)scale(0.1 -0.1)">
      <defs>
       <path id="DejaVuSans-394" d="M 2188 4044 
L 906 525 
L 3472 525 
L 2188 4044 
z
M 50 0 
L 1831 4666 
L 2547 4666 
L 4325 0 
L 50 0 
z
" transform="scale(0.015625)"/>
      </defs>
      <use xlink:href="#DejaVuSans-394" transform="translate(0 0.09375)"/>
     </g>
    </g>
   </g>
   <g id="line2d_31">
    <path d="M 152.293388 307.79867 
L 155.769446 307.692856 
L 157.507475 307.284541 
L 159.245504 306.09321 
L 160.983533 303.955488 
L 162.721562 300.380245 
L 164.459591 294.87588 
L 166.19762 288.035365 
L 167.935649 280.125396 
L 169.673678 271.485413 
L 178.363823 225.542862 
L 181.839881 208.53144 
L 185.315939 192.96856 
L 188.791997 179.023154 
L 192.268055 166.586574 
L 195.744113 155.559345 
L 199.220171 145.855612 
L 202.696229 137.323965 
L 206.172287 129.741688 
L 209.648345 122.999375 
L 213.124403 117.028449 
L 216.600461 111.753532 
L 220.076519 107.057247 
L 223.552577 102.865512 
L 227.028635 99.114296 
L 230.504693 95.748368 
L 233.980751 92.720113 
L 237.456809 89.999991 
L 244.408925 85.400377 
L 247.884983 83.371722 
L 253.09907 80.654952 
L 258.313157 78.275356 
L 263.527244 76.181776 
L 268.741331 74.331931 
L 273.955418 72.690738 
L 280.907534 70.777227 
L 287.859649 69.126712 
L 294.811765 67.694284 
L 303.50191 66.156332 
L 312.192055 64.848065 
L 322.620229 63.52173 
L 333.048403 62.408341 
L 345.214606 61.322133 
L 359.118838 60.300309 
L 374.761099 59.365702 
L 393.879418 58.455106 
L 421.687882 57.389438 
L 449.496345 56.672789 
L 484.256925 56.01161 
L 498.161157 55.8 
L 498.161157 55.8 
" clip-path="url(#pb5ece1f702)" style="fill: none; stroke: #1f77b4; stroke-width: 1.5; stroke-linecap: square"/>
   </g>
   <g id="line2d_32">
    <path d="M 152.293388 307.342302 
L 154.031417 307.50345 
L 155.769446 307.126275 
L 157.507475 305.255249 
L 159.245504 302.355352 
L 160.983533 298.539711 
L 162.721562 293.787383 
L 164.459591 288.07261 
L 166.19762 285.680008 
L 167.935649 279.111851 
L 171.411707 264.354506 
L 176.625794 240.177446 
L 178.363823 232.049311 
L 180.101852 216.797507 
L 183.57791 201.803643 
L 187.053968 188.049799 
L 190.530026 175.565801 
L 194.006084 164.30998 
L 197.482142 154.20469 
L 200.9582 145.156118 
L 204.434258 137.065498 
L 207.910316 129.835511 
L 211.386374 123.373882 
L 214.862432 117.595252 
L 218.33849 112.421991 
L 220.076519 110.04027 
L 221.814548 101.054596 
L 225.290606 97.673813 
L 228.766664 94.613709 
L 232.242722 91.837537 
L 235.71878 89.313398 
L 239.194838 87.013516 
L 242.670896 84.913637 
L 247.884983 82.093098 
L 253.09907 79.61433 
L 258.313157 77.426877 
L 263.527244 75.488853 
L 268.741331 73.765317 
L 275.693447 71.75101 
L 282.645563 70.009572 
L 289.597678 68.495437 
L 298.287823 66.867147 
L 306.977968 65.4802 
L 317.406142 64.072749 
L 327.834316 62.890564 
L 340.000519 61.736996 
L 353.904751 60.651987 
L 369.547012 59.660158 
L 388.665331 58.694803 
L 409.521679 57.869597 
L 435.592113 57.076744 
L 466.876635 56.367983 
L 498.161157 55.839719 
L 498.161157 55.839719 
" clip-path="url(#pb5ece1f702)" style="fill: none; stroke: #ff7f0e; stroke-width: 1.5; stroke-linecap: square"/>
   </g>
   <g id="line2d_33">
    <path d="M 152.293388 307.79998 
L 155.769446 307.702754 
L 157.507475 307.229685 
L 159.245504 305.93213 
L 160.983533 303.219609 
L 162.721562 299.030289 
L 164.459591 293.064364 
L 166.19762 286.30771 
L 169.673678 270.416613 
L 173.149736 252.672584 
L 178.363823 224.983328 
L 181.839881 207.961282 
L 185.315939 192.417947 
L 188.791997 178.37985 
L 192.268055 165.95316 
L 195.744113 154.950775 
L 197.482142 149.921991 
L 200.9582 140.798957 
L 204.434258 132.750526 
L 207.910316 125.643973 
L 211.386374 119.359103 
L 214.862432 113.789374 
L 218.33849 108.841595 
L 221.814548 104.434917 
L 225.290606 100.499545 
L 228.766664 96.975386 
L 232.242722 93.81075 
L 235.71878 90.97519 
L 239.194838 88.401038 
L 242.670896 86.070837 
L 246.146954 83.956076 
L 251.361041 81.1399 
L 256.575128 78.682693 
L 261.789215 76.52779 
L 267.003302 74.628923 
L 272.217389 72.948096 
L 277.431476 71.453926 
L 282.645563 70.120349 
L 289.597678 68.556994 
L 296.549794 67.192772 
L 305.239939 65.733101 
L 315.668113 64.263229 
L 326.096287 63.032508 
L 338.26249 61.843212 
L 350.428693 60.854222 
L 366.070954 59.817936 
L 383.451244 58.894369 
L 404.307592 58.024435 
L 428.639998 57.244006 
L 458.18649 56.531347 
L 494.685099 55.88384 
L 498.161157 55.832654 
L 498.161157 55.832654 
" clip-path="url(#pb5ece1f702)" style="fill: none; stroke: #2ca02c; stroke-width: 1.5; stroke-linecap: square"/>
   </g>
   <g id="line2d_34">
    <path d="M 152.293388 307.799991 
L 155.769446 307.712992 
L 157.507475 307.266732 
L 159.245504 305.986265 
L 160.983533 303.265513 
L 162.721562 299.021373 
L 164.459591 293.354922 
L 166.19762 286.065455 
L 167.935649 278.288409 
L 169.673678 269.866821 
L 173.149736 251.843438 
L 181.839881 208.022027 
L 183.57791 199.954253 
L 187.053968 185.166593 
L 190.530026 171.958138 
L 194.006084 160.244253 
L 197.482142 149.894558 
L 200.9582 140.80245 
L 202.696229 136.626922 
L 206.172287 129.059268 
L 209.648345 122.373706 
L 213.124403 116.480641 
L 216.600461 111.227273 
L 220.076519 106.55557 
L 223.552577 102.389982 
L 227.028635 98.665436 
L 230.504693 95.340948 
L 233.980751 92.336244 
L 237.456809 89.627546 
L 240.932867 87.179145 
L 244.408925 84.97102 
L 247.884983 82.95352 
L 253.09907 80.263106 
L 258.313157 77.911797 
L 263.527244 75.846611 
L 268.741331 74.024198 
L 273.955418 72.408888 
L 280.907534 70.528973 
L 287.859649 68.908253 
L 294.811765 67.501984 
L 303.50191 65.993317 
L 312.192055 64.709656 
L 320.8822 63.604874 
L 333.048403 62.311748 
L 346.952635 61.10582 
L 362.594896 60.015382 
L 379.975186 59.050021 
L 400.831534 58.141973 
L 425.16394 57.329067 
L 454.710432 56.589028 
L 489.471012 55.952567 
L 498.161157 55.821336 
L 498.161157 55.821336 
" clip-path="url(#pb5ece1f702)" style="fill: none; stroke: #d62728; stroke-width: 1.5; stroke-linecap: square"/>
   </g>
   <g id="line2d_35">
    <path d="M 152.293388 307.8 
L 155.769446 307.693102 
L 157.507475 307.231479 
L 159.245504 305.950506 
L 160.983533 303.209685 
L 162.721562 298.901197 
L 164.459591 293.11572 
L 166.19762 286.112644 
L 167.935649 278.201962 
L 171.411707 260.745881 
L 173.149736 251.067005 
L 178.363823 224.454747 
L 181.839881 207.967322 
L 185.315939 192.520971 
L 187.053968 185.210281 
L 190.530026 172.101594 
L 192.268055 165.952278 
L 195.744113 154.904793 
L 199.220171 145.21931 
L 200.9582 140.759219 
L 204.434258 132.73479 
L 207.910316 125.60912 
L 211.386374 119.313805 
L 214.862432 113.738463 
L 218.33849 108.805048 
L 221.814548 104.393016 
L 225.290606 100.471262 
L 228.766664 96.941841 
L 232.242722 93.774217 
L 235.71878 90.934888 
L 239.194838 88.358999 
L 242.670896 86.039189 
L 246.146954 83.922365 
L 251.361041 81.104033 
L 256.575128 78.645458 
L 261.789215 76.497533 
L 267.003302 74.597314 
L 272.217389 72.915719 
L 279.169505 70.961889 
L 286.12162 69.280403 
L 293.073736 67.823804 
L 301.763881 66.263637 
L 310.454026 64.938464 
L 320.8822 63.597476 
L 333.048403 62.300662 
L 345.214606 61.23435 
L 360.856867 60.116535 
L 378.237157 59.130995 
L 399.093505 58.203374 
L 423.425911 57.374612 
L 449.496345 56.697313 
L 484.256925 56.028833 
L 498.161157 55.815079 
L 498.161157 55.815079 
" clip-path="url(#pb5ece1f702)" style="fill: none; stroke: #9467bd; stroke-width: 1.5; stroke-linecap: square"/>
   </g>
   <g id="patch_3">
    <path d="M 135 320.4 
L 135 43.2 
" style="fill: none; stroke: #000000; stroke-width: 0.8; stroke-linejoin: miter; stroke-linecap: square"/>
   </g>
   <g id="patch_4">
    <path d="M 515.454545 320.4 
L 515.454545 43.2 
" style="fill: none; stroke: #000000; stroke-width: 0.8; stroke-linejoin: miter; stroke-linecap: square"/>
   </g>
   <g id="patch_5">
    <path d="M 135 320.4 
L 515.454545 320.4 
" style="fill: none; stroke: #000000; stroke-width: 0.8; stroke-linejoin: miter; stroke-linecap: square"/>
   </g>
   <g id="patch_6">
    <path d="M 135 43.2 
L 515.454545 43.2 
" style="fill: none; stroke: #000000; stroke-width: 0.8; stroke-linejoin: miter; stroke-linecap: square"/>
   </g>
   <g id="text_18">
    <!-- $\Delta_{CDW}^2 + \Delta_{SC}^2$ -->
    <g transform="translate(293.247273 37.2)scale(0.12 -0.12)">
     <defs>
      <path id="DejaVuSans-Oblique-43" d="M 4447 4306 
L 4319 3641 
Q 4019 3944 3683 4091 
Q 3347 4238 2956 4238 
Q 2422 4238 2017 3981 
Q 1613 3725 1319 3200 
Q 1131 2863 1032 2486 
Q 934 2109 934 1728 
Q 934 1091 1264 756 
Q 1594 422 2222 422 
Q 2656 422 3056 561 
Q 3456 700 3834 978 
L 3688 231 
Q 3316 72 2936 -9 
Q 2556 -91 2175 -91 
Q 1278 -91 773 396 
Q 269 884 269 1753 
Q 269 2309 461 2846 
Q 653 3384 1013 3828 
Q 1394 4300 1883 4525 
Q 2372 4750 3022 4750 
Q 3422 4750 3780 4639 
Q 4138 4528 4447 4306 
z
" transform="scale(0.015625)"/>
      <path id="DejaVuSans-Oblique-44" d="M 1081 4666 
L 2438 4666 
Q 3519 4666 4070 4208 
Q 4622 3750 4622 2847 
Q 4622 2250 4412 1698 
Q 4203 1147 3834 769 
Q 3463 381 2891 190 
Q 2319 0 1538 0 
L 172 0 
L 1081 4666 
z
M 1613 4147 
L 909 519 
L 1734 519 
Q 2794 519 3375 1128 
Q 3956 1738 3956 2847 
Q 3956 3519 3581 3833 
Q 3206 4147 2406 4147 
L 1613 4147 
z
" transform="scale(0.015625)"/>
      <path id="DejaVuSans-Oblique-57" d="M 616 4666 
L 1228 4666 
L 1453 697 
L 3213 4666 
L 3916 4666 
L 4147 697 
L 5888 4666 
L 6528 4666 
L 4453 0 
L 3659 0 
L 3444 3891 
L 1697 0 
L 903 0 
L 616 4666 
z
" transform="scale(0.015625)"/>
      <path id="DejaVuSans-2b" d="M 2944 4013 
L 2944 2272 
L 4684 2272 
L 4684 1741 
L 2944 1741 
L 2944 0 
L 2419 0 
L 2419 1741 
L 678 1741 
L 678 2272 
L 2419 2272 
L 2419 4013 
L 2944 4013 
z
" transform="scale(0.015625)"/>
      <path id="DejaVuSans-Oblique-53" d="M 3859 4513 
L 3738 3897 
Q 3422 4066 3111 4152 
Q 2800 4238 2509 4238 
Q 1944 4238 1609 3991 
Q 1275 3744 1275 3334 
Q 1275 3109 1398 2989 
Q 1522 2869 2034 2731 
L 2413 2638 
Q 3053 2472 3303 2217 
Q 3553 1963 3553 1503 
Q 3553 797 2998 353 
Q 2444 -91 1538 -91 
Q 1166 -91 791 -17 
Q 416 56 38 206 
L 166 856 
Q 513 641 861 531 
Q 1209 422 1556 422 
Q 2147 422 2503 684 
Q 2859 947 2859 1369 
Q 2859 1650 2717 1795 
Q 2575 1941 2106 2059 
L 1728 2156 
Q 1081 2325 845 2545 
Q 609 2766 609 3163 
Q 609 3859 1145 4304 
Q 1681 4750 2541 4750 
Q 2875 4750 3203 4690 
Q 3531 4631 3859 4513 
z
" transform="scale(0.015625)"/>
     </defs>
     <use xlink:href="#DejaVuSans-394" transform="translate(0 0.765625)"/>
     <use xlink:href="#DejaVuSans-32" transform="translate(69.365234 39.046875)scale(0.7)"/>
     <use xlink:href="#DejaVuSans-Oblique-43" transform="translate(69.365234 -26.578125)scale(0.7)"/>
     <use xlink:href="#DejaVuSans-Oblique-44" transform="translate(118.242188 -26.578125)scale(0.7)"/>
     <use xlink:href="#DejaVuSans-Oblique-57" transform="translate(172.143555 -26.578125)scale(0.7)"/>
     <use xlink:href="#DejaVuSans-2b" transform="translate(263.574219 0.765625)"/>
     <use xlink:href="#DejaVuSans-394" transform="translate(366.845703 0.765625)"/>
     <use xlink:href="#DejaVuSans-32" transform="translate(436.210938 39.046875)scale(0.7)"/>
     <use xlink:href="#DejaVuSans-Oblique-53" transform="translate(436.210938 -26.578125)scale(0.7)"/>
     <use xlink:href="#DejaVuSans-Oblique-43" transform="translate(480.644531 -26.578125)scale(0.7)"/>
    </g>
   </g>
   <g id="legend_1">
    <g id="patch_7">
     <path d="M 142 124.590625 
L 201.232812 124.590625 
Q 203.232812 124.590625 203.232812 122.590625 
L 203.232812 50.2 
Q 203.232812 48.2 201.232812 48.2 
L 142 48.2 
Q 140 48.2 140 50.2 
L 140 122.590625 
Q 140 124.590625 142 124.590625 
z
" style="fill: #ffffff; opacity: 0.8; stroke: #cccccc; stroke-linejoin: miter"/>
    </g>
    <g id="line2d_36">
     <path d="M 144 56.298437 
L 154 56.298437 
L 164 56.298437 
" style="fill: none; stroke: #1f77b4; stroke-width: 1.5; stroke-linecap: square"/>
    </g>
    <g id="text_19">
     <!-- J=0.1 -->
     <g transform="translate(172 59.798437)scale(0.1 -0.1)">
      <defs>
       <path id="DejaVuSans-4a" d="M 628 4666 
L 1259 4666 
L 1259 325 
Q 1259 -519 939 -900 
Q 619 -1281 -91 -1281 
L -331 -1281 
L -331 -750 
L -134 -750 
Q 284 -750 456 -515 
Q 628 -281 628 325 
L 628 4666 
z
" transform="scale(0.015625)"/>
       <path id="DejaVuSans-3d" d="M 678 2906 
L 4684 2906 
L 4684 2381 
L 678 2381 
L 678 2906 
z
M 678 1631 
L 4684 1631 
L 4684 1100 
L 678 1100 
L 678 1631 
z
" transform="scale(0.015625)"/>
      </defs>
      <use xlink:href="#DejaVuSans-4a"/>
      <use xlink:href="#DejaVuSans-3d" x="29.492188"/>
      <use xlink:href="#DejaVuSans-30" x="113.28125"/>
      <use xlink:href="#DejaVuSans-2e" x="176.904297"/>
      <use xlink:href="#DejaVuSans-31" x="208.691406"/>
     </g>
    </g>
    <g id="line2d_37">
     <path d="M 144 70.976562 
L 154 70.976562 
L 164 70.976562 
" style="fill: none; stroke: #ff7f0e; stroke-width: 1.5; stroke-linecap: square"/>
    </g>
    <g id="text_20">
     <!-- J=0.3 -->
     <g transform="translate(172 74.476562)scale(0.1 -0.1)">
      <defs>
       <path id="DejaVuSans-33" d="M 2597 2516 
Q 3050 2419 3304 2112 
Q 3559 1806 3559 1356 
Q 3559 666 3084 287 
Q 2609 -91 1734 -91 
Q 1441 -91 1130 -33 
Q 819 25 488 141 
L 488 750 
Q 750 597 1062 519 
Q 1375 441 1716 441 
Q 2309 441 2620 675 
Q 2931 909 2931 1356 
Q 2931 1769 2642 2001 
Q 2353 2234 1838 2234 
L 1294 2234 
L 1294 2753 
L 1863 2753 
Q 2328 2753 2575 2939 
Q 2822 3125 2822 3475 
Q 2822 3834 2567 4026 
Q 2313 4219 1838 4219 
Q 1578 4219 1281 4162 
Q 984 4106 628 3988 
L 628 4550 
Q 988 4650 1302 4700 
Q 1616 4750 1894 4750 
Q 2613 4750 3031 4423 
Q 3450 4097 3450 3541 
Q 3450 3153 3228 2886 
Q 3006 2619 2597 2516 
z
" transform="scale(0.015625)"/>
      </defs>
      <use xlink:href="#DejaVuSans-4a"/>
      <use xlink:href="#DejaVuSans-3d" x="29.492188"/>
      <use xlink:href="#DejaVuSans-30" x="113.28125"/>
      <use xlink:href="#DejaVuSans-2e" x="176.904297"/>
      <use xlink:href="#DejaVuSans-33" x="208.691406"/>
     </g>
    </g>
    <g id="line2d_38">
     <path d="M 144 85.654687 
L 154 85.654687 
L 164 85.654687 
" style="fill: none; stroke: #2ca02c; stroke-width: 1.5; stroke-linecap: square"/>
    </g>
    <g id="text_21">
     <!-- J=0.5 -->
     <g transform="translate(172 89.154687)scale(0.1 -0.1)">
      <use xlink:href="#DejaVuSans-4a"/>
      <use xlink:href="#DejaVuSans-3d" x="29.492188"/>
      <use xlink:href="#DejaVuSans-30" x="113.28125"/>
      <use xlink:href="#DejaVuSans-2e" x="176.904297"/>
      <use xlink:href="#DejaVuSans-35" x="208.691406"/>
     </g>
    </g>
    <g id="line2d_39">
     <path d="M 144 100.332812 
L 154 100.332812 
L 164 100.332812 
" style="fill: none; stroke: #d62728; stroke-width: 1.5; stroke-linecap: square"/>
    </g>
    <g id="text_22">
     <!-- J=0.7 -->
     <g transform="translate(172 103.832812)scale(0.1 -0.1)">
      <use xlink:href="#DejaVuSans-4a"/>
      <use xlink:href="#DejaVuSans-3d" x="29.492188"/>
      <use xlink:href="#DejaVuSans-30" x="113.28125"/>
      <use xlink:href="#DejaVuSans-2e" x="176.904297"/>
      <use xlink:href="#DejaVuSans-37" x="208.691406"/>
     </g>
    </g>
    <g id="line2d_40">
     <path d="M 144 115.010937 
L 154 115.010937 
L 164 115.010937 
" style="fill: none; stroke: #9467bd; stroke-width: 1.5; stroke-linecap: square"/>
    </g>
    <g id="text_23">
     <!-- J=1 -->
     <g transform="translate(172 118.510937)scale(0.1 -0.1)">
      <use xlink:href="#DejaVuSans-4a"/>
      <use xlink:href="#DejaVuSans-3d" x="29.492188"/>
      <use xlink:href="#DejaVuSans-31" x="113.28125"/>
     </g>
    </g>
   </g>
  </g>
  <g id="axes_2">
   <g id="patch_8">
    <path d="M 591.545455 320.4 
L 972 320.4 
L 972 43.2 
L 591.545455 43.2 
z
" style="fill: #ffffff"/>
   </g>
   <g id="matplotlib.axis_3">
    <g id="xtick_10">
     <g id="line2d_41">
      <path d="M 608.665823 320.4 
L 608.665823 43.2 
" clip-path="url(#p79ecfc1d28)" style="fill: none; stroke: #b0b0b0; stroke-width: 0.8; stroke-linecap: square"/>
     </g>
     <g id="line2d_42">
      <g>
       <use xlink:href="#m5212d326cd" x="608.665823" y="320.4" style="stroke: #000000; stroke-width: 0.8"/>
      </g>
     </g>
     <g id="text_24">
      <!-- 0.0 -->
      <g transform="translate(600.71426 334.998438)scale(0.1 -0.1)">
       <use xlink:href="#DejaVuSans-30"/>
       <use xlink:href="#DejaVuSans-2e" x="63.623047"/>
       <use xlink:href="#DejaVuSans-30" x="95.410156"/>
      </g>
     </g>
    </g>
    <g id="xtick_11">
     <g id="line2d_43">
      <path d="M 651.920921 320.4 
L 651.920921 43.2 
" clip-path="url(#p79ecfc1d28)" style="fill: none; stroke: #b0b0b0; stroke-width: 0.8; stroke-linecap: square"/>
     </g>
     <g id="line2d_44">
      <g>
       <use xlink:href="#m5212d326cd" x="651.920921" y="320.4" style="stroke: #000000; stroke-width: 0.8"/>
      </g>
     </g>
     <g id="text_25">
      <!-- 2.5 -->
      <g transform="translate(643.969359 334.998438)scale(0.1 -0.1)">
       <use xlink:href="#DejaVuSans-32"/>
       <use xlink:href="#DejaVuSans-2e" x="63.623047"/>
       <use xlink:href="#DejaVuSans-35" x="95.410156"/>
      </g>
     </g>
    </g>
    <g id="xtick_12">
     <g id="line2d_45">
      <path d="M 695.17602 320.4 
L 695.17602 43.2 
" clip-path="url(#p79ecfc1d28)" style="fill: none; stroke: #b0b0b0; stroke-width: 0.8; stroke-linecap: square"/>
     </g>
     <g id="line2d_46">
      <g>
       <use xlink:href="#m5212d326cd" x="695.17602" y="320.4" style="stroke: #000000; stroke-width: 0.8"/>
      </g>
     </g>
     <g id="text_26">
      <!-- 5.0 -->
      <g transform="translate(687.224457 334.998438)scale(0.1 -0.1)">
       <use xlink:href="#DejaVuSans-35"/>
       <use xlink:href="#DejaVuSans-2e" x="63.623047"/>
       <use xlink:href="#DejaVuSans-30" x="95.410156"/>
      </g>
     </g>
    </g>
    <g id="xtick_13">
     <g id="line2d_47">
      <path d="M 738.431118 320.4 
L 738.431118 43.2 
" clip-path="url(#p79ecfc1d28)" style="fill: none; stroke: #b0b0b0; stroke-width: 0.8; stroke-linecap: square"/>
     </g>
     <g id="line2d_48">
      <g>
       <use xlink:href="#m5212d326cd" x="738.431118" y="320.4" style="stroke: #000000; stroke-width: 0.8"/>
      </g>
     </g>
     <g id="text_27">
      <!-- 7.5 -->
      <g transform="translate(730.479556 334.998438)scale(0.1 -0.1)">
       <use xlink:href="#DejaVuSans-37"/>
       <use xlink:href="#DejaVuSans-2e" x="63.623047"/>
       <use xlink:href="#DejaVuSans-35" x="95.410156"/>
      </g>
     </g>
    </g>
    <g id="xtick_14">
     <g id="line2d_49">
      <path d="M 781.686217 320.4 
L 781.686217 43.2 
" clip-path="url(#p79ecfc1d28)" style="fill: none; stroke: #b0b0b0; stroke-width: 0.8; stroke-linecap: square"/>
     </g>
     <g id="line2d_50">
      <g>
       <use xlink:href="#m5212d326cd" x="781.686217" y="320.4" style="stroke: #000000; stroke-width: 0.8"/>
      </g>
     </g>
     <g id="text_28">
      <!-- 10.0 -->
      <g transform="translate(770.553405 334.998438)scale(0.1 -0.1)">
       <use xlink:href="#DejaVuSans-31"/>
       <use xlink:href="#DejaVuSans-30" x="63.623047"/>
       <use xlink:href="#DejaVuSans-2e" x="127.246094"/>
       <use xlink:href="#DejaVuSans-30" x="159.033203"/>
      </g>
     </g>
    </g>
    <g id="xtick_15">
     <g id="line2d_51">
      <path d="M 824.941316 320.4 
L 824.941316 43.2 
" clip-path="url(#p79ecfc1d28)" style="fill: none; stroke: #b0b0b0; stroke-width: 0.8; stroke-linecap: square"/>
     </g>
     <g id="line2d_52">
      <g>
       <use xlink:href="#m5212d326cd" x="824.941316" y="320.4" style="stroke: #000000; stroke-width: 0.8"/>
      </g>
     </g>
     <g id="text_29">
      <!-- 12.5 -->
      <g transform="translate(813.808503 334.998438)scale(0.1 -0.1)">
       <use xlink:href="#DejaVuSans-31"/>
       <use xlink:href="#DejaVuSans-32" x="63.623047"/>
       <use xlink:href="#DejaVuSans-2e" x="127.246094"/>
       <use xlink:href="#DejaVuSans-35" x="159.033203"/>
      </g>
     </g>
    </g>
    <g id="xtick_16">
     <g id="line2d_53">
      <path d="M 868.196414 320.4 
L 868.196414 43.2 
" clip-path="url(#p79ecfc1d28)" style="fill: none; stroke: #b0b0b0; stroke-width: 0.8; stroke-linecap: square"/>
     </g>
     <g id="line2d_54">
      <g>
       <use xlink:href="#m5212d326cd" x="868.196414" y="320.4" style="stroke: #000000; stroke-width: 0.8"/>
      </g>
     </g>
     <g id="text_30">
      <!-- 15.0 -->
      <g transform="translate(857.063602 334.998438)scale(0.1 -0.1)">
       <use xlink:href="#DejaVuSans-31"/>
       <use xlink:href="#DejaVuSans-35" x="63.623047"/>
       <use xlink:href="#DejaVuSans-2e" x="127.246094"/>
       <use xlink:href="#DejaVuSans-30" x="159.033203"/>
      </g>
     </g>
    </g>
    <g id="xtick_17">
     <g id="line2d_55">
      <path d="M 911.451513 320.4 
L 911.451513 43.2 
" clip-path="url(#p79ecfc1d28)" style="fill: none; stroke: #b0b0b0; stroke-width: 0.8; stroke-linecap: square"/>
     </g>
     <g id="line2d_56">
      <g>
       <use xlink:href="#m5212d326cd" x="911.451513" y="320.4" style="stroke: #000000; stroke-width: 0.8"/>
      </g>
     </g>
     <g id="text_31">
      <!-- 17.5 -->
      <g transform="translate(900.3187 334.998438)scale(0.1 -0.1)">
       <use xlink:href="#DejaVuSans-31"/>
       <use xlink:href="#DejaVuSans-37" x="63.623047"/>
       <use xlink:href="#DejaVuSans-2e" x="127.246094"/>
       <use xlink:href="#DejaVuSans-35" x="159.033203"/>
      </g>
     </g>
    </g>
    <g id="xtick_18">
     <g id="line2d_57">
      <path d="M 954.706612 320.4 
L 954.706612 43.2 
" clip-path="url(#p79ecfc1d28)" style="fill: none; stroke: #b0b0b0; stroke-width: 0.8; stroke-linecap: square"/>
     </g>
     <g id="line2d_58">
      <g>
       <use xlink:href="#m5212d326cd" x="954.706612" y="320.4" style="stroke: #000000; stroke-width: 0.8"/>
      </g>
     </g>
     <g id="text_32">
      <!-- 20.0 -->
      <g transform="translate(943.573799 334.998438)scale(0.1 -0.1)">
       <use xlink:href="#DejaVuSans-32"/>
       <use xlink:href="#DejaVuSans-30" x="63.623047"/>
       <use xlink:href="#DejaVuSans-2e" x="127.246094"/>
       <use xlink:href="#DejaVuSans-30" x="159.033203"/>
      </g>
     </g>
    </g>
    <g id="text_33">
     <!-- U/t -->
     <g transform="translate(774.468821 348.676562)scale(0.1 -0.1)">
      <use xlink:href="#DejaVuSans-55"/>
      <use xlink:href="#DejaVuSans-2f" x="73.193359"/>
      <use xlink:href="#DejaVuSans-74" x="106.884766"/>
     </g>
    </g>
   </g>
   <g id="matplotlib.axis_4">
    <g id="ytick_7">
     <g id="line2d_59">
      <path d="M 591.545455 307.800023 
L 972 307.800023 
" clip-path="url(#p79ecfc1d28)" style="fill: none; stroke: #b0b0b0; stroke-width: 0.8; stroke-linecap: square"/>
     </g>
     <g id="line2d_60">
      <g>
       <use xlink:href="#mbdc9900c64" x="591.545455" y="307.800023" style="stroke: #000000; stroke-width: 0.8"/>
      </g>
     </g>
     <g id="text_34">
      <!-- 0.0 -->
      <g transform="translate(568.64233 311.599241)scale(0.1 -0.1)">
       <use xlink:href="#DejaVuSans-30"/>
       <use xlink:href="#DejaVuSans-2e" x="63.623047"/>
       <use xlink:href="#DejaVuSans-30" x="95.410156"/>
      </g>
     </g>
    </g>
    <g id="ytick_8">
     <g id="line2d_61">
      <path d="M 591.545455 256.874295 
L 972 256.874295 
" clip-path="url(#p79ecfc1d28)" style="fill: none; stroke: #b0b0b0; stroke-width: 0.8; stroke-linecap: square"/>
     </g>
     <g id="line2d_62">
      <g>
       <use xlink:href="#mbdc9900c64" x="591.545455" y="256.874295" style="stroke: #000000; stroke-width: 0.8"/>
      </g>
     </g>
     <g id="text_35">
      <!-- 0.2 -->
      <g transform="translate(568.64233 260.673514)scale(0.1 -0.1)">
       <use xlink:href="#DejaVuSans-30"/>
       <use xlink:href="#DejaVuSans-2e" x="63.623047"/>
       <use xlink:href="#DejaVuSans-32" x="95.410156"/>
      </g>
     </g>
    </g>
    <g id="ytick_9">
     <g id="line2d_63">
      <path d="M 591.545455 205.948568 
L 972 205.948568 
" clip-path="url(#p79ecfc1d28)" style="fill: none; stroke: #b0b0b0; stroke-width: 0.8; stroke-linecap: square"/>
     </g>
     <g id="line2d_64">
      <g>
       <use xlink:href="#mbdc9900c64" x="591.545455" y="205.948568" style="stroke: #000000; stroke-width: 0.8"/>
      </g>
     </g>
     <g id="text_36">
      <!-- 0.4 -->
      <g transform="translate(568.64233 209.747787)scale(0.1 -0.1)">
       <use xlink:href="#DejaVuSans-30"/>
       <use xlink:href="#DejaVuSans-2e" x="63.623047"/>
       <use xlink:href="#DejaVuSans-34" x="95.410156"/>
      </g>
     </g>
    </g>
    <g id="ytick_10">
     <g id="line2d_65">
      <path d="M 591.545455 155.022841 
L 972 155.022841 
" clip-path="url(#p79ecfc1d28)" style="fill: none; stroke: #b0b0b0; stroke-width: 0.8; stroke-linecap: square"/>
     </g>
     <g id="line2d_66">
      <g>
       <use xlink:href="#mbdc9900c64" x="591.545455" y="155.022841" style="stroke: #000000; stroke-width: 0.8"/>
      </g>
     </g>
     <g id="text_37">
      <!-- 0.6 -->
      <g transform="translate(568.64233 158.82206)scale(0.1 -0.1)">
       <use xlink:href="#DejaVuSans-30"/>
       <use xlink:href="#DejaVuSans-2e" x="63.623047"/>
       <use xlink:href="#DejaVuSans-36" x="95.410156"/>
      </g>
     </g>
    </g>
    <g id="ytick_11">
     <g id="line2d_67">
      <path d="M 591.545455 104.097114 
L 972 104.097114 
" clip-path="url(#p79ecfc1d28)" style="fill: none; stroke: #b0b0b0; stroke-width: 0.8; stroke-linecap: square"/>
     </g>
     <g id="line2d_68">
      <g>
       <use xlink:href="#mbdc9900c64" x="591.545455" y="104.097114" style="stroke: #000000; stroke-width: 0.8"/>
      </g>
     </g>
     <g id="text_38">
      <!-- 0.8 -->
      <g transform="translate(568.64233 107.896333)scale(0.1 -0.1)">
       <use xlink:href="#DejaVuSans-30"/>
       <use xlink:href="#DejaVuSans-2e" x="63.623047"/>
       <use xlink:href="#DejaVuSans-38" x="95.410156"/>
      </g>
     </g>
    </g>
    <g id="ytick_12">
     <g id="line2d_69">
      <path d="M 591.545455 53.171387 
L 972 53.171387 
" clip-path="url(#p79ecfc1d28)" style="fill: none; stroke: #b0b0b0; stroke-width: 0.8; stroke-linecap: square"/>
     </g>
     <g id="line2d_70">
      <g>
       <use xlink:href="#mbdc9900c64" x="591.545455" y="53.171387" style="stroke: #000000; stroke-width: 0.8"/>
      </g>
     </g>
     <g id="text_39">
      <!-- 1.0 -->
      <g transform="translate(568.64233 56.970605)scale(0.1 -0.1)">
       <use xlink:href="#DejaVuSans-31"/>
       <use xlink:href="#DejaVuSans-2e" x="63.623047"/>
       <use xlink:href="#DejaVuSans-30" x="95.410156"/>
      </g>
     </g>
    </g>
    <g id="text_40">
     <!-- $\Delta$ -->
     <g transform="translate(562.562642 185.25)rotate(-90)scale(0.1 -0.1)">
      <use xlink:href="#DejaVuSans-394" transform="translate(0 0.09375)"/>
     </g>
    </g>
   </g>
   <g id="line2d_71">
    <path d="M 608.838843 307.690386 
L 610.576872 307.791905 
L 612.314901 307.692948 
L 614.05293 307.289137 
L 615.790959 306.14732 
L 617.528988 304.10315 
L 619.267017 300.603532 
L 621.005046 295.116284 
L 622.743075 288.357693 
L 624.481104 280.526843 
L 626.219133 271.959414 
L 634.909278 226.253092 
L 638.385336 209.3776 
L 640.123365 201.376711 
L 643.599423 186.852492 
L 647.075481 173.842048 
L 650.551539 162.271744 
L 652.289568 156.99048 
L 655.765626 147.503225 
L 659.241684 139.277719 
L 660.979713 135.379769 
L 664.455771 128.406011 
L 667.931829 122.086349 
L 669.669858 119.197627 
L 674.883945 111.594536 
L 678.360002 107.23806 
L 681.83606 103.337402 
L 685.312118 99.834957 
L 690.526205 95.267569 
L 694.002263 92.64402 
L 695.740292 95.45111 
L 699.21635 92.934213 
L 702.692408 90.634983 
L 706.168466 88.530229 
L 711.382553 85.693809 
L 716.59664 83.190785 
L 721.810727 80.972388 
L 727.024814 78.998069 
L 732.238901 77.233982 
L 739.191017 75.160524 
L 746.143133 73.355709 
L 753.095249 71.775363 
L 761.785394 70.061981 
L 770.475539 68.588884 
L 780.903713 67.078361 
L 791.331887 65.794828 
L 803.49809 64.526499 
L 817.402322 63.316049 
L 833.044582 62.191194 
L 850.424872 61.166883 
L 876.495307 59.898504 
L 902.565742 58.988921 
L 932.112235 58.186671 
L 954.706612 57.692963 
L 954.706612 57.692963 
" clip-path="url(#p79ecfc1d28)" style="fill: none; stroke: #1f77b4; stroke-width: 1.5; stroke-linecap: square"/>
   </g>
   <g id="line2d_72">
    <path d="M 608.838843 270.708358 
L 610.576872 307.796392 
L 612.314901 307.136819 
L 614.05293 305.254131 
L 615.790959 302.356677 
L 617.528988 298.600412 
L 619.267017 294.058711 
L 621.005046 288.740069 
L 622.743075 286.138147 
L 624.481104 279.944137 
L 627.957162 266.165849 
L 633.171249 243.588463 
L 634.909278 235.948117 
L 636.647307 222.635461 
L 640.123365 208.285635 
L 643.599423 194.984726 
L 647.075481 182.800851 
L 650.551539 171.726062 
L 654.027597 161.710419 
L 657.503655 152.682166 
L 660.979713 144.559825 
L 664.455771 137.259518 
L 667.931829 130.699363 
L 671.407887 124.802019 
L 674.883945 119.496013 
L 676.621974 117.04418 
L 678.360002 108.528507 
L 681.83606 104.937375 
L 685.312118 101.673133 
L 688.788176 98.699584 
L 692.264234 95.985123 
L 695.740292 93.502082 
L 699.21635 91.226188 
L 704.430437 88.154764 
L 709.644524 85.440309 
L 714.858611 83.031581 
L 720.072698 80.885822 
L 725.286785 78.967203 
L 730.500872 77.245572 
L 737.452988 75.213026 
L 744.405104 73.435817 
L 751.35722 71.8735 
L 760.047365 70.173218 
L 768.73751 68.7061 
L 779.165684 67.196773 
L 789.593858 65.910483 
L 801.760061 64.636214 
L 815.664293 63.417333 
L 831.306553 62.282469 
L 848.686843 61.247471 
L 869.543191 60.242702 
L 893.875597 59.312329 
L 921.684061 58.479394 
L 954.706612 57.715736 
L 954.706612 57.715736 
" clip-path="url(#p79ecfc1d28)" style="fill: none; stroke: #ff7f0e; stroke-width: 1.5; stroke-linecap: square"/>
   </g>
   <g id="line2d_73">
    <path d="M 608.838843 307.79998 
L 612.314901 307.702711 
L 614.05293 307.229434 
L 615.790959 305.931309 
L 617.528988 303.217596 
L 619.267017 299.026435 
L 621.005046 293.057888 
L 622.743075 286.298295 
L 626.219133 270.402269 
L 629.695191 252.655576 
L 634.909278 224.9533 
L 638.385336 207.929109 
L 641.861394 192.385472 
L 645.337452 178.337843 
L 648.81351 165.911074 
L 652.289568 154.909443 
L 654.027597 149.875798 
L 657.503655 140.753669 
L 660.979713 132.706488 
L 664.455771 125.601371 
L 667.931829 119.318012 
L 671.407887 113.749785 
L 674.883945 108.803444 
L 678.360002 104.398102 
L 681.83606 100.463945 
L 685.312118 96.940865 
L 688.788176 93.777171 
L 692.264234 90.957553 
L 695.740292 88.383777 
L 699.21635 86.0538 
L 704.430437 82.968367 
L 707.906495 81.130662 
L 713.120582 78.680872 
L 718.334669 76.533023 
L 721.810727 75.237101 
L 728.762843 72.966183 
L 733.97693 71.477777 
L 739.191017 70.149519 
L 747.881162 68.226418 
L 756.571307 66.631908 
L 766.999481 65.018115 
L 777.427655 63.700507 
L 791.331887 62.2551 
L 806.974148 60.970444 
L 824.354437 59.875071 
L 846.948814 58.774867 
L 871.28122 57.913526 
L 899.089684 57.209366 
L 928.636177 56.682334 
L 954.706612 56.261521 
L 954.706612 56.261521 
" clip-path="url(#p79ecfc1d28)" style="fill: none; stroke: #2ca02c; stroke-width: 1.5; stroke-linecap: square"/>
   </g>
   <g id="line2d_74">
    <path d="M 608.838843 307.799991 
L 612.314901 307.712953 
L 614.05293 307.266498 
L 615.790959 305.985468 
L 617.528988 303.26352 
L 619.267017 299.017514 
L 621.005046 293.348573 
L 622.743075 286.055902 
L 624.481104 278.275438 
L 626.219133 269.85015 
L 629.695191 251.820038 
L 638.385336 207.981821 
L 640.123365 199.909615 
L 643.599423 185.116747 
L 647.075481 171.903819 
L 650.551539 160.186082 
L 654.027597 149.833047 
L 657.503655 140.74494 
L 659.241684 136.564169 
L 662.717742 128.994118 
L 666.1938 122.306392 
L 669.669858 116.4196 
L 673.145916 111.164093 
L 676.621974 106.490392 
L 680.098031 102.322939 
L 683.574089 98.59665 
L 687.050147 95.279669 
L 690.526205 92.272868 
L 694.002263 89.562217 
L 697.478321 87.111992 
L 700.954379 84.911573 
L 704.430437 82.891842 
L 709.644524 80.203165 
L 714.858611 77.853489 
L 720.072698 75.789812 
L 725.286785 73.968778 
L 732.238901 71.863118 
L 739.191017 70.057708 
L 746.143133 68.499117 
L 754.833278 66.83885 
L 761.785394 65.693747 
L 768.73751 64.686296 
L 775.689626 63.795542 
L 784.379771 62.808438 
L 796.545974 61.666261 
L 812.188235 60.468451 
L 831.306553 59.329918 
L 853.90093 58.31067 
L 881.709394 57.373558 
L 914.731945 56.59217 
L 954.706612 55.935805 
L 954.706612 55.935805 
" clip-path="url(#p79ecfc1d28)" style="fill: none; stroke: #d62728; stroke-width: 1.5; stroke-linecap: square"/>
   </g>
   <g id="line2d_75">
    <path d="M 608.838843 307.8 
L 612.314901 307.693055 
L 614.05293 307.231229 
L 615.790959 305.949694 
L 617.528988 303.207667 
L 619.267017 298.897286 
L 621.005046 293.109266 
L 622.743075 286.103111 
L 624.481104 278.188952 
L 627.957162 260.725199 
L 629.695191 251.042069 
L 634.909278 224.418218 
L 638.385336 207.924719 
L 641.861394 192.471859 
L 643.599423 185.157237 
L 647.075481 172.045256 
L 648.81351 165.891803 
L 652.289568 154.839535 
L 655.765626 145.152797 
L 657.503655 140.688878 
L 660.979713 132.664473 
L 662.717742 128.968479 
L 666.1938 122.275432 
L 669.669858 116.377478 
L 673.145916 111.119192 
L 676.621974 106.469213 
L 680.098031 102.296243 
L 683.574089 98.566803 
L 687.050147 95.242857 
L 690.526205 92.234109 
L 694.002263 89.541372 
L 697.478321 87.087383 
L 700.954379 84.864434 
L 704.430437 82.860145 
L 709.644524 80.167304 
L 714.858611 77.814131 
L 720.072698 75.747521 
L 725.286785 73.937427 
L 730.500872 72.319954 
L 737.452988 70.440047 
L 744.405104 68.819512 
L 753.095249 67.094347 
L 761.785394 65.636867 
L 772.213568 64.171558 
L 780.903713 63.125015 
L 793.069916 61.908635 
L 806.974148 60.775958 
L 817.402322 60.052722 
L 834.782611 59.078505 
L 857.376988 58.092206 
L 871.28122 57.597074 
L 900.827713 56.786276 
L 939.064351 56.036073 
L 954.706612 55.8 
L 954.706612 55.8 
" clip-path="url(#p79ecfc1d28)" style="fill: none; stroke: #9467bd; stroke-width: 1.5; stroke-linecap: square"/>
   </g>
   <g id="patch_9">
    <path d="M 591.545455 320.4 
L 591.545455 43.2 
" style="fill: none; stroke: #000000; stroke-width: 0.8; stroke-linejoin: miter; stroke-linecap: square"/>
   </g>
   <g id="patch_10">
    <path d="M 972 320.4 
L 972 43.2 
" style="fill: none; stroke: #000000; stroke-width: 0.8; stroke-linejoin: miter; stroke-linecap: square"/>
   </g>
   <g id="patch_11">
    <path d="M 591.545455 320.4 
L 972 320.4 
" style="fill: none; stroke: #000000; stroke-width: 0.8; stroke-linejoin: miter; stroke-linecap: square"/>
   </g>
   <g id="patch_12">
    <path d="M 591.545455 43.2 
L 972 43.2 
" style="fill: none; stroke: #000000; stroke-width: 0.8; stroke-linejoin: miter; stroke-linecap: square"/>
   </g>
   <g id="text_41">
    <!-- $\Delta_{CDW}^2 + (1-J/U)^2\Delta_{SC}^2$ -->
    <g transform="translate(722.852727 37.2)scale(0.12 -0.12)">
     <defs>
      <path id="DejaVuSans-28" d="M 1984 4856 
Q 1566 4138 1362 3434 
Q 1159 2731 1159 2009 
Q 1159 1288 1364 580 
Q 1569 -128 1984 -844 
L 1484 -844 
Q 1016 -109 783 600 
Q 550 1309 550 2009 
Q 550 2706 781 3412 
Q 1013 4119 1484 4856 
L 1984 4856 
z
" transform="scale(0.015625)"/>
      <path id="DejaVuSans-2212" d="M 678 2272 
L 4684 2272 
L 4684 1741 
L 678 1741 
L 678 2272 
z
" transform="scale(0.015625)"/>
      <path id="DejaVuSans-Oblique-4a" d="M 1069 4666 
L 1703 4666 
L 856 325 
Q 691 -522 298 -901 
Q -94 -1281 -800 -1281 
L -1050 -1281 
L -947 -750 
L -750 -750 
Q -328 -750 -109 -509 
Q 109 -269 225 325 
L 1069 4666 
z
" transform="scale(0.015625)"/>
      <path id="DejaVuSans-Oblique-55" d="M 991 4666 
L 1625 4666 
L 1075 1831 
Q 1041 1641 1027 1517 
Q 1013 1394 1013 1300 
Q 1013 869 1253 645 
Q 1494 422 1959 422 
Q 2563 422 2898 753 
Q 3234 1084 3378 1831 
L 3928 4666 
L 4563 4666 
L 4000 1753 
Q 3816 809 3300 359 
Q 2784 -91 1888 -91 
Q 1188 -91 780 261 
Q 372 613 372 1216 
Q 372 1325 387 1461 
Q 403 1597 434 1753 
L 991 4666 
z
" transform="scale(0.015625)"/>
      <path id="DejaVuSans-29" d="M 513 4856 
L 1013 4856 
Q 1481 4119 1714 3412 
Q 1947 2706 1947 2009 
Q 1947 1309 1714 600 
Q 1481 -109 1013 -844 
L 513 -844 
Q 928 -128 1133 580 
Q 1338 1288 1338 2009 
Q 1338 2731 1133 3434 
Q 928 4138 513 4856 
z
" transform="scale(0.015625)"/>
     </defs>
     <use xlink:href="#DejaVuSans-394" transform="translate(0 0.765625)"/>
     <use xlink:href="#DejaVuSans-32" transform="translate(69.365234 39.046875)scale(0.7)"/>
     <use xlink:href="#DejaVuSans-Oblique-43" transform="translate(69.365234 -26.578125)scale(0.7)"/>
     <use xlink:href="#DejaVuSans-Oblique-44" transform="translate(118.242188 -26.578125)scale(0.7)"/>
     <use xlink:href="#DejaVuSans-Oblique-57" transform="translate(172.143555 -26.578125)scale(0.7)"/>
     <use xlink:href="#DejaVuSans-2b" transform="translate(263.574219 0.765625)"/>
     <use xlink:href="#DejaVuSans-28" transform="translate(366.845703 0.765625)"/>
     <use xlink:href="#DejaVuSans-31" transform="translate(405.859375 0.765625)"/>
     <use xlink:href="#DejaVuSans-2212" transform="translate(488.964844 0.765625)"/>
     <use xlink:href="#DejaVuSans-Oblique-4a" transform="translate(592.236328 0.765625)"/>
     <use xlink:href="#DejaVuSans-2f" transform="translate(621.728516 0.765625)"/>
     <use xlink:href="#DejaVuSans-Oblique-55" transform="translate(655.419922 0.765625)"/>
     <use xlink:href="#DejaVuSans-29" transform="translate(728.613281 0.765625)"/>
     <use xlink:href="#DejaVuSans-32" transform="translate(768.583984 39.046875)scale(0.7)"/>
     <use xlink:href="#DejaVuSans-394" transform="translate(815.854492 0.765625)"/>
     <use xlink:href="#DejaVuSans-32" transform="translate(885.219727 39.046875)scale(0.7)"/>
     <use xlink:href="#DejaVuSans-Oblique-53" transform="translate(885.219727 -26.578125)scale(0.7)"/>
     <use xlink:href="#DejaVuSans-Oblique-43" transform="translate(929.65332 -26.578125)scale(0.7)"/>
    </g>
   </g>
   <g id="legend_2">
    <g id="patch_13">
     <path d="M 598.545455 124.590625 
L 657.778267 124.590625 
Q 659.778267 124.590625 659.778267 122.590625 
L 659.778267 50.2 
Q 659.778267 48.2 657.778267 48.2 
L 598.545455 48.2 
Q 596.545455 48.2 596.545455 50.2 
L 596.545455 122.590625 
Q 596.545455 124.590625 598.545455 124.590625 
z
" style="fill: #ffffff; opacity: 0.8; stroke: #cccccc; stroke-linejoin: miter"/>
    </g>
    <g id="line2d_76">
     <path d="M 600.545455 56.298437 
L 610.545455 56.298437 
L 620.545455 56.298437 
" style="fill: none; stroke: #1f77b4; stroke-width: 1.5; stroke-linecap: square"/>
    </g>
    <g id="text_42">
     <!-- J=0.1 -->
     <g transform="translate(628.545455 59.798437)scale(0.1 -0.1)">
      <use xlink:href="#DejaVuSans-4a"/>
      <use xlink:href="#DejaVuSans-3d" x="29.492188"/>
      <use xlink:href="#DejaVuSans-30" x="113.28125"/>
      <use xlink:href="#DejaVuSans-2e" x="176.904297"/>
      <use xlink:href="#DejaVuSans-31" x="208.691406"/>
     </g>
    </g>
    <g id="line2d_77">
     <path d="M 600.545455 70.976562 
L 610.545455 70.976562 
L 620.545455 70.976562 
" style="fill: none; stroke: #ff7f0e; stroke-width: 1.5; stroke-linecap: square"/>
    </g>
    <g id="text_43">
     <!-- J=0.3 -->
     <g transform="translate(628.545455 74.476562)scale(0.1 -0.1)">
      <use xlink:href="#DejaVuSans-4a"/>
      <use xlink:href="#DejaVuSans-3d" x="29.492188"/>
      <use xlink:href="#DejaVuSans-30" x="113.28125"/>
      <use xlink:href="#DejaVuSans-2e" x="176.904297"/>
      <use xlink:href="#DejaVuSans-33" x="208.691406"/>
     </g>
    </g>
    <g id="line2d_78">
     <path d="M 600.545455 85.654687 
L 610.545455 85.654687 
L 620.545455 85.654687 
" style="fill: none; stroke: #2ca02c; stroke-width: 1.5; stroke-linecap: square"/>
    </g>
    <g id="text_44">
     <!-- J=0.5 -->
     <g transform="translate(628.545455 89.154687)scale(0.1 -0.1)">
      <use xlink:href="#DejaVuSans-4a"/>
      <use xlink:href="#DejaVuSans-3d" x="29.492188"/>
      <use xlink:href="#DejaVuSans-30" x="113.28125"/>
      <use xlink:href="#DejaVuSans-2e" x="176.904297"/>
      <use xlink:href="#DejaVuSans-35" x="208.691406"/>
     </g>
    </g>
    <g id="line2d_79">
     <path d="M 600.545455 100.332812 
L 610.545455 100.332812 
L 620.545455 100.332812 
" style="fill: none; stroke: #d62728; stroke-width: 1.5; stroke-linecap: square"/>
    </g>
    <g id="text_45">
     <!-- J=0.7 -->
     <g transform="translate(628.545455 103.832812)scale(0.1 -0.1)">
      <use xlink:href="#DejaVuSans-4a"/>
      <use xlink:href="#DejaVuSans-3d" x="29.492188"/>
      <use xlink:href="#DejaVuSans-30" x="113.28125"/>
      <use xlink:href="#DejaVuSans-2e" x="176.904297"/>
      <use xlink:href="#DejaVuSans-37" x="208.691406"/>
     </g>
    </g>
    <g id="line2d_80">
     <path d="M 600.545455 115.010937 
L 610.545455 115.010937 
L 620.545455 115.010937 
" style="fill: none; stroke: #9467bd; stroke-width: 1.5; stroke-linecap: square"/>
    </g>
    <g id="text_46">
     <!-- J=1 -->
     <g transform="translate(628.545455 118.510937)scale(0.1 -0.1)">
      <use xlink:href="#DejaVuSans-4a"/>
      <use xlink:href="#DejaVuSans-3d" x="29.492188"/>
      <use xlink:href="#DejaVuSans-31" x="113.28125"/>
     </g>
    </g>
   </g>
  </g>
 </g>
 <defs>
  <clipPath id="pb5ece1f702">
   <rect x="135" y="43.2" width="380.454545" height="277.2"/>
  </clipPath>
  <clipPath id="p79ecfc1d28">
   <rect x="591.545455" y="43.2" width="380.454545" height="277.2"/>
  </clipPath>
 </defs>
</svg>
