<?xml version="1.0" encoding="utf-8" standalone="no"?>
<!DOCTYPE svg PUBLIC "-//W3C//DTD SVG 1.1//EN"
  "http://www.w3.org/Graphics/SVG/1.1/DTD/svg11.dtd">
<svg xmlns:xlink="http://www.w3.org/1999/xlink" width="1080pt" height="360pt" viewBox="0 0 1080 360" xmlns="http://www.w3.org/2000/svg" version="1.1">
 <metadata>
  <rdf:RDF xmlns:dc="http://purl.org/dc/elements/1.1/" xmlns:cc="http://creativecommons.org/ns#" xmlns:rdf="http://www.w3.org/1999/02/22-rdf-syntax-ns#">
   <cc:Work>
    <dc:type rdf:resource="http://purl.org/dc/dcmitype/StillImage"/>
    <dc:date>2024-02-28T16:33:44.200269</dc:date>
    <dc:format>image/svg+xml</dc:format>
    <dc:creator>
     <cc:Agent>
      <dc:title>Matplotlib v3.5.3, https://matplotlib.org/</dc:title>
     </cc:Agent>
    </dc:creator>
   </cc:Work>
  </rdf:RDF>
 </metadata>
 <defs>
  <style type="text/css">*{stroke-linejoin: round; stroke-linecap: butt}</style>
 </defs>
 <g id="figure_1">
  <g id="patch_1">
   <path d="M 0 360 
L 1080 360 
L 1080 0 
L 0 0 
z
" style="fill: #ffffff"/>
  </g>
  <g id="axes_1">
   <g id="patch_2">
    <path d="M 135 320.4 
L 515.454545 320.4 
L 515.454545 43.2 
L 135 43.2 
z
" style="fill: #ffffff"/>
   </g>
   <g id="matplotlib.axis_1">
    <g id="xtick_1">
     <g id="line2d_1">
      <path d="M 152.120368 320.4 
L 152.120368 43.2 
" clip-path="url(#p2ab96ebf59)" style="fill: none; stroke: #b0b0b0; stroke-width: 0.8; stroke-linecap: square"/>
     </g>
     <g id="line2d_2">
      <defs>
       <path id="m8e6b99c7b9" d="M 0 0 
L 0 3.5 
" style="stroke: #000000; stroke-width: 0.8"/>
      </defs>
      <g>
       <use xlink:href="#m8e6b99c7b9" x="152.120368" y="320.4" style="stroke: #000000; stroke-width: 0.8"/>
      </g>
     </g>
     <g id="text_1">
      <!-- 0.0 -->
      <g transform="translate(144.168806 334.998438)scale(0.1 -0.1)">
       <defs>
        <path id="DejaVuSans-30" d="M 2034 4250 
Q 1547 4250 1301 3770 
Q 1056 3291 1056 2328 
Q 1056 1369 1301 889 
Q 1547 409 2034 409 
Q 2525 409 2770 889 
Q 3016 1369 3016 2328 
Q 3016 3291 2770 3770 
Q 2525 4250 2034 4250 
z
M 2034 4750 
Q 2819 4750 3233 4129 
Q 3647 3509 3647 2328 
Q 3647 1150 3233 529 
Q 2819 -91 2034 -91 
Q 1250 -91 836 529 
Q 422 1150 422 2328 
Q 422 3509 836 4129 
Q 1250 4750 2034 4750 
z
" transform="scale(0.015625)"/>
        <path id="DejaVuSans-2e" d="M 684 794 
L 1344 794 
L 1344 0 
L 684 0 
L 684 794 
z
" transform="scale(0.015625)"/>
       </defs>
       <use xlink:href="#DejaVuSans-30"/>
       <use xlink:href="#DejaVuSans-2e" x="63.623047"/>
       <use xlink:href="#DejaVuSans-30" x="95.410156"/>
      </g>
     </g>
    </g>
    <g id="xtick_2">
     <g id="line2d_3">
      <path d="M 195.375467 320.4 
L 195.375467 43.2 
" clip-path="url(#p2ab96ebf59)" style="fill: none; stroke: #b0b0b0; stroke-width: 0.8; stroke-linecap: square"/>
     </g>
     <g id="line2d_4">
      <g>
       <use xlink:href="#m8e6b99c7b9" x="195.375467" y="320.4" style="stroke: #000000; stroke-width: 0.8"/>
      </g>
     </g>
     <g id="text_2">
      <!-- 2.5 -->
      <g transform="translate(187.423904 334.998438)scale(0.1 -0.1)">
       <defs>
        <path id="DejaVuSans-32" d="M 1228 531 
L 3431 531 
L 3431 0 
L 469 0 
L 469 531 
Q 828 903 1448 1529 
Q 2069 2156 2228 2338 
Q 2531 2678 2651 2914 
Q 2772 3150 2772 3378 
Q 2772 3750 2511 3984 
Q 2250 4219 1831 4219 
Q 1534 4219 1204 4116 
Q 875 4013 500 3803 
L 500 4441 
Q 881 4594 1212 4672 
Q 1544 4750 1819 4750 
Q 2544 4750 2975 4387 
Q 3406 4025 3406 3419 
Q 3406 3131 3298 2873 
Q 3191 2616 2906 2266 
Q 2828 2175 2409 1742 
Q 1991 1309 1228 531 
z
" transform="scale(0.015625)"/>
        <path id="DejaVuSans-35" d="M 691 4666 
L 3169 4666 
L 3169 4134 
L 1269 4134 
L 1269 2991 
Q 1406 3038 1543 3061 
Q 1681 3084 1819 3084 
Q 2600 3084 3056 2656 
Q 3513 2228 3513 1497 
Q 3513 744 3044 326 
Q 2575 -91 1722 -91 
Q 1428 -91 1123 -41 
Q 819 9 494 109 
L 494 744 
Q 775 591 1075 516 
Q 1375 441 1709 441 
Q 2250 441 2565 725 
Q 2881 1009 2881 1497 
Q 2881 1984 2565 2268 
Q 2250 2553 1709 2553 
Q 1456 2553 1204 2497 
Q 953 2441 691 2322 
L 691 4666 
z
" transform="scale(0.015625)"/>
       </defs>
       <use xlink:href="#DejaVuSans-32"/>
       <use xlink:href="#DejaVuSans-2e" x="63.623047"/>
       <use xlink:href="#DejaVuSans-35" x="95.410156"/>
      </g>
     </g>
    </g>
    <g id="xtick_3">
     <g id="line2d_5">
      <path d="M 238.630565 320.4 
L 238.630565 43.2 
" clip-path="url(#p2ab96ebf59)" style="fill: none; stroke: #b0b0b0; stroke-width: 0.8; stroke-linecap: square"/>
     </g>
     <g id="line2d_6">
      <g>
       <use xlink:href="#m8e6b99c7b9" x="238.630565" y="320.4" style="stroke: #000000; stroke-width: 0.8"/>
      </g>
     </g>
     <g id="text_3">
      <!-- 5.0 -->
      <g transform="translate(230.679003 334.998438)scale(0.1 -0.1)">
       <use xlink:href="#DejaVuSans-35"/>
       <use xlink:href="#DejaVuSans-2e" x="63.623047"/>
       <use xlink:href="#DejaVuSans-30" x="95.410156"/>
      </g>
     </g>
    </g>
    <g id="xtick_4">
     <g id="line2d_7">
      <path d="M 281.885664 320.4 
L 281.885664 43.2 
" clip-path="url(#p2ab96ebf59)" style="fill: none; stroke: #b0b0b0; stroke-width: 0.8; stroke-linecap: square"/>
     </g>
     <g id="line2d_8">
      <g>
       <use xlink:href="#m8e6b99c7b9" x="281.885664" y="320.4" style="stroke: #000000; stroke-width: 0.8"/>
      </g>
     </g>
     <g id="text_4">
      <!-- 7.5 -->
      <g transform="translate(273.934101 334.998438)scale(0.1 -0.1)">
       <defs>
        <path id="DejaVuSans-37" d="M 525 4666 
L 3525 4666 
L 3525 4397 
L 1831 0 
L 1172 0 
L 2766 4134 
L 525 4134 
L 525 4666 
z
" transform="scale(0.015625)"/>
       </defs>
       <use xlink:href="#DejaVuSans-37"/>
       <use xlink:href="#DejaVuSans-2e" x="63.623047"/>
       <use xlink:href="#DejaVuSans-35" x="95.410156"/>
      </g>
     </g>
    </g>
    <g id="xtick_5">
     <g id="line2d_9">
      <path d="M 325.140763 320.4 
L 325.140763 43.2 
" clip-path="url(#p2ab96ebf59)" style="fill: none; stroke: #b0b0b0; stroke-width: 0.8; stroke-linecap: square"/>
     </g>
     <g id="line2d_10">
      <g>
       <use xlink:href="#m8e6b99c7b9" x="325.140763" y="320.4" style="stroke: #000000; stroke-width: 0.8"/>
      </g>
     </g>
     <g id="text_5">
      <!-- 10.0 -->
      <g transform="translate(314.00795 334.998438)scale(0.1 -0.1)">
       <defs>
        <path id="DejaVuSans-31" d="M 794 531 
L 1825 531 
L 1825 4091 
L 703 3866 
L 703 4441 
L 1819 4666 
L 2450 4666 
L 2450 531 
L 3481 531 
L 3481 0 
L 794 0 
L 794 531 
z
" transform="scale(0.015625)"/>
       </defs>
       <use xlink:href="#DejaVuSans-31"/>
       <use xlink:href="#DejaVuSans-30" x="63.623047"/>
       <use xlink:href="#DejaVuSans-2e" x="127.246094"/>
       <use xlink:href="#DejaVuSans-30" x="159.033203"/>
      </g>
     </g>
    </g>
    <g id="xtick_6">
     <g id="line2d_11">
      <path d="M 368.395861 320.4 
L 368.395861 43.2 
" clip-path="url(#p2ab96ebf59)" style="fill: none; stroke: #b0b0b0; stroke-width: 0.8; stroke-linecap: square"/>
     </g>
     <g id="line2d_12">
      <g>
       <use xlink:href="#m8e6b99c7b9" x="368.395861" y="320.4" style="stroke: #000000; stroke-width: 0.8"/>
      </g>
     </g>
     <g id="text_6">
      <!-- 12.5 -->
      <g transform="translate(357.263049 334.998438)scale(0.1 -0.1)">
       <use xlink:href="#DejaVuSans-31"/>
       <use xlink:href="#DejaVuSans-32" x="63.623047"/>
       <use xlink:href="#DejaVuSans-2e" x="127.246094"/>
       <use xlink:href="#DejaVuSans-35" x="159.033203"/>
      </g>
     </g>
    </g>
    <g id="xtick_7">
     <g id="line2d_13">
      <path d="M 411.65096 320.4 
L 411.65096 43.2 
" clip-path="url(#p2ab96ebf59)" style="fill: none; stroke: #b0b0b0; stroke-width: 0.8; stroke-linecap: square"/>
     </g>
     <g id="line2d_14">
      <g>
       <use xlink:href="#m8e6b99c7b9" x="411.65096" y="320.4" style="stroke: #000000; stroke-width: 0.8"/>
      </g>
     </g>
     <g id="text_7">
      <!-- 15.0 -->
      <g transform="translate(400.518147 334.998438)scale(0.1 -0.1)">
       <use xlink:href="#DejaVuSans-31"/>
       <use xlink:href="#DejaVuSans-35" x="63.623047"/>
       <use xlink:href="#DejaVuSans-2e" x="127.246094"/>
       <use xlink:href="#DejaVuSans-30" x="159.033203"/>
      </g>
     </g>
    </g>
    <g id="xtick_8">
     <g id="line2d_15">
      <path d="M 454.906058 320.4 
L 454.906058 43.2 
" clip-path="url(#p2ab96ebf59)" style="fill: none; stroke: #b0b0b0; stroke-width: 0.8; stroke-linecap: square"/>
     </g>
     <g id="line2d_16">
      <g>
       <use xlink:href="#m8e6b99c7b9" x="454.906058" y="320.4" style="stroke: #000000; stroke-width: 0.8"/>
      </g>
     </g>
     <g id="text_8">
      <!-- 17.5 -->
      <g transform="translate(443.773246 334.998438)scale(0.1 -0.1)">
       <use xlink:href="#DejaVuSans-31"/>
       <use xlink:href="#DejaVuSans-37" x="63.623047"/>
       <use xlink:href="#DejaVuSans-2e" x="127.246094"/>
       <use xlink:href="#DejaVuSans-35" x="159.033203"/>
      </g>
     </g>
    </g>
    <g id="xtick_9">
     <g id="line2d_17">
      <path d="M 498.161157 320.4 
L 498.161157 43.2 
" clip-path="url(#p2ab96ebf59)" style="fill: none; stroke: #b0b0b0; stroke-width: 0.8; stroke-linecap: square"/>
     </g>
     <g id="line2d_18">
      <g>
       <use xlink:href="#m8e6b99c7b9" x="498.161157" y="320.4" style="stroke: #000000; stroke-width: 0.8"/>
      </g>
     </g>
     <g id="text_9">
      <!-- 20.0 -->
      <g transform="translate(487.028345 334.998438)scale(0.1 -0.1)">
       <use xlink:href="#DejaVuSans-32"/>
       <use xlink:href="#DejaVuSans-30" x="63.623047"/>
       <use xlink:href="#DejaVuSans-2e" x="127.246094"/>
       <use xlink:href="#DejaVuSans-30" x="159.033203"/>
      </g>
     </g>
    </g>
    <g id="text_10">
     <!-- U/t -->
     <g transform="translate(317.923366 348.676562)scale(0.1 -0.1)">
      <defs>
       <path id="DejaVuSans-55" d="M 556 4666 
L 1191 4666 
L 1191 1831 
Q 1191 1081 1462 751 
Q 1734 422 2344 422 
Q 2950 422 3222 751 
Q 3494 1081 3494 1831 
L 3494 4666 
L 4128 4666 
L 4128 1753 
Q 4128 841 3676 375 
Q 3225 -91 2344 -91 
Q 1459 -91 1007 375 
Q 556 841 556 1753 
L 556 4666 
z
" transform="scale(0.015625)"/>
       <path id="DejaVuSans-2f" d="M 1625 4666 
L 2156 4666 
L 531 -594 
L 0 -594 
L 1625 4666 
z
" transform="scale(0.015625)"/>
       <path id="DejaVuSans-74" d="M 1172 4494 
L 1172 3500 
L 2356 3500 
L 2356 3053 
L 1172 3053 
L 1172 1153 
Q 1172 725 1289 603 
Q 1406 481 1766 481 
L 2356 481 
L 2356 0 
L 1766 0 
Q 1100 0 847 248 
Q 594 497 594 1153 
L 594 3053 
L 172 3053 
L 172 3500 
L 594 3500 
L 594 4494 
L 1172 4494 
z
" transform="scale(0.015625)"/>
      </defs>
      <use xlink:href="#DejaVuSans-55"/>
      <use xlink:href="#DejaVuSans-2f" x="73.193359"/>
      <use xlink:href="#DejaVuSans-74" x="106.884766"/>
     </g>
    </g>
   </g>
   <g id="matplotlib.axis_2">
    <g id="ytick_1">
     <g id="line2d_19">
      <path d="M 135 307.800001 
L 515.454545 307.800001 
" clip-path="url(#p2ab96ebf59)" style="fill: none; stroke: #b0b0b0; stroke-width: 0.8; stroke-linecap: square"/>
     </g>
     <g id="line2d_20">
      <defs>
       <path id="m2fa7312700" d="M 0 0 
L -3.5 0 
" style="stroke: #000000; stroke-width: 0.8"/>
      </defs>
      <g>
       <use xlink:href="#m2fa7312700" x="135" y="307.800001" style="stroke: #000000; stroke-width: 0.8"/>
      </g>
     </g>
     <g id="text_11">
      <!-- 0.0 -->
      <g transform="translate(112.096875 311.59922)scale(0.1 -0.1)">
       <use xlink:href="#DejaVuSans-30"/>
       <use xlink:href="#DejaVuSans-2e" x="63.623047"/>
       <use xlink:href="#DejaVuSans-30" x="95.410156"/>
      </g>
     </g>
    </g>
    <g id="ytick_2">
     <g id="line2d_21">
      <path d="M 135 256.896653 
L 515.454545 256.896653 
" clip-path="url(#p2ab96ebf59)" style="fill: none; stroke: #b0b0b0; stroke-width: 0.8; stroke-linecap: square"/>
     </g>
     <g id="line2d_22">
      <g>
       <use xlink:href="#m2fa7312700" x="135" y="256.896653" style="stroke: #000000; stroke-width: 0.8"/>
      </g>
     </g>
     <g id="text_12">
      <!-- 0.2 -->
      <g transform="translate(112.096875 260.695871)scale(0.1 -0.1)">
       <use xlink:href="#DejaVuSans-30"/>
       <use xlink:href="#DejaVuSans-2e" x="63.623047"/>
       <use xlink:href="#DejaVuSans-32" x="95.410156"/>
      </g>
     </g>
    </g>
    <g id="ytick_3">
     <g id="line2d_23">
      <path d="M 135 205.993304 
L 515.454545 205.993304 
" clip-path="url(#p2ab96ebf59)" style="fill: none; stroke: #b0b0b0; stroke-width: 0.8; stroke-linecap: square"/>
     </g>
     <g id="line2d_24">
      <g>
       <use xlink:href="#m2fa7312700" x="135" y="205.993304" style="stroke: #000000; stroke-width: 0.8"/>
      </g>
     </g>
     <g id="text_13">
      <!-- 0.4 -->
      <g transform="translate(112.096875 209.792523)scale(0.1 -0.1)">
       <defs>
        <path id="DejaVuSans-34" d="M 2419 4116 
L 825 1625 
L 2419 1625 
L 2419 4116 
z
M 2253 4666 
L 3047 4666 
L 3047 1625 
L 3713 1625 
L 3713 1100 
L 3047 1100 
L 3047 0 
L 2419 0 
L 2419 1100 
L 313 1100 
L 313 1709 
L 2253 4666 
z
" transform="scale(0.015625)"/>
       </defs>
       <use xlink:href="#DejaVuSans-30"/>
       <use xlink:href="#DejaVuSans-2e" x="63.623047"/>
       <use xlink:href="#DejaVuSans-34" x="95.410156"/>
      </g>
     </g>
    </g>
    <g id="ytick_4">
     <g id="line2d_25">
      <path d="M 135 155.089955 
L 515.454545 155.089955 
" clip-path="url(#p2ab96ebf59)" style="fill: none; stroke: #b0b0b0; stroke-width: 0.8; stroke-linecap: square"/>
     </g>
     <g id="line2d_26">
      <g>
       <use xlink:href="#m2fa7312700" x="135" y="155.089955" style="stroke: #000000; stroke-width: 0.8"/>
      </g>
     </g>
     <g id="text_14">
      <!-- 0.6 -->
      <g transform="translate(112.096875 158.889174)scale(0.1 -0.1)">
       <defs>
        <path id="DejaVuSans-36" d="M 2113 2584 
Q 1688 2584 1439 2293 
Q 1191 2003 1191 1497 
Q 1191 994 1439 701 
Q 1688 409 2113 409 
Q 2538 409 2786 701 
Q 3034 994 3034 1497 
Q 3034 2003 2786 2293 
Q 2538 2584 2113 2584 
z
M 3366 4563 
L 3366 3988 
Q 3128 4100 2886 4159 
Q 2644 4219 2406 4219 
Q 1781 4219 1451 3797 
Q 1122 3375 1075 2522 
Q 1259 2794 1537 2939 
Q 1816 3084 2150 3084 
Q 2853 3084 3261 2657 
Q 3669 2231 3669 1497 
Q 3669 778 3244 343 
Q 2819 -91 2113 -91 
Q 1303 -91 875 529 
Q 447 1150 447 2328 
Q 447 3434 972 4092 
Q 1497 4750 2381 4750 
Q 2619 4750 2861 4703 
Q 3103 4656 3366 4563 
z
" transform="scale(0.015625)"/>
       </defs>
       <use xlink:href="#DejaVuSans-30"/>
       <use xlink:href="#DejaVuSans-2e" x="63.623047"/>
       <use xlink:href="#DejaVuSans-36" x="95.410156"/>
      </g>
     </g>
    </g>
    <g id="ytick_5">
     <g id="line2d_27">
      <path d="M 135 104.186607 
L 515.454545 104.186607 
" clip-path="url(#p2ab96ebf59)" style="fill: none; stroke: #b0b0b0; stroke-width: 0.8; stroke-linecap: square"/>
     </g>
     <g id="line2d_28">
      <g>
       <use xlink:href="#m2fa7312700" x="135" y="104.186607" style="stroke: #000000; stroke-width: 0.8"/>
      </g>
     </g>
     <g id="text_15">
      <!-- 0.8 -->
      <g transform="translate(112.096875 107.985825)scale(0.1 -0.1)">
       <defs>
        <path id="DejaVuSans-38" d="M 2034 2216 
Q 1584 2216 1326 1975 
Q 1069 1734 1069 1313 
Q 1069 891 1326 650 
Q 1584 409 2034 409 
Q 2484 409 2743 651 
Q 3003 894 3003 1313 
Q 3003 1734 2745 1975 
Q 2488 2216 2034 2216 
z
M 1403 2484 
Q 997 2584 770 2862 
Q 544 3141 544 3541 
Q 544 4100 942 4425 
Q 1341 4750 2034 4750 
Q 2731 4750 3128 4425 
Q 3525 4100 3525 3541 
Q 3525 3141 3298 2862 
Q 3072 2584 2669 2484 
Q 3125 2378 3379 2068 
Q 3634 1759 3634 1313 
Q 3634 634 3220 271 
Q 2806 -91 2034 -91 
Q 1263 -91 848 271 
Q 434 634 434 1313 
Q 434 1759 690 2068 
Q 947 2378 1403 2484 
z
M 1172 3481 
Q 1172 3119 1398 2916 
Q 1625 2713 2034 2713 
Q 2441 2713 2670 2916 
Q 2900 3119 2900 3481 
Q 2900 3844 2670 4047 
Q 2441 4250 2034 4250 
Q 1625 4250 1398 4047 
Q 1172 3844 1172 3481 
z
" transform="scale(0.015625)"/>
       </defs>
       <use xlink:href="#DejaVuSans-30"/>
       <use xlink:href="#DejaVuSans-2e" x="63.623047"/>
       <use xlink:href="#DejaVuSans-38" x="95.410156"/>
      </g>
     </g>
    </g>
    <g id="ytick_6">
     <g id="line2d_29">
      <path d="M 135 53.283258 
L 515.454545 53.283258 
" clip-path="url(#p2ab96ebf59)" style="fill: none; stroke: #b0b0b0; stroke-width: 0.8; stroke-linecap: square"/>
     </g>
     <g id="line2d_30">
      <g>
       <use xlink:href="#m2fa7312700" x="135" y="53.283258" style="stroke: #000000; stroke-width: 0.8"/>
      </g>
     </g>
     <g id="text_16">
      <!-- 1.0 -->
      <g transform="translate(112.096875 57.082477)scale(0.1 -0.1)">
       <use xlink:href="#DejaVuSans-31"/>
       <use xlink:href="#DejaVuSans-2e" x="63.623047"/>
       <use xlink:href="#DejaVuSans-30" x="95.410156"/>
      </g>
     </g>
    </g>
    <g id="text_17">
     <!-- $\Delta$ -->
     <g transform="translate(106.017187 185.25)rotate(-90)scale(0.1 -0.1)">
      <defs>
       <path id="DejaVuSans-394" d="M 2188 4044 
L 906 525 
L 3472 525 
L 2188 4044 
z
M 50 0 
L 1831 4666 
L 2547 4666 
L 4325 0 
L 50 0 
z
" transform="scale(0.015625)"/>
      </defs>
      <use xlink:href="#DejaVuSans-394" transform="translate(0 0.09375)"/>
     </g>
    </g>
   </g>
   <g id="line2d_31">
    <path d="M 152.293388 307.799987 
L 154.899128 307.727412 
L 155.767708 307.654027 
L 156.636287 307.403036 
L 158.373447 306.503547 
L 159.242027 305.570125 
L 160.110606 304.294145 
L 160.979186 302.654452 
L 161.847766 300.64516 
L 162.716346 298.27319 
L 164.453505 292.516241 
L 166.190665 285.592547 
L 167.927824 277.760249 
L 168.796404 272.459222 
L 172.270723 254.85185 
L 178.350782 223.641265 
L 179.219361 219.369889 
L 180.087941 213.813681 
L 183.56226 198.15708 
L 186.167999 187.330158 
L 188.773739 177.313228 
L 191.379478 168.094029 
L 193.985217 159.640241 
L 194.853797 155.706006 
L 197.459536 148.426295 
L 200.065276 141.763458 
L 202.671015 135.669014 
L 205.276754 130.095411 
L 207.882494 124.99713 
L 210.488233 120.331345 
L 213.093972 116.058272 
L 215.699712 112.141298 
L 218.305451 108.546963 
L 220.91119 105.244853 
L 224.385509 101.249399 
L 225.254089 100.317139 
L 226.122669 98.629595 
L 229.596988 95.365724 
L 233.071307 92.417886 
L 236.545626 89.749727 
L 240.019945 87.329476 
L 244.362844 84.610808 
L 248.705743 82.189624 
L 253.048642 80.026331 
L 257.391541 78.087313 
L 262.603019 76.016557 
L 267.814498 74.186188 
L 273.894556 72.308857 
L 279.974615 70.666877 
L 286.923253 69.031779 
L 294.740471 67.447999 
L 302.557689 66.087286 
L 311.243486 64.789577 
L 321.666443 63.473361 
L 325.140763 63.083796 
L 325.140763 63.083796 
" clip-path="url(#p2ab96ebf59)" style="fill: none; stroke: #1f77b4; stroke-width: 1.5; stroke-linecap: square"/>
   </g>
   <g id="line2d_32">
    <path d="M 152.293388 307.798648 
L 155.769446 307.692835 
L 157.507475 307.28452 
L 159.245504 306.093189 
L 160.983533 303.955467 
L 162.721562 300.380224 
L 164.459591 294.875859 
L 166.19762 288.035346 
L 167.935649 280.125377 
L 169.673678 271.485395 
L 178.363823 225.542848 
L 181.839881 208.531427 
L 185.315939 192.968549 
L 188.791997 179.023144 
L 192.268055 166.586565 
L 195.744113 155.559337 
L 199.220171 145.855604 
L 202.696229 137.323958 
L 206.172287 129.741681 
L 209.648345 122.99937 
L 213.124403 117.028443 
L 216.600461 111.753527 
L 220.076519 107.057243 
L 223.552577 102.865508 
L 227.028635 99.114293 
L 230.504693 95.748364 
L 233.980751 92.72011 
L 237.456809 89.999988 
L 244.408925 85.400375 
L 247.884983 83.371719 
L 253.09907 80.65495 
L 258.313157 78.275354 
L 263.527244 76.181774 
L 268.741331 74.331929 
L 273.955418 72.690737 
L 280.907534 70.777226 
L 287.859649 69.126711 
L 294.811765 67.694283 
L 303.50191 66.156331 
L 312.192055 64.848064 
L 322.620229 63.52173 
L 333.048403 62.408341 
L 345.214606 61.322132 
L 359.118838 60.300308 
L 374.761099 59.365701 
L 393.879418 58.455106 
L 421.687882 57.389438 
L 449.496345 56.672789 
L 484.256925 56.01161 
L 498.161157 55.8 
L 498.161157 55.8 
" clip-path="url(#p2ab96ebf59)" style="fill: none; stroke: #ff7f0e; stroke-width: 1.5; stroke-linecap: square"/>
   </g>
   <g id="line2d_33">
    <path d="M 152.293388 307.8 
L 155.767708 307.716935 
L 157.504867 307.298554 
L 158.373447 306.783692 
L 159.242027 305.996592 
L 160.979186 303.307399 
L 162.716346 299.626858 
L 163.584925 297.23251 
L 164.453505 294.435902 
L 166.190665 287.615485 
L 167.927824 279.819032 
L 171.402143 262.013932 
L 177.482202 229.63017 
L 181.825101 208.159876 
L 185.29942 192.634996 
L 187.905159 181.984036 
L 190.510898 172.262508 
L 193.116638 163.317876 
L 195.722377 155.204853 
L 198.328116 147.770174 
L 200.933856 141.039832 
L 203.539595 134.911273 
L 206.145334 129.296015 
L 208.751073 124.207801 
L 211.356813 119.564505 
L 213.962552 115.322162 
L 217.436871 110.229256 
L 220.91119 105.69442 
L 223.51693 102.610404 
L 226.122669 99.773582 
L 229.596988 96.340943 
L 233.071307 93.255097 
L 236.545626 90.473462 
L 240.019945 87.959367 
L 243.494264 85.69519 
L 247.837163 83.139811 
L 252.180062 80.864586 
L 256.522961 78.842676 
L 261.734439 76.689055 
L 266.945918 74.789823 
L 272.157397 73.116784 
L 278.237455 71.376862 
L 285.186093 69.649817 
L 293.003311 67.981876 
L 299.083369 66.850279 
L 307.769167 65.445691 
L 315.586385 64.356773 
L 325.140763 63.211533 
L 325.140763 63.211533 
" clip-path="url(#p2ab96ebf59)" style="fill: none; stroke: #2ca02c; stroke-width: 1.5; stroke-linecap: square"/>
   </g>
   <g id="line2d_34">
    <path d="M 152.293388 307.342281 
L 154.031417 307.503429 
L 155.769446 307.126253 
L 157.507475 305.255228 
L 159.245504 302.355331 
L 160.983533 298.53969 
L 162.721562 293.787363 
L 164.459591 288.072591 
L 166.19762 285.679988 
L 167.935649 279.111832 
L 171.411707 264.354488 
L 176.625794 240.177431 
L 178.363823 232.049296 
L 180.101852 216.797493 
L 183.57791 201.803631 
L 187.053968 188.049788 
L 190.530026 175.565791 
L 194.006084 164.309971 
L 197.482142 154.204682 
L 200.9582 145.156111 
L 204.434258 137.065491 
L 207.910316 129.835505 
L 211.386374 123.373876 
L 214.862432 117.595247 
L 218.33849 112.421986 
L 220.076519 110.040266 
L 221.814548 101.054592 
L 225.290606 97.67381 
L 228.766664 94.613706 
L 232.242722 91.837534 
L 235.71878 89.313395 
L 239.194838 87.013513 
L 242.670896 84.913634 
L 247.884983 82.093096 
L 253.09907 79.614328 
L 258.313157 77.426876 
L 263.527244 75.488851 
L 268.741331 73.765315 
L 275.693447 71.751009 
L 282.645563 70.00957 
L 289.597678 68.495436 
L 298.287823 66.867146 
L 306.977968 65.480199 
L 317.406142 64.072748 
L 327.834316 62.890563 
L 340.000519 61.736995 
L 353.904751 60.651986 
L 369.547012 59.660158 
L 388.665331 58.694803 
L 409.521679 57.869596 
L 435.592113 57.076744 
L 466.876635 56.367983 
L 498.161157 55.839719 
L 498.161157 55.839719 
" clip-path="url(#p2ab96ebf59)" style="fill: none; stroke: #d62728; stroke-width: 1.5; stroke-linecap: square"/>
   </g>
   <g id="line2d_35">
    <path d="M 152.293388 307.799959 
L 155.769446 307.702732 
L 157.507475 307.229664 
L 159.245504 305.932108 
L 160.983533 303.219588 
L 162.721562 299.030269 
L 164.459591 293.064344 
L 166.19762 286.307691 
L 169.673678 270.416595 
L 173.149736 252.672567 
L 178.363823 224.983313 
L 181.839881 207.961269 
L 185.315939 192.417935 
L 188.791997 178.37984 
L 192.268055 165.953151 
L 195.744113 154.950766 
L 197.482142 149.921983 
L 200.9582 140.79895 
L 204.434258 132.75052 
L 207.910316 125.643967 
L 211.386374 119.359097 
L 214.862432 113.789369 
L 218.33849 108.84159 
L 221.814548 104.434913 
L 225.290606 100.499542 
L 228.766664 96.975382 
L 232.242722 93.810747 
L 235.71878 90.975187 
L 239.194838 88.401036 
L 242.670896 86.070834 
L 246.146954 83.956073 
L 251.361041 81.139898 
L 256.575128 78.682691 
L 261.789215 76.527788 
L 267.003302 74.628922 
L 272.217389 72.948095 
L 277.431476 71.453925 
L 282.645563 70.120348 
L 289.597678 68.556993 
L 296.549794 67.192771 
L 305.239939 65.7331 
L 315.668113 64.263228 
L 326.096287 63.032508 
L 338.26249 61.843211 
L 350.428693 60.854221 
L 366.070954 59.817935 
L 383.451244 58.894369 
L 404.307592 58.024435 
L 428.639998 57.244006 
L 458.18649 56.531347 
L 494.685099 55.88384 
L 498.161157 55.832654 
L 498.161157 55.832654 
" clip-path="url(#p2ab96ebf59)" style="fill: none; stroke: #9467bd; stroke-width: 1.5; stroke-linecap: square"/>
   </g>
   <g id="line2d_36">
    <path d="M 152.293388 307.799969 
L 155.769446 307.71297 
L 157.507475 307.266711 
L 159.245504 305.986244 
L 160.983533 303.265492 
L 162.721562 299.021352 
L 164.459591 293.354902 
L 166.19762 286.065436 
L 167.935649 278.28839 
L 169.673678 269.866803 
L 173.149736 251.843421 
L 181.839881 208.022014 
L 183.57791 199.954241 
L 187.053968 185.166582 
L 190.530026 171.958128 
L 194.006084 160.244244 
L 197.482142 149.89455 
L 200.9582 140.802442 
L 202.696229 136.626915 
L 206.172287 129.059262 
L 209.648345 122.373701 
L 213.124403 116.480636 
L 216.600461 111.227268 
L 220.076519 106.555566 
L 223.552577 102.389978 
L 227.028635 98.665432 
L 230.504693 95.340945 
L 233.980751 92.33624 
L 237.456809 89.627543 
L 240.932867 87.179143 
L 244.408925 84.971018 
L 247.884983 82.953518 
L 253.09907 80.263104 
L 258.313157 77.911795 
L 263.527244 75.846609 
L 268.741331 74.024197 
L 273.955418 72.408886 
L 280.907534 70.528972 
L 287.859649 68.908252 
L 294.811765 67.501983 
L 303.50191 65.993316 
L 312.192055 64.709655 
L 320.8822 63.604874 
L 333.048403 62.311748 
L 346.952635 61.105819 
L 362.594896 60.015381 
L 379.975186 59.05002 
L 400.831534 58.141973 
L 425.16394 57.329067 
L 454.710432 56.589028 
L 489.471012 55.952567 
L 498.161157 55.821336 
L 498.161157 55.821336 
" clip-path="url(#p2ab96ebf59)" style="fill: none; stroke: #8c564b; stroke-width: 1.5; stroke-linecap: square"/>
   </g>
   <g id="line2d_37">
    <path d="M 152.293388 307.799979 
L 155.769446 307.69308 
L 157.507475 307.231458 
L 159.245504 305.950485 
L 160.983533 303.209664 
L 162.721562 298.901177 
L 164.459591 293.1157 
L 166.19762 286.112624 
L 167.935649 278.201943 
L 171.411707 260.745864 
L 173.149736 251.066989 
L 178.363823 224.454733 
L 181.839881 207.967309 
L 185.315939 192.520959 
L 187.053968 185.21027 
L 190.530026 172.101584 
L 192.268055 165.952269 
L 195.744113 154.904785 
L 199.220171 145.219302 
L 200.9582 140.759212 
L 204.434258 132.734783 
L 207.910316 125.609114 
L 211.386374 119.3138 
L 214.862432 113.738458 
L 218.33849 108.805044 
L 221.814548 104.393012 
L 225.290606 100.471258 
L 228.766664 96.941838 
L 232.242722 93.774213 
L 235.71878 90.934885 
L 239.194838 88.358996 
L 242.670896 86.039187 
L 246.146954 83.922363 
L 251.361041 81.104031 
L 256.575128 78.645456 
L 261.789215 76.497531 
L 267.003302 74.597313 
L 272.217389 72.915718 
L 279.169505 70.961888 
L 286.12162 69.280401 
L 293.073736 67.823803 
L 301.763881 66.263636 
L 310.454026 64.938463 
L 320.8822 63.597476 
L 333.048403 62.300661 
L 345.214606 61.234349 
L 360.856867 60.116535 
L 378.237157 59.130994 
L 399.093505 58.203374 
L 423.425911 57.374611 
L 449.496345 56.697313 
L 484.256925 56.028833 
L 498.161157 55.815079 
L 498.161157 55.815079 
" clip-path="url(#p2ab96ebf59)" style="fill: none; stroke: #e377c2; stroke-width: 1.5; stroke-linecap: square"/>
   </g>
   <g id="patch_3">
    <path d="M 135 320.4 
L 135 43.2 
" style="fill: none; stroke: #000000; stroke-width: 0.8; stroke-linejoin: miter; stroke-linecap: square"/>
   </g>
   <g id="patch_4">
    <path d="M 515.454545 320.4 
L 515.454545 43.2 
" style="fill: none; stroke: #000000; stroke-width: 0.8; stroke-linejoin: miter; stroke-linecap: square"/>
   </g>
   <g id="patch_5">
    <path d="M 135 320.4 
L 515.454545 320.4 
" style="fill: none; stroke: #000000; stroke-width: 0.8; stroke-linejoin: miter; stroke-linecap: square"/>
   </g>
   <g id="patch_6">
    <path d="M 135 43.2 
L 515.454545 43.2 
" style="fill: none; stroke: #000000; stroke-width: 0.8; stroke-linejoin: miter; stroke-linecap: square"/>
   </g>
   <g id="text_18">
    <!-- $\Delta_{CDW}^2 + \Delta_{SC}^2$ -->
    <g transform="translate(293.247273 37.2)scale(0.12 -0.12)">
     <defs>
      <path id="DejaVuSans-Oblique-43" d="M 4447 4306 
L 4319 3641 
Q 4019 3944 3683 4091 
Q 3347 4238 2956 4238 
Q 2422 4238 2017 3981 
Q 1613 3725 1319 3200 
Q 1131 2863 1032 2486 
Q 934 2109 934 1728 
Q 934 1091 1264 756 
Q 1594 422 2222 422 
Q 2656 422 3056 561 
Q 3456 700 3834 978 
L 3688 231 
Q 3316 72 2936 -9 
Q 2556 -91 2175 -91 
Q 1278 -91 773 396 
Q 269 884 269 1753 
Q 269 2309 461 2846 
Q 653 3384 1013 3828 
Q 1394 4300 1883 4525 
Q 2372 4750 3022 4750 
Q 3422 4750 3780 4639 
Q 4138 4528 4447 4306 
z
" transform="scale(0.015625)"/>
      <path id="DejaVuSans-Oblique-44" d="M 1081 4666 
L 2438 4666 
Q 3519 4666 4070 4208 
Q 4622 3750 4622 2847 
Q 4622 2250 4412 1698 
Q 4203 1147 3834 769 
Q 3463 381 2891 190 
Q 2319 0 1538 0 
L 172 0 
L 1081 4666 
z
M 1613 4147 
L 909 519 
L 1734 519 
Q 2794 519 3375 1128 
Q 3956 1738 3956 2847 
Q 3956 3519 3581 3833 
Q 3206 4147 2406 4147 
L 1613 4147 
z
" transform="scale(0.015625)"/>
      <path id="DejaVuSans-Oblique-57" d="M 616 4666 
L 1228 4666 
L 1453 697 
L 3213 4666 
L 3916 4666 
L 4147 697 
L 5888 4666 
L 6528 4666 
L 4453 0 
L 3659 0 
L 3444 3891 
L 1697 0 
L 903 0 
L 616 4666 
z
" transform="scale(0.015625)"/>
      <path id="DejaVuSans-2b" d="M 2944 4013 
L 2944 2272 
L 4684 2272 
L 4684 1741 
L 2944 1741 
L 2944 0 
L 2419 0 
L 2419 1741 
L 678 1741 
L 678 2272 
L 2419 2272 
L 2419 4013 
L 2944 4013 
z
" transform="scale(0.015625)"/>
      <path id="DejaVuSans-Oblique-53" d="M 3859 4513 
L 3738 3897 
Q 3422 4066 3111 4152 
Q 2800 4238 2509 4238 
Q 1944 4238 1609 3991 
Q 1275 3744 1275 3334 
Q 1275 3109 1398 2989 
Q 1522 2869 2034 2731 
L 2413 2638 
Q 3053 2472 3303 2217 
Q 3553 1963 3553 1503 
Q 3553 797 2998 353 
Q 2444 -91 1538 -91 
Q 1166 -91 791 -17 
Q 416 56 38 206 
L 166 856 
Q 513 641 861 531 
Q 1209 422 1556 422 
Q 2147 422 2503 684 
Q 2859 947 2859 1369 
Q 2859 1650 2717 1795 
Q 2575 1941 2106 2059 
L 1728 2156 
Q 1081 2325 845 2545 
Q 609 2766 609 3163 
Q 609 3859 1145 4304 
Q 1681 4750 2541 4750 
Q 2875 4750 3203 4690 
Q 3531 4631 3859 4513 
z
" transform="scale(0.015625)"/>
     </defs>
     <use xlink:href="#DejaVuSans-394" transform="translate(0 0.765625)"/>
     <use xlink:href="#DejaVuSans-32" transform="translate(69.365234 39.046875)scale(0.7)"/>
     <use xlink:href="#DejaVuSans-Oblique-43" transform="translate(69.365234 -26.578125)scale(0.7)"/>
     <use xlink:href="#DejaVuSans-Oblique-44" transform="translate(118.242188 -26.578125)scale(0.7)"/>
     <use xlink:href="#DejaVuSans-Oblique-57" transform="translate(172.143555 -26.578125)scale(0.7)"/>
     <use xlink:href="#DejaVuSans-2b" transform="translate(263.574219 0.765625)"/>
     <use xlink:href="#DejaVuSans-394" transform="translate(366.845703 0.765625)"/>
     <use xlink:href="#DejaVuSans-32" transform="translate(436.210938 39.046875)scale(0.7)"/>
     <use xlink:href="#DejaVuSans-Oblique-53" transform="translate(436.210938 -26.578125)scale(0.7)"/>
     <use xlink:href="#DejaVuSans-Oblique-43" transform="translate(480.644531 -26.578125)scale(0.7)"/>
    </g>
   </g>
   <g id="legend_1">
    <g id="patch_7">
     <path d="M 449.221733 315.4 
L 508.454545 315.4 
Q 510.454545 315.4 510.454545 313.4 
L 510.454545 211.653125 
Q 510.454545 209.653125 508.454545 209.653125 
L 449.221733 209.653125 
Q 447.221733 209.653125 447.221733 211.653125 
L 447.221733 313.4 
Q 447.221733 315.4 449.221733 315.4 
z
" style="fill: #ffffff; opacity: 0.8; stroke: #cccccc; stroke-linejoin: miter"/>
    </g>
    <g id="line2d_38">
     <path d="M 451.221733 217.751563 
L 461.221733 217.751563 
L 471.221733 217.751563 
" style="fill: none; stroke: #1f77b4; stroke-width: 1.5; stroke-linecap: square"/>
    </g>
    <g id="text_19">
     <!-- J=0 -->
     <g transform="translate(479.221733 221.251563)scale(0.1 -0.1)">
      <defs>
       <path id="DejaVuSans-4a" d="M 628 4666 
L 1259 4666 
L 1259 325 
Q 1259 -519 939 -900 
Q 619 -1281 -91 -1281 
L -331 -1281 
L -331 -750 
L -134 -750 
Q 284 -750 456 -515 
Q 628 -281 628 325 
L 628 4666 
z
" transform="scale(0.015625)"/>
       <path id="DejaVuSans-3d" d="M 678 2906 
L 4684 2906 
L 4684 2381 
L 678 2381 
L 678 2906 
z
M 678 1631 
L 4684 1631 
L 4684 1100 
L 678 1100 
L 678 1631 
z
" transform="scale(0.015625)"/>
      </defs>
      <use xlink:href="#DejaVuSans-4a"/>
      <use xlink:href="#DejaVuSans-3d" x="29.492188"/>
      <use xlink:href="#DejaVuSans-30" x="113.28125"/>
     </g>
    </g>
    <g id="line2d_39">
     <path d="M 451.221733 232.429688 
L 461.221733 232.429688 
L 471.221733 232.429688 
" style="fill: none; stroke: #ff7f0e; stroke-width: 1.5; stroke-linecap: square"/>
    </g>
    <g id="text_20">
     <!-- J=0.1 -->
     <g transform="translate(479.221733 235.929688)scale(0.1 -0.1)">
      <use xlink:href="#DejaVuSans-4a"/>
      <use xlink:href="#DejaVuSans-3d" x="29.492188"/>
      <use xlink:href="#DejaVuSans-30" x="113.28125"/>
      <use xlink:href="#DejaVuSans-2e" x="176.904297"/>
      <use xlink:href="#DejaVuSans-31" x="208.691406"/>
     </g>
    </g>
    <g id="line2d_40">
     <path d="M 451.221733 247.107813 
L 461.221733 247.107813 
L 471.221733 247.107813 
" style="fill: none; stroke: #2ca02c; stroke-width: 1.5; stroke-linecap: square"/>
    </g>
    <g id="text_21">
     <!-- J=0.2 -->
     <g transform="translate(479.221733 250.607813)scale(0.1 -0.1)">
      <use xlink:href="#DejaVuSans-4a"/>
      <use xlink:href="#DejaVuSans-3d" x="29.492188"/>
      <use xlink:href="#DejaVuSans-30" x="113.28125"/>
      <use xlink:href="#DejaVuSans-2e" x="176.904297"/>
      <use xlink:href="#DejaVuSans-32" x="208.691406"/>
     </g>
    </g>
    <g id="line2d_41">
     <path d="M 451.221733 261.785938 
L 461.221733 261.785938 
L 471.221733 261.785938 
" style="fill: none; stroke: #d62728; stroke-width: 1.5; stroke-linecap: square"/>
    </g>
    <g id="text_22">
     <!-- J=0.3 -->
     <g transform="translate(479.221733 265.285938)scale(0.1 -0.1)">
      <defs>
       <path id="DejaVuSans-33" d="M 2597 2516 
Q 3050 2419 3304 2112 
Q 3559 1806 3559 1356 
Q 3559 666 3084 287 
Q 2609 -91 1734 -91 
Q 1441 -91 1130 -33 
Q 819 25 488 141 
L 488 750 
Q 750 597 1062 519 
Q 1375 441 1716 441 
Q 2309 441 2620 675 
Q 2931 909 2931 1356 
Q 2931 1769 2642 2001 
Q 2353 2234 1838 2234 
L 1294 2234 
L 1294 2753 
L 1863 2753 
Q 2328 2753 2575 2939 
Q 2822 3125 2822 3475 
Q 2822 3834 2567 4026 
Q 2313 4219 1838 4219 
Q 1578 4219 1281 4162 
Q 984 4106 628 3988 
L 628 4550 
Q 988 4650 1302 4700 
Q 1616 4750 1894 4750 
Q 2613 4750 3031 4423 
Q 3450 4097 3450 3541 
Q 3450 3153 3228 2886 
Q 3006 2619 2597 2516 
z
" transform="scale(0.015625)"/>
      </defs>
      <use xlink:href="#DejaVuSans-4a"/>
      <use xlink:href="#DejaVuSans-3d" x="29.492188"/>
      <use xlink:href="#DejaVuSans-30" x="113.28125"/>
      <use xlink:href="#DejaVuSans-2e" x="176.904297"/>
      <use xlink:href="#DejaVuSans-33" x="208.691406"/>
     </g>
    </g>
    <g id="line2d_42">
     <path d="M 451.221733 276.464063 
L 461.221733 276.464063 
L 471.221733 276.464063 
" style="fill: none; stroke: #9467bd; stroke-width: 1.5; stroke-linecap: square"/>
    </g>
    <g id="text_23">
     <!-- J=0.5 -->
     <g transform="translate(479.221733 279.964063)scale(0.1 -0.1)">
      <use xlink:href="#DejaVuSans-4a"/>
      <use xlink:href="#DejaVuSans-3d" x="29.492188"/>
      <use xlink:href="#DejaVuSans-30" x="113.28125"/>
      <use xlink:href="#DejaVuSans-2e" x="176.904297"/>
      <use xlink:href="#DejaVuSans-35" x="208.691406"/>
     </g>
    </g>
    <g id="line2d_43">
     <path d="M 451.221733 291.142188 
L 461.221733 291.142188 
L 471.221733 291.142188 
" style="fill: none; stroke: #8c564b; stroke-width: 1.5; stroke-linecap: square"/>
    </g>
    <g id="text_24">
     <!-- J=0.7 -->
     <g transform="translate(479.221733 294.642188)scale(0.1 -0.1)">
      <use xlink:href="#DejaVuSans-4a"/>
      <use xlink:href="#DejaVuSans-3d" x="29.492188"/>
      <use xlink:href="#DejaVuSans-30" x="113.28125"/>
      <use xlink:href="#DejaVuSans-2e" x="176.904297"/>
      <use xlink:href="#DejaVuSans-37" x="208.691406"/>
     </g>
    </g>
    <g id="line2d_44">
     <path d="M 451.221733 305.820312 
L 461.221733 305.820312 
L 471.221733 305.820312 
" style="fill: none; stroke: #e377c2; stroke-width: 1.5; stroke-linecap: square"/>
    </g>
    <g id="text_25">
     <!-- J=1 -->
     <g transform="translate(479.221733 309.320312)scale(0.1 -0.1)">
      <use xlink:href="#DejaVuSans-4a"/>
      <use xlink:href="#DejaVuSans-3d" x="29.492188"/>
      <use xlink:href="#DejaVuSans-31" x="113.28125"/>
     </g>
    </g>
   </g>
  </g>
  <g id="axes_2">
   <g id="patch_8">
    <path d="M 591.545455 320.4 
L 972 320.4 
L 972 43.2 
L 591.545455 43.2 
z
" style="fill: #ffffff"/>
   </g>
   <g id="matplotlib.axis_3">
    <g id="xtick_10">
     <g id="line2d_45">
      <path d="M 608.665823 320.4 
L 608.665823 43.2 
" clip-path="url(#p1a36d75301)" style="fill: none; stroke: #b0b0b0; stroke-width: 0.8; stroke-linecap: square"/>
     </g>
     <g id="line2d_46">
      <g>
       <use xlink:href="#m8e6b99c7b9" x="608.665823" y="320.4" style="stroke: #000000; stroke-width: 0.8"/>
      </g>
     </g>
     <g id="text_26">
      <!-- 0.0 -->
      <g transform="translate(600.71426 334.998438)scale(0.1 -0.1)">
       <use xlink:href="#DejaVuSans-30"/>
       <use xlink:href="#DejaVuSans-2e" x="63.623047"/>
       <use xlink:href="#DejaVuSans-30" x="95.410156"/>
      </g>
     </g>
    </g>
    <g id="xtick_11">
     <g id="line2d_47">
      <path d="M 651.920921 320.4 
L 651.920921 43.2 
" clip-path="url(#p1a36d75301)" style="fill: none; stroke: #b0b0b0; stroke-width: 0.8; stroke-linecap: square"/>
     </g>
     <g id="line2d_48">
      <g>
       <use xlink:href="#m8e6b99c7b9" x="651.920921" y="320.4" style="stroke: #000000; stroke-width: 0.8"/>
      </g>
     </g>
     <g id="text_27">
      <!-- 2.5 -->
      <g transform="translate(643.969359 334.998438)scale(0.1 -0.1)">
       <use xlink:href="#DejaVuSans-32"/>
       <use xlink:href="#DejaVuSans-2e" x="63.623047"/>
       <use xlink:href="#DejaVuSans-35" x="95.410156"/>
      </g>
     </g>
    </g>
    <g id="xtick_12">
     <g id="line2d_49">
      <path d="M 695.17602 320.4 
L 695.17602 43.2 
" clip-path="url(#p1a36d75301)" style="fill: none; stroke: #b0b0b0; stroke-width: 0.8; stroke-linecap: square"/>
     </g>
     <g id="line2d_50">
      <g>
       <use xlink:href="#m8e6b99c7b9" x="695.17602" y="320.4" style="stroke: #000000; stroke-width: 0.8"/>
      </g>
     </g>
     <g id="text_28">
      <!-- 5.0 -->
      <g transform="translate(687.224457 334.998438)scale(0.1 -0.1)">
       <use xlink:href="#DejaVuSans-35"/>
       <use xlink:href="#DejaVuSans-2e" x="63.623047"/>
       <use xlink:href="#DejaVuSans-30" x="95.410156"/>
      </g>
     </g>
    </g>
    <g id="xtick_13">
     <g id="line2d_51">
      <path d="M 738.431118 320.4 
L 738.431118 43.2 
" clip-path="url(#p1a36d75301)" style="fill: none; stroke: #b0b0b0; stroke-width: 0.8; stroke-linecap: square"/>
     </g>
     <g id="line2d_52">
      <g>
       <use xlink:href="#m8e6b99c7b9" x="738.431118" y="320.4" style="stroke: #000000; stroke-width: 0.8"/>
      </g>
     </g>
     <g id="text_29">
      <!-- 7.5 -->
      <g transform="translate(730.479556 334.998438)scale(0.1 -0.1)">
       <use xlink:href="#DejaVuSans-37"/>
       <use xlink:href="#DejaVuSans-2e" x="63.623047"/>
       <use xlink:href="#DejaVuSans-35" x="95.410156"/>
      </g>
     </g>
    </g>
    <g id="xtick_14">
     <g id="line2d_53">
      <path d="M 781.686217 320.4 
L 781.686217 43.2 
" clip-path="url(#p1a36d75301)" style="fill: none; stroke: #b0b0b0; stroke-width: 0.8; stroke-linecap: square"/>
     </g>
     <g id="line2d_54">
      <g>
       <use xlink:href="#m8e6b99c7b9" x="781.686217" y="320.4" style="stroke: #000000; stroke-width: 0.8"/>
      </g>
     </g>
     <g id="text_30">
      <!-- 10.0 -->
      <g transform="translate(770.553405 334.998438)scale(0.1 -0.1)">
       <use xlink:href="#DejaVuSans-31"/>
       <use xlink:href="#DejaVuSans-30" x="63.623047"/>
       <use xlink:href="#DejaVuSans-2e" x="127.246094"/>
       <use xlink:href="#DejaVuSans-30" x="159.033203"/>
      </g>
     </g>
    </g>
    <g id="xtick_15">
     <g id="line2d_55">
      <path d="M 824.941316 320.4 
L 824.941316 43.2 
" clip-path="url(#p1a36d75301)" style="fill: none; stroke: #b0b0b0; stroke-width: 0.8; stroke-linecap: square"/>
     </g>
     <g id="line2d_56">
      <g>
       <use xlink:href="#m8e6b99c7b9" x="824.941316" y="320.4" style="stroke: #000000; stroke-width: 0.8"/>
      </g>
     </g>
     <g id="text_31">
      <!-- 12.5 -->
      <g transform="translate(813.808503 334.998438)scale(0.1 -0.1)">
       <use xlink:href="#DejaVuSans-31"/>
       <use xlink:href="#DejaVuSans-32" x="63.623047"/>
       <use xlink:href="#DejaVuSans-2e" x="127.246094"/>
       <use xlink:href="#DejaVuSans-35" x="159.033203"/>
      </g>
     </g>
    </g>
    <g id="xtick_16">
     <g id="line2d_57">
      <path d="M 868.196414 320.4 
L 868.196414 43.2 
" clip-path="url(#p1a36d75301)" style="fill: none; stroke: #b0b0b0; stroke-width: 0.8; stroke-linecap: square"/>
     </g>
     <g id="line2d_58">
      <g>
       <use xlink:href="#m8e6b99c7b9" x="868.196414" y="320.4" style="stroke: #000000; stroke-width: 0.8"/>
      </g>
     </g>
     <g id="text_32">
      <!-- 15.0 -->
      <g transform="translate(857.063602 334.998438)scale(0.1 -0.1)">
       <use xlink:href="#DejaVuSans-31"/>
       <use xlink:href="#DejaVuSans-35" x="63.623047"/>
       <use xlink:href="#DejaVuSans-2e" x="127.246094"/>
       <use xlink:href="#DejaVuSans-30" x="159.033203"/>
      </g>
     </g>
    </g>
    <g id="xtick_17">
     <g id="line2d_59">
      <path d="M 911.451513 320.4 
L 911.451513 43.2 
" clip-path="url(#p1a36d75301)" style="fill: none; stroke: #b0b0b0; stroke-width: 0.8; stroke-linecap: square"/>
     </g>
     <g id="line2d_60">
      <g>
       <use xlink:href="#m8e6b99c7b9" x="911.451513" y="320.4" style="stroke: #000000; stroke-width: 0.8"/>
      </g>
     </g>
     <g id="text_33">
      <!-- 17.5 -->
      <g transform="translate(900.3187 334.998438)scale(0.1 -0.1)">
       <use xlink:href="#DejaVuSans-31"/>
       <use xlink:href="#DejaVuSans-37" x="63.623047"/>
       <use xlink:href="#DejaVuSans-2e" x="127.246094"/>
       <use xlink:href="#DejaVuSans-35" x="159.033203"/>
      </g>
     </g>
    </g>
    <g id="xtick_18">
     <g id="line2d_61">
      <path d="M 954.706612 320.4 
L 954.706612 43.2 
" clip-path="url(#p1a36d75301)" style="fill: none; stroke: #b0b0b0; stroke-width: 0.8; stroke-linecap: square"/>
     </g>
     <g id="line2d_62">
      <g>
       <use xlink:href="#m8e6b99c7b9" x="954.706612" y="320.4" style="stroke: #000000; stroke-width: 0.8"/>
      </g>
     </g>
     <g id="text_34">
      <!-- 20.0 -->
      <g transform="translate(943.573799 334.998438)scale(0.1 -0.1)">
       <use xlink:href="#DejaVuSans-32"/>
       <use xlink:href="#DejaVuSans-30" x="63.623047"/>
       <use xlink:href="#DejaVuSans-2e" x="127.246094"/>
       <use xlink:href="#DejaVuSans-30" x="159.033203"/>
      </g>
     </g>
    </g>
    <g id="text_35">
     <!-- U/t -->
     <g transform="translate(774.468821 348.676562)scale(0.1 -0.1)">
      <use xlink:href="#DejaVuSans-55"/>
      <use xlink:href="#DejaVuSans-2f" x="73.193359"/>
      <use xlink:href="#DejaVuSans-74" x="106.884766"/>
     </g>
    </g>
   </g>
   <g id="matplotlib.axis_4">
    <g id="ytick_7">
     <g id="line2d_63">
      <path d="M 591.545455 307.800001 
L 972 307.800001 
" clip-path="url(#p1a36d75301)" style="fill: none; stroke: #b0b0b0; stroke-width: 0.8; stroke-linecap: square"/>
     </g>
     <g id="line2d_64">
      <g>
       <use xlink:href="#m2fa7312700" x="591.545455" y="307.800001" style="stroke: #000000; stroke-width: 0.8"/>
      </g>
     </g>
     <g id="text_36">
      <!-- 0.0 -->
      <g transform="translate(568.64233 311.59922)scale(0.1 -0.1)">
       <use xlink:href="#DejaVuSans-30"/>
       <use xlink:href="#DejaVuSans-2e" x="63.623047"/>
       <use xlink:href="#DejaVuSans-30" x="95.410156"/>
      </g>
     </g>
    </g>
    <g id="ytick_8">
     <g id="line2d_65">
      <path d="M 591.545455 274.476511 
L 972 274.476511 
" clip-path="url(#p1a36d75301)" style="fill: none; stroke: #b0b0b0; stroke-width: 0.8; stroke-linecap: square"/>
     </g>
     <g id="line2d_66">
      <g>
       <use xlink:href="#m2fa7312700" x="591.545455" y="274.476511" style="stroke: #000000; stroke-width: 0.8"/>
      </g>
     </g>
     <g id="text_37">
      <!-- 0.2 -->
      <g transform="translate(568.64233 278.275729)scale(0.1 -0.1)">
       <use xlink:href="#DejaVuSans-30"/>
       <use xlink:href="#DejaVuSans-2e" x="63.623047"/>
       <use xlink:href="#DejaVuSans-32" x="95.410156"/>
      </g>
     </g>
    </g>
    <g id="ytick_9">
     <g id="line2d_67">
      <path d="M 591.545455 241.15302 
L 972 241.15302 
" clip-path="url(#p1a36d75301)" style="fill: none; stroke: #b0b0b0; stroke-width: 0.8; stroke-linecap: square"/>
     </g>
     <g id="line2d_68">
      <g>
       <use xlink:href="#m2fa7312700" x="591.545455" y="241.15302" style="stroke: #000000; stroke-width: 0.8"/>
      </g>
     </g>
     <g id="text_38">
      <!-- 0.4 -->
      <g transform="translate(568.64233 244.952239)scale(0.1 -0.1)">
       <use xlink:href="#DejaVuSans-30"/>
       <use xlink:href="#DejaVuSans-2e" x="63.623047"/>
       <use xlink:href="#DejaVuSans-34" x="95.410156"/>
      </g>
     </g>
    </g>
    <g id="ytick_10">
     <g id="line2d_69">
      <path d="M 591.545455 207.82953 
L 972 207.82953 
" clip-path="url(#p1a36d75301)" style="fill: none; stroke: #b0b0b0; stroke-width: 0.8; stroke-linecap: square"/>
     </g>
     <g id="line2d_70">
      <g>
       <use xlink:href="#m2fa7312700" x="591.545455" y="207.82953" style="stroke: #000000; stroke-width: 0.8"/>
      </g>
     </g>
     <g id="text_39">
      <!-- 0.6 -->
      <g transform="translate(568.64233 211.628749)scale(0.1 -0.1)">
       <use xlink:href="#DejaVuSans-30"/>
       <use xlink:href="#DejaVuSans-2e" x="63.623047"/>
       <use xlink:href="#DejaVuSans-36" x="95.410156"/>
      </g>
     </g>
    </g>
    <g id="ytick_11">
     <g id="line2d_71">
      <path d="M 591.545455 174.50604 
L 972 174.50604 
" clip-path="url(#p1a36d75301)" style="fill: none; stroke: #b0b0b0; stroke-width: 0.8; stroke-linecap: square"/>
     </g>
     <g id="line2d_72">
      <g>
       <use xlink:href="#m2fa7312700" x="591.545455" y="174.50604" style="stroke: #000000; stroke-width: 0.8"/>
      </g>
     </g>
     <g id="text_40">
      <!-- 0.8 -->
      <g transform="translate(568.64233 178.305258)scale(0.1 -0.1)">
       <use xlink:href="#DejaVuSans-30"/>
       <use xlink:href="#DejaVuSans-2e" x="63.623047"/>
       <use xlink:href="#DejaVuSans-38" x="95.410156"/>
      </g>
     </g>
    </g>
    <g id="ytick_12">
     <g id="line2d_73">
      <path d="M 591.545455 141.182549 
L 972 141.182549 
" clip-path="url(#p1a36d75301)" style="fill: none; stroke: #b0b0b0; stroke-width: 0.8; stroke-linecap: square"/>
     </g>
     <g id="line2d_74">
      <g>
       <use xlink:href="#m2fa7312700" x="591.545455" y="141.182549" style="stroke: #000000; stroke-width: 0.8"/>
      </g>
     </g>
     <g id="text_41">
      <!-- 1.0 -->
      <g transform="translate(568.64233 144.981768)scale(0.1 -0.1)">
       <use xlink:href="#DejaVuSans-31"/>
       <use xlink:href="#DejaVuSans-2e" x="63.623047"/>
       <use xlink:href="#DejaVuSans-30" x="95.410156"/>
      </g>
     </g>
    </g>
    <g id="ytick_13">
     <g id="line2d_75">
      <path d="M 591.545455 107.859059 
L 972 107.859059 
" clip-path="url(#p1a36d75301)" style="fill: none; stroke: #b0b0b0; stroke-width: 0.8; stroke-linecap: square"/>
     </g>
     <g id="line2d_76">
      <g>
       <use xlink:href="#m2fa7312700" x="591.545455" y="107.859059" style="stroke: #000000; stroke-width: 0.8"/>
      </g>
     </g>
     <g id="text_42">
      <!-- 1.2 -->
      <g transform="translate(568.64233 111.658278)scale(0.1 -0.1)">
       <use xlink:href="#DejaVuSans-31"/>
       <use xlink:href="#DejaVuSans-2e" x="63.623047"/>
       <use xlink:href="#DejaVuSans-32" x="95.410156"/>
      </g>
     </g>
    </g>
    <g id="ytick_14">
     <g id="line2d_77">
      <path d="M 591.545455 74.535569 
L 972 74.535569 
" clip-path="url(#p1a36d75301)" style="fill: none; stroke: #b0b0b0; stroke-width: 0.8; stroke-linecap: square"/>
     </g>
     <g id="line2d_78">
      <g>
       <use xlink:href="#m2fa7312700" x="591.545455" y="74.535569" style="stroke: #000000; stroke-width: 0.8"/>
      </g>
     </g>
     <g id="text_43">
      <!-- 1.4 -->
      <g transform="translate(568.64233 78.334788)scale(0.1 -0.1)">
       <use xlink:href="#DejaVuSans-31"/>
       <use xlink:href="#DejaVuSans-2e" x="63.623047"/>
       <use xlink:href="#DejaVuSans-34" x="95.410156"/>
      </g>
     </g>
    </g>
    <g id="text_44">
     <!-- $\Delta$ -->
     <g transform="translate(562.562642 185.25)rotate(-90)scale(0.1 -0.1)">
      <use xlink:href="#DejaVuSans-394" transform="translate(0 0.09375)"/>
     </g>
    </g>
   </g>
   <g id="line2d_79">
    <path d="M 608.838843 307.799991 
L 612.313162 307.70444 
L 613.181742 307.540131 
L 614.918901 306.951287 
L 615.787481 306.340229 
L 616.656061 305.504918 
L 617.524641 304.431506 
L 618.39322 303.116138 
L 620.13038 299.784214 
L 621.86754 295.613572 
L 623.604699 290.761839 
L 624.473279 288.134705 
L 625.341859 284.664429 
L 628.816178 273.137896 
L 634.896236 252.706124 
L 635.764816 249.9099 
L 636.633396 246.272571 
L 640.107715 236.023096 
L 642.713454 228.935334 
L 645.319193 222.377827 
L 647.924933 216.342548 
L 650.530672 210.80834 
L 651.399252 208.232823 
L 654.004991 203.467215 
L 656.61073 199.10544 
L 659.21647 195.115758 
L 661.822209 191.467041 
L 664.427948 188.12949 
L 667.033688 185.07507 
L 670.508007 181.398218 
L 673.982326 178.12265 
L 677.456645 175.198813 
L 680.930964 172.583219 
L 681.799544 171.972922 
L 682.668123 170.868185 
L 686.142442 168.731516 
L 690.485341 166.34876 
L 694.82824 164.243754 
L 699.171139 162.377825 
L 704.382618 160.40861 
L 709.594096 158.689699 
L 715.674155 156.949408 
L 721.754213 155.447451 
L 728.702851 153.971753 
L 736.520069 152.562603 
L 745.205867 151.247632 
L 754.760244 150.043125 
L 765.183201 148.956099 
L 777.343318 147.919518 
L 781.686217 147.598397 
L 781.686217 147.598397 
" clip-path="url(#p1a36d75301)" style="fill: none; stroke: #1f77b4; stroke-width: 1.5; stroke-linecap: square"/>
   </g>
   <g id="line2d_80">
    <path d="M 608.838843 307.72826 
L 610.576872 307.794689 
L 612.314901 307.729936 
L 614.05293 307.4657 
L 615.790959 306.718547 
L 617.528988 305.380934 
L 619.267017 303.090943 
L 621.005046 299.500336 
L 622.743075 295.077821 
L 624.481104 289.953667 
L 626.219133 284.347529 
L 634.909278 254.439381 
L 638.385336 243.396824 
L 640.123365 238.161404 
L 643.599423 228.657413 
L 647.075481 220.143967 
L 650.551539 212.572884 
L 652.289568 209.117064 
L 655.765626 202.909034 
L 659.241684 197.526635 
L 660.979713 194.975993 
L 664.455771 190.412682 
L 667.931829 186.277381 
L 669.669858 184.387132 
L 674.883945 179.412013 
L 678.360002 176.561333 
L 683.574089 172.866475 
L 687.050147 170.690535 
L 690.526205 168.728385 
L 694.002263 167.011654 
L 695.740292 168.848486 
L 700.954379 166.432477 
L 706.168466 164.319775 
L 711.382553 162.46375 
L 716.59664 160.825885 
L 723.548756 158.927061 
L 730.500872 157.298729 
L 737.452988 155.892687 
L 746.143133 154.390256 
L 754.833278 153.117737 
L 765.261452 151.832284 
L 777.427655 150.593969 
L 791.331887 149.442758 
L 806.974148 148.400666 
L 824.354437 147.475755 
L 845.210785 146.601555 
L 874.757278 145.629725 
L 906.0418 144.92027 
L 944.278438 144.283203 
L 954.706612 144.141264 
L 954.706612 144.141264 
" clip-path="url(#p1a36d75301)" style="fill: none; stroke: #ff7f0e; stroke-width: 1.5; stroke-linecap: square"/>
   </g>
   <g id="line2d_81">
    <path d="M 608.838843 307.8 
L 612.313162 307.745622 
L 614.050322 307.471732 
L 614.918901 307.134687 
L 615.787481 306.619495 
L 617.524641 304.866127 
L 619.2618 302.47029 
L 620.13038 300.926701 
L 620.99896 299.095813 
L 622.736119 294.631801 
L 623.604699 292.265504 
L 626.210438 283.807676 
L 627.947598 277.929137 
L 634.027656 256.772319 
L 638.370555 242.760858 
L 642.713454 230.230007 
L 646.187773 221.384538 
L 649.662092 213.517888 
L 653.136411 206.55488 
L 656.61073 200.405594 
L 660.085049 195.055183 
L 662.690789 191.363481 
L 666.165108 187.063534 
L 670.508007 182.322327 
L 673.982326 179.049548 
L 678.325225 175.40536 
L 682.668123 172.311528 
L 687.879602 169.062133 
L 693.091081 166.357947 
L 698.302559 164.040713 
L 704.382618 161.748781 
L 711.331256 159.563539 
L 717.411314 158.015948 
L 723.491373 156.691815 
L 726.965692 156.101068 
L 737.388649 154.295905 
L 753.023085 152.114659 
L 769.5261 150.471476 
L 781.686217 149.545685 
L 781.686217 149.545685 
" clip-path="url(#p1a36d75301)" style="fill: none; stroke: #2ca02c; stroke-width: 1.5; stroke-linecap: square"/>
   </g>
   <g id="line2d_82">
    <path d="M 608.838843 55.8 
L 610.576872 307.22948 
L 612.314901 307.366992 
L 614.05293 306.134084 
L 615.790959 304.24097 
L 617.528988 301.837453 
L 619.267017 299.074655 
L 621.005046 296.012743 
L 622.743075 294.11747 
L 626.219133 286.642056 
L 629.695191 278.437575 
L 634.909278 265.403094 
L 636.647307 259.028449 
L 640.123365 250.501477 
L 643.599423 242.426834 
L 647.075481 234.891063 
L 650.551539 227.928125 
L 654.027597 221.538672 
L 657.503655 215.702956 
L 660.979713 210.389408 
L 664.455771 205.560323 
L 667.931829 201.17561 
L 671.407887 197.195191 
L 674.883945 193.580498 
L 676.621974 191.89888 
L 678.360002 186.932549 
L 681.83606 184.33709 
L 685.312118 181.960661 
L 688.788176 179.780661 
L 694.002263 176.835894 
L 699.21635 174.230622 
L 704.430437 171.916381 
L 709.644524 169.852588 
L 714.858611 168.005155 
L 721.810727 165.829473 
L 728.762843 163.931685 
L 735.714959 162.266586 
L 744.405104 160.457336 
L 753.095249 158.897972 
L 763.523423 157.294551 
L 773.951597 155.927761 
L 786.1178 154.572291 
L 800.022032 153.272971 
L 815.664293 152.059119 
L 833.044582 150.946823 
L 852.162901 149.94202 
L 874.757278 148.976351 
L 900.827713 148.082775 
L 932.112235 147.235661 
L 954.706612 146.736714 
L 954.706612 146.736714 
" clip-path="url(#p1a36d75301)" style="fill: none; stroke: #d62728; stroke-width: 1.5; stroke-linecap: square"/>
   </g>
   <g id="line2d_83">
    <path d="M 608.838843 307.799973 
L 612.314901 307.736324 
L 614.05293 307.426634 
L 615.790959 306.577199 
L 617.528988 304.801468 
L 619.267017 302.058962 
L 621.005046 298.153416 
L 622.743075 293.7303 
L 626.219133 283.332651 
L 629.695191 271.730821 
L 634.909278 253.602694 
L 638.385336 242.475052 
L 641.861394 232.3193 
L 645.337452 223.120051 
L 648.81351 215.00149 
L 652.289568 207.816148 
L 654.027597 204.516362 
L 657.503655 198.559387 
L 660.979713 193.305599 
L 664.455771 188.667788 
L 667.931829 184.567058 
L 671.407887 180.933534 
L 674.883945 177.706146 
L 678.360002 174.831951 
L 681.83606 172.265276 
L 687.050147 168.935319 
L 690.526205 166.976613 
L 695.740292 164.420777 
L 699.21635 162.89966 
L 706.168466 160.262233 
L 713.120582 158.12282 
L 721.810727 155.888714 
L 732.238901 153.770828 
L 744.405104 151.86595 
L 760.047365 149.998519 
L 777.427655 148.549192 
L 801.760061 147.124128 
L 834.782611 145.937988 
L 874.757278 145.171732 
L 906.0418 144.906815 
L 909.517858 144.960753 
L 954.706612 144.599299 
L 954.706612 144.599299 
" clip-path="url(#p1a36d75301)" style="fill: none; stroke: #9467bd; stroke-width: 1.5; stroke-linecap: square"/>
   </g>
   <g id="line2d_84">
    <path d="M 608.838843 307.79998 
L 612.314901 307.743027 
L 614.05293 307.450886 
L 615.790959 306.612638 
L 617.528988 304.831519 
L 619.267017 302.053125 
L 621.005046 298.343627 
L 624.481104 288.480449 
L 626.219133 282.967328 
L 629.695191 271.172516 
L 638.385336 242.494817 
L 640.123365 237.210108 
L 643.599423 227.534717 
L 647.075481 218.893425 
L 650.551539 211.230493 
L 654.027597 204.460346 
L 657.503655 198.541237 
L 659.241684 195.794057 
L 662.717742 190.844184 
L 666.1938 186.471117 
L 669.669858 182.65071 
L 673.145916 179.212842 
L 676.621974 176.155234 
L 680.098031 173.428525 
L 683.574089 170.990196 
L 688.788176 167.816388 
L 694.002263 165.106466 
L 699.21635 162.778482 
L 704.430437 160.766826 
L 711.382553 158.50455 
L 720.072698 156.150594 
L 728.762843 154.290198 
L 732.238901 153.612932 
L 742.667075 151.910082 
L 753.095249 150.58928 
L 770.475539 148.841623 
L 789.593858 147.513955 
L 819.140351 146.075685 
L 859.115017 144.939989 
L 919.946032 144.11238 
L 954.706612 143.860207 
L 954.706612 143.860207 
" clip-path="url(#p1a36d75301)" style="fill: none; stroke: #8c564b; stroke-width: 1.5; stroke-linecap: square"/>
   </g>
   <g id="line2d_85">
    <path d="M 608.838843 307.799986 
L 612.314901 307.730006 
L 614.05293 307.427808 
L 615.790959 306.589229 
L 617.528988 304.794971 
L 619.267017 301.974453 
L 621.005046 298.187035 
L 622.743075 293.602524 
L 624.481104 288.423857 
L 627.957162 276.996367 
L 629.695191 270.660166 
L 634.909278 253.239127 
L 638.385336 242.451395 
L 641.861394 232.341191 
L 643.599423 227.551807 
L 647.075481 218.983217 
L 648.81351 214.950289 
L 652.289568 207.718724 
L 655.765626 201.394711 
L 657.503655 198.464903 
L 660.979713 193.231714 
L 662.717742 190.801884 
L 666.1938 186.421124 
L 669.669858 182.578708 
L 673.145916 179.134603 
L 676.621974 176.113668 
L 680.098031 173.377066 
L 683.574089 170.931722 
L 687.050147 168.778538 
L 690.526205 166.802506 
L 695.740292 164.215267 
L 700.954379 161.987134 
L 706.168466 160.100537 
L 709.644524 158.937682 
L 716.59664 156.943746 
L 723.548756 155.264505 
L 732.238901 153.528317 
L 735.714959 152.894959 
L 746.143133 151.339726 
L 760.047365 149.689165 
L 775.689626 148.289121 
L 794.807945 147.038425 
L 822.616408 145.768498 
L 864.329104 144.60037 
L 935.588293 143.585674 
L 954.706612 143.451944 
L 954.706612 143.451944 
" clip-path="url(#p1a36d75301)" style="fill: none; stroke: #e377c2; stroke-width: 1.5; stroke-linecap: square"/>
   </g>
   <g id="patch_9">
    <path d="M 591.545455 320.4 
L 591.545455 43.2 
" style="fill: none; stroke: #000000; stroke-width: 0.8; stroke-linejoin: miter; stroke-linecap: square"/>
   </g>
   <g id="patch_10">
    <path d="M 972 320.4 
L 972 43.2 
" style="fill: none; stroke: #000000; stroke-width: 0.8; stroke-linejoin: miter; stroke-linecap: square"/>
   </g>
   <g id="patch_11">
    <path d="M 591.545455 320.4 
L 972 320.4 
" style="fill: none; stroke: #000000; stroke-width: 0.8; stroke-linejoin: miter; stroke-linecap: square"/>
   </g>
   <g id="patch_12">
    <path d="M 591.545455 43.2 
L 972 43.2 
" style="fill: none; stroke: #000000; stroke-width: 0.8; stroke-linejoin: miter; stroke-linecap: square"/>
   </g>
   <g id="text_45">
    <!-- $\Delta_{CDW}^2 + (1-J/U)^2\Delta_{SC}^2$ -->
    <g transform="translate(722.852727 37.2)scale(0.12 -0.12)">
     <defs>
      <path id="DejaVuSans-28" d="M 1984 4856 
Q 1566 4138 1362 3434 
Q 1159 2731 1159 2009 
Q 1159 1288 1364 580 
Q 1569 -128 1984 -844 
L 1484 -844 
Q 1016 -109 783 600 
Q 550 1309 550 2009 
Q 550 2706 781 3412 
Q 1013 4119 1484 4856 
L 1984 4856 
z
" transform="scale(0.015625)"/>
      <path id="DejaVuSans-2212" d="M 678 2272 
L 4684 2272 
L 4684 1741 
L 678 1741 
L 678 2272 
z
" transform="scale(0.015625)"/>
      <path id="DejaVuSans-Oblique-4a" d="M 1069 4666 
L 1703 4666 
L 856 325 
Q 691 -522 298 -901 
Q -94 -1281 -800 -1281 
L -1050 -1281 
L -947 -750 
L -750 -750 
Q -328 -750 -109 -509 
Q 109 -269 225 325 
L 1069 4666 
z
" transform="scale(0.015625)"/>
      <path id="DejaVuSans-Oblique-55" d="M 991 4666 
L 1625 4666 
L 1075 1831 
Q 1041 1641 1027 1517 
Q 1013 1394 1013 1300 
Q 1013 869 1253 645 
Q 1494 422 1959 422 
Q 2563 422 2898 753 
Q 3234 1084 3378 1831 
L 3928 4666 
L 4563 4666 
L 4000 1753 
Q 3816 809 3300 359 
Q 2784 -91 1888 -91 
Q 1188 -91 780 261 
Q 372 613 372 1216 
Q 372 1325 387 1461 
Q 403 1597 434 1753 
L 991 4666 
z
" transform="scale(0.015625)"/>
      <path id="DejaVuSans-29" d="M 513 4856 
L 1013 4856 
Q 1481 4119 1714 3412 
Q 1947 2706 1947 2009 
Q 1947 1309 1714 600 
Q 1481 -109 1013 -844 
L 513 -844 
Q 928 -128 1133 580 
Q 1338 1288 1338 2009 
Q 1338 2731 1133 3434 
Q 928 4138 513 4856 
z
" transform="scale(0.015625)"/>
     </defs>
     <use xlink:href="#DejaVuSans-394" transform="translate(0 0.765625)"/>
     <use xlink:href="#DejaVuSans-32" transform="translate(69.365234 39.046875)scale(0.7)"/>
     <use xlink:href="#DejaVuSans-Oblique-43" transform="translate(69.365234 -26.578125)scale(0.7)"/>
     <use xlink:href="#DejaVuSans-Oblique-44" transform="translate(118.242188 -26.578125)scale(0.7)"/>
     <use xlink:href="#DejaVuSans-Oblique-57" transform="translate(172.143555 -26.578125)scale(0.7)"/>
     <use xlink:href="#DejaVuSans-2b" transform="translate(263.574219 0.765625)"/>
     <use xlink:href="#DejaVuSans-28" transform="translate(366.845703 0.765625)"/>
     <use xlink:href="#DejaVuSans-31" transform="translate(405.859375 0.765625)"/>
     <use xlink:href="#DejaVuSans-2212" transform="translate(488.964844 0.765625)"/>
     <use xlink:href="#DejaVuSans-Oblique-4a" transform="translate(592.236328 0.765625)"/>
     <use xlink:href="#DejaVuSans-2f" transform="translate(621.728516 0.765625)"/>
     <use xlink:href="#DejaVuSans-Oblique-55" transform="translate(655.419922 0.765625)"/>
     <use xlink:href="#DejaVuSans-29" transform="translate(728.613281 0.765625)"/>
     <use xlink:href="#DejaVuSans-32" transform="translate(768.583984 39.046875)scale(0.7)"/>
     <use xlink:href="#DejaVuSans-394" transform="translate(815.854492 0.765625)"/>
     <use xlink:href="#DejaVuSans-32" transform="translate(885.219727 39.046875)scale(0.7)"/>
     <use xlink:href="#DejaVuSans-Oblique-53" transform="translate(885.219727 -26.578125)scale(0.7)"/>
     <use xlink:href="#DejaVuSans-Oblique-43" transform="translate(929.65332 -26.578125)scale(0.7)"/>
    </g>
   </g>
   <g id="legend_2">
    <g id="patch_13">
     <path d="M 905.767187 315.4 
L 965 315.4 
Q 967 315.4 967 313.4 
L 967 211.653125 
Q 967 209.653125 965 209.653125 
L 905.767187 209.653125 
Q 903.767187 209.653125 903.767187 211.653125 
L 903.767187 313.4 
Q 903.767187 315.4 905.767187 315.4 
z
" style="fill: #ffffff; opacity: 0.8; stroke: #cccccc; stroke-linejoin: miter"/>
    </g>
    <g id="line2d_86">
     <path d="M 907.767187 217.751563 
L 917.767187 217.751563 
L 927.767187 217.751563 
" style="fill: none; stroke: #1f77b4; stroke-width: 1.5; stroke-linecap: square"/>
    </g>
    <g id="text_46">
     <!-- J=0 -->
     <g transform="translate(935.767187 221.251563)scale(0.1 -0.1)">
      <use xlink:href="#DejaVuSans-4a"/>
      <use xlink:href="#DejaVuSans-3d" x="29.492188"/>
      <use xlink:href="#DejaVuSans-30" x="113.28125"/>
     </g>
    </g>
    <g id="line2d_87">
     <path d="M 907.767187 232.429688 
L 917.767187 232.429688 
L 927.767187 232.429688 
" style="fill: none; stroke: #ff7f0e; stroke-width: 1.5; stroke-linecap: square"/>
    </g>
    <g id="text_47">
     <!-- J=0.1 -->
     <g transform="translate(935.767187 235.929688)scale(0.1 -0.1)">
      <use xlink:href="#DejaVuSans-4a"/>
      <use xlink:href="#DejaVuSans-3d" x="29.492188"/>
      <use xlink:href="#DejaVuSans-30" x="113.28125"/>
      <use xlink:href="#DejaVuSans-2e" x="176.904297"/>
      <use xlink:href="#DejaVuSans-31" x="208.691406"/>
     </g>
    </g>
    <g id="line2d_88">
     <path d="M 907.767187 247.107813 
L 917.767187 247.107813 
L 927.767187 247.107813 
" style="fill: none; stroke: #2ca02c; stroke-width: 1.5; stroke-linecap: square"/>
    </g>
    <g id="text_48">
     <!-- J=0.2 -->
     <g transform="translate(935.767187 250.607813)scale(0.1 -0.1)">
      <use xlink:href="#DejaVuSans-4a"/>
      <use xlink:href="#DejaVuSans-3d" x="29.492188"/>
      <use xlink:href="#DejaVuSans-30" x="113.28125"/>
      <use xlink:href="#DejaVuSans-2e" x="176.904297"/>
      <use xlink:href="#DejaVuSans-32" x="208.691406"/>
     </g>
    </g>
    <g id="line2d_89">
     <path d="M 907.767187 261.785938 
L 917.767187 261.785938 
L 927.767187 261.785938 
" style="fill: none; stroke: #d62728; stroke-width: 1.5; stroke-linecap: square"/>
    </g>
    <g id="text_49">
     <!-- J=0.3 -->
     <g transform="translate(935.767187 265.285938)scale(0.1 -0.1)">
      <use xlink:href="#DejaVuSans-4a"/>
      <use xlink:href="#DejaVuSans-3d" x="29.492188"/>
      <use xlink:href="#DejaVuSans-30" x="113.28125"/>
      <use xlink:href="#DejaVuSans-2e" x="176.904297"/>
      <use xlink:href="#DejaVuSans-33" x="208.691406"/>
     </g>
    </g>
    <g id="line2d_90">
     <path d="M 907.767187 276.464063 
L 917.767187 276.464063 
L 927.767187 276.464063 
" style="fill: none; stroke: #9467bd; stroke-width: 1.5; stroke-linecap: square"/>
    </g>
    <g id="text_50">
     <!-- J=0.5 -->
     <g transform="translate(935.767187 279.964063)scale(0.1 -0.1)">
      <use xlink:href="#DejaVuSans-4a"/>
      <use xlink:href="#DejaVuSans-3d" x="29.492188"/>
      <use xlink:href="#DejaVuSans-30" x="113.28125"/>
      <use xlink:href="#DejaVuSans-2e" x="176.904297"/>
      <use xlink:href="#DejaVuSans-35" x="208.691406"/>
     </g>
    </g>
    <g id="line2d_91">
     <path d="M 907.767187 291.142188 
L 917.767187 291.142188 
L 927.767187 291.142188 
" style="fill: none; stroke: #8c564b; stroke-width: 1.5; stroke-linecap: square"/>
    </g>
    <g id="text_51">
     <!-- J=0.7 -->
     <g transform="translate(935.767187 294.642188)scale(0.1 -0.1)">
      <use xlink:href="#DejaVuSans-4a"/>
      <use xlink:href="#DejaVuSans-3d" x="29.492188"/>
      <use xlink:href="#DejaVuSans-30" x="113.28125"/>
      <use xlink:href="#DejaVuSans-2e" x="176.904297"/>
      <use xlink:href="#DejaVuSans-37" x="208.691406"/>
     </g>
    </g>
    <g id="line2d_92">
     <path d="M 907.767187 305.820312 
L 917.767187 305.820312 
L 927.767187 305.820312 
" style="fill: none; stroke: #e377c2; stroke-width: 1.5; stroke-linecap: square"/>
    </g>
    <g id="text_52">
     <!-- J=1 -->
     <g transform="translate(935.767187 309.320312)scale(0.1 -0.1)">
      <use xlink:href="#DejaVuSans-4a"/>
      <use xlink:href="#DejaVuSans-3d" x="29.492188"/>
      <use xlink:href="#DejaVuSans-31" x="113.28125"/>
     </g>
    </g>
   </g>
  </g>
 </g>
 <defs>
  <clipPath id="p2ab96ebf59">
   <rect x="135" y="43.2" width="380.454545" height="277.2"/>
  </clipPath>
  <clipPath id="p1a36d75301">
   <rect x="591.545455" y="43.2" width="380.454545" height="277.2"/>
  </clipPath>
 </defs>
</svg>
