<?xml version="1.0" encoding="utf-8" standalone="no"?>
<!DOCTYPE svg PUBLIC "-//W3C//DTD SVG 1.1//EN"
  "http://www.w3.org/Graphics/SVG/1.1/DTD/svg11.dtd">
<svg xmlns:xlink="http://www.w3.org/1999/xlink" width="648pt" height="432pt" viewBox="0 0 648 432" xmlns="http://www.w3.org/2000/svg" version="1.1">
 <metadata>
  <rdf:RDF xmlns:dc="http://purl.org/dc/elements/1.1/" xmlns:cc="http://creativecommons.org/ns#" xmlns:rdf="http://www.w3.org/1999/02/22-rdf-syntax-ns#">
   <cc:Work>
    <dc:type rdf:resource="http://purl.org/dc/dcmitype/StillImage"/>
    <dc:date>2024-02-29T14:24:09.471964</dc:date>
    <dc:format>image/svg+xml</dc:format>
    <dc:creator>
     <cc:Agent>
      <dc:title>Matplotlib v3.5.3, https://matplotlib.org/</dc:title>
     </cc:Agent>
    </dc:creator>
   </cc:Work>
  </rdf:RDF>
 </metadata>
 <defs>
  <style type="text/css">*{stroke-linejoin: round; stroke-linecap: butt}</style>
 </defs>
 <g id="figure_1">
  <g id="patch_1">
   <path d="M 0 432 
L 648 432 
L 648 0 
L 0 0 
z
" style="fill: #ffffff"/>
  </g>
  <g id="axes_1">
   <g id="patch_2">
    <path d="M 81 384.48 
L 309.272727 384.48 
L 309.272727 51.84 
L 81 51.84 
z
" style="fill: #ffffff"/>
   </g>
   <g id="matplotlib.axis_1">
    <g id="xtick_1">
     <g id="line2d_1">
      <path d="M 91.272221 384.48 
L 91.272221 51.84 
" clip-path="url(#p11669f6c9d)" style="fill: none; stroke: #b0b0b0; stroke-width: 0.8; stroke-linecap: square"/>
     </g>
     <g id="line2d_2">
      <defs>
       <path id="m352599af73" d="M 0 0 
L 0 3.5 
" style="stroke: #000000; stroke-width: 0.8"/>
      </defs>
      <g>
       <use xlink:href="#m352599af73" x="91.272221" y="384.48" style="stroke: #000000; stroke-width: 0.8"/>
      </g>
     </g>
     <g id="text_1">
      <!-- 0 -->
      <g transform="translate(88.090971 399.078438)scale(0.1 -0.1)">
       <defs>
        <path id="DejaVuSans-30" d="M 2034 4250 
Q 1547 4250 1301 3770 
Q 1056 3291 1056 2328 
Q 1056 1369 1301 889 
Q 1547 409 2034 409 
Q 2525 409 2770 889 
Q 3016 1369 3016 2328 
Q 3016 3291 2770 3770 
Q 2525 4250 2034 4250 
z
M 2034 4750 
Q 2819 4750 3233 4129 
Q 3647 3509 3647 2328 
Q 3647 1150 3233 529 
Q 2819 -91 2034 -91 
Q 1250 -91 836 529 
Q 422 1150 422 2328 
Q 422 3509 836 4129 
Q 1250 4750 2034 4750 
z
" transform="scale(0.015625)"/>
       </defs>
       <use xlink:href="#DejaVuSans-30"/>
      </g>
     </g>
    </g>
    <g id="xtick_2">
     <g id="line2d_3">
      <path d="M 143.178339 384.48 
L 143.178339 51.84 
" clip-path="url(#p11669f6c9d)" style="fill: none; stroke: #b0b0b0; stroke-width: 0.8; stroke-linecap: square"/>
     </g>
     <g id="line2d_4">
      <g>
       <use xlink:href="#m352599af73" x="143.178339" y="384.48" style="stroke: #000000; stroke-width: 0.8"/>
      </g>
     </g>
     <g id="text_2">
      <!-- 5 -->
      <g transform="translate(139.997089 399.078438)scale(0.1 -0.1)">
       <defs>
        <path id="DejaVuSans-35" d="M 691 4666 
L 3169 4666 
L 3169 4134 
L 1269 4134 
L 1269 2991 
Q 1406 3038 1543 3061 
Q 1681 3084 1819 3084 
Q 2600 3084 3056 2656 
Q 3513 2228 3513 1497 
Q 3513 744 3044 326 
Q 2575 -91 1722 -91 
Q 1428 -91 1123 -41 
Q 819 9 494 109 
L 494 744 
Q 775 591 1075 516 
Q 1375 441 1709 441 
Q 2250 441 2565 725 
Q 2881 1009 2881 1497 
Q 2881 1984 2565 2268 
Q 2250 2553 1709 2553 
Q 1456 2553 1204 2497 
Q 953 2441 691 2322 
L 691 4666 
z
" transform="scale(0.015625)"/>
       </defs>
       <use xlink:href="#DejaVuSans-35"/>
      </g>
     </g>
    </g>
    <g id="xtick_3">
     <g id="line2d_5">
      <path d="M 195.084458 384.48 
L 195.084458 51.84 
" clip-path="url(#p11669f6c9d)" style="fill: none; stroke: #b0b0b0; stroke-width: 0.8; stroke-linecap: square"/>
     </g>
     <g id="line2d_6">
      <g>
       <use xlink:href="#m352599af73" x="195.084458" y="384.48" style="stroke: #000000; stroke-width: 0.8"/>
      </g>
     </g>
     <g id="text_3">
      <!-- 10 -->
      <g transform="translate(188.721958 399.078438)scale(0.1 -0.1)">
       <defs>
        <path id="DejaVuSans-31" d="M 794 531 
L 1825 531 
L 1825 4091 
L 703 3866 
L 703 4441 
L 1819 4666 
L 2450 4666 
L 2450 531 
L 3481 531 
L 3481 0 
L 794 0 
L 794 531 
z
" transform="scale(0.015625)"/>
       </defs>
       <use xlink:href="#DejaVuSans-31"/>
       <use xlink:href="#DejaVuSans-30" x="63.623047"/>
      </g>
     </g>
    </g>
    <g id="xtick_4">
     <g id="line2d_7">
      <path d="M 246.990576 384.48 
L 246.990576 51.84 
" clip-path="url(#p11669f6c9d)" style="fill: none; stroke: #b0b0b0; stroke-width: 0.8; stroke-linecap: square"/>
     </g>
     <g id="line2d_8">
      <g>
       <use xlink:href="#m352599af73" x="246.990576" y="384.48" style="stroke: #000000; stroke-width: 0.8"/>
      </g>
     </g>
     <g id="text_4">
      <!-- 15 -->
      <g transform="translate(240.628076 399.078438)scale(0.1 -0.1)">
       <use xlink:href="#DejaVuSans-31"/>
       <use xlink:href="#DejaVuSans-35" x="63.623047"/>
      </g>
     </g>
    </g>
    <g id="xtick_5">
     <g id="line2d_9">
      <path d="M 298.896694 384.48 
L 298.896694 51.84 
" clip-path="url(#p11669f6c9d)" style="fill: none; stroke: #b0b0b0; stroke-width: 0.8; stroke-linecap: square"/>
     </g>
     <g id="line2d_10">
      <g>
       <use xlink:href="#m352599af73" x="298.896694" y="384.48" style="stroke: #000000; stroke-width: 0.8"/>
      </g>
     </g>
     <g id="text_5">
      <!-- 20 -->
      <g transform="translate(292.534194 399.078438)scale(0.1 -0.1)">
       <defs>
        <path id="DejaVuSans-32" d="M 1228 531 
L 3431 531 
L 3431 0 
L 469 0 
L 469 531 
Q 828 903 1448 1529 
Q 2069 2156 2228 2338 
Q 2531 2678 2651 2914 
Q 2772 3150 2772 3378 
Q 2772 3750 2511 3984 
Q 2250 4219 1831 4219 
Q 1534 4219 1204 4116 
Q 875 4013 500 3803 
L 500 4441 
Q 881 4594 1212 4672 
Q 1544 4750 1819 4750 
Q 2544 4750 2975 4387 
Q 3406 4025 3406 3419 
Q 3406 3131 3298 2873 
Q 3191 2616 2906 2266 
Q 2828 2175 2409 1742 
Q 1991 1309 1228 531 
z
" transform="scale(0.015625)"/>
       </defs>
       <use xlink:href="#DejaVuSans-32"/>
       <use xlink:href="#DejaVuSans-30" x="63.623047"/>
      </g>
     </g>
    </g>
    <g id="text_6">
     <!-- U/t -->
     <g transform="translate(187.832457 412.756563)scale(0.1 -0.1)">
      <defs>
       <path id="DejaVuSans-55" d="M 556 4666 
L 1191 4666 
L 1191 1831 
Q 1191 1081 1462 751 
Q 1734 422 2344 422 
Q 2950 422 3222 751 
Q 3494 1081 3494 1831 
L 3494 4666 
L 4128 4666 
L 4128 1753 
Q 4128 841 3676 375 
Q 3225 -91 2344 -91 
Q 1459 -91 1007 375 
Q 556 841 556 1753 
L 556 4666 
z
" transform="scale(0.015625)"/>
       <path id="DejaVuSans-2f" d="M 1625 4666 
L 2156 4666 
L 531 -594 
L 0 -594 
L 1625 4666 
z
" transform="scale(0.015625)"/>
       <path id="DejaVuSans-74" d="M 1172 4494 
L 1172 3500 
L 2356 3500 
L 2356 3053 
L 1172 3053 
L 1172 1153 
Q 1172 725 1289 603 
Q 1406 481 1766 481 
L 2356 481 
L 2356 0 
L 1766 0 
Q 1100 0 847 248 
Q 594 497 594 1153 
L 594 3053 
L 172 3053 
L 172 3500 
L 594 3500 
L 594 4494 
L 1172 4494 
z
" transform="scale(0.015625)"/>
      </defs>
      <use xlink:href="#DejaVuSans-55"/>
      <use xlink:href="#DejaVuSans-2f" x="73.193359"/>
      <use xlink:href="#DejaVuSans-74" x="106.884766"/>
     </g>
    </g>
   </g>
   <g id="matplotlib.axis_2">
    <g id="ytick_1">
     <g id="line2d_11">
      <path d="M 81 369.36 
L 309.272727 369.36 
" clip-path="url(#p11669f6c9d)" style="fill: none; stroke: #b0b0b0; stroke-width: 0.8; stroke-linecap: square"/>
     </g>
     <g id="line2d_12">
      <defs>
       <path id="md87b77fd6c" d="M 0 0 
L -3.5 0 
" style="stroke: #000000; stroke-width: 0.8"/>
      </defs>
      <g>
       <use xlink:href="#md87b77fd6c" x="81" y="369.36" style="stroke: #000000; stroke-width: 0.8"/>
      </g>
     </g>
     <g id="text_7">
      <!-- 0.00 -->
      <g transform="translate(51.734375 373.159219)scale(0.1 -0.1)">
       <defs>
        <path id="DejaVuSans-2e" d="M 684 794 
L 1344 794 
L 1344 0 
L 684 0 
L 684 794 
z
" transform="scale(0.015625)"/>
       </defs>
       <use xlink:href="#DejaVuSans-30"/>
       <use xlink:href="#DejaVuSans-2e" x="63.623047"/>
       <use xlink:href="#DejaVuSans-30" x="95.410156"/>
       <use xlink:href="#DejaVuSans-30" x="159.033203"/>
      </g>
     </g>
    </g>
    <g id="ytick_2">
     <g id="line2d_13">
      <path d="M 81 330.869933 
L 309.272727 330.869933 
" clip-path="url(#p11669f6c9d)" style="fill: none; stroke: #b0b0b0; stroke-width: 0.8; stroke-linecap: square"/>
     </g>
     <g id="line2d_14">
      <g>
       <use xlink:href="#md87b77fd6c" x="81" y="330.869933" style="stroke: #000000; stroke-width: 0.8"/>
      </g>
     </g>
     <g id="text_8">
      <!-- 0.25 -->
      <g transform="translate(51.734375 334.669152)scale(0.1 -0.1)">
       <use xlink:href="#DejaVuSans-30"/>
       <use xlink:href="#DejaVuSans-2e" x="63.623047"/>
       <use xlink:href="#DejaVuSans-32" x="95.410156"/>
       <use xlink:href="#DejaVuSans-35" x="159.033203"/>
      </g>
     </g>
    </g>
    <g id="ytick_3">
     <g id="line2d_15">
      <path d="M 81 292.379866 
L 309.272727 292.379866 
" clip-path="url(#p11669f6c9d)" style="fill: none; stroke: #b0b0b0; stroke-width: 0.8; stroke-linecap: square"/>
     </g>
     <g id="line2d_16">
      <g>
       <use xlink:href="#md87b77fd6c" x="81" y="292.379866" style="stroke: #000000; stroke-width: 0.8"/>
      </g>
     </g>
     <g id="text_9">
      <!-- 0.50 -->
      <g transform="translate(51.734375 296.179085)scale(0.1 -0.1)">
       <use xlink:href="#DejaVuSans-30"/>
       <use xlink:href="#DejaVuSans-2e" x="63.623047"/>
       <use xlink:href="#DejaVuSans-35" x="95.410156"/>
       <use xlink:href="#DejaVuSans-30" x="159.033203"/>
      </g>
     </g>
    </g>
    <g id="ytick_4">
     <g id="line2d_17">
      <path d="M 81 253.8898 
L 309.272727 253.8898 
" clip-path="url(#p11669f6c9d)" style="fill: none; stroke: #b0b0b0; stroke-width: 0.8; stroke-linecap: square"/>
     </g>
     <g id="line2d_18">
      <g>
       <use xlink:href="#md87b77fd6c" x="81" y="253.8898" style="stroke: #000000; stroke-width: 0.8"/>
      </g>
     </g>
     <g id="text_10">
      <!-- 0.75 -->
      <g transform="translate(51.734375 257.689018)scale(0.1 -0.1)">
       <defs>
        <path id="DejaVuSans-37" d="M 525 4666 
L 3525 4666 
L 3525 4397 
L 1831 0 
L 1172 0 
L 2766 4134 
L 525 4134 
L 525 4666 
z
" transform="scale(0.015625)"/>
       </defs>
       <use xlink:href="#DejaVuSans-30"/>
       <use xlink:href="#DejaVuSans-2e" x="63.623047"/>
       <use xlink:href="#DejaVuSans-37" x="95.410156"/>
       <use xlink:href="#DejaVuSans-35" x="159.033203"/>
      </g>
     </g>
    </g>
    <g id="ytick_5">
     <g id="line2d_19">
      <path d="M 81 215.399733 
L 309.272727 215.399733 
" clip-path="url(#p11669f6c9d)" style="fill: none; stroke: #b0b0b0; stroke-width: 0.8; stroke-linecap: square"/>
     </g>
     <g id="line2d_20">
      <g>
       <use xlink:href="#md87b77fd6c" x="81" y="215.399733" style="stroke: #000000; stroke-width: 0.8"/>
      </g>
     </g>
     <g id="text_11">
      <!-- 1.00 -->
      <g transform="translate(51.734375 219.198952)scale(0.1 -0.1)">
       <use xlink:href="#DejaVuSans-31"/>
       <use xlink:href="#DejaVuSans-2e" x="63.623047"/>
       <use xlink:href="#DejaVuSans-30" x="95.410156"/>
       <use xlink:href="#DejaVuSans-30" x="159.033203"/>
      </g>
     </g>
    </g>
    <g id="ytick_6">
     <g id="line2d_21">
      <path d="M 81 176.909666 
L 309.272727 176.909666 
" clip-path="url(#p11669f6c9d)" style="fill: none; stroke: #b0b0b0; stroke-width: 0.8; stroke-linecap: square"/>
     </g>
     <g id="line2d_22">
      <g>
       <use xlink:href="#md87b77fd6c" x="81" y="176.909666" style="stroke: #000000; stroke-width: 0.8"/>
      </g>
     </g>
     <g id="text_12">
      <!-- 1.25 -->
      <g transform="translate(51.734375 180.708885)scale(0.1 -0.1)">
       <use xlink:href="#DejaVuSans-31"/>
       <use xlink:href="#DejaVuSans-2e" x="63.623047"/>
       <use xlink:href="#DejaVuSans-32" x="95.410156"/>
       <use xlink:href="#DejaVuSans-35" x="159.033203"/>
      </g>
     </g>
    </g>
    <g id="ytick_7">
     <g id="line2d_23">
      <path d="M 81 138.419599 
L 309.272727 138.419599 
" clip-path="url(#p11669f6c9d)" style="fill: none; stroke: #b0b0b0; stroke-width: 0.8; stroke-linecap: square"/>
     </g>
     <g id="line2d_24">
      <g>
       <use xlink:href="#md87b77fd6c" x="81" y="138.419599" style="stroke: #000000; stroke-width: 0.8"/>
      </g>
     </g>
     <g id="text_13">
      <!-- 1.50 -->
      <g transform="translate(51.734375 142.218818)scale(0.1 -0.1)">
       <use xlink:href="#DejaVuSans-31"/>
       <use xlink:href="#DejaVuSans-2e" x="63.623047"/>
       <use xlink:href="#DejaVuSans-35" x="95.410156"/>
       <use xlink:href="#DejaVuSans-30" x="159.033203"/>
      </g>
     </g>
    </g>
    <g id="ytick_8">
     <g id="line2d_25">
      <path d="M 81 99.929533 
L 309.272727 99.929533 
" clip-path="url(#p11669f6c9d)" style="fill: none; stroke: #b0b0b0; stroke-width: 0.8; stroke-linecap: square"/>
     </g>
     <g id="line2d_26">
      <g>
       <use xlink:href="#md87b77fd6c" x="81" y="99.929533" style="stroke: #000000; stroke-width: 0.8"/>
      </g>
     </g>
     <g id="text_14">
      <!-- 1.75 -->
      <g transform="translate(51.734375 103.728751)scale(0.1 -0.1)">
       <use xlink:href="#DejaVuSans-31"/>
       <use xlink:href="#DejaVuSans-2e" x="63.623047"/>
       <use xlink:href="#DejaVuSans-37" x="95.410156"/>
       <use xlink:href="#DejaVuSans-35" x="159.033203"/>
      </g>
     </g>
    </g>
    <g id="ytick_9">
     <g id="line2d_27">
      <path d="M 81 61.439466 
L 309.272727 61.439466 
" clip-path="url(#p11669f6c9d)" style="fill: none; stroke: #b0b0b0; stroke-width: 0.8; stroke-linecap: square"/>
     </g>
     <g id="line2d_28">
      <g>
       <use xlink:href="#md87b77fd6c" x="81" y="61.439466" style="stroke: #000000; stroke-width: 0.8"/>
      </g>
     </g>
     <g id="text_15">
      <!-- 2.00 -->
      <g transform="translate(51.734375 65.238685)scale(0.1 -0.1)">
       <use xlink:href="#DejaVuSans-32"/>
       <use xlink:href="#DejaVuSans-2e" x="63.623047"/>
       <use xlink:href="#DejaVuSans-30" x="95.410156"/>
       <use xlink:href="#DejaVuSans-30" x="159.033203"/>
      </g>
     </g>
    </g>
    <g id="text_16">
     <!-- $\Delta$ -->
     <g transform="translate(45.654688 221.61)rotate(-90)scale(0.1 -0.1)">
      <defs>
       <path id="DejaVuSans-394" d="M 2188 4044 
L 906 525 
L 3472 525 
L 2188 4044 
z
M 50 0 
L 1831 4666 
L 2547 4666 
L 4325 0 
L 50 0 
z
" transform="scale(0.015625)"/>
      </defs>
      <use xlink:href="#DejaVuSans-394" transform="translate(0 0.09375)"/>
     </g>
    </g>
   </g>
   <g id="line2d_29">
    <path d="M 91.376033 369.359997 
L 92.41885 367.621419 
L 93.461668 363.047199 
L 94.504485 355.623113 
L 96.59012 333.661919 
L 97.632937 319.533449 
L 99.718572 286.724285 
L 101.804207 257.311705 
L 102.847024 243.083675 
L 103.889842 230.865973 
L 107.018294 200.648416 
L 108.061111 191.925357 
L 110.146746 177.47254 
L 112.232381 166.391958 
L 114.318016 157.356676 
L 116.40365 149.966442 
L 117.446468 146.784892 
L 118.489285 145.130485 
L 119.532103 142.523612 
L 120.57492 141.47795 
L 121.617737 140.723944 
L 122.660555 138.757364 
L 123.703372 138.42264 
L 125.789007 135.252635 
L 127.874642 132.578847 
L 128.917459 132.870417 
L 131.003094 130.754428 
L 132.045911 131.290316 
L 133.088729 130.404422 
L 134.131546 131.068306 
L 135.174364 130.2866 
L 136.217181 131.048472 
L 137.259998 130.350618 
L 138.302816 131.186601 
L 139.345633 130.556523 
L 142.474085 133.30806 
L 143.516903 235.406038 
L 147.688172 234.522331 
L 152.902259 233.666325 
L 159.159164 232.903734 
L 166.458885 232.267345 
L 174.801424 231.763784 
L 186.272416 231.317692 
L 200.871859 230.991751 
L 221.728207 230.769025 
L 237.370468 230.697348 
L 238.413285 231.44615 
L 276.997529 231.273915 
L 298.896694 231.235156 
L 298.896694 231.235156 
" clip-path="url(#p11669f6c9d)" style="fill: none; stroke: #1f77b4; stroke-width: 1.5; stroke-linecap: square"/>
   </g>
   <g id="line2d_30">
    <path d="M 91.376033 369.336273 
L 92.41885 367.66051 
L 93.461668 363.845163 
L 94.504485 354.902134 
L 96.59012 330.191624 
L 97.632937 316.072674 
L 100.76139 268.762489 
L 102.847024 240.186948 
L 103.889842 227.519398 
L 105.975477 205.656155 
L 108.061111 187.260281 
L 110.146746 172.368178 
L 111.189564 165.30598 
L 113.275198 153.950284 
L 115.360833 144.474388 
L 117.446468 136.536671 
L 119.532103 129.858516 
L 121.617737 124.214253 
L 123.703372 119.421558 
L 124.74619 118.101282 
L 126.831824 114.325347 
L 127.874642 113.519538 
L 128.917459 111.956038 
L 129.960277 111.442105 
L 131.003094 110.08473 
L 132.045911 109.813636 
L 133.088729 108.625121 
L 134.131546 108.555948 
L 135.174364 108.601396 
L 136.217181 107.604639 
L 138.302816 108.086201 
L 140.388451 108.892966 
L 141.431268 109.39998 
L 142.474085 111.379515 
L 143.516903 112.037256 
L 144.55972 111.258953 
L 145.602537 111.972517 
L 146.645355 111.240826 
L 148.73099 112.788703 
L 149.773807 112.099259 
L 150.816624 112.918536 
L 151.859442 112.260326 
L 152.902259 113.101862 
L 153.945077 112.47055 
L 156.030711 114.201809 
L 157.073529 113.589984 
L 159.159164 115.363913 
L 160.201981 114.766059 
L 163.330433 117.467653 
L 164.373251 116.873285 
L 169.587338 121.395159 
L 170.630155 120.786268 
L 180.015511 128.699074 
L 184.186781 132.064489 
L 185.229598 134.405303 
L 189.400868 137.604658 
L 190.443685 139.900838 
L 192.52932 141.42257 
L 193.572138 143.687742 
L 194.614955 144.42043 
L 195.657772 146.663854 
L 196.70059 229.447125 
L 221.728207 229.453393 
L 243.627372 229.552439 
L 244.67019 230.66047 
L 298.896694 230.683601 
L 298.896694 230.683601 
" clip-path="url(#p11669f6c9d)" style="fill: none; stroke: #ff7f0e; stroke-width: 1.5; stroke-linecap: square"/>
   </g>
   <g id="line2d_31">
    <path d="M 91.376033 369.338166 
L 92.41885 367.753047 
L 93.461668 363.790055 
L 94.504485 355.676186 
L 95.547303 343.414714 
L 102.847024 239.377038 
L 104.932659 215.154133 
L 107.018294 195.130411 
L 108.061111 185.949561 
L 110.146746 170.563579 
L 112.232381 157.671432 
L 114.318016 146.839222 
L 116.40365 137.702672 
L 118.489285 129.961795 
L 120.57492 123.371888 
L 122.660555 117.734158 
L 123.703372 115.220676 
L 124.74619 113.430213 
L 126.831824 109.240665 
L 127.874642 107.960147 
L 129.960277 104.554782 
L 131.003094 103.666395 
L 133.088729 100.86079 
L 134.131546 100.275701 
L 135.174364 99.068781 
L 136.217181 98.664868 
L 137.259998 97.583972 
L 138.302816 97.334678 
L 139.345633 96.359382 
L 140.388451 96.242196 
L 141.431268 95.355625 
L 143.516903 95.420162 
L 144.55972 94.632078 
L 146.645355 95.006635 
L 147.688172 94.291179 
L 149.773807 94.913521 
L 150.816624 95.29652 
L 151.859442 94.640321 
L 154.987894 96.045273 
L 158.116346 97.750802 
L 160.201981 99.022892 
L 161.244798 101.064797 
L 165.416068 104.026988 
L 166.458885 103.310913 
L 168.54452 104.852625 
L 169.587338 104.144448 
L 171.672972 105.703655 
L 172.71579 105.001816 
L 175.844242 107.36011 
L 176.887059 106.653738 
L 180.015511 109.019534 
L 181.058329 108.30843 
L 184.186781 110.663161 
L 185.229598 109.947729 
L 190.443685 113.82641 
L 191.486503 113.090812 
L 199.829042 119.12456 
L 200.871859 118.352432 
L 209.214398 124.093966 
L 213.385668 126.851485 
L 214.428485 129.042892 
L 220.68539 132.977374 
L 221.728207 135.132153 
L 224.856659 136.996148 
L 225.899477 139.12757 
L 229.027929 140.909376 
L 230.070746 143.01089 
L 231.113564 143.582464 
L 232.156381 145.671544 
L 233.199198 146.226067 
L 234.242016 148.300246 
L 235.284833 148.837361 
L 236.327651 150.894439 
L 237.370468 151.413902 
L 238.413285 153.451934 
L 239.456103 228.361409 
L 248.841459 228.480467 
L 249.884277 229.930948 
L 298.896694 230.1296 
L 298.896694 230.1296 
" clip-path="url(#p11669f6c9d)" style="fill: none; stroke: #2ca02c; stroke-width: 1.5; stroke-linecap: square"/>
   </g>
   <g id="line2d_32">
    <path d="M 91.376033 369.36 
L 92.41885 368.75505 
L 95.547303 324.359368 
L 96.59012 311.211188 
L 97.632937 299.535582 
L 98.675755 289.46257 
L 99.718572 282.842773 
L 100.76139 273.620185 
L 101.804207 265.682727 
L 102.847024 258.876741 
L 103.889842 253.042103 
L 104.932659 248.031378 
L 105.975477 243.716581 
L 107.018294 239.989852 
L 108.061111 244.30855 
L 110.146746 239.891254 
L 112.232381 236.40725 
L 114.318016 233.629819 
L 116.40365 231.399147 
L 118.489285 229.599186 
L 120.57492 228.143216 
L 122.660555 226.964806 
L 124.74619 226.012041 
L 126.831824 225.243736 
L 129.960277 224.366617 
L 132.045911 223.928311 
L 133.088729 229.457413 
L 137.259998 228.833371 
L 142.474085 228.291486 
L 148.73099 227.882091 
L 157.073529 227.597049 
L 167.501703 227.483653 
L 183.143964 227.558517 
L 215.471303 227.992741 
L 279.083164 228.814507 
L 298.896694 229.014243 
L 298.896694 229.014243 
" clip-path="url(#p11669f6c9d)" style="fill: none; stroke: #d62728; stroke-width: 1.5; stroke-linecap: square"/>
   </g>
   <g id="line2d_33">
    <path d="M 91.376033 369.233889 
L 92.41885 367.311981 
L 93.461668 363.340397 
L 94.504485 354.783727 
L 95.547303 342.981113 
L 97.632937 312.202444 
L 99.718572 279.8811 
L 100.76139 264.529053 
L 103.889842 226.113489 
L 105.975477 203.649278 
L 108.061111 184.923845 
L 110.146746 169.006652 
L 112.232381 155.793306 
L 114.318016 144.659467 
L 116.40365 135.241695 
L 118.489285 127.081641 
L 120.57492 120.236673 
L 122.660555 114.364314 
L 124.74619 109.302148 
L 126.831824 104.917715 
L 129.960277 99.483848 
L 131.003094 97.768418 
L 135.174364 92.262121 
L 136.217181 91.200311 
L 137.259998 89.979621 
L 138.302816 89.052707 
L 139.345633 87.952396 
L 144.55972 83.906587 
L 146.645355 82.816673 
L 147.688172 82.032935 
L 148.73099 81.578525 
L 149.773807 80.856091 
L 151.859442 80.100947 
L 152.902259 79.443523 
L 154.987894 78.855126 
L 156.030711 78.24994 
L 157.073529 78.010806 
L 158.116346 77.444782 
L 160.201981 77.061165 
L 161.244798 76.532087 
L 163.330433 76.255656 
L 164.373251 75.756617 
L 166.458885 75.571751 
L 167.501703 75.097237 
L 170.630155 74.967371 
L 171.672972 74.507992 
L 173.758607 74.505206 
L 174.801424 74.061331 
L 176.887059 74.113633 
L 177.929877 73.682643 
L 181.058329 73.854475 
L 182.101146 73.426137 
L 185.229598 73.698088 
L 186.272416 73.269359 
L 189.400868 73.626421 
L 190.443685 73.195137 
L 193.572138 73.624671 
L 194.614955 73.18934 
L 197.743407 73.680638 
L 198.786225 73.240274 
L 202.957494 73.983174 
L 204.000311 73.526267 
L 208.171581 74.359587 
L 209.214398 73.885575 
L 214.428485 75.039251 
L 215.471303 74.536772 
L 221.728207 76.069371 
L 222.771025 75.527405 
L 229.027929 77.195445 
L 230.070746 76.615337 
L 237.370468 78.700772 
L 239.456103 79.334465 
L 240.49892 78.685097 
L 248.841459 81.274819 
L 258.226816 84.414551 
L 269.697807 88.483357 
L 270.740625 90.201445 
L 276.997529 92.556606 
L 278.040346 94.416514 
L 279.083164 94.820783 
L 280.125981 93.743441 
L 287.425703 96.525405 
L 288.46852 95.4358 
L 295.768242 98.172729 
L 296.811059 97.0746 
L 298.896694 97.843058 
L 298.896694 97.843058 
" clip-path="url(#p11669f6c9d)" style="fill: none; stroke: #9467bd; stroke-width: 1.5; stroke-linecap: square"/>
   </g>
   <g id="line2d_34">
    <path d="M 91.376033 369.251055 
L 92.41885 367.502602 
L 93.461668 363.665996 
L 94.504485 355.265089 
L 95.547303 343.366184 
L 97.632937 312.173394 
L 100.76139 264.507949 
L 102.847024 236.833484 
L 104.932659 213.98411 
L 107.018294 193.813701 
L 109.103929 176.595274 
L 111.189564 162.085672 
L 113.275198 149.876106 
L 115.360833 139.567695 
L 117.446468 130.822714 
L 119.532103 123.366139 
L 121.617737 116.975502 
L 123.703372 111.470593 
L 125.789007 106.705017 
L 127.874642 102.679201 
L 128.917459 100.74076 
L 132.045911 95.869374 
L 135.174364 91.853983 
L 136.217181 90.576637 
L 139.345633 87.420862 
L 143.516903 84.037187 
L 144.55972 83.178147 
L 148.73099 80.611562 
L 149.773807 80.103782 
L 150.816624 79.429244 
L 156.030711 77.204972 
L 157.073529 76.878646 
L 158.116346 76.334444 
L 160.201981 75.768132 
L 161.244798 75.26819 
L 163.330433 74.798267 
L 164.373251 74.335616 
L 167.501703 73.781565 
L 168.54452 73.349023 
L 170.630155 73.064378 
L 171.672972 72.657716 
L 174.801424 72.337574 
L 175.844242 71.948796 
L 178.972694 71.739203 
L 180.015511 71.363437 
L 183.143964 71.246949 
L 184.186781 70.880528 
L 187.315233 70.842858 
L 188.358051 70.483022 
L 191.486503 70.512372 
L 192.52932 70.157051 
L 195.657772 70.243602 
L 196.70059 69.891256 
L 200.871859 70.087783 
L 201.914677 69.728105 
L 206.085946 70.008459 
L 207.128764 69.640069 
L 210.257216 69.894008 
L 211.300033 69.525991 
L 215.471303 69.914308 
L 216.51412 69.536561 
L 221.728207 70.1033 
L 222.771025 69.705565 
L 226.942294 70.214634 
L 227.985112 69.807119 
L 233.199198 70.50262 
L 234.242016 70.075504 
L 239.456103 70.832293 
L 240.49892 70.386183 
L 246.755825 71.368385 
L 247.798642 70.894001 
L 254.055546 71.949442 
L 255.098364 71.448046 
L 262.398085 72.761882 
L 263.440903 72.225108 
L 271.783442 73.827321 
L 272.826259 73.247614 
L 282.211616 75.164144 
L 283.254433 74.535044 
L 293.682607 76.785404 
L 295.768242 77.259432 
L 296.811059 76.557887 
L 298.896694 77.021288 
L 298.896694 77.021288 
" clip-path="url(#p11669f6c9d)" style="fill: none; stroke: #8c564b; stroke-width: 1.5; stroke-linecap: square"/>
   </g>
   <g id="line2d_35">
    <path d="M 91.376033 369.268046 
L 92.41885 367.696374 
L 93.461668 363.048797 
L 94.504485 354.806674 
L 95.547303 343.111196 
L 97.632937 311.783297 
L 100.76139 264.354491 
L 102.847024 236.962623 
L 103.889842 223.982099 
L 105.975477 202.594538 
L 108.061111 184.481202 
L 110.146746 168.965467 
L 112.232381 155.666103 
L 114.318016 144.55406 
L 116.40365 134.982788 
L 118.489285 126.865798 
L 120.57492 119.938307 
L 122.660555 114.05814 
L 124.74619 108.908693 
L 126.831824 104.44261 
L 128.917459 100.54926 
L 131.003094 97.201918 
L 134.131546 92.860904 
L 137.259998 89.246428 
L 140.388451 86.210543 
L 143.516903 83.639907 
L 147.688172 80.821663 
L 151.859442 78.524753 
L 158.116346 75.74548 
L 164.373251 73.743995 
L 165.416068 73.490937 
L 166.458885 73.087232 
L 173.758607 71.518365 
L 174.801424 71.36368 
L 175.844242 71.02173 
L 178.972694 70.616738 
L 180.015511 70.297001 
L 184.186781 69.882739 
L 185.229598 69.576454 
L 189.400868 69.282967 
L 190.443685 68.985544 
L 193.572138 68.829186 
L 194.614955 68.544044 
L 198.786225 68.406628 
L 199.829042 68.125244 
L 205.043129 68.057909 
L 206.085946 67.770836 
L 210.257216 67.786951 
L 211.300033 67.500285 
L 215.471303 67.565524 
L 216.51412 67.278484 
L 221.728207 67.423134 
L 222.771025 67.126921 
L 227.985112 67.335311 
L 229.027929 67.029461 
L 234.242016 67.292032 
L 235.284833 66.976437 
L 240.49892 67.285201 
L 241.541738 66.96 
L 246.755825 67.308228 
L 247.798642 66.973734 
L 254.055546 67.440976 
L 255.098364 67.088996 
L 261.355268 67.606832 
L 262.398085 67.238018 
L 268.65499 67.799252 
L 269.697807 67.414416 
L 276.997529 68.120853 
L 278.040346 67.712391 
L 284.297251 68.355933 
L 285.340068 67.933487 
L 293.682607 68.842906 
L 294.725425 68.39094 
L 298.896694 68.860097 
L 298.896694 68.860097 
" clip-path="url(#p11669f6c9d)" style="fill: none; stroke: #e377c2; stroke-width: 1.5; stroke-linecap: square"/>
   </g>
   <g id="patch_3">
    <path d="M 81 384.48 
L 81 51.84 
" style="fill: none; stroke: #000000; stroke-width: 0.8; stroke-linejoin: miter; stroke-linecap: square"/>
   </g>
   <g id="patch_4">
    <path d="M 309.272727 384.48 
L 309.272727 51.84 
" style="fill: none; stroke: #000000; stroke-width: 0.8; stroke-linejoin: miter; stroke-linecap: square"/>
   </g>
   <g id="patch_5">
    <path d="M 81 384.48 
L 309.272727 384.48 
" style="fill: none; stroke: #000000; stroke-width: 0.8; stroke-linejoin: miter; stroke-linecap: square"/>
   </g>
   <g id="patch_6">
    <path d="M 81 51.84 
L 309.272727 51.84 
" style="fill: none; stroke: #000000; stroke-width: 0.8; stroke-linejoin: miter; stroke-linecap: square"/>
   </g>
   <g id="text_17">
    <!-- $\Delta_{CDW}$ -->
    <g transform="translate(180.436364 45.84)scale(0.12 -0.12)">
     <defs>
      <path id="DejaVuSans-Oblique-43" d="M 4447 4306 
L 4319 3641 
Q 4019 3944 3683 4091 
Q 3347 4238 2956 4238 
Q 2422 4238 2017 3981 
Q 1613 3725 1319 3200 
Q 1131 2863 1032 2486 
Q 934 2109 934 1728 
Q 934 1091 1264 756 
Q 1594 422 2222 422 
Q 2656 422 3056 561 
Q 3456 700 3834 978 
L 3688 231 
Q 3316 72 2936 -9 
Q 2556 -91 2175 -91 
Q 1278 -91 773 396 
Q 269 884 269 1753 
Q 269 2309 461 2846 
Q 653 3384 1013 3828 
Q 1394 4300 1883 4525 
Q 2372 4750 3022 4750 
Q 3422 4750 3780 4639 
Q 4138 4528 4447 4306 
z
" transform="scale(0.015625)"/>
      <path id="DejaVuSans-Oblique-44" d="M 1081 4666 
L 2438 4666 
Q 3519 4666 4070 4208 
Q 4622 3750 4622 2847 
Q 4622 2250 4412 1698 
Q 4203 1147 3834 769 
Q 3463 381 2891 190 
Q 2319 0 1538 0 
L 172 0 
L 1081 4666 
z
M 1613 4147 
L 909 519 
L 1734 519 
Q 2794 519 3375 1128 
Q 3956 1738 3956 2847 
Q 3956 3519 3581 3833 
Q 3206 4147 2406 4147 
L 1613 4147 
z
" transform="scale(0.015625)"/>
      <path id="DejaVuSans-Oblique-57" d="M 616 4666 
L 1228 4666 
L 1453 697 
L 3213 4666 
L 3916 4666 
L 4147 697 
L 5888 4666 
L 6528 4666 
L 4453 0 
L 3659 0 
L 3444 3891 
L 1697 0 
L 903 0 
L 616 4666 
z
" transform="scale(0.015625)"/>
     </defs>
     <use xlink:href="#DejaVuSans-394" transform="translate(0 0.09375)"/>
     <use xlink:href="#DejaVuSans-Oblique-43" transform="translate(69.365234 -16.3125)scale(0.7)"/>
     <use xlink:href="#DejaVuSans-Oblique-44" transform="translate(118.242188 -16.3125)scale(0.7)"/>
     <use xlink:href="#DejaVuSans-Oblique-57" transform="translate(172.143555 -16.3125)scale(0.7)"/>
    </g>
   </g>
   <g id="legend_1">
    <g id="patch_7">
     <path d="M 236.677415 379.48 
L 302.272727 379.48 
Q 304.272727 379.48 304.272727 377.48 
L 304.272727 275.733125 
Q 304.272727 273.733125 302.272727 273.733125 
L 236.677415 273.733125 
Q 234.677415 273.733125 234.677415 275.733125 
L 234.677415 377.48 
Q 234.677415 379.48 236.677415 379.48 
z
" style="fill: #ffffff; opacity: 0.8; stroke: #cccccc; stroke-linejoin: miter"/>
    </g>
    <g id="line2d_36">
     <path d="M 238.677415 281.831563 
L 248.677415 281.831563 
L 258.677415 281.831563 
" style="fill: none; stroke: #1f77b4; stroke-width: 1.5; stroke-linecap: square"/>
    </g>
    <g id="text_18">
     <!-- J=0.1 -->
     <g transform="translate(266.677415 285.331563)scale(0.1 -0.1)">
      <defs>
       <path id="DejaVuSans-4a" d="M 628 4666 
L 1259 4666 
L 1259 325 
Q 1259 -519 939 -900 
Q 619 -1281 -91 -1281 
L -331 -1281 
L -331 -750 
L -134 -750 
Q 284 -750 456 -515 
Q 628 -281 628 325 
L 628 4666 
z
" transform="scale(0.015625)"/>
       <path id="DejaVuSans-3d" d="M 678 2906 
L 4684 2906 
L 4684 2381 
L 678 2381 
L 678 2906 
z
M 678 1631 
L 4684 1631 
L 4684 1100 
L 678 1100 
L 678 1631 
z
" transform="scale(0.015625)"/>
      </defs>
      <use xlink:href="#DejaVuSans-4a"/>
      <use xlink:href="#DejaVuSans-3d" x="29.492188"/>
      <use xlink:href="#DejaVuSans-30" x="113.28125"/>
      <use xlink:href="#DejaVuSans-2e" x="176.904297"/>
      <use xlink:href="#DejaVuSans-31" x="208.691406"/>
     </g>
    </g>
    <g id="line2d_37">
     <path d="M 238.677415 296.509688 
L 248.677415 296.509688 
L 258.677415 296.509688 
" style="fill: none; stroke: #ff7f0e; stroke-width: 1.5; stroke-linecap: square"/>
    </g>
    <g id="text_19">
     <!-- J=0.15 -->
     <g transform="translate(266.677415 300.009688)scale(0.1 -0.1)">
      <use xlink:href="#DejaVuSans-4a"/>
      <use xlink:href="#DejaVuSans-3d" x="29.492188"/>
      <use xlink:href="#DejaVuSans-30" x="113.28125"/>
      <use xlink:href="#DejaVuSans-2e" x="176.904297"/>
      <use xlink:href="#DejaVuSans-31" x="208.691406"/>
      <use xlink:href="#DejaVuSans-35" x="272.314453"/>
     </g>
    </g>
    <g id="line2d_38">
     <path d="M 238.677415 311.187813 
L 248.677415 311.187813 
L 258.677415 311.187813 
" style="fill: none; stroke: #2ca02c; stroke-width: 1.5; stroke-linecap: square"/>
    </g>
    <g id="text_20">
     <!-- J=0.2 -->
     <g transform="translate(266.677415 314.687813)scale(0.1 -0.1)">
      <use xlink:href="#DejaVuSans-4a"/>
      <use xlink:href="#DejaVuSans-3d" x="29.492188"/>
      <use xlink:href="#DejaVuSans-30" x="113.28125"/>
      <use xlink:href="#DejaVuSans-2e" x="176.904297"/>
      <use xlink:href="#DejaVuSans-32" x="208.691406"/>
     </g>
    </g>
    <g id="line2d_39">
     <path d="M 238.677415 325.865938 
L 248.677415 325.865938 
L 258.677415 325.865938 
" style="fill: none; stroke: #d62728; stroke-width: 1.5; stroke-linecap: square"/>
    </g>
    <g id="text_21">
     <!-- J=0.3 -->
     <g transform="translate(266.677415 329.365938)scale(0.1 -0.1)">
      <defs>
       <path id="DejaVuSans-33" d="M 2597 2516 
Q 3050 2419 3304 2112 
Q 3559 1806 3559 1356 
Q 3559 666 3084 287 
Q 2609 -91 1734 -91 
Q 1441 -91 1130 -33 
Q 819 25 488 141 
L 488 750 
Q 750 597 1062 519 
Q 1375 441 1716 441 
Q 2309 441 2620 675 
Q 2931 909 2931 1356 
Q 2931 1769 2642 2001 
Q 2353 2234 1838 2234 
L 1294 2234 
L 1294 2753 
L 1863 2753 
Q 2328 2753 2575 2939 
Q 2822 3125 2822 3475 
Q 2822 3834 2567 4026 
Q 2313 4219 1838 4219 
Q 1578 4219 1281 4162 
Q 984 4106 628 3988 
L 628 4550 
Q 988 4650 1302 4700 
Q 1616 4750 1894 4750 
Q 2613 4750 3031 4423 
Q 3450 4097 3450 3541 
Q 3450 3153 3228 2886 
Q 3006 2619 2597 2516 
z
" transform="scale(0.015625)"/>
      </defs>
      <use xlink:href="#DejaVuSans-4a"/>
      <use xlink:href="#DejaVuSans-3d" x="29.492188"/>
      <use xlink:href="#DejaVuSans-30" x="113.28125"/>
      <use xlink:href="#DejaVuSans-2e" x="176.904297"/>
      <use xlink:href="#DejaVuSans-33" x="208.691406"/>
     </g>
    </g>
    <g id="line2d_40">
     <path d="M 238.677415 340.544062 
L 248.677415 340.544062 
L 258.677415 340.544062 
" style="fill: none; stroke: #9467bd; stroke-width: 1.5; stroke-linecap: square"/>
    </g>
    <g id="text_22">
     <!-- J=0.5 -->
     <g transform="translate(266.677415 344.044062)scale(0.1 -0.1)">
      <use xlink:href="#DejaVuSans-4a"/>
      <use xlink:href="#DejaVuSans-3d" x="29.492188"/>
      <use xlink:href="#DejaVuSans-30" x="113.28125"/>
      <use xlink:href="#DejaVuSans-2e" x="176.904297"/>
      <use xlink:href="#DejaVuSans-35" x="208.691406"/>
     </g>
    </g>
    <g id="line2d_41">
     <path d="M 238.677415 355.222188 
L 248.677415 355.222188 
L 258.677415 355.222188 
" style="fill: none; stroke: #8c564b; stroke-width: 1.5; stroke-linecap: square"/>
    </g>
    <g id="text_23">
     <!-- J=0.7 -->
     <g transform="translate(266.677415 358.722188)scale(0.1 -0.1)">
      <use xlink:href="#DejaVuSans-4a"/>
      <use xlink:href="#DejaVuSans-3d" x="29.492188"/>
      <use xlink:href="#DejaVuSans-30" x="113.28125"/>
      <use xlink:href="#DejaVuSans-2e" x="176.904297"/>
      <use xlink:href="#DejaVuSans-37" x="208.691406"/>
     </g>
    </g>
    <g id="line2d_42">
     <path d="M 238.677415 369.900313 
L 248.677415 369.900313 
L 258.677415 369.900313 
" style="fill: none; stroke: #e377c2; stroke-width: 1.5; stroke-linecap: square"/>
    </g>
    <g id="text_24">
     <!-- J=1 -->
     <g transform="translate(266.677415 373.400313)scale(0.1 -0.1)">
      <use xlink:href="#DejaVuSans-4a"/>
      <use xlink:href="#DejaVuSans-3d" x="29.492188"/>
      <use xlink:href="#DejaVuSans-31" x="113.28125"/>
     </g>
    </g>
   </g>
  </g>
  <g id="axes_2">
   <g id="patch_8">
    <path d="M 354.927273 384.48 
L 583.2 384.48 
L 583.2 51.84 
L 354.927273 51.84 
z
" style="fill: #ffffff"/>
   </g>
   <g id="matplotlib.axis_3">
    <g id="xtick_6">
     <g id="line2d_43">
      <path d="M 365.199494 384.48 
L 365.199494 51.84 
" clip-path="url(#p78d1c40e3c)" style="fill: none; stroke: #b0b0b0; stroke-width: 0.8; stroke-linecap: square"/>
     </g>
     <g id="line2d_44">
      <g>
       <use xlink:href="#m352599af73" x="365.199494" y="384.48" style="stroke: #000000; stroke-width: 0.8"/>
      </g>
     </g>
     <g id="text_25">
      <!-- 0 -->
      <g transform="translate(362.018244 399.078438)scale(0.1 -0.1)">
       <use xlink:href="#DejaVuSans-30"/>
      </g>
     </g>
    </g>
    <g id="xtick_7">
     <g id="line2d_45">
      <path d="M 417.105612 384.48 
L 417.105612 51.84 
" clip-path="url(#p78d1c40e3c)" style="fill: none; stroke: #b0b0b0; stroke-width: 0.8; stroke-linecap: square"/>
     </g>
     <g id="line2d_46">
      <g>
       <use xlink:href="#m352599af73" x="417.105612" y="384.48" style="stroke: #000000; stroke-width: 0.8"/>
      </g>
     </g>
     <g id="text_26">
      <!-- 5 -->
      <g transform="translate(413.924362 399.078438)scale(0.1 -0.1)">
       <use xlink:href="#DejaVuSans-35"/>
      </g>
     </g>
    </g>
    <g id="xtick_8">
     <g id="line2d_47">
      <path d="M 469.01173 384.48 
L 469.01173 51.84 
" clip-path="url(#p78d1c40e3c)" style="fill: none; stroke: #b0b0b0; stroke-width: 0.8; stroke-linecap: square"/>
     </g>
     <g id="line2d_48">
      <g>
       <use xlink:href="#m352599af73" x="469.01173" y="384.48" style="stroke: #000000; stroke-width: 0.8"/>
      </g>
     </g>
     <g id="text_27">
      <!-- 10 -->
      <g transform="translate(462.64923 399.078438)scale(0.1 -0.1)">
       <use xlink:href="#DejaVuSans-31"/>
       <use xlink:href="#DejaVuSans-30" x="63.623047"/>
      </g>
     </g>
    </g>
    <g id="xtick_9">
     <g id="line2d_49">
      <path d="M 520.917849 384.48 
L 520.917849 51.84 
" clip-path="url(#p78d1c40e3c)" style="fill: none; stroke: #b0b0b0; stroke-width: 0.8; stroke-linecap: square"/>
     </g>
     <g id="line2d_50">
      <g>
       <use xlink:href="#m352599af73" x="520.917849" y="384.48" style="stroke: #000000; stroke-width: 0.8"/>
      </g>
     </g>
     <g id="text_28">
      <!-- 15 -->
      <g transform="translate(514.555349 399.078438)scale(0.1 -0.1)">
       <use xlink:href="#DejaVuSans-31"/>
       <use xlink:href="#DejaVuSans-35" x="63.623047"/>
      </g>
     </g>
    </g>
    <g id="xtick_10">
     <g id="line2d_51">
      <path d="M 572.823967 384.48 
L 572.823967 51.84 
" clip-path="url(#p78d1c40e3c)" style="fill: none; stroke: #b0b0b0; stroke-width: 0.8; stroke-linecap: square"/>
     </g>
     <g id="line2d_52">
      <g>
       <use xlink:href="#m352599af73" x="572.823967" y="384.48" style="stroke: #000000; stroke-width: 0.8"/>
      </g>
     </g>
     <g id="text_29">
      <!-- 20 -->
      <g transform="translate(566.461467 399.078438)scale(0.1 -0.1)">
       <use xlink:href="#DejaVuSans-32"/>
       <use xlink:href="#DejaVuSans-30" x="63.623047"/>
      </g>
     </g>
    </g>
    <g id="text_30">
     <!-- U/t -->
     <g transform="translate(461.75973 412.756563)scale(0.1 -0.1)">
      <use xlink:href="#DejaVuSans-55"/>
      <use xlink:href="#DejaVuSans-2f" x="73.193359"/>
      <use xlink:href="#DejaVuSans-74" x="106.884766"/>
     </g>
    </g>
   </g>
   <g id="matplotlib.axis_4">
    <g id="ytick_10">
     <g id="line2d_53">
      <path d="M 354.927273 355.579699 
L 583.2 355.579699 
" clip-path="url(#p78d1c40e3c)" style="fill: none; stroke: #b0b0b0; stroke-width: 0.8; stroke-linecap: square"/>
     </g>
     <g id="line2d_54">
      <g>
       <use xlink:href="#md87b77fd6c" x="354.927273" y="355.579699" style="stroke: #000000; stroke-width: 0.8"/>
      </g>
     </g>
     <g id="text_31">
      <!-- 0.0 -->
      <g transform="translate(332.024148 359.378918)scale(0.1 -0.1)">
       <use xlink:href="#DejaVuSans-30"/>
       <use xlink:href="#DejaVuSans-2e" x="63.623047"/>
       <use xlink:href="#DejaVuSans-30" x="95.410156"/>
      </g>
     </g>
    </g>
    <g id="ytick_11">
     <g id="line2d_55">
      <path d="M 354.927273 290.589681 
L 583.2 290.589681 
" clip-path="url(#p78d1c40e3c)" style="fill: none; stroke: #b0b0b0; stroke-width: 0.8; stroke-linecap: square"/>
     </g>
     <g id="line2d_56">
      <g>
       <use xlink:href="#md87b77fd6c" x="354.927273" y="290.589681" style="stroke: #000000; stroke-width: 0.8"/>
      </g>
     </g>
     <g id="text_32">
      <!-- 0.2 -->
      <g transform="translate(332.024148 294.3889)scale(0.1 -0.1)">
       <use xlink:href="#DejaVuSans-30"/>
       <use xlink:href="#DejaVuSans-2e" x="63.623047"/>
       <use xlink:href="#DejaVuSans-32" x="95.410156"/>
      </g>
     </g>
    </g>
    <g id="ytick_12">
     <g id="line2d_57">
      <path d="M 354.927273 225.599663 
L 583.2 225.599663 
" clip-path="url(#p78d1c40e3c)" style="fill: none; stroke: #b0b0b0; stroke-width: 0.8; stroke-linecap: square"/>
     </g>
     <g id="line2d_58">
      <g>
       <use xlink:href="#md87b77fd6c" x="354.927273" y="225.599663" style="stroke: #000000; stroke-width: 0.8"/>
      </g>
     </g>
     <g id="text_33">
      <!-- 0.4 -->
      <g transform="translate(332.024148 229.398882)scale(0.1 -0.1)">
       <defs>
        <path id="DejaVuSans-34" d="M 2419 4116 
L 825 1625 
L 2419 1625 
L 2419 4116 
z
M 2253 4666 
L 3047 4666 
L 3047 1625 
L 3713 1625 
L 3713 1100 
L 3047 1100 
L 3047 0 
L 2419 0 
L 2419 1100 
L 313 1100 
L 313 1709 
L 2253 4666 
z
" transform="scale(0.015625)"/>
       </defs>
       <use xlink:href="#DejaVuSans-30"/>
       <use xlink:href="#DejaVuSans-2e" x="63.623047"/>
       <use xlink:href="#DejaVuSans-34" x="95.410156"/>
      </g>
     </g>
    </g>
    <g id="ytick_13">
     <g id="line2d_59">
      <path d="M 354.927273 160.609645 
L 583.2 160.609645 
" clip-path="url(#p78d1c40e3c)" style="fill: none; stroke: #b0b0b0; stroke-width: 0.8; stroke-linecap: square"/>
     </g>
     <g id="line2d_60">
      <g>
       <use xlink:href="#md87b77fd6c" x="354.927273" y="160.609645" style="stroke: #000000; stroke-width: 0.8"/>
      </g>
     </g>
     <g id="text_34">
      <!-- 0.6 -->
      <g transform="translate(332.024148 164.408863)scale(0.1 -0.1)">
       <defs>
        <path id="DejaVuSans-36" d="M 2113 2584 
Q 1688 2584 1439 2293 
Q 1191 2003 1191 1497 
Q 1191 994 1439 701 
Q 1688 409 2113 409 
Q 2538 409 2786 701 
Q 3034 994 3034 1497 
Q 3034 2003 2786 2293 
Q 2538 2584 2113 2584 
z
M 3366 4563 
L 3366 3988 
Q 3128 4100 2886 4159 
Q 2644 4219 2406 4219 
Q 1781 4219 1451 3797 
Q 1122 3375 1075 2522 
Q 1259 2794 1537 2939 
Q 1816 3084 2150 3084 
Q 2853 3084 3261 2657 
Q 3669 2231 3669 1497 
Q 3669 778 3244 343 
Q 2819 -91 2113 -91 
Q 1303 -91 875 529 
Q 447 1150 447 2328 
Q 447 3434 972 4092 
Q 1497 4750 2381 4750 
Q 2619 4750 2861 4703 
Q 3103 4656 3366 4563 
z
" transform="scale(0.015625)"/>
       </defs>
       <use xlink:href="#DejaVuSans-30"/>
       <use xlink:href="#DejaVuSans-2e" x="63.623047"/>
       <use xlink:href="#DejaVuSans-36" x="95.410156"/>
      </g>
     </g>
    </g>
    <g id="ytick_14">
     <g id="line2d_61">
      <path d="M 354.927273 95.619626 
L 583.2 95.619626 
" clip-path="url(#p78d1c40e3c)" style="fill: none; stroke: #b0b0b0; stroke-width: 0.8; stroke-linecap: square"/>
     </g>
     <g id="line2d_62">
      <g>
       <use xlink:href="#md87b77fd6c" x="354.927273" y="95.619626" style="stroke: #000000; stroke-width: 0.8"/>
      </g>
     </g>
     <g id="text_35">
      <!-- 0.8 -->
      <g transform="translate(332.024148 99.418845)scale(0.1 -0.1)">
       <defs>
        <path id="DejaVuSans-38" d="M 2034 2216 
Q 1584 2216 1326 1975 
Q 1069 1734 1069 1313 
Q 1069 891 1326 650 
Q 1584 409 2034 409 
Q 2484 409 2743 651 
Q 3003 894 3003 1313 
Q 3003 1734 2745 1975 
Q 2488 2216 2034 2216 
z
M 1403 2484 
Q 997 2584 770 2862 
Q 544 3141 544 3541 
Q 544 4100 942 4425 
Q 1341 4750 2034 4750 
Q 2731 4750 3128 4425 
Q 3525 4100 3525 3541 
Q 3525 3141 3298 2862 
Q 3072 2584 2669 2484 
Q 3125 2378 3379 2068 
Q 3634 1759 3634 1313 
Q 3634 634 3220 271 
Q 2806 -91 2034 -91 
Q 1263 -91 848 271 
Q 434 634 434 1313 
Q 434 1759 690 2068 
Q 947 2378 1403 2484 
z
M 1172 3481 
Q 1172 3119 1398 2916 
Q 1625 2713 2034 2713 
Q 2441 2713 2670 2916 
Q 2900 3119 2900 3481 
Q 2900 3844 2670 4047 
Q 2441 4250 2034 4250 
Q 1625 4250 1398 4047 
Q 1172 3844 1172 3481 
z
" transform="scale(0.015625)"/>
       </defs>
       <use xlink:href="#DejaVuSans-30"/>
       <use xlink:href="#DejaVuSans-2e" x="63.623047"/>
       <use xlink:href="#DejaVuSans-38" x="95.410156"/>
      </g>
     </g>
    </g>
   </g>
   <g id="line2d_63">
    <path d="M 365.303306 354.830498 
L 366.346123 355.579678 
L 367.388941 355.297984 
L 368.431758 353.653943 
L 371.56021 337.876899 
L 372.603028 335.797724 
L 374.688662 326.782547 
L 375.73148 322.654009 
L 376.774297 321.857602 
L 377.817114 318.346212 
L 378.859932 312.032519 
L 380.945567 306.311113 
L 381.988384 303.804901 
L 383.031201 298.447683 
L 384.074019 296.407644 
L 386.159654 286.770655 
L 388.245288 277.940197 
L 390.330923 269.915204 
L 391.373741 266.192833 
L 392.416558 259.49726 
L 393.459375 256.165949 
L 395.54501 243.732552 
L 396.587828 240.978017 
L 397.630645 235.256623 
L 399.71628 230.547328 
L 401.801915 226.319849 
L 402.844732 221.4803 
L 404.930367 217.965919 
L 405.973184 213.581466 
L 407.016001 212.084142 
L 408.058819 207.98307 
L 409.101636 206.675923 
L 410.144454 202.836379 
L 411.187271 201.697647 
L 412.230088 198.098722 
L 413.272906 197.10897 
L 416.401358 187.337255 
L 417.444175 89.375995 
L 420.572628 87.101019 
L 423.70108 85.130331 
L 426.829532 83.413395 
L 429.957984 81.90941 
L 434.129254 80.178937 
L 438.300523 78.706332 
L 442.471793 77.443333 
L 447.68588 76.102736 
L 452.899967 74.974759 
L 459.156871 73.842546 
L 466.456593 72.75906 
L 474.799132 71.758528 
L 484.184489 70.858868 
L 495.65548 69.995877 
L 509.212106 69.214007 
L 511.297741 69.111357 
L 512.340558 68.590187 
L 530.068454 67.937991 
L 551.967619 67.359514 
L 572.823967 66.96 
L 572.823967 66.96 
" clip-path="url(#p78d1c40e3c)" style="fill: none; stroke: #1f77b4; stroke-width: 1.5; stroke-linecap: square"/>
   </g>
   <g id="line2d_64">
    <path d="M 365.303306 355.579699 
L 367.388941 355.57775 
L 368.431758 355.273352 
L 369.474575 353.256318 
L 370.517393 348.26736 
L 371.56021 346.594565 
L 372.603028 344.680734 
L 373.645845 340.067703 
L 375.73148 336.744787 
L 377.817114 334.096197 
L 378.859932 330.160284 
L 379.902749 329.261 
L 380.945567 325.577525 
L 381.988384 324.987666 
L 384.074019 318.271738 
L 385.116836 318.125154 
L 388.245288 309.353317 
L 390.330923 304.05468 
L 392.416558 299.193302 
L 394.502193 294.747288 
L 396.587828 290.686741 
L 397.630645 288.790779 
L 398.673462 283.861332 
L 400.759097 280.532316 
L 401.801915 275.84969 
L 402.844732 274.403775 
L 403.887549 269.873833 
L 404.930367 268.598297 
L 405.973184 264.229034 
L 407.016001 263.112653 
L 409.101636 254.770838 
L 410.144454 253.896177 
L 413.272906 242.216396 
L 415.358541 234.829042 
L 416.401358 228.058785 
L 417.444175 224.58664 
L 418.486993 224.375523 
L 419.52981 221.059882 
L 420.572628 220.927985 
L 422.658262 214.670722 
L 423.70108 214.66655 
L 424.743897 211.712029 
L 425.786715 211.76514 
L 426.829532 208.936082 
L 427.872349 209.039787 
L 429.957984 203.684754 
L 431.000802 203.875114 
L 433.086436 198.864893 
L 434.129254 199.127704 
L 437.257706 192.173171 
L 438.300523 192.526264 
L 441.428975 186.159116 
L 443.51461 182.171309 
L 444.557428 182.639681 
L 447.68588 177.075754 
L 450.814332 171.904874 
L 453.942784 167.096761 
L 457.071236 162.622731 
L 458.114054 161.200929 
L 459.156871 157.790788 
L 462.285323 153.887825 
L 463.328141 152.646609 
L 464.370958 149.539679 
L 466.456593 147.242723 
L 467.49941 144.316438 
L 468.542228 143.254495 
L 469.585045 140.453425 
L 470.627862 73.170727 
L 478.970402 72.196866 
L 489.398576 71.223767 
L 500.869567 70.382375 
L 514.426193 69.608448 
L 517.554645 69.456084 
L 518.597463 68.752282 
L 537.368176 68.090188 
L 561.352976 67.48549 
L 572.823967 67.261808 
L 572.823967 67.261808 
" clip-path="url(#p78d1c40e3c)" style="fill: none; stroke: #ff7f0e; stroke-width: 1.5; stroke-linecap: square"/>
   </g>
   <g id="line2d_65">
    <path d="M 365.303306 355.579699 
L 368.431758 355.571968 
L 369.474575 355.311501 
L 372.603028 347.913444 
L 373.645845 347.389151 
L 374.688662 344.499949 
L 375.73148 344.201782 
L 377.817114 338.656514 
L 378.859932 338.84068 
L 380.945567 333.835376 
L 381.988384 334.369475 
L 385.116836 327.908487 
L 387.202471 324.006499 
L 389.288106 320.442664 
L 391.373741 317.204247 
L 393.459375 314.268595 
L 395.54501 311.609103 
L 397.630645 309.198535 
L 398.673462 305.04445 
L 400.759097 303.02727 
L 401.801915 299.005094 
L 403.887549 297.349117 
L 404.930367 293.47998 
L 407.016001 292.146149 
L 408.058819 288.438615 
L 409.101636 287.899686 
L 410.144454 284.277137 
L 411.187271 283.842066 
L 412.230088 280.309394 
L 413.272906 279.970602 
L 414.315723 276.53058 
L 415.358541 276.280515 
L 417.444175 269.614653 
L 418.486993 269.513144 
L 420.572628 263.099097 
L 421.615445 263.130605 
L 424.743897 253.957278 
L 425.786715 254.162093 
L 429.957984 242.702523 
L 434.129254 231.931511 
L 435.172071 226.152736 
L 439.343341 216.33387 
L 440.386158 217.129777 
L 442.471793 212.556414 
L 443.51461 213.385796 
L 445.600245 209.037797 
L 446.643062 209.893721 
L 449.771515 203.745588 
L 450.814332 204.641656 
L 453.942784 198.894369 
L 454.985602 199.819732 
L 458.114054 194.439041 
L 459.156871 195.384862 
L 463.328141 188.719867 
L 464.370958 187.130971 
L 465.413775 188.109195 
L 469.585045 182.076794 
L 473.756315 176.477764 
L 474.799132 177.487945 
L 478.970402 172.303566 
L 483.141671 167.482301 
L 487.312941 162.995646 
L 488.355758 159.83621 
L 492.527028 155.805812 
L 494.612662 153.894961 
L 495.65548 151.013827 
L 498.783932 148.370768 
L 499.826749 145.648358 
L 502.955202 143.233693 
L 503.998019 140.661978 
L 505.040836 139.914235 
L 506.083654 137.427826 
L 507.126471 136.7215 
L 508.169289 134.318419 
L 509.212106 133.651616 
L 510.254923 131.329751 
L 511.297741 130.700608 
L 512.340558 128.457742 
L 513.383376 70.321175 
L 522.768732 69.837701 
L 523.811549 68.95322 
L 543.62508 68.268896 
L 567.60988 67.672163 
L 572.823967 67.56645 
L 572.823967 67.56645 
" clip-path="url(#p78d1c40e3c)" style="fill: none; stroke: #2ca02c; stroke-width: 1.5; stroke-linecap: square"/>
   </g>
   <g id="line2d_66">
    <path d="M 365.303306 369.36 
L 366.346123 344.505731 
L 367.388941 358.072371 
L 368.431758 355.576546 
L 369.474575 353.678753 
L 370.517393 346.848243 
L 371.56021 335.987508 
L 372.603028 322.789623 
L 373.645845 326.580269 
L 376.774297 289.018515 
L 378.859932 264.614446 
L 380.945567 242.495724 
L 381.988384 212.963997 
L 384.074019 196.49568 
L 386.159654 182.387192 
L 388.245288 170.258719 
L 390.330923 159.789737 
L 392.416558 150.715284 
L 394.502193 142.81726 
L 396.587828 135.915754 
L 398.673462 129.861744 
L 400.759097 124.531227 
L 402.844732 119.820584 
L 404.930367 115.642893 
L 405.973184 113.730569 
L 407.016001 102.64512 
L 409.101636 100.093288 
L 411.187271 97.794574 
L 414.315723 94.752773 
L 417.444175 92.121904 
L 420.572628 89.832318 
L 423.70108 87.828325 
L 426.829532 86.064973 
L 431.000802 84.025919 
L 435.172071 82.281254 
L 439.343341 80.777289 
L 444.557428 79.172464 
L 449.771515 77.814769 
L 456.028419 76.444467 
L 462.285323 75.298064 
L 469.585045 74.181995 
L 477.927584 73.132876 
L 487.312941 72.172391 
L 498.783932 71.233646 
L 512.340558 70.36611 
L 527.982819 69.594878 
L 546.753532 68.893062 
L 570.738332 68.232491 
L 572.823967 68.184337 
L 572.823967 68.184337 
" clip-path="url(#p78d1c40e3c)" style="fill: none; stroke: #d62728; stroke-width: 1.5; stroke-linecap: square"/>
   </g>
   <g id="line2d_67">
    <path d="M 365.303306 355.579699 
L 372.603028 355.546367 
L 373.645845 355.340923 
L 374.688662 353.667802 
L 376.774297 353.209966 
L 377.817114 351.222736 
L 380.945567 351.02698 
L 381.988384 348.921742 
L 384.074019 349.114971 
L 385.116836 346.94805 
L 387.202471 347.396389 
L 388.245288 345.261561 
L 389.288106 345.598205 
L 390.330923 343.382624 
L 392.416558 344.24052 
L 393.459375 342.137784 
L 394.502193 342.636583 
L 395.54501 340.513773 
L 396.587828 341.097111 
L 397.630645 338.97219 
L 398.673462 339.629112 
L 399.71628 337.515329 
L 400.759097 338.235467 
L 401.801915 336.142466 
L 402.844732 336.916311 
L 403.887549 334.850999 
L 404.930367 335.670007 
L 405.973184 333.637216 
L 407.016001 334.493818 
L 408.058819 332.496821 
L 409.101636 333.384372 
L 410.144454 331.425268 
L 411.187271 332.337977 
L 412.230088 330.417989 
L 413.272906 331.350831 
L 415.358541 327.539915 
L 416.401358 328.578611 
L 417.444175 326.692601 
L 418.486993 327.738226 
L 420.572628 324.01514 
L 421.615445 325.145957 
L 422.658262 323.311269 
L 423.70108 324.439096 
L 425.786715 320.828984 
L 426.829532 322.024796 
L 428.915167 318.45044 
L 429.957984 319.704906 
L 431.000802 317.950656 
L 432.043619 319.190268 
L 434.129254 315.749067 
L 435.172071 317.034928 
L 437.257706 313.643269 
L 438.300523 314.96842 
L 440.386158 311.630248 
L 441.428975 312.988464 
L 444.557428 308.048334 
L 445.600245 309.485392 
L 447.68588 306.241677 
L 448.728697 307.698361 
L 450.814332 304.516662 
L 451.857149 305.988803 
L 454.985602 301.300238 
L 456.028419 302.826629 
L 459.156871 298.217896 
L 460.199689 299.789926 
L 463.328141 295.267008 
L 464.370958 296.876965 
L 467.49941 292.443841 
L 468.542228 294.084861 
L 471.67068 289.743939 
L 472.713497 291.409937 
L 476.884767 285.747934 
L 477.927584 287.462377 
L 482.098854 281.932191 
L 483.141671 283.685641 
L 488.355758 276.950453 
L 489.398576 278.757887 
L 495.65548 270.917297 
L 496.698297 272.786667 
L 502.955202 265.211644 
L 503.998019 267.127056 
L 512.340558 257.434591 
L 513.383376 256.247421 
L 514.426193 258.236806 
L 522.768732 249.051371 
L 530.068454 241.336815 
L 537.368176 233.945498 
L 543.62508 227.876225 
L 544.667897 223.688616 
L 550.924802 217.938446 
L 551.967619 213.799138 
L 553.010436 212.879679 
L 554.053254 215.159649 
L 561.352976 208.921639 
L 562.395793 211.156914 
L 569.695515 205.245796 
L 570.738332 207.434558 
L 572.823967 205.801166 
L 572.823967 205.801166 
" clip-path="url(#p78d1c40e3c)" style="fill: none; stroke: #9467bd; stroke-width: 1.5; stroke-linecap: square"/>
   </g>
   <g id="line2d_68">
    <path d="M 365.303306 355.579699 
L 375.73148 355.510639 
L 376.774297 354.83625 
L 377.817114 353.807491 
L 378.859932 353.966274 
L 379.902749 352.619052 
L 380.945567 352.959904 
L 381.988384 351.413465 
L 384.074019 352.306084 
L 385.116836 350.905452 
L 386.159654 351.406505 
L 387.202471 349.946831 
L 388.245288 350.541904 
L 389.288106 349.05654 
L 390.330923 349.726062 
L 391.373741 348.237766 
L 392.416558 348.964728 
L 394.502193 345.848754 
L 395.54501 346.805419 
L 396.587828 345.209393 
L 397.630645 346.182469 
L 398.673462 344.633176 
L 399.71628 345.614426 
L 401.801915 342.504793 
L 402.844732 343.641807 
L 403.887549 342.093468 
L 404.930367 343.214346 
L 407.016001 340.150381 
L 408.058819 341.38778 
L 409.101636 339.877596 
L 410.144454 341.083852 
L 412.230088 338.116855 
L 413.272906 339.409583 
L 415.358541 336.445298 
L 416.401358 337.809063 
L 417.444175 336.360253 
L 418.486993 337.677506 
L 420.572628 334.848426 
L 421.615445 336.217914 
L 423.70108 333.4176 
L 424.743897 334.828995 
L 427.872349 330.632882 
L 428.915167 332.16298 
L 431.000802 329.380628 
L 432.043619 330.930707 
L 434.129254 328.199681 
L 435.172071 329.76361 
L 437.257706 327.085381 
L 438.300523 328.657989 
L 441.428975 324.690596 
L 442.471793 326.333938 
L 444.557428 323.726042 
L 445.600245 325.365997 
L 448.728697 321.515696 
L 449.771515 323.208059 
L 452.899967 319.401407 
L 453.942784 321.136797 
L 457.071236 317.381078 
L 458.114054 319.151253 
L 461.242506 315.451751 
L 462.285323 317.2495 
L 465.413775 313.609923 
L 466.456593 315.428957 
L 469.585045 311.851782 
L 470.627862 313.686635 
L 474.799132 308.990049 
L 475.841949 310.875415 
L 480.013219 306.245962 
L 481.056036 308.172514 
L 484.184489 304.761969 
L 485.227306 306.687445 
L 489.398576 302.224705 
L 490.441393 304.178351 
L 495.65548 298.693932 
L 496.698297 300.698601 
L 500.869567 296.390893 
L 501.912384 298.409466 
L 507.126471 293.130048 
L 508.169289 295.182708 
L 513.383376 290.009709 
L 514.426193 292.088419 
L 520.683097 286.013973 
L 521.725915 288.132322 
L 527.982819 282.197876 
L 529.025636 284.345916 
L 536.325358 277.596622 
L 537.368176 279.782044 
L 545.710715 272.287521 
L 546.753532 274.513226 
L 556.138889 266.356281 
L 557.181706 268.620668 
L 568.652697 259.038944 
L 569.695515 258.183879 
L 570.738332 260.499605 
L 572.823967 258.815517 
L 572.823967 258.815517 
" clip-path="url(#p78d1c40e3c)" style="fill: none; stroke: #8c564b; stroke-width: 1.5; stroke-linecap: square"/>
   </g>
   <g id="line2d_69">
    <path d="M 365.303306 355.579699 
L 378.859932 355.516491 
L 379.902749 355.352629 
L 380.945567 354.997947 
L 381.988384 354.373657 
L 383.031201 353.414242 
L 384.074019 353.999553 
L 385.116836 353.057284 
L 386.159654 353.680461 
L 387.202471 352.773357 
L 388.245288 351.633253 
L 389.288106 352.544745 
L 390.330923 351.491318 
L 391.373741 352.35818 
L 392.416558 351.381678 
L 393.459375 350.245403 
L 394.502193 351.295562 
L 396.587828 349.077795 
L 397.630645 350.266266 
L 398.673462 349.191848 
L 399.71628 350.280977 
L 401.801915 348.207376 
L 402.844732 349.382846 
L 404.930367 347.30263 
L 405.973184 346.138419 
L 407.016001 347.54352 
L 409.101636 345.334837 
L 410.144454 346.768038 
L 412.230088 344.606735 
L 413.272906 346.054185 
L 415.358541 343.94605 
L 416.401358 342.812319 
L 417.444175 344.395034 
L 419.52981 342.249111 
L 420.572628 343.816084 
L 423.70108 340.638381 
L 424.743897 342.297103 
L 426.829532 340.212691 
L 427.872349 341.838395 
L 431.000802 338.771386 
L 432.043619 340.458564 
L 435.172071 337.413109 
L 436.214888 339.146999 
L 439.343341 336.134967 
L 440.386158 337.903237 
L 444.557428 333.900685 
L 445.600245 335.770612 
L 448.728697 332.791038 
L 449.771515 334.671167 
L 452.899967 331.749144 
L 453.942784 333.632947 
L 458.114054 329.786585 
L 459.156871 331.731387 
L 463.328141 327.915348 
L 464.370958 329.908408 
L 467.49941 327.094106 
L 468.542228 329.069951 
L 472.713497 325.384998 
L 473.756315 327.392457 
L 478.970402 322.82786 
L 480.013219 324.906175 
L 484.184489 321.296034 
L 485.227306 323.387557 
L 489.398576 319.839574 
L 490.441393 321.938561 
L 495.65548 317.56892 
L 496.698297 319.709119 
L 501.912384 315.396263 
L 502.955202 317.568453 
L 508.169289 313.318934 
L 509.212106 315.515132 
L 514.426193 311.333611 
L 515.46901 313.546923 
L 520.683097 309.43657 
L 521.725915 311.661058 
L 527.982819 306.808992 
L 529.025636 309.066442 
L 535.282541 304.29194 
L 536.325358 306.574171 
L 542.582263 301.882174 
L 543.62508 304.182088 
L 550.924802 298.804231 
L 551.967619 301.136769 
L 558.224523 296.612954 
L 559.267341 298.950171 
L 567.60988 293.034995 
L 568.652697 295.408018 
L 572.823967 292.510897 
L 572.823967 292.510897 
" clip-path="url(#p78d1c40e3c)" style="fill: none; stroke: #e377c2; stroke-width: 1.5; stroke-linecap: square"/>
   </g>
   <g id="patch_9">
    <path d="M 354.927273 384.48 
L 354.927273 51.84 
" style="fill: none; stroke: #000000; stroke-width: 0.8; stroke-linejoin: miter; stroke-linecap: square"/>
   </g>
   <g id="patch_10">
    <path d="M 583.2 384.48 
L 583.2 51.84 
" style="fill: none; stroke: #000000; stroke-width: 0.8; stroke-linejoin: miter; stroke-linecap: square"/>
   </g>
   <g id="patch_11">
    <path d="M 354.927273 384.48 
L 583.2 384.48 
" style="fill: none; stroke: #000000; stroke-width: 0.8; stroke-linejoin: miter; stroke-linecap: square"/>
   </g>
   <g id="patch_12">
    <path d="M 354.927273 51.84 
L 583.2 51.84 
" style="fill: none; stroke: #000000; stroke-width: 0.8; stroke-linejoin: miter; stroke-linecap: square"/>
   </g>
   <g id="text_36">
    <!-- $\Delta_{SC}$ -->
    <g transform="translate(459.103636 45.84)scale(0.12 -0.12)">
     <defs>
      <path id="DejaVuSans-Oblique-53" d="M 3859 4513 
L 3738 3897 
Q 3422 4066 3111 4152 
Q 2800 4238 2509 4238 
Q 1944 4238 1609 3991 
Q 1275 3744 1275 3334 
Q 1275 3109 1398 2989 
Q 1522 2869 2034 2731 
L 2413 2638 
Q 3053 2472 3303 2217 
Q 3553 1963 3553 1503 
Q 3553 797 2998 353 
Q 2444 -91 1538 -91 
Q 1166 -91 791 -17 
Q 416 56 38 206 
L 166 856 
Q 513 641 861 531 
Q 1209 422 1556 422 
Q 2147 422 2503 684 
Q 2859 947 2859 1369 
Q 2859 1650 2717 1795 
Q 2575 1941 2106 2059 
L 1728 2156 
Q 1081 2325 845 2545 
Q 609 2766 609 3163 
Q 609 3859 1145 4304 
Q 1681 4750 2541 4750 
Q 2875 4750 3203 4690 
Q 3531 4631 3859 4513 
z
" transform="scale(0.015625)"/>
     </defs>
     <use xlink:href="#DejaVuSans-394" transform="translate(0 0.09375)"/>
     <use xlink:href="#DejaVuSans-Oblique-53" transform="translate(69.365234 -16.3125)scale(0.7)"/>
     <use xlink:href="#DejaVuSans-Oblique-43" transform="translate(113.798828 -16.3125)scale(0.7)"/>
    </g>
   </g>
   <g id="legend_2">
    <g id="patch_13">
     <path d="M 361.927273 162.586875 
L 427.522585 162.586875 
Q 429.522585 162.586875 429.522585 160.586875 
L 429.522585 58.84 
Q 429.522585 56.84 427.522585 56.84 
L 361.927273 56.84 
Q 359.927273 56.84 359.927273 58.84 
L 359.927273 160.586875 
Q 359.927273 162.586875 361.927273 162.586875 
z
" style="fill: #ffffff; opacity: 0.8; stroke: #cccccc; stroke-linejoin: miter"/>
    </g>
    <g id="line2d_70">
     <path d="M 363.927273 64.938437 
L 373.927273 64.938437 
L 383.927273 64.938437 
" style="fill: none; stroke: #1f77b4; stroke-width: 1.5; stroke-linecap: square"/>
    </g>
    <g id="text_37">
     <!-- J=0.1 -->
     <g transform="translate(391.927273 68.438437)scale(0.1 -0.1)">
      <use xlink:href="#DejaVuSans-4a"/>
      <use xlink:href="#DejaVuSans-3d" x="29.492188"/>
      <use xlink:href="#DejaVuSans-30" x="113.28125"/>
      <use xlink:href="#DejaVuSans-2e" x="176.904297"/>
      <use xlink:href="#DejaVuSans-31" x="208.691406"/>
     </g>
    </g>
    <g id="line2d_71">
     <path d="M 363.927273 79.616562 
L 373.927273 79.616562 
L 383.927273 79.616562 
" style="fill: none; stroke: #ff7f0e; stroke-width: 1.5; stroke-linecap: square"/>
    </g>
    <g id="text_38">
     <!-- J=0.15 -->
     <g transform="translate(391.927273 83.116562)scale(0.1 -0.1)">
      <use xlink:href="#DejaVuSans-4a"/>
      <use xlink:href="#DejaVuSans-3d" x="29.492188"/>
      <use xlink:href="#DejaVuSans-30" x="113.28125"/>
      <use xlink:href="#DejaVuSans-2e" x="176.904297"/>
      <use xlink:href="#DejaVuSans-31" x="208.691406"/>
      <use xlink:href="#DejaVuSans-35" x="272.314453"/>
     </g>
    </g>
    <g id="line2d_72">
     <path d="M 363.927273 94.294687 
L 373.927273 94.294687 
L 383.927273 94.294687 
" style="fill: none; stroke: #2ca02c; stroke-width: 1.5; stroke-linecap: square"/>
    </g>
    <g id="text_39">
     <!-- J=0.2 -->
     <g transform="translate(391.927273 97.794687)scale(0.1 -0.1)">
      <use xlink:href="#DejaVuSans-4a"/>
      <use xlink:href="#DejaVuSans-3d" x="29.492188"/>
      <use xlink:href="#DejaVuSans-30" x="113.28125"/>
      <use xlink:href="#DejaVuSans-2e" x="176.904297"/>
      <use xlink:href="#DejaVuSans-32" x="208.691406"/>
     </g>
    </g>
    <g id="line2d_73">
     <path d="M 363.927273 108.972812 
L 373.927273 108.972812 
L 383.927273 108.972812 
" style="fill: none; stroke: #d62728; stroke-width: 1.5; stroke-linecap: square"/>
    </g>
    <g id="text_40">
     <!-- J=0.3 -->
     <g transform="translate(391.927273 112.472812)scale(0.1 -0.1)">
      <use xlink:href="#DejaVuSans-4a"/>
      <use xlink:href="#DejaVuSans-3d" x="29.492188"/>
      <use xlink:href="#DejaVuSans-30" x="113.28125"/>
      <use xlink:href="#DejaVuSans-2e" x="176.904297"/>
      <use xlink:href="#DejaVuSans-33" x="208.691406"/>
     </g>
    </g>
    <g id="line2d_74">
     <path d="M 363.927273 123.650937 
L 373.927273 123.650937 
L 383.927273 123.650937 
" style="fill: none; stroke: #9467bd; stroke-width: 1.5; stroke-linecap: square"/>
    </g>
    <g id="text_41">
     <!-- J=0.5 -->
     <g transform="translate(391.927273 127.150937)scale(0.1 -0.1)">
      <use xlink:href="#DejaVuSans-4a"/>
      <use xlink:href="#DejaVuSans-3d" x="29.492188"/>
      <use xlink:href="#DejaVuSans-30" x="113.28125"/>
      <use xlink:href="#DejaVuSans-2e" x="176.904297"/>
      <use xlink:href="#DejaVuSans-35" x="208.691406"/>
     </g>
    </g>
    <g id="line2d_75">
     <path d="M 363.927273 138.329062 
L 373.927273 138.329062 
L 383.927273 138.329062 
" style="fill: none; stroke: #8c564b; stroke-width: 1.5; stroke-linecap: square"/>
    </g>
    <g id="text_42">
     <!-- J=0.7 -->
     <g transform="translate(391.927273 141.829062)scale(0.1 -0.1)">
      <use xlink:href="#DejaVuSans-4a"/>
      <use xlink:href="#DejaVuSans-3d" x="29.492188"/>
      <use xlink:href="#DejaVuSans-30" x="113.28125"/>
      <use xlink:href="#DejaVuSans-2e" x="176.904297"/>
      <use xlink:href="#DejaVuSans-37" x="208.691406"/>
     </g>
    </g>
    <g id="line2d_76">
     <path d="M 363.927273 153.007187 
L 373.927273 153.007187 
L 383.927273 153.007187 
" style="fill: none; stroke: #e377c2; stroke-width: 1.5; stroke-linecap: square"/>
    </g>
    <g id="text_43">
     <!-- J=1 -->
     <g transform="translate(391.927273 156.507187)scale(0.1 -0.1)">
      <use xlink:href="#DejaVuSans-4a"/>
      <use xlink:href="#DejaVuSans-3d" x="29.492188"/>
      <use xlink:href="#DejaVuSans-31" x="113.28125"/>
     </g>
    </g>
   </g>
  </g>
 </g>
 <defs>
  <clipPath id="p11669f6c9d">
   <rect x="81" y="51.84" width="228.272727" height="332.64"/>
  </clipPath>
  <clipPath id="p78d1c40e3c">
   <rect x="354.927273" y="51.84" width="228.272727" height="332.64"/>
  </clipPath>
 </defs>
</svg>
