<?xml version="1.0" encoding="utf-8" standalone="no"?>
<!DOCTYPE svg PUBLIC "-//W3C//DTD SVG 1.1//EN"
  "http://www.w3.org/Graphics/SVG/1.1/DTD/svg11.dtd">
<svg xmlns:xlink="http://www.w3.org/1999/xlink" width="432pt" height="288pt" viewBox="0 0 432 288" xmlns="http://www.w3.org/2000/svg" version="1.1">
 <metadata>
  <rdf:RDF xmlns:dc="http://purl.org/dc/elements/1.1/" xmlns:cc="http://creativecommons.org/ns#" xmlns:rdf="http://www.w3.org/1999/02/22-rdf-syntax-ns#">
   <cc:Work>
    <dc:type rdf:resource="http://purl.org/dc/dcmitype/StillImage"/>
    <dc:date>2024-03-05T22:08:16.731145</dc:date>
    <dc:format>image/svg+xml</dc:format>
    <dc:creator>
     <cc:Agent>
      <dc:title>Matplotlib v3.5.3, https://matplotlib.org/</dc:title>
     </cc:Agent>
    </dc:creator>
   </cc:Work>
  </rdf:RDF>
 </metadata>
 <defs>
  <style type="text/css">*{stroke-linejoin: round; stroke-linecap: butt}</style>
 </defs>
 <g id="figure_1">
  <g id="patch_1">
   <path d="M 0 288 
L 432 288 
L 432 0 
L 0 0 
z
" style="fill: #ffffff"/>
  </g>
  <g id="axes_1">
   <g id="patch_2">
    <path d="M 54 256.32 
L 388.8 256.32 
L 388.8 34.56 
L 54 34.56 
z
" style="fill: #ffffff"/>
   </g>
   <g id="matplotlib.axis_1">
    <g id="xtick_1">
     <g id="line2d_1">
      <path d="M 66.143802 256.32 
L 66.143802 34.56 
" clip-path="url(#pe85eee4132)" style="fill: none; stroke: #b0b0b0; stroke-width: 0.8; stroke-linecap: square"/>
     </g>
     <g id="line2d_2">
      <defs>
       <path id="mb32806967c" d="M 0 0 
L 0 3.5 
" style="stroke: #000000; stroke-width: 0.8"/>
      </defs>
      <g>
       <use xlink:href="#mb32806967c" x="66.143802" y="256.32" style="stroke: #000000; stroke-width: 0.8"/>
      </g>
     </g>
     <g id="text_1">
      <!-- 0 -->
      <g transform="translate(62.962552 270.918437)scale(0.1 -0.1)">
       <defs>
        <path id="DejaVuSans-30" d="M 2034 4250 
Q 1547 4250 1301 3770 
Q 1056 3291 1056 2328 
Q 1056 1369 1301 889 
Q 1547 409 2034 409 
Q 2525 409 2770 889 
Q 3016 1369 3016 2328 
Q 3016 3291 2770 3770 
Q 2525 4250 2034 4250 
z
M 2034 4750 
Q 2819 4750 3233 4129 
Q 3647 3509 3647 2328 
Q 3647 1150 3233 529 
Q 2819 -91 2034 -91 
Q 1250 -91 836 529 
Q 422 1150 422 2328 
Q 422 3509 836 4129 
Q 1250 4750 2034 4750 
z
" transform="scale(0.015625)"/>
       </defs>
       <use xlink:href="#DejaVuSans-30"/>
      </g>
     </g>
    </g>
    <g id="xtick_2">
     <g id="line2d_3">
      <path d="M 127.631405 256.32 
L 127.631405 34.56 
" clip-path="url(#pe85eee4132)" style="fill: none; stroke: #b0b0b0; stroke-width: 0.8; stroke-linecap: square"/>
     </g>
     <g id="line2d_4">
      <g>
       <use xlink:href="#mb32806967c" x="127.631405" y="256.32" style="stroke: #000000; stroke-width: 0.8"/>
      </g>
     </g>
     <g id="text_2">
      <!-- 2 -->
      <g transform="translate(124.450155 270.918437)scale(0.1 -0.1)">
       <defs>
        <path id="DejaVuSans-32" d="M 1228 531 
L 3431 531 
L 3431 0 
L 469 0 
L 469 531 
Q 828 903 1448 1529 
Q 2069 2156 2228 2338 
Q 2531 2678 2651 2914 
Q 2772 3150 2772 3378 
Q 2772 3750 2511 3984 
Q 2250 4219 1831 4219 
Q 1534 4219 1204 4116 
Q 875 4013 500 3803 
L 500 4441 
Q 881 4594 1212 4672 
Q 1544 4750 1819 4750 
Q 2544 4750 2975 4387 
Q 3406 4025 3406 3419 
Q 3406 3131 3298 2873 
Q 3191 2616 2906 2266 
Q 2828 2175 2409 1742 
Q 1991 1309 1228 531 
z
" transform="scale(0.015625)"/>
       </defs>
       <use xlink:href="#DejaVuSans-32"/>
      </g>
     </g>
    </g>
    <g id="xtick_3">
     <g id="line2d_5">
      <path d="M 189.119008 256.32 
L 189.119008 34.56 
" clip-path="url(#pe85eee4132)" style="fill: none; stroke: #b0b0b0; stroke-width: 0.8; stroke-linecap: square"/>
     </g>
     <g id="line2d_6">
      <g>
       <use xlink:href="#mb32806967c" x="189.119008" y="256.32" style="stroke: #000000; stroke-width: 0.8"/>
      </g>
     </g>
     <g id="text_3">
      <!-- 4 -->
      <g transform="translate(185.937758 270.918437)scale(0.1 -0.1)">
       <defs>
        <path id="DejaVuSans-34" d="M 2419 4116 
L 825 1625 
L 2419 1625 
L 2419 4116 
z
M 2253 4666 
L 3047 4666 
L 3047 1625 
L 3713 1625 
L 3713 1100 
L 3047 1100 
L 3047 0 
L 2419 0 
L 2419 1100 
L 313 1100 
L 313 1709 
L 2253 4666 
z
" transform="scale(0.015625)"/>
       </defs>
       <use xlink:href="#DejaVuSans-34"/>
      </g>
     </g>
    </g>
    <g id="xtick_4">
     <g id="line2d_7">
      <path d="M 250.606612 256.32 
L 250.606612 34.56 
" clip-path="url(#pe85eee4132)" style="fill: none; stroke: #b0b0b0; stroke-width: 0.8; stroke-linecap: square"/>
     </g>
     <g id="line2d_8">
      <g>
       <use xlink:href="#mb32806967c" x="250.606612" y="256.32" style="stroke: #000000; stroke-width: 0.8"/>
      </g>
     </g>
     <g id="text_4">
      <!-- 6 -->
      <g transform="translate(247.425362 270.918437)scale(0.1 -0.1)">
       <defs>
        <path id="DejaVuSans-36" d="M 2113 2584 
Q 1688 2584 1439 2293 
Q 1191 2003 1191 1497 
Q 1191 994 1439 701 
Q 1688 409 2113 409 
Q 2538 409 2786 701 
Q 3034 994 3034 1497 
Q 3034 2003 2786 2293 
Q 2538 2584 2113 2584 
z
M 3366 4563 
L 3366 3988 
Q 3128 4100 2886 4159 
Q 2644 4219 2406 4219 
Q 1781 4219 1451 3797 
Q 1122 3375 1075 2522 
Q 1259 2794 1537 2939 
Q 1816 3084 2150 3084 
Q 2853 3084 3261 2657 
Q 3669 2231 3669 1497 
Q 3669 778 3244 343 
Q 2819 -91 2113 -91 
Q 1303 -91 875 529 
Q 447 1150 447 2328 
Q 447 3434 972 4092 
Q 1497 4750 2381 4750 
Q 2619 4750 2861 4703 
Q 3103 4656 3366 4563 
z
" transform="scale(0.015625)"/>
       </defs>
       <use xlink:href="#DejaVuSans-36"/>
      </g>
     </g>
    </g>
    <g id="xtick_5">
     <g id="line2d_9">
      <path d="M 312.094215 256.32 
L 312.094215 34.56 
" clip-path="url(#pe85eee4132)" style="fill: none; stroke: #b0b0b0; stroke-width: 0.8; stroke-linecap: square"/>
     </g>
     <g id="line2d_10">
      <g>
       <use xlink:href="#mb32806967c" x="312.094215" y="256.32" style="stroke: #000000; stroke-width: 0.8"/>
      </g>
     </g>
     <g id="text_5">
      <!-- 8 -->
      <g transform="translate(308.912965 270.918437)scale(0.1 -0.1)">
       <defs>
        <path id="DejaVuSans-38" d="M 2034 2216 
Q 1584 2216 1326 1975 
Q 1069 1734 1069 1313 
Q 1069 891 1326 650 
Q 1584 409 2034 409 
Q 2484 409 2743 651 
Q 3003 894 3003 1313 
Q 3003 1734 2745 1975 
Q 2488 2216 2034 2216 
z
M 1403 2484 
Q 997 2584 770 2862 
Q 544 3141 544 3541 
Q 544 4100 942 4425 
Q 1341 4750 2034 4750 
Q 2731 4750 3128 4425 
Q 3525 4100 3525 3541 
Q 3525 3141 3298 2862 
Q 3072 2584 2669 2484 
Q 3125 2378 3379 2068 
Q 3634 1759 3634 1313 
Q 3634 634 3220 271 
Q 2806 -91 2034 -91 
Q 1263 -91 848 271 
Q 434 634 434 1313 
Q 434 1759 690 2068 
Q 947 2378 1403 2484 
z
M 1172 3481 
Q 1172 3119 1398 2916 
Q 1625 2713 2034 2713 
Q 2441 2713 2670 2916 
Q 2900 3119 2900 3481 
Q 2900 3844 2670 4047 
Q 2441 4250 2034 4250 
Q 1625 4250 1398 4047 
Q 1172 3844 1172 3481 
z
" transform="scale(0.015625)"/>
       </defs>
       <use xlink:href="#DejaVuSans-38"/>
      </g>
     </g>
    </g>
    <g id="xtick_6">
     <g id="line2d_11">
      <path d="M 373.581818 256.32 
L 373.581818 34.56 
" clip-path="url(#pe85eee4132)" style="fill: none; stroke: #b0b0b0; stroke-width: 0.8; stroke-linecap: square"/>
     </g>
     <g id="line2d_12">
      <g>
       <use xlink:href="#mb32806967c" x="373.581818" y="256.32" style="stroke: #000000; stroke-width: 0.8"/>
      </g>
     </g>
     <g id="text_6">
      <!-- 10 -->
      <g transform="translate(367.219318 270.918437)scale(0.1 -0.1)">
       <defs>
        <path id="DejaVuSans-31" d="M 794 531 
L 1825 531 
L 1825 4091 
L 703 3866 
L 703 4441 
L 1819 4666 
L 2450 4666 
L 2450 531 
L 3481 531 
L 3481 0 
L 794 0 
L 794 531 
z
" transform="scale(0.015625)"/>
       </defs>
       <use xlink:href="#DejaVuSans-31"/>
       <use xlink:href="#DejaVuSans-30" x="63.623047"/>
      </g>
     </g>
    </g>
    <g id="text_7">
     <!-- U -->
     <g transform="translate(217.740625 284.596563)scale(0.1 -0.1)">
      <defs>
       <path id="DejaVuSans-55" d="M 556 4666 
L 1191 4666 
L 1191 1831 
Q 1191 1081 1462 751 
Q 1734 422 2344 422 
Q 2950 422 3222 751 
Q 3494 1081 3494 1831 
L 3494 4666 
L 4128 4666 
L 4128 1753 
Q 4128 841 3676 375 
Q 3225 -91 2344 -91 
Q 1459 -91 1007 375 
Q 556 841 556 1753 
L 556 4666 
z
" transform="scale(0.015625)"/>
      </defs>
      <use xlink:href="#DejaVuSans-55"/>
     </g>
    </g>
   </g>
   <g id="matplotlib.axis_2">
    <g id="ytick_1">
     <g id="line2d_13">
      <path d="M 54 242.058706 
L 388.8 242.058706 
" clip-path="url(#pe85eee4132)" style="fill: none; stroke: #b0b0b0; stroke-width: 0.8; stroke-linecap: square"/>
     </g>
     <g id="line2d_14">
      <defs>
       <path id="m0b53bbf425" d="M 0 0 
L -3.5 0 
" style="stroke: #000000; stroke-width: 0.8"/>
      </defs>
      <g>
       <use xlink:href="#m0b53bbf425" x="54" y="242.058706" style="stroke: #000000; stroke-width: 0.8"/>
      </g>
     </g>
     <g id="text_8">
      <!-- −20.0 -->
      <g transform="translate(16.354687 245.857924)scale(0.1 -0.1)">
       <defs>
        <path id="DejaVuSans-2212" d="M 678 2272 
L 4684 2272 
L 4684 1741 
L 678 1741 
L 678 2272 
z
" transform="scale(0.015625)"/>
        <path id="DejaVuSans-2e" d="M 684 794 
L 1344 794 
L 1344 0 
L 684 0 
L 684 794 
z
" transform="scale(0.015625)"/>
       </defs>
       <use xlink:href="#DejaVuSans-2212"/>
       <use xlink:href="#DejaVuSans-32" x="83.789062"/>
       <use xlink:href="#DejaVuSans-30" x="147.412109"/>
       <use xlink:href="#DejaVuSans-2e" x="211.035156"/>
       <use xlink:href="#DejaVuSans-30" x="242.822266"/>
      </g>
     </g>
    </g>
    <g id="ytick_2">
     <g id="line2d_15">
      <path d="M 54 212.597426 
L 388.8 212.597426 
" clip-path="url(#pe85eee4132)" style="fill: none; stroke: #b0b0b0; stroke-width: 0.8; stroke-linecap: square"/>
     </g>
     <g id="line2d_16">
      <g>
       <use xlink:href="#m0b53bbf425" x="54" y="212.597426" style="stroke: #000000; stroke-width: 0.8"/>
      </g>
     </g>
     <g id="text_9">
      <!-- −17.5 -->
      <g transform="translate(16.354687 216.396644)scale(0.1 -0.1)">
       <defs>
        <path id="DejaVuSans-37" d="M 525 4666 
L 3525 4666 
L 3525 4397 
L 1831 0 
L 1172 0 
L 2766 4134 
L 525 4134 
L 525 4666 
z
" transform="scale(0.015625)"/>
        <path id="DejaVuSans-35" d="M 691 4666 
L 3169 4666 
L 3169 4134 
L 1269 4134 
L 1269 2991 
Q 1406 3038 1543 3061 
Q 1681 3084 1819 3084 
Q 2600 3084 3056 2656 
Q 3513 2228 3513 1497 
Q 3513 744 3044 326 
Q 2575 -91 1722 -91 
Q 1428 -91 1123 -41 
Q 819 9 494 109 
L 494 744 
Q 775 591 1075 516 
Q 1375 441 1709 441 
Q 2250 441 2565 725 
Q 2881 1009 2881 1497 
Q 2881 1984 2565 2268 
Q 2250 2553 1709 2553 
Q 1456 2553 1204 2497 
Q 953 2441 691 2322 
L 691 4666 
z
" transform="scale(0.015625)"/>
       </defs>
       <use xlink:href="#DejaVuSans-2212"/>
       <use xlink:href="#DejaVuSans-31" x="83.789062"/>
       <use xlink:href="#DejaVuSans-37" x="147.412109"/>
       <use xlink:href="#DejaVuSans-2e" x="211.035156"/>
       <use xlink:href="#DejaVuSans-35" x="242.822266"/>
      </g>
     </g>
    </g>
    <g id="ytick_3">
     <g id="line2d_17">
      <path d="M 54 183.136146 
L 388.8 183.136146 
" clip-path="url(#pe85eee4132)" style="fill: none; stroke: #b0b0b0; stroke-width: 0.8; stroke-linecap: square"/>
     </g>
     <g id="line2d_18">
      <g>
       <use xlink:href="#m0b53bbf425" x="54" y="183.136146" style="stroke: #000000; stroke-width: 0.8"/>
      </g>
     </g>
     <g id="text_10">
      <!-- −15.0 -->
      <g transform="translate(16.354687 186.935364)scale(0.1 -0.1)">
       <use xlink:href="#DejaVuSans-2212"/>
       <use xlink:href="#DejaVuSans-31" x="83.789062"/>
       <use xlink:href="#DejaVuSans-35" x="147.412109"/>
       <use xlink:href="#DejaVuSans-2e" x="211.035156"/>
       <use xlink:href="#DejaVuSans-30" x="242.822266"/>
      </g>
     </g>
    </g>
    <g id="ytick_4">
     <g id="line2d_19">
      <path d="M 54 153.674866 
L 388.8 153.674866 
" clip-path="url(#pe85eee4132)" style="fill: none; stroke: #b0b0b0; stroke-width: 0.8; stroke-linecap: square"/>
     </g>
     <g id="line2d_20">
      <g>
       <use xlink:href="#m0b53bbf425" x="54" y="153.674866" style="stroke: #000000; stroke-width: 0.8"/>
      </g>
     </g>
     <g id="text_11">
      <!-- −12.5 -->
      <g transform="translate(16.354687 157.474084)scale(0.1 -0.1)">
       <use xlink:href="#DejaVuSans-2212"/>
       <use xlink:href="#DejaVuSans-31" x="83.789062"/>
       <use xlink:href="#DejaVuSans-32" x="147.412109"/>
       <use xlink:href="#DejaVuSans-2e" x="211.035156"/>
       <use xlink:href="#DejaVuSans-35" x="242.822266"/>
      </g>
     </g>
    </g>
    <g id="ytick_5">
     <g id="line2d_21">
      <path d="M 54 124.213586 
L 388.8 124.213586 
" clip-path="url(#pe85eee4132)" style="fill: none; stroke: #b0b0b0; stroke-width: 0.8; stroke-linecap: square"/>
     </g>
     <g id="line2d_22">
      <g>
       <use xlink:href="#m0b53bbf425" x="54" y="124.213586" style="stroke: #000000; stroke-width: 0.8"/>
      </g>
     </g>
     <g id="text_12">
      <!-- −10.0 -->
      <g transform="translate(16.354687 128.012804)scale(0.1 -0.1)">
       <use xlink:href="#DejaVuSans-2212"/>
       <use xlink:href="#DejaVuSans-31" x="83.789062"/>
       <use xlink:href="#DejaVuSans-30" x="147.412109"/>
       <use xlink:href="#DejaVuSans-2e" x="211.035156"/>
       <use xlink:href="#DejaVuSans-30" x="242.822266"/>
      </g>
     </g>
    </g>
    <g id="ytick_6">
     <g id="line2d_23">
      <path d="M 54 94.752306 
L 388.8 94.752306 
" clip-path="url(#pe85eee4132)" style="fill: none; stroke: #b0b0b0; stroke-width: 0.8; stroke-linecap: square"/>
     </g>
     <g id="line2d_24">
      <g>
       <use xlink:href="#m0b53bbf425" x="54" y="94.752306" style="stroke: #000000; stroke-width: 0.8"/>
      </g>
     </g>
     <g id="text_13">
      <!-- −7.5 -->
      <g transform="translate(22.717187 98.551524)scale(0.1 -0.1)">
       <use xlink:href="#DejaVuSans-2212"/>
       <use xlink:href="#DejaVuSans-37" x="83.789062"/>
       <use xlink:href="#DejaVuSans-2e" x="147.412109"/>
       <use xlink:href="#DejaVuSans-35" x="179.199219"/>
      </g>
     </g>
    </g>
    <g id="ytick_7">
     <g id="line2d_25">
      <path d="M 54 65.291026 
L 388.8 65.291026 
" clip-path="url(#pe85eee4132)" style="fill: none; stroke: #b0b0b0; stroke-width: 0.8; stroke-linecap: square"/>
     </g>
     <g id="line2d_26">
      <g>
       <use xlink:href="#m0b53bbf425" x="54" y="65.291026" style="stroke: #000000; stroke-width: 0.8"/>
      </g>
     </g>
     <g id="text_14">
      <!-- −5.0 -->
      <g transform="translate(22.717187 69.090244)scale(0.1 -0.1)">
       <use xlink:href="#DejaVuSans-2212"/>
       <use xlink:href="#DejaVuSans-35" x="83.789062"/>
       <use xlink:href="#DejaVuSans-2e" x="147.412109"/>
       <use xlink:href="#DejaVuSans-30" x="179.199219"/>
      </g>
     </g>
    </g>
    <g id="ytick_8">
     <g id="line2d_27">
      <path d="M 54 35.829746 
L 388.8 35.829746 
" clip-path="url(#pe85eee4132)" style="fill: none; stroke: #b0b0b0; stroke-width: 0.8; stroke-linecap: square"/>
     </g>
     <g id="line2d_28">
      <g>
       <use xlink:href="#m0b53bbf425" x="54" y="35.829746" style="stroke: #000000; stroke-width: 0.8"/>
      </g>
     </g>
     <g id="text_15">
      <!-- −2.5 -->
      <g transform="translate(22.717187 39.628964)scale(0.1 -0.1)">
       <use xlink:href="#DejaVuSans-2212"/>
       <use xlink:href="#DejaVuSans-32" x="83.789062"/>
       <use xlink:href="#DejaVuSans-2e" x="147.412109"/>
       <use xlink:href="#DejaVuSans-35" x="179.199219"/>
      </g>
     </g>
    </g>
    <g id="text_16">
     <!-- Energy -->
     <g transform="translate(10.275 162.94625)rotate(-90)scale(0.1 -0.1)">
      <defs>
       <path id="DejaVuSans-45" d="M 628 4666 
L 3578 4666 
L 3578 4134 
L 1259 4134 
L 1259 2753 
L 3481 2753 
L 3481 2222 
L 1259 2222 
L 1259 531 
L 3634 531 
L 3634 0 
L 628 0 
L 628 4666 
z
" transform="scale(0.015625)"/>
       <path id="DejaVuSans-6e" d="M 3513 2113 
L 3513 0 
L 2938 0 
L 2938 2094 
Q 2938 2591 2744 2837 
Q 2550 3084 2163 3084 
Q 1697 3084 1428 2787 
Q 1159 2491 1159 1978 
L 1159 0 
L 581 0 
L 581 3500 
L 1159 3500 
L 1159 2956 
Q 1366 3272 1645 3428 
Q 1925 3584 2291 3584 
Q 2894 3584 3203 3211 
Q 3513 2838 3513 2113 
z
" transform="scale(0.015625)"/>
       <path id="DejaVuSans-65" d="M 3597 1894 
L 3597 1613 
L 953 1613 
Q 991 1019 1311 708 
Q 1631 397 2203 397 
Q 2534 397 2845 478 
Q 3156 559 3463 722 
L 3463 178 
Q 3153 47 2828 -22 
Q 2503 -91 2169 -91 
Q 1331 -91 842 396 
Q 353 884 353 1716 
Q 353 2575 817 3079 
Q 1281 3584 2069 3584 
Q 2775 3584 3186 3129 
Q 3597 2675 3597 1894 
z
M 3022 2063 
Q 3016 2534 2758 2815 
Q 2500 3097 2075 3097 
Q 1594 3097 1305 2825 
Q 1016 2553 972 2059 
L 3022 2063 
z
" transform="scale(0.015625)"/>
       <path id="DejaVuSans-72" d="M 2631 2963 
Q 2534 3019 2420 3045 
Q 2306 3072 2169 3072 
Q 1681 3072 1420 2755 
Q 1159 2438 1159 1844 
L 1159 0 
L 581 0 
L 581 3500 
L 1159 3500 
L 1159 2956 
Q 1341 3275 1631 3429 
Q 1922 3584 2338 3584 
Q 2397 3584 2469 3576 
Q 2541 3569 2628 3553 
L 2631 2963 
z
" transform="scale(0.015625)"/>
       <path id="DejaVuSans-67" d="M 2906 1791 
Q 2906 2416 2648 2759 
Q 2391 3103 1925 3103 
Q 1463 3103 1205 2759 
Q 947 2416 947 1791 
Q 947 1169 1205 825 
Q 1463 481 1925 481 
Q 2391 481 2648 825 
Q 2906 1169 2906 1791 
z
M 3481 434 
Q 3481 -459 3084 -895 
Q 2688 -1331 1869 -1331 
Q 1566 -1331 1297 -1286 
Q 1028 -1241 775 -1147 
L 775 -588 
Q 1028 -725 1275 -790 
Q 1522 -856 1778 -856 
Q 2344 -856 2625 -561 
Q 2906 -266 2906 331 
L 2906 616 
Q 2728 306 2450 153 
Q 2172 0 1784 0 
Q 1141 0 747 490 
Q 353 981 353 1791 
Q 353 2603 747 3093 
Q 1141 3584 1784 3584 
Q 2172 3584 2450 3431 
Q 2728 3278 2906 2969 
L 2906 3500 
L 3481 3500 
L 3481 434 
z
" transform="scale(0.015625)"/>
       <path id="DejaVuSans-79" d="M 2059 -325 
Q 1816 -950 1584 -1140 
Q 1353 -1331 966 -1331 
L 506 -1331 
L 506 -850 
L 844 -850 
Q 1081 -850 1212 -737 
Q 1344 -625 1503 -206 
L 1606 56 
L 191 3500 
L 800 3500 
L 1894 763 
L 2988 3500 
L 3597 3500 
L 2059 -325 
z
" transform="scale(0.015625)"/>
      </defs>
      <use xlink:href="#DejaVuSans-45"/>
      <use xlink:href="#DejaVuSans-6e" x="63.183594"/>
      <use xlink:href="#DejaVuSans-65" x="126.5625"/>
      <use xlink:href="#DejaVuSans-72" x="188.085938"/>
      <use xlink:href="#DejaVuSans-67" x="227.449219"/>
      <use xlink:href="#DejaVuSans-79" x="290.925781"/>
     </g>
    </g>
   </g>
   <g id="line2d_29">
    <path d="M 69.218182 73.953973 
L 77.022378 64.732873 
L 84.826573 56.089326 
L 92.630769 48.283759 
L 100.434965 44.64 
L 108.239161 44.691033 
L 116.043357 44.785987 
L 123.847552 44.935894 
L 131.651748 45.148394 
L 139.455944 45.427879 
L 147.26014 45.776094 
L 155.064336 46.19278 
L 162.868531 46.676257 
L 170.672727 47.223885 
L 178.476923 47.832438 
L 186.281119 48.498373 
L 194.085315 49.218017 
L 201.88951 49.987706 
L 209.693706 50.803876 
L 217.497902 51.663116 
L 225.302098 52.562205 
L 233.106294 53.498131 
L 240.91049 54.468089 
L 248.714685 55.46949 
L 256.518881 56.499942 
L 264.323077 57.557252 
L 272.127273 58.639402 
L 279.931469 59.744545 
L 287.735664 60.87099 
L 295.53986 62.017188 
L 303.344056 63.181719 
L 311.148252 64.363286 
L 318.952448 65.560701 
L 326.756643 66.77287 
L 334.560839 67.998793 
L 342.365035 69.237552 
L 350.169231 70.488302 
L 357.973427 71.75027 
L 365.777622 73.022738 
L 373.581818 74.305048 
" clip-path="url(#pe85eee4132)" style="fill: none; stroke: #1f77b4; stroke-width: 1.5; stroke-linecap: square"/>
    <defs>
     <path id="mdd2c31e0b6" d="M 0 1.5 
C 0.397805 1.5 0.77937 1.341951 1.06066 1.06066 
C 1.341951 0.77937 1.5 0.397805 1.5 0 
C 1.5 -0.397805 1.341951 -0.77937 1.06066 -1.06066 
C 0.77937 -1.341951 0.397805 -1.5 0 -1.5 
C -0.397805 -1.5 -0.77937 -1.341951 -1.06066 -1.06066 
C -1.341951 -0.77937 -1.5 -0.397805 -1.5 0 
C -1.5 0.397805 -1.341951 0.77937 -1.06066 1.06066 
C -0.77937 1.341951 -0.397805 1.5 0 1.5 
z
" style="stroke: #1f77b4"/>
    </defs>
    <g clip-path="url(#pe85eee4132)">
     <use xlink:href="#mdd2c31e0b6" x="69.218182" y="73.953973" style="fill: #1f77b4; stroke: #1f77b4"/>
     <use xlink:href="#mdd2c31e0b6" x="77.022378" y="64.732873" style="fill: #1f77b4; stroke: #1f77b4"/>
     <use xlink:href="#mdd2c31e0b6" x="84.826573" y="56.089326" style="fill: #1f77b4; stroke: #1f77b4"/>
     <use xlink:href="#mdd2c31e0b6" x="92.630769" y="48.283759" style="fill: #1f77b4; stroke: #1f77b4"/>
     <use xlink:href="#mdd2c31e0b6" x="100.434965" y="44.64" style="fill: #1f77b4; stroke: #1f77b4"/>
     <use xlink:href="#mdd2c31e0b6" x="108.239161" y="44.691033" style="fill: #1f77b4; stroke: #1f77b4"/>
     <use xlink:href="#mdd2c31e0b6" x="116.043357" y="44.785987" style="fill: #1f77b4; stroke: #1f77b4"/>
     <use xlink:href="#mdd2c31e0b6" x="123.847552" y="44.935894" style="fill: #1f77b4; stroke: #1f77b4"/>
     <use xlink:href="#mdd2c31e0b6" x="131.651748" y="45.148394" style="fill: #1f77b4; stroke: #1f77b4"/>
     <use xlink:href="#mdd2c31e0b6" x="139.455944" y="45.427879" style="fill: #1f77b4; stroke: #1f77b4"/>
     <use xlink:href="#mdd2c31e0b6" x="147.26014" y="45.776094" style="fill: #1f77b4; stroke: #1f77b4"/>
     <use xlink:href="#mdd2c31e0b6" x="155.064336" y="46.19278" style="fill: #1f77b4; stroke: #1f77b4"/>
     <use xlink:href="#mdd2c31e0b6" x="162.868531" y="46.676257" style="fill: #1f77b4; stroke: #1f77b4"/>
     <use xlink:href="#mdd2c31e0b6" x="170.672727" y="47.223885" style="fill: #1f77b4; stroke: #1f77b4"/>
     <use xlink:href="#mdd2c31e0b6" x="178.476923" y="47.832438" style="fill: #1f77b4; stroke: #1f77b4"/>
     <use xlink:href="#mdd2c31e0b6" x="186.281119" y="48.498373" style="fill: #1f77b4; stroke: #1f77b4"/>
     <use xlink:href="#mdd2c31e0b6" x="194.085315" y="49.218017" style="fill: #1f77b4; stroke: #1f77b4"/>
     <use xlink:href="#mdd2c31e0b6" x="201.88951" y="49.987706" style="fill: #1f77b4; stroke: #1f77b4"/>
     <use xlink:href="#mdd2c31e0b6" x="209.693706" y="50.803876" style="fill: #1f77b4; stroke: #1f77b4"/>
     <use xlink:href="#mdd2c31e0b6" x="217.497902" y="51.663116" style="fill: #1f77b4; stroke: #1f77b4"/>
     <use xlink:href="#mdd2c31e0b6" x="225.302098" y="52.562205" style="fill: #1f77b4; stroke: #1f77b4"/>
     <use xlink:href="#mdd2c31e0b6" x="233.106294" y="53.498131" style="fill: #1f77b4; stroke: #1f77b4"/>
     <use xlink:href="#mdd2c31e0b6" x="240.91049" y="54.468089" style="fill: #1f77b4; stroke: #1f77b4"/>
     <use xlink:href="#mdd2c31e0b6" x="248.714685" y="55.46949" style="fill: #1f77b4; stroke: #1f77b4"/>
     <use xlink:href="#mdd2c31e0b6" x="256.518881" y="56.499942" style="fill: #1f77b4; stroke: #1f77b4"/>
     <use xlink:href="#mdd2c31e0b6" x="264.323077" y="57.557252" style="fill: #1f77b4; stroke: #1f77b4"/>
     <use xlink:href="#mdd2c31e0b6" x="272.127273" y="58.639402" style="fill: #1f77b4; stroke: #1f77b4"/>
     <use xlink:href="#mdd2c31e0b6" x="279.931469" y="59.744545" style="fill: #1f77b4; stroke: #1f77b4"/>
     <use xlink:href="#mdd2c31e0b6" x="287.735664" y="60.87099" style="fill: #1f77b4; stroke: #1f77b4"/>
     <use xlink:href="#mdd2c31e0b6" x="295.53986" y="62.017188" style="fill: #1f77b4; stroke: #1f77b4"/>
     <use xlink:href="#mdd2c31e0b6" x="303.344056" y="63.181719" style="fill: #1f77b4; stroke: #1f77b4"/>
     <use xlink:href="#mdd2c31e0b6" x="311.148252" y="64.363286" style="fill: #1f77b4; stroke: #1f77b4"/>
     <use xlink:href="#mdd2c31e0b6" x="318.952448" y="65.560701" style="fill: #1f77b4; stroke: #1f77b4"/>
     <use xlink:href="#mdd2c31e0b6" x="326.756643" y="66.77287" style="fill: #1f77b4; stroke: #1f77b4"/>
     <use xlink:href="#mdd2c31e0b6" x="334.560839" y="67.998793" style="fill: #1f77b4; stroke: #1f77b4"/>
     <use xlink:href="#mdd2c31e0b6" x="342.365035" y="69.237552" style="fill: #1f77b4; stroke: #1f77b4"/>
     <use xlink:href="#mdd2c31e0b6" x="350.169231" y="70.488302" style="fill: #1f77b4; stroke: #1f77b4"/>
     <use xlink:href="#mdd2c31e0b6" x="357.973427" y="71.75027" style="fill: #1f77b4; stroke: #1f77b4"/>
     <use xlink:href="#mdd2c31e0b6" x="365.777622" y="73.022738" style="fill: #1f77b4; stroke: #1f77b4"/>
     <use xlink:href="#mdd2c31e0b6" x="373.581818" y="74.305048" style="fill: #1f77b4; stroke: #1f77b4"/>
    </g>
   </g>
   <g id="line2d_30">
    <path d="M 69.218182 113.726485 
L 77.022378 103.245624 
L 84.826573 92.991119 
L 92.630769 83.013748 
L 100.434965 73.38162 
L 108.239161 64.190759 
L 116.043357 55.588707 
L 123.847552 48.026913 
L 131.651748 45.148394 
L 139.455944 45.427879 
L 147.26014 45.776094 
L 155.064336 46.192781 
L 162.868531 46.676257 
L 170.672727 47.223885 
L 178.476923 47.832439 
L 186.281119 48.498373 
L 194.085315 49.218017 
L 201.88951 49.987706 
L 209.693706 50.803876 
L 217.497902 51.663116 
L 225.302098 52.562205 
L 233.106294 53.498131 
L 240.91049 54.46809 
L 248.714685 55.46949 
L 256.518881 56.499943 
L 264.323077 57.557252 
L 272.127273 58.639402 
L 279.931469 59.744545 
L 287.735664 60.87099 
L 295.53986 62.017188 
L 303.344056 63.18172 
L 311.148252 64.363288 
L 318.952448 65.5607 
L 326.756643 66.77287 
L 334.560839 67.998793 
L 342.365035 69.237552 
L 350.169231 70.488303 
L 357.973427 71.75027 
L 365.777622 73.022738 
L 373.581818 74.305048 
" clip-path="url(#pe85eee4132)" style="fill: none; stroke: #ff7f0e; stroke-width: 1.5; stroke-linecap: square"/>
    <defs>
     <path id="m86667d0ed7" d="M 0 1.5 
C 0.397805 1.5 0.77937 1.341951 1.06066 1.06066 
C 1.341951 0.77937 1.5 0.397805 1.5 0 
C 1.5 -0.397805 1.341951 -0.77937 1.06066 -1.06066 
C 0.77937 -1.341951 0.397805 -1.5 0 -1.5 
C -0.397805 -1.5 -0.77937 -1.341951 -1.06066 -1.06066 
C -1.341951 -0.77937 -1.5 -0.397805 -1.5 0 
C -1.5 0.397805 -1.341951 0.77937 -1.06066 1.06066 
C -0.77937 1.341951 -0.397805 1.5 0 1.5 
z
" style="stroke: #ff7f0e"/>
    </defs>
    <g clip-path="url(#pe85eee4132)">
     <use xlink:href="#m86667d0ed7" x="69.218182" y="113.726485" style="fill: #ff7f0e; stroke: #ff7f0e"/>
     <use xlink:href="#m86667d0ed7" x="77.022378" y="103.245624" style="fill: #ff7f0e; stroke: #ff7f0e"/>
     <use xlink:href="#m86667d0ed7" x="84.826573" y="92.991119" style="fill: #ff7f0e; stroke: #ff7f0e"/>
     <use xlink:href="#m86667d0ed7" x="92.630769" y="83.013748" style="fill: #ff7f0e; stroke: #ff7f0e"/>
     <use xlink:href="#m86667d0ed7" x="100.434965" y="73.38162" style="fill: #ff7f0e; stroke: #ff7f0e"/>
     <use xlink:href="#m86667d0ed7" x="108.239161" y="64.190759" style="fill: #ff7f0e; stroke: #ff7f0e"/>
     <use xlink:href="#m86667d0ed7" x="116.043357" y="55.588707" style="fill: #ff7f0e; stroke: #ff7f0e"/>
     <use xlink:href="#m86667d0ed7" x="123.847552" y="48.026913" style="fill: #ff7f0e; stroke: #ff7f0e"/>
     <use xlink:href="#m86667d0ed7" x="131.651748" y="45.148394" style="fill: #ff7f0e; stroke: #ff7f0e"/>
     <use xlink:href="#m86667d0ed7" x="139.455944" y="45.427879" style="fill: #ff7f0e; stroke: #ff7f0e"/>
     <use xlink:href="#m86667d0ed7" x="147.26014" y="45.776094" style="fill: #ff7f0e; stroke: #ff7f0e"/>
     <use xlink:href="#m86667d0ed7" x="155.064336" y="46.192781" style="fill: #ff7f0e; stroke: #ff7f0e"/>
     <use xlink:href="#m86667d0ed7" x="162.868531" y="46.676257" style="fill: #ff7f0e; stroke: #ff7f0e"/>
     <use xlink:href="#m86667d0ed7" x="170.672727" y="47.223885" style="fill: #ff7f0e; stroke: #ff7f0e"/>
     <use xlink:href="#m86667d0ed7" x="178.476923" y="47.832439" style="fill: #ff7f0e; stroke: #ff7f0e"/>
     <use xlink:href="#m86667d0ed7" x="186.281119" y="48.498373" style="fill: #ff7f0e; stroke: #ff7f0e"/>
     <use xlink:href="#m86667d0ed7" x="194.085315" y="49.218017" style="fill: #ff7f0e; stroke: #ff7f0e"/>
     <use xlink:href="#m86667d0ed7" x="201.88951" y="49.987706" style="fill: #ff7f0e; stroke: #ff7f0e"/>
     <use xlink:href="#m86667d0ed7" x="209.693706" y="50.803876" style="fill: #ff7f0e; stroke: #ff7f0e"/>
     <use xlink:href="#m86667d0ed7" x="217.497902" y="51.663116" style="fill: #ff7f0e; stroke: #ff7f0e"/>
     <use xlink:href="#m86667d0ed7" x="225.302098" y="52.562205" style="fill: #ff7f0e; stroke: #ff7f0e"/>
     <use xlink:href="#m86667d0ed7" x="233.106294" y="53.498131" style="fill: #ff7f0e; stroke: #ff7f0e"/>
     <use xlink:href="#m86667d0ed7" x="240.91049" y="54.46809" style="fill: #ff7f0e; stroke: #ff7f0e"/>
     <use xlink:href="#m86667d0ed7" x="248.714685" y="55.46949" style="fill: #ff7f0e; stroke: #ff7f0e"/>
     <use xlink:href="#m86667d0ed7" x="256.518881" y="56.499943" style="fill: #ff7f0e; stroke: #ff7f0e"/>
     <use xlink:href="#m86667d0ed7" x="264.323077" y="57.557252" style="fill: #ff7f0e; stroke: #ff7f0e"/>
     <use xlink:href="#m86667d0ed7" x="272.127273" y="58.639402" style="fill: #ff7f0e; stroke: #ff7f0e"/>
     <use xlink:href="#m86667d0ed7" x="279.931469" y="59.744545" style="fill: #ff7f0e; stroke: #ff7f0e"/>
     <use xlink:href="#m86667d0ed7" x="287.735664" y="60.87099" style="fill: #ff7f0e; stroke: #ff7f0e"/>
     <use xlink:href="#m86667d0ed7" x="295.53986" y="62.017188" style="fill: #ff7f0e; stroke: #ff7f0e"/>
     <use xlink:href="#m86667d0ed7" x="303.344056" y="63.18172" style="fill: #ff7f0e; stroke: #ff7f0e"/>
     <use xlink:href="#m86667d0ed7" x="311.148252" y="64.363288" style="fill: #ff7f0e; stroke: #ff7f0e"/>
     <use xlink:href="#m86667d0ed7" x="318.952448" y="65.5607" style="fill: #ff7f0e; stroke: #ff7f0e"/>
     <use xlink:href="#m86667d0ed7" x="326.756643" y="66.77287" style="fill: #ff7f0e; stroke: #ff7f0e"/>
     <use xlink:href="#m86667d0ed7" x="334.560839" y="67.998793" style="fill: #ff7f0e; stroke: #ff7f0e"/>
     <use xlink:href="#m86667d0ed7" x="342.365035" y="69.237552" style="fill: #ff7f0e; stroke: #ff7f0e"/>
     <use xlink:href="#m86667d0ed7" x="350.169231" y="70.488303" style="fill: #ff7f0e; stroke: #ff7f0e"/>
     <use xlink:href="#m86667d0ed7" x="357.973427" y="71.75027" style="fill: #ff7f0e; stroke: #ff7f0e"/>
     <use xlink:href="#m86667d0ed7" x="365.777622" y="73.022738" style="fill: #ff7f0e; stroke: #ff7f0e"/>
     <use xlink:href="#m86667d0ed7" x="373.581818" y="74.305048" style="fill: #ff7f0e; stroke: #ff7f0e"/>
    </g>
   </g>
   <g id="line2d_31">
    <path d="M 69.218182 156.570581 
L 77.022378 145.508376 
L 84.826573 134.559232 
L 92.630769 123.743329 
L 100.434965 113.085603 
L 108.239161 102.61725 
L 116.043357 92.377955 
L 123.847552 82.419353 
L 131.651748 72.810873 
L 139.455944 63.650777 
L 147.26014 55.464818 
L 155.064336 48.825491 
L 162.868531 46.676257 
L 170.672727 47.223885 
L 178.476923 47.832439 
L 186.281119 48.498373 
L 194.085315 49.218017 
L 201.88951 49.987706 
L 209.693706 50.803876 
L 217.497902 51.663116 
L 225.302098 52.562205 
L 233.106294 53.498131 
L 240.91049 54.46809 
L 248.714685 55.46949 
L 256.518881 56.499943 
L 264.323077 57.557252 
L 272.127273 58.639402 
L 279.931469 59.744545 
L 287.735664 60.87099 
L 295.53986 62.017188 
L 303.344056 63.18172 
L 311.148252 64.363288 
L 318.952448 65.560701 
L 326.756643 66.77287 
L 334.560839 67.998793 
L 342.365035 69.237552 
L 350.169231 70.488303 
L 357.973427 71.75027 
L 365.777622 73.022738 
L 373.581818 74.305048 
" clip-path="url(#pe85eee4132)" style="fill: none; stroke: #2ca02c; stroke-width: 1.5; stroke-linecap: square"/>
    <defs>
     <path id="m3110c5308d" d="M 0 1.5 
C 0.397805 1.5 0.77937 1.341951 1.06066 1.06066 
C 1.341951 0.77937 1.5 0.397805 1.5 0 
C 1.5 -0.397805 1.341951 -0.77937 1.06066 -1.06066 
C 0.77937 -1.341951 0.397805 -1.5 0 -1.5 
C -0.397805 -1.5 -0.77937 -1.341951 -1.06066 -1.06066 
C -1.341951 -0.77937 -1.5 -0.397805 -1.5 0 
C -1.5 0.397805 -1.341951 0.77937 -1.06066 1.06066 
C -0.77937 1.341951 -0.397805 1.5 0 1.5 
z
" style="stroke: #2ca02c"/>
    </defs>
    <g clip-path="url(#pe85eee4132)">
     <use xlink:href="#m3110c5308d" x="69.218182" y="156.570581" style="fill: #2ca02c; stroke: #2ca02c"/>
     <use xlink:href="#m3110c5308d" x="77.022378" y="145.508376" style="fill: #2ca02c; stroke: #2ca02c"/>
     <use xlink:href="#m3110c5308d" x="84.826573" y="134.559232" style="fill: #2ca02c; stroke: #2ca02c"/>
     <use xlink:href="#m3110c5308d" x="92.630769" y="123.743329" style="fill: #2ca02c; stroke: #2ca02c"/>
     <use xlink:href="#m3110c5308d" x="100.434965" y="113.085603" style="fill: #2ca02c; stroke: #2ca02c"/>
     <use xlink:href="#m3110c5308d" x="108.239161" y="102.61725" style="fill: #2ca02c; stroke: #2ca02c"/>
     <use xlink:href="#m3110c5308d" x="116.043357" y="92.377955" style="fill: #2ca02c; stroke: #2ca02c"/>
     <use xlink:href="#m3110c5308d" x="123.847552" y="82.419353" style="fill: #2ca02c; stroke: #2ca02c"/>
     <use xlink:href="#m3110c5308d" x="131.651748" y="72.810873" style="fill: #2ca02c; stroke: #2ca02c"/>
     <use xlink:href="#m3110c5308d" x="139.455944" y="63.650777" style="fill: #2ca02c; stroke: #2ca02c"/>
     <use xlink:href="#m3110c5308d" x="147.26014" y="55.464818" style="fill: #2ca02c; stroke: #2ca02c"/>
     <use xlink:href="#m3110c5308d" x="155.064336" y="48.825491" style="fill: #2ca02c; stroke: #2ca02c"/>
     <use xlink:href="#m3110c5308d" x="162.868531" y="46.676257" style="fill: #2ca02c; stroke: #2ca02c"/>
     <use xlink:href="#m3110c5308d" x="170.672727" y="47.223885" style="fill: #2ca02c; stroke: #2ca02c"/>
     <use xlink:href="#m3110c5308d" x="178.476923" y="47.832439" style="fill: #2ca02c; stroke: #2ca02c"/>
     <use xlink:href="#m3110c5308d" x="186.281119" y="48.498373" style="fill: #2ca02c; stroke: #2ca02c"/>
     <use xlink:href="#m3110c5308d" x="194.085315" y="49.218017" style="fill: #2ca02c; stroke: #2ca02c"/>
     <use xlink:href="#m3110c5308d" x="201.88951" y="49.987706" style="fill: #2ca02c; stroke: #2ca02c"/>
     <use xlink:href="#m3110c5308d" x="209.693706" y="50.803876" style="fill: #2ca02c; stroke: #2ca02c"/>
     <use xlink:href="#m3110c5308d" x="217.497902" y="51.663116" style="fill: #2ca02c; stroke: #2ca02c"/>
     <use xlink:href="#m3110c5308d" x="225.302098" y="52.562205" style="fill: #2ca02c; stroke: #2ca02c"/>
     <use xlink:href="#m3110c5308d" x="233.106294" y="53.498131" style="fill: #2ca02c; stroke: #2ca02c"/>
     <use xlink:href="#m3110c5308d" x="240.91049" y="54.46809" style="fill: #2ca02c; stroke: #2ca02c"/>
     <use xlink:href="#m3110c5308d" x="248.714685" y="55.46949" style="fill: #2ca02c; stroke: #2ca02c"/>
     <use xlink:href="#m3110c5308d" x="256.518881" y="56.499943" style="fill: #2ca02c; stroke: #2ca02c"/>
     <use xlink:href="#m3110c5308d" x="264.323077" y="57.557252" style="fill: #2ca02c; stroke: #2ca02c"/>
     <use xlink:href="#m3110c5308d" x="272.127273" y="58.639402" style="fill: #2ca02c; stroke: #2ca02c"/>
     <use xlink:href="#m3110c5308d" x="279.931469" y="59.744545" style="fill: #2ca02c; stroke: #2ca02c"/>
     <use xlink:href="#m3110c5308d" x="287.735664" y="60.87099" style="fill: #2ca02c; stroke: #2ca02c"/>
     <use xlink:href="#m3110c5308d" x="295.53986" y="62.017188" style="fill: #2ca02c; stroke: #2ca02c"/>
     <use xlink:href="#m3110c5308d" x="303.344056" y="63.18172" style="fill: #2ca02c; stroke: #2ca02c"/>
     <use xlink:href="#m3110c5308d" x="311.148252" y="64.363288" style="fill: #2ca02c; stroke: #2ca02c"/>
     <use xlink:href="#m3110c5308d" x="318.952448" y="65.560701" style="fill: #2ca02c; stroke: #2ca02c"/>
     <use xlink:href="#m3110c5308d" x="326.756643" y="66.77287" style="fill: #2ca02c; stroke: #2ca02c"/>
     <use xlink:href="#m3110c5308d" x="334.560839" y="67.998793" style="fill: #2ca02c; stroke: #2ca02c"/>
     <use xlink:href="#m3110c5308d" x="342.365035" y="69.237552" style="fill: #2ca02c; stroke: #2ca02c"/>
     <use xlink:href="#m3110c5308d" x="350.169231" y="70.488303" style="fill: #2ca02c; stroke: #2ca02c"/>
     <use xlink:href="#m3110c5308d" x="357.973427" y="71.75027" style="fill: #2ca02c; stroke: #2ca02c"/>
     <use xlink:href="#m3110c5308d" x="365.777622" y="73.022738" style="fill: #2ca02c; stroke: #2ca02c"/>
     <use xlink:href="#m3110c5308d" x="373.581818" y="74.305048" style="fill: #2ca02c; stroke: #2ca02c"/>
    </g>
   </g>
   <g id="line2d_32">
    <path d="M 69.218182 200.968952 
L 77.022378 189.596912 
L 84.826573 178.287601 
L 92.630769 167.05057 
L 100.434965 155.897245 
L 108.239161 144.84139 
L 116.043357 133.899705 
L 123.847552 123.092624 
L 131.651748 112.445414 
L 139.455944 101.989713 
L 147.26014 91.765816 
L 155.064336 81.826237 
L 162.868531 72.262189 
L 170.672727 63.860843 
L 178.476923 56.763858 
L 186.281119 50.725368 
L 194.085315 49.218017 
L 201.88951 49.987706 
L 209.693706 50.803876 
L 217.497902 51.663116 
L 225.302098 52.562205 
L 233.106294 53.498131 
L 240.91049 54.46809 
L 248.714685 55.46949 
L 256.518881 56.499943 
L 264.323077 57.557252 
L 272.127273 58.639402 
L 279.931469 59.744545 
L 287.735664 60.87099 
L 295.53986 62.017188 
L 303.344056 63.18172 
L 311.148252 64.363288 
L 318.952448 65.560701 
L 326.756643 66.77287 
L 334.560839 67.998793 
L 342.365035 69.237536 
L 350.169231 70.488303 
L 357.973427 71.75027 
L 365.777622 73.022738 
L 373.581818 74.305048 
" clip-path="url(#pe85eee4132)" style="fill: none; stroke: #d62728; stroke-width: 1.5; stroke-linecap: square"/>
    <defs>
     <path id="mda71e05512" d="M 0 1.5 
C 0.397805 1.5 0.77937 1.341951 1.06066 1.06066 
C 1.341951 0.77937 1.5 0.397805 1.5 0 
C 1.5 -0.397805 1.341951 -0.77937 1.06066 -1.06066 
C 0.77937 -1.341951 0.397805 -1.5 0 -1.5 
C -0.397805 -1.5 -0.77937 -1.341951 -1.06066 -1.06066 
C -1.341951 -0.77937 -1.5 -0.397805 -1.5 0 
C -1.5 0.397805 -1.341951 0.77937 -1.06066 1.06066 
C -0.77937 1.341951 -0.397805 1.5 0 1.5 
z
" style="stroke: #d62728"/>
    </defs>
    <g clip-path="url(#pe85eee4132)">
     <use xlink:href="#mda71e05512" x="69.218182" y="200.968952" style="fill: #d62728; stroke: #d62728"/>
     <use xlink:href="#mda71e05512" x="77.022378" y="189.596912" style="fill: #d62728; stroke: #d62728"/>
     <use xlink:href="#mda71e05512" x="84.826573" y="178.287601" style="fill: #d62728; stroke: #d62728"/>
     <use xlink:href="#mda71e05512" x="92.630769" y="167.05057" style="fill: #d62728; stroke: #d62728"/>
     <use xlink:href="#mda71e05512" x="100.434965" y="155.897245" style="fill: #d62728; stroke: #d62728"/>
     <use xlink:href="#mda71e05512" x="108.239161" y="144.84139" style="fill: #d62728; stroke: #d62728"/>
     <use xlink:href="#mda71e05512" x="116.043357" y="133.899705" style="fill: #d62728; stroke: #d62728"/>
     <use xlink:href="#mda71e05512" x="123.847552" y="123.092624" style="fill: #d62728; stroke: #d62728"/>
     <use xlink:href="#mda71e05512" x="131.651748" y="112.445414" style="fill: #d62728; stroke: #d62728"/>
     <use xlink:href="#mda71e05512" x="139.455944" y="101.989713" style="fill: #d62728; stroke: #d62728"/>
     <use xlink:href="#mda71e05512" x="147.26014" y="91.765816" style="fill: #d62728; stroke: #d62728"/>
     <use xlink:href="#mda71e05512" x="155.064336" y="81.826237" style="fill: #d62728; stroke: #d62728"/>
     <use xlink:href="#mda71e05512" x="162.868531" y="72.262189" style="fill: #d62728; stroke: #d62728"/>
     <use xlink:href="#mda71e05512" x="170.672727" y="63.860843" style="fill: #d62728; stroke: #d62728"/>
     <use xlink:href="#mda71e05512" x="178.476923" y="56.763858" style="fill: #d62728; stroke: #d62728"/>
     <use xlink:href="#mda71e05512" x="186.281119" y="50.725368" style="fill: #d62728; stroke: #d62728"/>
     <use xlink:href="#mda71e05512" x="194.085315" y="49.218017" style="fill: #d62728; stroke: #d62728"/>
     <use xlink:href="#mda71e05512" x="201.88951" y="49.987706" style="fill: #d62728; stroke: #d62728"/>
     <use xlink:href="#mda71e05512" x="209.693706" y="50.803876" style="fill: #d62728; stroke: #d62728"/>
     <use xlink:href="#mda71e05512" x="217.497902" y="51.663116" style="fill: #d62728; stroke: #d62728"/>
     <use xlink:href="#mda71e05512" x="225.302098" y="52.562205" style="fill: #d62728; stroke: #d62728"/>
     <use xlink:href="#mda71e05512" x="233.106294" y="53.498131" style="fill: #d62728; stroke: #d62728"/>
     <use xlink:href="#mda71e05512" x="240.91049" y="54.46809" style="fill: #d62728; stroke: #d62728"/>
     <use xlink:href="#mda71e05512" x="248.714685" y="55.46949" style="fill: #d62728; stroke: #d62728"/>
     <use xlink:href="#mda71e05512" x="256.518881" y="56.499943" style="fill: #d62728; stroke: #d62728"/>
     <use xlink:href="#mda71e05512" x="264.323077" y="57.557252" style="fill: #d62728; stroke: #d62728"/>
     <use xlink:href="#mda71e05512" x="272.127273" y="58.639402" style="fill: #d62728; stroke: #d62728"/>
     <use xlink:href="#mda71e05512" x="279.931469" y="59.744545" style="fill: #d62728; stroke: #d62728"/>
     <use xlink:href="#mda71e05512" x="287.735664" y="60.87099" style="fill: #d62728; stroke: #d62728"/>
     <use xlink:href="#mda71e05512" x="295.53986" y="62.017188" style="fill: #d62728; stroke: #d62728"/>
     <use xlink:href="#mda71e05512" x="303.344056" y="63.18172" style="fill: #d62728; stroke: #d62728"/>
     <use xlink:href="#mda71e05512" x="311.148252" y="64.363288" style="fill: #d62728; stroke: #d62728"/>
     <use xlink:href="#mda71e05512" x="318.952448" y="65.560701" style="fill: #d62728; stroke: #d62728"/>
     <use xlink:href="#mda71e05512" x="326.756643" y="66.77287" style="fill: #d62728; stroke: #d62728"/>
     <use xlink:href="#mda71e05512" x="334.560839" y="67.998793" style="fill: #d62728; stroke: #d62728"/>
     <use xlink:href="#mda71e05512" x="342.365035" y="69.237536" style="fill: #d62728; stroke: #d62728"/>
     <use xlink:href="#mda71e05512" x="350.169231" y="70.488303" style="fill: #d62728; stroke: #d62728"/>
     <use xlink:href="#mda71e05512" x="357.973427" y="71.75027" style="fill: #d62728; stroke: #d62728"/>
     <use xlink:href="#mda71e05512" x="365.777622" y="73.022738" style="fill: #d62728; stroke: #d62728"/>
     <use xlink:href="#mda71e05512" x="373.581818" y="74.305048" style="fill: #d62728; stroke: #d62728"/>
    </g>
   </g>
   <g id="line2d_33">
    <path d="M 69.218182 246.24 
L 72.292562 241.685051 
L 75.366942 237.135504 
L 78.441322 232.591623 
L 81.515702 228.053686 
L 84.590083 223.521992 
L 87.664463 218.996856 
L 90.738843 214.478613 
L 93.813223 209.967623 
L 96.887603 205.464267 
L 99.961983 200.968952 
L 103.036364 196.482112 
L 106.110744 192.004213 
L 109.185124 187.53575 
L 112.259504 183.077255 
L 115.333884 178.629298 
L 118.408264 174.192489 
L 121.482645 169.767482 
L 124.557025 165.354982 
L 127.631405 160.955743 
L 130.705785 156.570581 
L 133.780165 152.200373 
L 136.854545 147.846064 
L 139.928926 143.508676 
L 143.003306 139.189316 
L 146.077686 134.889179 
L 149.152066 130.609564 
L 152.226446 126.351881 
L 155.300826 122.117665 
L 158.375207 117.90859 
L 161.449587 113.726485 
L 164.523967 109.573352 
L 167.598347 105.451391 
L 170.672727 101.363025 
L 173.747107 97.310931 
L 176.821488 93.298082 
L 179.895868 89.327786 
L 182.970248 85.403754 
L 186.044628 81.715753 
L 189.119008 78.215322 
L 192.193388 74.907265 
L 195.267769 71.778199 
L 198.342149 68.815963 
L 201.416529 66.009489 
L 204.490909 63.348672 
L 207.565289 60.824274 
L 210.639669 58.427827 
L 213.71405 56.151557 
L 216.78843 53.988312 
L 219.86281 51.931501 
L 222.93719 52.28573 
L 226.01157 52.645811 
L 229.08595 53.011565 
L 232.160331 53.382819 
L 235.234711 53.759402 
L 238.309091 54.141153 
L 241.383471 54.52791 
L 244.457851 54.919522 
L 247.532231 55.315838 
L 250.606612 55.716716 
L 253.680992 56.122014 
L 256.755372 56.531599 
L 259.829752 56.945339 
L 262.904132 57.363109 
L 265.978512 57.784788 
L 269.052893 58.210256 
L 272.127273 58.639402 
L 275.201653 59.072113 
L 278.276033 59.508286 
L 281.350413 59.947816 
L 284.424793 60.390605 
L 287.499174 60.836558 
L 290.573554 61.285581 
L 293.647934 61.737586 
L 296.722314 62.192487 
L 299.796694 62.6502 
L 302.871074 63.110645 
L 305.945455 63.573744 
L 309.019835 64.039422 
L 312.094215 64.507607 
L 315.168595 64.978229 
L 318.242975 65.45122 
L 321.317355 65.926514 
L 324.391736 66.404049 
L 327.466116 66.883763 
L 330.540496 67.365597 
L 333.614876 67.849495 
L 336.689256 68.3354 
L 339.763636 68.823259 
L 342.838017 69.313022 
L 345.912397 69.804637 
L 348.986777 70.298056 
L 352.061157 70.793232 
L 355.135537 71.290121 
L 358.209917 71.788678 
L 361.284298 72.288861 
L 364.358678 72.790629 
L 367.433058 73.293942 
L 370.507438 73.79876 
L 373.581818 74.305048 
" clip-path="url(#pe85eee4132)" style="fill: none; stroke: #9467bd; stroke-width: 1.5; stroke-linecap: square"/>
    <defs>
     <path id="m62c4e6c792" d="M 0 1.5 
C 0.397805 1.5 0.77937 1.341951 1.06066 1.06066 
C 1.341951 0.77937 1.5 0.397805 1.5 0 
C 1.5 -0.397805 1.341951 -0.77937 1.06066 -1.06066 
C 0.77937 -1.341951 0.397805 -1.5 0 -1.5 
C -0.397805 -1.5 -0.77937 -1.341951 -1.06066 -1.06066 
C -1.341951 -0.77937 -1.5 -0.397805 -1.5 0 
C -1.5 0.397805 -1.341951 0.77937 -1.06066 1.06066 
C -0.77937 1.341951 -0.397805 1.5 0 1.5 
z
" style="stroke: #9467bd"/>
    </defs>
    <g clip-path="url(#pe85eee4132)">
     <use xlink:href="#m62c4e6c792" x="69.218182" y="246.24" style="fill: #9467bd; stroke: #9467bd"/>
     <use xlink:href="#m62c4e6c792" x="72.292562" y="241.685051" style="fill: #9467bd; stroke: #9467bd"/>
     <use xlink:href="#m62c4e6c792" x="75.366942" y="237.135504" style="fill: #9467bd; stroke: #9467bd"/>
     <use xlink:href="#m62c4e6c792" x="78.441322" y="232.591623" style="fill: #9467bd; stroke: #9467bd"/>
     <use xlink:href="#m62c4e6c792" x="81.515702" y="228.053686" style="fill: #9467bd; stroke: #9467bd"/>
     <use xlink:href="#m62c4e6c792" x="84.590083" y="223.521992" style="fill: #9467bd; stroke: #9467bd"/>
     <use xlink:href="#m62c4e6c792" x="87.664463" y="218.996856" style="fill: #9467bd; stroke: #9467bd"/>
     <use xlink:href="#m62c4e6c792" x="90.738843" y="214.478613" style="fill: #9467bd; stroke: #9467bd"/>
     <use xlink:href="#m62c4e6c792" x="93.813223" y="209.967623" style="fill: #9467bd; stroke: #9467bd"/>
     <use xlink:href="#m62c4e6c792" x="96.887603" y="205.464267" style="fill: #9467bd; stroke: #9467bd"/>
     <use xlink:href="#m62c4e6c792" x="99.961983" y="200.968952" style="fill: #9467bd; stroke: #9467bd"/>
     <use xlink:href="#m62c4e6c792" x="103.036364" y="196.482112" style="fill: #9467bd; stroke: #9467bd"/>
     <use xlink:href="#m62c4e6c792" x="106.110744" y="192.004213" style="fill: #9467bd; stroke: #9467bd"/>
     <use xlink:href="#m62c4e6c792" x="109.185124" y="187.53575" style="fill: #9467bd; stroke: #9467bd"/>
     <use xlink:href="#m62c4e6c792" x="112.259504" y="183.077255" style="fill: #9467bd; stroke: #9467bd"/>
     <use xlink:href="#m62c4e6c792" x="115.333884" y="178.629298" style="fill: #9467bd; stroke: #9467bd"/>
     <use xlink:href="#m62c4e6c792" x="118.408264" y="174.192489" style="fill: #9467bd; stroke: #9467bd"/>
     <use xlink:href="#m62c4e6c792" x="121.482645" y="169.767482" style="fill: #9467bd; stroke: #9467bd"/>
     <use xlink:href="#m62c4e6c792" x="124.557025" y="165.354982" style="fill: #9467bd; stroke: #9467bd"/>
     <use xlink:href="#m62c4e6c792" x="127.631405" y="160.955743" style="fill: #9467bd; stroke: #9467bd"/>
     <use xlink:href="#m62c4e6c792" x="130.705785" y="156.570581" style="fill: #9467bd; stroke: #9467bd"/>
     <use xlink:href="#m62c4e6c792" x="133.780165" y="152.200373" style="fill: #9467bd; stroke: #9467bd"/>
     <use xlink:href="#m62c4e6c792" x="136.854545" y="147.846064" style="fill: #9467bd; stroke: #9467bd"/>
     <use xlink:href="#m62c4e6c792" x="139.928926" y="143.508676" style="fill: #9467bd; stroke: #9467bd"/>
     <use xlink:href="#m62c4e6c792" x="143.003306" y="139.189316" style="fill: #9467bd; stroke: #9467bd"/>
     <use xlink:href="#m62c4e6c792" x="146.077686" y="134.889179" style="fill: #9467bd; stroke: #9467bd"/>
     <use xlink:href="#m62c4e6c792" x="149.152066" y="130.609564" style="fill: #9467bd; stroke: #9467bd"/>
     <use xlink:href="#m62c4e6c792" x="152.226446" y="126.351881" style="fill: #9467bd; stroke: #9467bd"/>
     <use xlink:href="#m62c4e6c792" x="155.300826" y="122.117665" style="fill: #9467bd; stroke: #9467bd"/>
     <use xlink:href="#m62c4e6c792" x="158.375207" y="117.90859" style="fill: #9467bd; stroke: #9467bd"/>
     <use xlink:href="#m62c4e6c792" x="161.449587" y="113.726485" style="fill: #9467bd; stroke: #9467bd"/>
     <use xlink:href="#m62c4e6c792" x="164.523967" y="109.573352" style="fill: #9467bd; stroke: #9467bd"/>
     <use xlink:href="#m62c4e6c792" x="167.598347" y="105.451391" style="fill: #9467bd; stroke: #9467bd"/>
     <use xlink:href="#m62c4e6c792" x="170.672727" y="101.363025" style="fill: #9467bd; stroke: #9467bd"/>
     <use xlink:href="#m62c4e6c792" x="173.747107" y="97.310931" style="fill: #9467bd; stroke: #9467bd"/>
     <use xlink:href="#m62c4e6c792" x="176.821488" y="93.298082" style="fill: #9467bd; stroke: #9467bd"/>
     <use xlink:href="#m62c4e6c792" x="179.895868" y="89.327786" style="fill: #9467bd; stroke: #9467bd"/>
     <use xlink:href="#m62c4e6c792" x="182.970248" y="85.403754" style="fill: #9467bd; stroke: #9467bd"/>
     <use xlink:href="#m62c4e6c792" x="186.044628" y="81.715753" style="fill: #9467bd; stroke: #9467bd"/>
     <use xlink:href="#m62c4e6c792" x="189.119008" y="78.215322" style="fill: #9467bd; stroke: #9467bd"/>
     <use xlink:href="#m62c4e6c792" x="192.193388" y="74.907265" style="fill: #9467bd; stroke: #9467bd"/>
     <use xlink:href="#m62c4e6c792" x="195.267769" y="71.778199" style="fill: #9467bd; stroke: #9467bd"/>
     <use xlink:href="#m62c4e6c792" x="198.342149" y="68.815963" style="fill: #9467bd; stroke: #9467bd"/>
     <use xlink:href="#m62c4e6c792" x="201.416529" y="66.009489" style="fill: #9467bd; stroke: #9467bd"/>
     <use xlink:href="#m62c4e6c792" x="204.490909" y="63.348672" style="fill: #9467bd; stroke: #9467bd"/>
     <use xlink:href="#m62c4e6c792" x="207.565289" y="60.824274" style="fill: #9467bd; stroke: #9467bd"/>
     <use xlink:href="#m62c4e6c792" x="210.639669" y="58.427827" style="fill: #9467bd; stroke: #9467bd"/>
     <use xlink:href="#m62c4e6c792" x="213.71405" y="56.151557" style="fill: #9467bd; stroke: #9467bd"/>
     <use xlink:href="#m62c4e6c792" x="216.78843" y="53.988312" style="fill: #9467bd; stroke: #9467bd"/>
     <use xlink:href="#m62c4e6c792" x="219.86281" y="51.931501" style="fill: #9467bd; stroke: #9467bd"/>
     <use xlink:href="#m62c4e6c792" x="222.93719" y="52.28573" style="fill: #9467bd; stroke: #9467bd"/>
     <use xlink:href="#m62c4e6c792" x="226.01157" y="52.645811" style="fill: #9467bd; stroke: #9467bd"/>
     <use xlink:href="#m62c4e6c792" x="229.08595" y="53.011565" style="fill: #9467bd; stroke: #9467bd"/>
     <use xlink:href="#m62c4e6c792" x="232.160331" y="53.382819" style="fill: #9467bd; stroke: #9467bd"/>
     <use xlink:href="#m62c4e6c792" x="235.234711" y="53.759402" style="fill: #9467bd; stroke: #9467bd"/>
     <use xlink:href="#m62c4e6c792" x="238.309091" y="54.141153" style="fill: #9467bd; stroke: #9467bd"/>
     <use xlink:href="#m62c4e6c792" x="241.383471" y="54.52791" style="fill: #9467bd; stroke: #9467bd"/>
     <use xlink:href="#m62c4e6c792" x="244.457851" y="54.919522" style="fill: #9467bd; stroke: #9467bd"/>
     <use xlink:href="#m62c4e6c792" x="247.532231" y="55.315838" style="fill: #9467bd; stroke: #9467bd"/>
     <use xlink:href="#m62c4e6c792" x="250.606612" y="55.716716" style="fill: #9467bd; stroke: #9467bd"/>
     <use xlink:href="#m62c4e6c792" x="253.680992" y="56.122014" style="fill: #9467bd; stroke: #9467bd"/>
     <use xlink:href="#m62c4e6c792" x="256.755372" y="56.531599" style="fill: #9467bd; stroke: #9467bd"/>
     <use xlink:href="#m62c4e6c792" x="259.829752" y="56.945339" style="fill: #9467bd; stroke: #9467bd"/>
     <use xlink:href="#m62c4e6c792" x="262.904132" y="57.363109" style="fill: #9467bd; stroke: #9467bd"/>
     <use xlink:href="#m62c4e6c792" x="265.978512" y="57.784788" style="fill: #9467bd; stroke: #9467bd"/>
     <use xlink:href="#m62c4e6c792" x="269.052893" y="58.210256" style="fill: #9467bd; stroke: #9467bd"/>
     <use xlink:href="#m62c4e6c792" x="272.127273" y="58.639402" style="fill: #9467bd; stroke: #9467bd"/>
     <use xlink:href="#m62c4e6c792" x="275.201653" y="59.072113" style="fill: #9467bd; stroke: #9467bd"/>
     <use xlink:href="#m62c4e6c792" x="278.276033" y="59.508286" style="fill: #9467bd; stroke: #9467bd"/>
     <use xlink:href="#m62c4e6c792" x="281.350413" y="59.947816" style="fill: #9467bd; stroke: #9467bd"/>
     <use xlink:href="#m62c4e6c792" x="284.424793" y="60.390605" style="fill: #9467bd; stroke: #9467bd"/>
     <use xlink:href="#m62c4e6c792" x="287.499174" y="60.836558" style="fill: #9467bd; stroke: #9467bd"/>
     <use xlink:href="#m62c4e6c792" x="290.573554" y="61.285581" style="fill: #9467bd; stroke: #9467bd"/>
     <use xlink:href="#m62c4e6c792" x="293.647934" y="61.737586" style="fill: #9467bd; stroke: #9467bd"/>
     <use xlink:href="#m62c4e6c792" x="296.722314" y="62.192487" style="fill: #9467bd; stroke: #9467bd"/>
     <use xlink:href="#m62c4e6c792" x="299.796694" y="62.6502" style="fill: #9467bd; stroke: #9467bd"/>
     <use xlink:href="#m62c4e6c792" x="302.871074" y="63.110645" style="fill: #9467bd; stroke: #9467bd"/>
     <use xlink:href="#m62c4e6c792" x="305.945455" y="63.573744" style="fill: #9467bd; stroke: #9467bd"/>
     <use xlink:href="#m62c4e6c792" x="309.019835" y="64.039422" style="fill: #9467bd; stroke: #9467bd"/>
     <use xlink:href="#m62c4e6c792" x="312.094215" y="64.507607" style="fill: #9467bd; stroke: #9467bd"/>
     <use xlink:href="#m62c4e6c792" x="315.168595" y="64.978229" style="fill: #9467bd; stroke: #9467bd"/>
     <use xlink:href="#m62c4e6c792" x="318.242975" y="65.45122" style="fill: #9467bd; stroke: #9467bd"/>
     <use xlink:href="#m62c4e6c792" x="321.317355" y="65.926514" style="fill: #9467bd; stroke: #9467bd"/>
     <use xlink:href="#m62c4e6c792" x="324.391736" y="66.404049" style="fill: #9467bd; stroke: #9467bd"/>
     <use xlink:href="#m62c4e6c792" x="327.466116" y="66.883763" style="fill: #9467bd; stroke: #9467bd"/>
     <use xlink:href="#m62c4e6c792" x="330.540496" y="67.365597" style="fill: #9467bd; stroke: #9467bd"/>
     <use xlink:href="#m62c4e6c792" x="333.614876" y="67.849495" style="fill: #9467bd; stroke: #9467bd"/>
     <use xlink:href="#m62c4e6c792" x="336.689256" y="68.3354" style="fill: #9467bd; stroke: #9467bd"/>
     <use xlink:href="#m62c4e6c792" x="339.763636" y="68.823259" style="fill: #9467bd; stroke: #9467bd"/>
     <use xlink:href="#m62c4e6c792" x="342.838017" y="69.313022" style="fill: #9467bd; stroke: #9467bd"/>
     <use xlink:href="#m62c4e6c792" x="345.912397" y="69.804637" style="fill: #9467bd; stroke: #9467bd"/>
     <use xlink:href="#m62c4e6c792" x="348.986777" y="70.298056" style="fill: #9467bd; stroke: #9467bd"/>
     <use xlink:href="#m62c4e6c792" x="352.061157" y="70.793232" style="fill: #9467bd; stroke: #9467bd"/>
     <use xlink:href="#m62c4e6c792" x="355.135537" y="71.290121" style="fill: #9467bd; stroke: #9467bd"/>
     <use xlink:href="#m62c4e6c792" x="358.209917" y="71.788678" style="fill: #9467bd; stroke: #9467bd"/>
     <use xlink:href="#m62c4e6c792" x="361.284298" y="72.288861" style="fill: #9467bd; stroke: #9467bd"/>
     <use xlink:href="#m62c4e6c792" x="364.358678" y="72.790629" style="fill: #9467bd; stroke: #9467bd"/>
     <use xlink:href="#m62c4e6c792" x="367.433058" y="73.293942" style="fill: #9467bd; stroke: #9467bd"/>
     <use xlink:href="#m62c4e6c792" x="370.507438" y="73.79876" style="fill: #9467bd; stroke: #9467bd"/>
     <use xlink:href="#m62c4e6c792" x="373.581818" y="74.305048" style="fill: #9467bd; stroke: #9467bd"/>
    </g>
   </g>
   <g id="patch_3">
    <path d="M 54 256.32 
L 54 34.56 
" style="fill: none; stroke: #000000; stroke-width: 0.8; stroke-linejoin: miter; stroke-linecap: square"/>
   </g>
   <g id="patch_4">
    <path d="M 388.8 256.32 
L 388.8 34.56 
" style="fill: none; stroke: #000000; stroke-width: 0.8; stroke-linejoin: miter; stroke-linecap: square"/>
   </g>
   <g id="patch_5">
    <path d="M 54 256.32 
L 388.8 256.32 
" style="fill: none; stroke: #000000; stroke-width: 0.8; stroke-linejoin: miter; stroke-linecap: square"/>
   </g>
   <g id="patch_6">
    <path d="M 54 34.56 
L 388.8 34.56 
" style="fill: none; stroke: #000000; stroke-width: 0.8; stroke-linejoin: miter; stroke-linecap: square"/>
   </g>
   <g id="text_17">
    <!-- Ground state energy -->
    <g transform="translate(159.413438 28.56)scale(0.12 -0.12)">
     <defs>
      <path id="DejaVuSans-47" d="M 3809 666 
L 3809 1919 
L 2778 1919 
L 2778 2438 
L 4434 2438 
L 4434 434 
Q 4069 175 3628 42 
Q 3188 -91 2688 -91 
Q 1594 -91 976 548 
Q 359 1188 359 2328 
Q 359 3472 976 4111 
Q 1594 4750 2688 4750 
Q 3144 4750 3555 4637 
Q 3966 4525 4313 4306 
L 4313 3634 
Q 3963 3931 3569 4081 
Q 3175 4231 2741 4231 
Q 1884 4231 1454 3753 
Q 1025 3275 1025 2328 
Q 1025 1384 1454 906 
Q 1884 428 2741 428 
Q 3075 428 3337 486 
Q 3600 544 3809 666 
z
" transform="scale(0.015625)"/>
      <path id="DejaVuSans-6f" d="M 1959 3097 
Q 1497 3097 1228 2736 
Q 959 2375 959 1747 
Q 959 1119 1226 758 
Q 1494 397 1959 397 
Q 2419 397 2687 759 
Q 2956 1122 2956 1747 
Q 2956 2369 2687 2733 
Q 2419 3097 1959 3097 
z
M 1959 3584 
Q 2709 3584 3137 3096 
Q 3566 2609 3566 1747 
Q 3566 888 3137 398 
Q 2709 -91 1959 -91 
Q 1206 -91 779 398 
Q 353 888 353 1747 
Q 353 2609 779 3096 
Q 1206 3584 1959 3584 
z
" transform="scale(0.015625)"/>
      <path id="DejaVuSans-75" d="M 544 1381 
L 544 3500 
L 1119 3500 
L 1119 1403 
Q 1119 906 1312 657 
Q 1506 409 1894 409 
Q 2359 409 2629 706 
Q 2900 1003 2900 1516 
L 2900 3500 
L 3475 3500 
L 3475 0 
L 2900 0 
L 2900 538 
Q 2691 219 2414 64 
Q 2138 -91 1772 -91 
Q 1169 -91 856 284 
Q 544 659 544 1381 
z
M 1991 3584 
L 1991 3584 
z
" transform="scale(0.015625)"/>
      <path id="DejaVuSans-64" d="M 2906 2969 
L 2906 4863 
L 3481 4863 
L 3481 0 
L 2906 0 
L 2906 525 
Q 2725 213 2448 61 
Q 2172 -91 1784 -91 
Q 1150 -91 751 415 
Q 353 922 353 1747 
Q 353 2572 751 3078 
Q 1150 3584 1784 3584 
Q 2172 3584 2448 3432 
Q 2725 3281 2906 2969 
z
M 947 1747 
Q 947 1113 1208 752 
Q 1469 391 1925 391 
Q 2381 391 2643 752 
Q 2906 1113 2906 1747 
Q 2906 2381 2643 2742 
Q 2381 3103 1925 3103 
Q 1469 3103 1208 2742 
Q 947 2381 947 1747 
z
" transform="scale(0.015625)"/>
      <path id="DejaVuSans-20" transform="scale(0.015625)"/>
      <path id="DejaVuSans-73" d="M 2834 3397 
L 2834 2853 
Q 2591 2978 2328 3040 
Q 2066 3103 1784 3103 
Q 1356 3103 1142 2972 
Q 928 2841 928 2578 
Q 928 2378 1081 2264 
Q 1234 2150 1697 2047 
L 1894 2003 
Q 2506 1872 2764 1633 
Q 3022 1394 3022 966 
Q 3022 478 2636 193 
Q 2250 -91 1575 -91 
Q 1294 -91 989 -36 
Q 684 19 347 128 
L 347 722 
Q 666 556 975 473 
Q 1284 391 1588 391 
Q 1994 391 2212 530 
Q 2431 669 2431 922 
Q 2431 1156 2273 1281 
Q 2116 1406 1581 1522 
L 1381 1569 
Q 847 1681 609 1914 
Q 372 2147 372 2553 
Q 372 3047 722 3315 
Q 1072 3584 1716 3584 
Q 2034 3584 2315 3537 
Q 2597 3491 2834 3397 
z
" transform="scale(0.015625)"/>
      <path id="DejaVuSans-74" d="M 1172 4494 
L 1172 3500 
L 2356 3500 
L 2356 3053 
L 1172 3053 
L 1172 1153 
Q 1172 725 1289 603 
Q 1406 481 1766 481 
L 2356 481 
L 2356 0 
L 1766 0 
Q 1100 0 847 248 
Q 594 497 594 1153 
L 594 3053 
L 172 3053 
L 172 3500 
L 594 3500 
L 594 4494 
L 1172 4494 
z
" transform="scale(0.015625)"/>
      <path id="DejaVuSans-61" d="M 2194 1759 
Q 1497 1759 1228 1600 
Q 959 1441 959 1056 
Q 959 750 1161 570 
Q 1363 391 1709 391 
Q 2188 391 2477 730 
Q 2766 1069 2766 1631 
L 2766 1759 
L 2194 1759 
z
M 3341 1997 
L 3341 0 
L 2766 0 
L 2766 531 
Q 2569 213 2275 61 
Q 1981 -91 1556 -91 
Q 1019 -91 701 211 
Q 384 513 384 1019 
Q 384 1609 779 1909 
Q 1175 2209 1959 2209 
L 2766 2209 
L 2766 2266 
Q 2766 2663 2505 2880 
Q 2244 3097 1772 3097 
Q 1472 3097 1187 3025 
Q 903 2953 641 2809 
L 641 3341 
Q 956 3463 1253 3523 
Q 1550 3584 1831 3584 
Q 2591 3584 2966 3190 
Q 3341 2797 3341 1997 
z
" transform="scale(0.015625)"/>
     </defs>
     <use xlink:href="#DejaVuSans-47"/>
     <use xlink:href="#DejaVuSans-72" x="77.490234"/>
     <use xlink:href="#DejaVuSans-6f" x="116.353516"/>
     <use xlink:href="#DejaVuSans-75" x="177.535156"/>
     <use xlink:href="#DejaVuSans-6e" x="240.914062"/>
     <use xlink:href="#DejaVuSans-64" x="304.292969"/>
     <use xlink:href="#DejaVuSans-20" x="367.769531"/>
     <use xlink:href="#DejaVuSans-73" x="399.556641"/>
     <use xlink:href="#DejaVuSans-74" x="451.65625"/>
     <use xlink:href="#DejaVuSans-61" x="490.865234"/>
     <use xlink:href="#DejaVuSans-74" x="552.144531"/>
     <use xlink:href="#DejaVuSans-65" x="591.353516"/>
     <use xlink:href="#DejaVuSans-20" x="652.876953"/>
     <use xlink:href="#DejaVuSans-65" x="684.664062"/>
     <use xlink:href="#DejaVuSans-6e" x="746.1875"/>
     <use xlink:href="#DejaVuSans-65" x="809.566406"/>
     <use xlink:href="#DejaVuSans-72" x="871.089844"/>
     <use xlink:href="#DejaVuSans-67" x="910.453125"/>
     <use xlink:href="#DejaVuSans-79" x="973.929688"/>
    </g>
   </g>
   <g id="legend_1">
    <g id="patch_7">
     <path d="M 322.567188 251.32 
L 381.8 251.32 
Q 383.8 251.32 383.8 249.32 
L 383.8 176.929375 
Q 383.8 174.929375 381.8 174.929375 
L 322.567188 174.929375 
Q 320.567188 174.929375 320.567188 176.929375 
L 320.567188 249.32 
Q 320.567188 251.32 322.567188 251.32 
z
" style="fill: #ffffff; opacity: 0.8; stroke: #cccccc; stroke-linejoin: miter"/>
    </g>
    <g id="line2d_34">
     <path d="M 324.567188 183.027813 
L 334.567188 183.027813 
L 344.567188 183.027813 
" style="fill: none; stroke: #1f77b4; stroke-width: 1.5; stroke-linecap: square"/>
     <g>
      <use xlink:href="#mdd2c31e0b6" x="334.567188" y="183.027813" style="fill: #1f77b4; stroke: #1f77b4"/>
     </g>
    </g>
    <g id="text_18">
     <!-- J=1.0 -->
     <g transform="translate(352.567188 186.527813)scale(0.1 -0.1)">
      <defs>
       <path id="DejaVuSans-4a" d="M 628 4666 
L 1259 4666 
L 1259 325 
Q 1259 -519 939 -900 
Q 619 -1281 -91 -1281 
L -331 -1281 
L -331 -750 
L -134 -750 
Q 284 -750 456 -515 
Q 628 -281 628 325 
L 628 4666 
z
" transform="scale(0.015625)"/>
       <path id="DejaVuSans-3d" d="M 678 2906 
L 4684 2906 
L 4684 2381 
L 678 2381 
L 678 2906 
z
M 678 1631 
L 4684 1631 
L 4684 1100 
L 678 1100 
L 678 1631 
z
" transform="scale(0.015625)"/>
      </defs>
      <use xlink:href="#DejaVuSans-4a"/>
      <use xlink:href="#DejaVuSans-3d" x="29.492188"/>
      <use xlink:href="#DejaVuSans-31" x="113.28125"/>
      <use xlink:href="#DejaVuSans-2e" x="176.904297"/>
      <use xlink:href="#DejaVuSans-30" x="208.691406"/>
     </g>
    </g>
    <g id="line2d_35">
     <path d="M 324.567188 197.705938 
L 334.567188 197.705938 
L 344.567188 197.705938 
" style="fill: none; stroke: #ff7f0e; stroke-width: 1.5; stroke-linecap: square"/>
     <g>
      <use xlink:href="#m86667d0ed7" x="334.567188" y="197.705938" style="fill: #ff7f0e; stroke: #ff7f0e"/>
     </g>
    </g>
    <g id="text_19">
     <!-- J=2.0 -->
     <g transform="translate(352.567188 201.205938)scale(0.1 -0.1)">
      <use xlink:href="#DejaVuSans-4a"/>
      <use xlink:href="#DejaVuSans-3d" x="29.492188"/>
      <use xlink:href="#DejaVuSans-32" x="113.28125"/>
      <use xlink:href="#DejaVuSans-2e" x="176.904297"/>
      <use xlink:href="#DejaVuSans-30" x="208.691406"/>
     </g>
    </g>
    <g id="line2d_36">
     <path d="M 324.567188 212.384063 
L 334.567188 212.384063 
L 344.567188 212.384063 
" style="fill: none; stroke: #2ca02c; stroke-width: 1.5; stroke-linecap: square"/>
     <g>
      <use xlink:href="#m3110c5308d" x="334.567188" y="212.384063" style="fill: #2ca02c; stroke: #2ca02c"/>
     </g>
    </g>
    <g id="text_20">
     <!-- J=3.0 -->
     <g transform="translate(352.567188 215.884063)scale(0.1 -0.1)">
      <defs>
       <path id="DejaVuSans-33" d="M 2597 2516 
Q 3050 2419 3304 2112 
Q 3559 1806 3559 1356 
Q 3559 666 3084 287 
Q 2609 -91 1734 -91 
Q 1441 -91 1130 -33 
Q 819 25 488 141 
L 488 750 
Q 750 597 1062 519 
Q 1375 441 1716 441 
Q 2309 441 2620 675 
Q 2931 909 2931 1356 
Q 2931 1769 2642 2001 
Q 2353 2234 1838 2234 
L 1294 2234 
L 1294 2753 
L 1863 2753 
Q 2328 2753 2575 2939 
Q 2822 3125 2822 3475 
Q 2822 3834 2567 4026 
Q 2313 4219 1838 4219 
Q 1578 4219 1281 4162 
Q 984 4106 628 3988 
L 628 4550 
Q 988 4650 1302 4700 
Q 1616 4750 1894 4750 
Q 2613 4750 3031 4423 
Q 3450 4097 3450 3541 
Q 3450 3153 3228 2886 
Q 3006 2619 2597 2516 
z
" transform="scale(0.015625)"/>
      </defs>
      <use xlink:href="#DejaVuSans-4a"/>
      <use xlink:href="#DejaVuSans-3d" x="29.492188"/>
      <use xlink:href="#DejaVuSans-33" x="113.28125"/>
      <use xlink:href="#DejaVuSans-2e" x="176.904297"/>
      <use xlink:href="#DejaVuSans-30" x="208.691406"/>
     </g>
    </g>
    <g id="line2d_37">
     <path d="M 324.567188 227.062188 
L 334.567188 227.062188 
L 344.567188 227.062188 
" style="fill: none; stroke: #d62728; stroke-width: 1.5; stroke-linecap: square"/>
     <g>
      <use xlink:href="#mda71e05512" x="334.567188" y="227.062188" style="fill: #d62728; stroke: #d62728"/>
     </g>
    </g>
    <g id="text_21">
     <!-- J=4.0 -->
     <g transform="translate(352.567188 230.562188)scale(0.1 -0.1)">
      <use xlink:href="#DejaVuSans-4a"/>
      <use xlink:href="#DejaVuSans-3d" x="29.492188"/>
      <use xlink:href="#DejaVuSans-34" x="113.28125"/>
      <use xlink:href="#DejaVuSans-2e" x="176.904297"/>
      <use xlink:href="#DejaVuSans-30" x="208.691406"/>
     </g>
    </g>
    <g id="line2d_38">
     <path d="M 324.567188 241.740313 
L 334.567188 241.740313 
L 344.567188 241.740313 
" style="fill: none; stroke: #9467bd; stroke-width: 1.5; stroke-linecap: square"/>
     <g>
      <use xlink:href="#m62c4e6c792" x="334.567188" y="241.740313" style="fill: #9467bd; stroke: #9467bd"/>
     </g>
    </g>
    <g id="text_22">
     <!-- J=5.0 -->
     <g transform="translate(352.567188 245.240313)scale(0.1 -0.1)">
      <use xlink:href="#DejaVuSans-4a"/>
      <use xlink:href="#DejaVuSans-3d" x="29.492188"/>
      <use xlink:href="#DejaVuSans-35" x="113.28125"/>
      <use xlink:href="#DejaVuSans-2e" x="176.904297"/>
      <use xlink:href="#DejaVuSans-30" x="208.691406"/>
     </g>
    </g>
   </g>
  </g>
 </g>
 <defs>
  <clipPath id="pe85eee4132">
   <rect x="54" y="34.56" width="334.8" height="221.76"/>
  </clipPath>
 </defs>
</svg>
