<?xml version="1.0" encoding="utf-8" standalone="no"?>
<!DOCTYPE svg PUBLIC "-//W3C//DTD SVG 1.1//EN"
  "http://www.w3.org/Graphics/SVG/1.1/DTD/svg11.dtd">
<svg xmlns:xlink="http://www.w3.org/1999/xlink" width="460.8pt" height="345.6pt" viewBox="0 0 460.8 345.6" xmlns="http://www.w3.org/2000/svg" version="1.1">
 <metadata>
  <rdf:RDF xmlns:dc="http://purl.org/dc/elements/1.1/" xmlns:cc="http://creativecommons.org/ns#" xmlns:rdf="http://www.w3.org/1999/02/22-rdf-syntax-ns#">
   <cc:Work>
    <dc:type rdf:resource="http://purl.org/dc/dcmitype/StillImage"/>
    <dc:date>2024-03-06T17:01:18.049409</dc:date>
    <dc:format>image/svg+xml</dc:format>
    <dc:creator>
     <cc:Agent>
      <dc:title>Matplotlib v3.5.3, https://matplotlib.org/</dc:title>
     </cc:Agent>
    </dc:creator>
   </cc:Work>
  </rdf:RDF>
 </metadata>
 <defs>
  <style type="text/css">*{stroke-linejoin: round; stroke-linecap: butt}</style>
 </defs>
 <g id="figure_1">
  <g id="patch_1">
   <path d="M 0 345.6 
L 460.8 345.6 
L 460.8 0 
L 0 0 
z
" style="fill: #ffffff"/>
  </g>
  <g id="axes_1">
   <g id="patch_2">
    <path d="M 57.6 307.584 
L 414.72 307.584 
L 414.72 41.472 
L 57.6 41.472 
z
" style="fill: #ffffff"/>
   </g>
   <g id="matplotlib.axis_1">
    <g id="xtick_1">
     <g id="line2d_1">
      <path d="M 70.553388 307.584 
L 70.553388 41.472 
" clip-path="url(#p9f34476ebd)" style="fill: none; stroke: #b0b0b0; stroke-width: 0.8; stroke-linecap: square"/>
     </g>
     <g id="line2d_2">
      <defs>
       <path id="m49797d4e21" d="M 0 0 
L 0 3.5 
" style="stroke: #000000; stroke-width: 0.8"/>
      </defs>
      <g>
       <use xlink:href="#m49797d4e21" x="70.553388" y="307.584" style="stroke: #000000; stroke-width: 0.8"/>
      </g>
     </g>
     <g id="text_1">
      <!-- 0 -->
      <g transform="translate(67.372138 322.182437)scale(0.1 -0.1)">
       <defs>
        <path id="DejaVuSans-30" d="M 2034 4250 
Q 1547 4250 1301 3770 
Q 1056 3291 1056 2328 
Q 1056 1369 1301 889 
Q 1547 409 2034 409 
Q 2525 409 2770 889 
Q 3016 1369 3016 2328 
Q 3016 3291 2770 3770 
Q 2525 4250 2034 4250 
z
M 2034 4750 
Q 2819 4750 3233 4129 
Q 3647 3509 3647 2328 
Q 3647 1150 3233 529 
Q 2819 -91 2034 -91 
Q 1250 -91 836 529 
Q 422 1150 422 2328 
Q 422 3509 836 4129 
Q 1250 4750 2034 4750 
z
" transform="scale(0.015625)"/>
       </defs>
       <use xlink:href="#DejaVuSans-30"/>
      </g>
     </g>
    </g>
    <g id="xtick_2">
     <g id="line2d_3">
      <path d="M 136.140165 307.584 
L 136.140165 41.472 
" clip-path="url(#p9f34476ebd)" style="fill: none; stroke: #b0b0b0; stroke-width: 0.8; stroke-linecap: square"/>
     </g>
     <g id="line2d_4">
      <g>
       <use xlink:href="#m49797d4e21" x="136.140165" y="307.584" style="stroke: #000000; stroke-width: 0.8"/>
      </g>
     </g>
     <g id="text_2">
      <!-- 2 -->
      <g transform="translate(132.958915 322.182437)scale(0.1 -0.1)">
       <defs>
        <path id="DejaVuSans-32" d="M 1228 531 
L 3431 531 
L 3431 0 
L 469 0 
L 469 531 
Q 828 903 1448 1529 
Q 2069 2156 2228 2338 
Q 2531 2678 2651 2914 
Q 2772 3150 2772 3378 
Q 2772 3750 2511 3984 
Q 2250 4219 1831 4219 
Q 1534 4219 1204 4116 
Q 875 4013 500 3803 
L 500 4441 
Q 881 4594 1212 4672 
Q 1544 4750 1819 4750 
Q 2544 4750 2975 4387 
Q 3406 4025 3406 3419 
Q 3406 3131 3298 2873 
Q 3191 2616 2906 2266 
Q 2828 2175 2409 1742 
Q 1991 1309 1228 531 
z
" transform="scale(0.015625)"/>
       </defs>
       <use xlink:href="#DejaVuSans-32"/>
      </g>
     </g>
    </g>
    <g id="xtick_3">
     <g id="line2d_5">
      <path d="M 201.726942 307.584 
L 201.726942 41.472 
" clip-path="url(#p9f34476ebd)" style="fill: none; stroke: #b0b0b0; stroke-width: 0.8; stroke-linecap: square"/>
     </g>
     <g id="line2d_6">
      <g>
       <use xlink:href="#m49797d4e21" x="201.726942" y="307.584" style="stroke: #000000; stroke-width: 0.8"/>
      </g>
     </g>
     <g id="text_3">
      <!-- 4 -->
      <g transform="translate(198.545692 322.182437)scale(0.1 -0.1)">
       <defs>
        <path id="DejaVuSans-34" d="M 2419 4116 
L 825 1625 
L 2419 1625 
L 2419 4116 
z
M 2253 4666 
L 3047 4666 
L 3047 1625 
L 3713 1625 
L 3713 1100 
L 3047 1100 
L 3047 0 
L 2419 0 
L 2419 1100 
L 313 1100 
L 313 1709 
L 2253 4666 
z
" transform="scale(0.015625)"/>
       </defs>
       <use xlink:href="#DejaVuSans-34"/>
      </g>
     </g>
    </g>
    <g id="xtick_4">
     <g id="line2d_7">
      <path d="M 267.313719 307.584 
L 267.313719 41.472 
" clip-path="url(#p9f34476ebd)" style="fill: none; stroke: #b0b0b0; stroke-width: 0.8; stroke-linecap: square"/>
     </g>
     <g id="line2d_8">
      <g>
       <use xlink:href="#m49797d4e21" x="267.313719" y="307.584" style="stroke: #000000; stroke-width: 0.8"/>
      </g>
     </g>
     <g id="text_4">
      <!-- 6 -->
      <g transform="translate(264.132469 322.182437)scale(0.1 -0.1)">
       <defs>
        <path id="DejaVuSans-36" d="M 2113 2584 
Q 1688 2584 1439 2293 
Q 1191 2003 1191 1497 
Q 1191 994 1439 701 
Q 1688 409 2113 409 
Q 2538 409 2786 701 
Q 3034 994 3034 1497 
Q 3034 2003 2786 2293 
Q 2538 2584 2113 2584 
z
M 3366 4563 
L 3366 3988 
Q 3128 4100 2886 4159 
Q 2644 4219 2406 4219 
Q 1781 4219 1451 3797 
Q 1122 3375 1075 2522 
Q 1259 2794 1537 2939 
Q 1816 3084 2150 3084 
Q 2853 3084 3261 2657 
Q 3669 2231 3669 1497 
Q 3669 778 3244 343 
Q 2819 -91 2113 -91 
Q 1303 -91 875 529 
Q 447 1150 447 2328 
Q 447 3434 972 4092 
Q 1497 4750 2381 4750 
Q 2619 4750 2861 4703 
Q 3103 4656 3366 4563 
z
" transform="scale(0.015625)"/>
       </defs>
       <use xlink:href="#DejaVuSans-36"/>
      </g>
     </g>
    </g>
    <g id="xtick_5">
     <g id="line2d_9">
      <path d="M 332.900496 307.584 
L 332.900496 41.472 
" clip-path="url(#p9f34476ebd)" style="fill: none; stroke: #b0b0b0; stroke-width: 0.8; stroke-linecap: square"/>
     </g>
     <g id="line2d_10">
      <g>
       <use xlink:href="#m49797d4e21" x="332.900496" y="307.584" style="stroke: #000000; stroke-width: 0.8"/>
      </g>
     </g>
     <g id="text_5">
      <!-- 8 -->
      <g transform="translate(329.719246 322.182437)scale(0.1 -0.1)">
       <defs>
        <path id="DejaVuSans-38" d="M 2034 2216 
Q 1584 2216 1326 1975 
Q 1069 1734 1069 1313 
Q 1069 891 1326 650 
Q 1584 409 2034 409 
Q 2484 409 2743 651 
Q 3003 894 3003 1313 
Q 3003 1734 2745 1975 
Q 2488 2216 2034 2216 
z
M 1403 2484 
Q 997 2584 770 2862 
Q 544 3141 544 3541 
Q 544 4100 942 4425 
Q 1341 4750 2034 4750 
Q 2731 4750 3128 4425 
Q 3525 4100 3525 3541 
Q 3525 3141 3298 2862 
Q 3072 2584 2669 2484 
Q 3125 2378 3379 2068 
Q 3634 1759 3634 1313 
Q 3634 634 3220 271 
Q 2806 -91 2034 -91 
Q 1263 -91 848 271 
Q 434 634 434 1313 
Q 434 1759 690 2068 
Q 947 2378 1403 2484 
z
M 1172 3481 
Q 1172 3119 1398 2916 
Q 1625 2713 2034 2713 
Q 2441 2713 2670 2916 
Q 2900 3119 2900 3481 
Q 2900 3844 2670 4047 
Q 2441 4250 2034 4250 
Q 1625 4250 1398 4047 
Q 1172 3844 1172 3481 
z
" transform="scale(0.015625)"/>
       </defs>
       <use xlink:href="#DejaVuSans-38"/>
      </g>
     </g>
    </g>
    <g id="xtick_6">
     <g id="line2d_11">
      <path d="M 398.487273 307.584 
L 398.487273 41.472 
" clip-path="url(#p9f34476ebd)" style="fill: none; stroke: #b0b0b0; stroke-width: 0.8; stroke-linecap: square"/>
     </g>
     <g id="line2d_12">
      <g>
       <use xlink:href="#m49797d4e21" x="398.487273" y="307.584" style="stroke: #000000; stroke-width: 0.8"/>
      </g>
     </g>
     <g id="text_6">
      <!-- 10 -->
      <g transform="translate(392.124773 322.182437)scale(0.1 -0.1)">
       <defs>
        <path id="DejaVuSans-31" d="M 794 531 
L 1825 531 
L 1825 4091 
L 703 3866 
L 703 4441 
L 1819 4666 
L 2450 4666 
L 2450 531 
L 3481 531 
L 3481 0 
L 794 0 
L 794 531 
z
" transform="scale(0.015625)"/>
       </defs>
       <use xlink:href="#DejaVuSans-31"/>
       <use xlink:href="#DejaVuSans-30" x="63.623047"/>
      </g>
     </g>
    </g>
    <g id="text_7">
     <!-- U -->
     <g transform="translate(232.500625 335.860562)scale(0.1 -0.1)">
      <defs>
       <path id="DejaVuSans-55" d="M 556 4666 
L 1191 4666 
L 1191 1831 
Q 1191 1081 1462 751 
Q 1734 422 2344 422 
Q 2950 422 3222 751 
Q 3494 1081 3494 1831 
L 3494 4666 
L 4128 4666 
L 4128 1753 
Q 4128 841 3676 375 
Q 3225 -91 2344 -91 
Q 1459 -91 1007 375 
Q 556 841 556 1753 
L 556 4666 
z
" transform="scale(0.015625)"/>
      </defs>
      <use xlink:href="#DejaVuSans-55"/>
     </g>
    </g>
   </g>
   <g id="matplotlib.axis_2">
    <g id="ytick_1">
     <g id="line2d_13">
      <path d="M 57.6 295.721256 
L 414.72 295.721256 
" clip-path="url(#p9f34476ebd)" style="fill: none; stroke: #b0b0b0; stroke-width: 0.8; stroke-linecap: square"/>
     </g>
     <g id="line2d_14">
      <defs>
       <path id="mc670de1b2d" d="M 0 0 
L -3.5 0 
" style="stroke: #000000; stroke-width: 0.8"/>
      </defs>
      <g>
       <use xlink:href="#mc670de1b2d" x="57.6" y="295.721256" style="stroke: #000000; stroke-width: 0.8"/>
      </g>
     </g>
     <g id="text_8">
      <!-- 0.00 -->
      <g transform="translate(28.334375 299.520475)scale(0.1 -0.1)">
       <defs>
        <path id="DejaVuSans-2e" d="M 684 794 
L 1344 794 
L 1344 0 
L 684 0 
L 684 794 
z
" transform="scale(0.015625)"/>
       </defs>
       <use xlink:href="#DejaVuSans-30"/>
       <use xlink:href="#DejaVuSans-2e" x="63.623047"/>
       <use xlink:href="#DejaVuSans-30" x="95.410156"/>
       <use xlink:href="#DejaVuSans-30" x="159.033203"/>
      </g>
     </g>
    </g>
    <g id="ytick_2">
     <g id="line2d_15">
      <path d="M 57.6 258.804117 
L 414.72 258.804117 
" clip-path="url(#p9f34476ebd)" style="fill: none; stroke: #b0b0b0; stroke-width: 0.8; stroke-linecap: square"/>
     </g>
     <g id="line2d_16">
      <g>
       <use xlink:href="#mc670de1b2d" x="57.6" y="258.804117" style="stroke: #000000; stroke-width: 0.8"/>
      </g>
     </g>
     <g id="text_9">
      <!-- 0.05 -->
      <g transform="translate(28.334375 262.603336)scale(0.1 -0.1)">
       <defs>
        <path id="DejaVuSans-35" d="M 691 4666 
L 3169 4666 
L 3169 4134 
L 1269 4134 
L 1269 2991 
Q 1406 3038 1543 3061 
Q 1681 3084 1819 3084 
Q 2600 3084 3056 2656 
Q 3513 2228 3513 1497 
Q 3513 744 3044 326 
Q 2575 -91 1722 -91 
Q 1428 -91 1123 -41 
Q 819 9 494 109 
L 494 744 
Q 775 591 1075 516 
Q 1375 441 1709 441 
Q 2250 441 2565 725 
Q 2881 1009 2881 1497 
Q 2881 1984 2565 2268 
Q 2250 2553 1709 2553 
Q 1456 2553 1204 2497 
Q 953 2441 691 2322 
L 691 4666 
z
" transform="scale(0.015625)"/>
       </defs>
       <use xlink:href="#DejaVuSans-30"/>
       <use xlink:href="#DejaVuSans-2e" x="63.623047"/>
       <use xlink:href="#DejaVuSans-30" x="95.410156"/>
       <use xlink:href="#DejaVuSans-35" x="159.033203"/>
      </g>
     </g>
    </g>
    <g id="ytick_3">
     <g id="line2d_17">
      <path d="M 57.6 221.886978 
L 414.72 221.886978 
" clip-path="url(#p9f34476ebd)" style="fill: none; stroke: #b0b0b0; stroke-width: 0.8; stroke-linecap: square"/>
     </g>
     <g id="line2d_18">
      <g>
       <use xlink:href="#mc670de1b2d" x="57.6" y="221.886978" style="stroke: #000000; stroke-width: 0.8"/>
      </g>
     </g>
     <g id="text_10">
      <!-- 0.10 -->
      <g transform="translate(28.334375 225.686196)scale(0.1 -0.1)">
       <use xlink:href="#DejaVuSans-30"/>
       <use xlink:href="#DejaVuSans-2e" x="63.623047"/>
       <use xlink:href="#DejaVuSans-31" x="95.410156"/>
       <use xlink:href="#DejaVuSans-30" x="159.033203"/>
      </g>
     </g>
    </g>
    <g id="ytick_4">
     <g id="line2d_19">
      <path d="M 57.6 184.969838 
L 414.72 184.969838 
" clip-path="url(#p9f34476ebd)" style="fill: none; stroke: #b0b0b0; stroke-width: 0.8; stroke-linecap: square"/>
     </g>
     <g id="line2d_20">
      <g>
       <use xlink:href="#mc670de1b2d" x="57.6" y="184.969838" style="stroke: #000000; stroke-width: 0.8"/>
      </g>
     </g>
     <g id="text_11">
      <!-- 0.15 -->
      <g transform="translate(28.334375 188.769057)scale(0.1 -0.1)">
       <use xlink:href="#DejaVuSans-30"/>
       <use xlink:href="#DejaVuSans-2e" x="63.623047"/>
       <use xlink:href="#DejaVuSans-31" x="95.410156"/>
       <use xlink:href="#DejaVuSans-35" x="159.033203"/>
      </g>
     </g>
    </g>
    <g id="ytick_5">
     <g id="line2d_21">
      <path d="M 57.6 148.052699 
L 414.72 148.052699 
" clip-path="url(#p9f34476ebd)" style="fill: none; stroke: #b0b0b0; stroke-width: 0.8; stroke-linecap: square"/>
     </g>
     <g id="line2d_22">
      <g>
       <use xlink:href="#mc670de1b2d" x="57.6" y="148.052699" style="stroke: #000000; stroke-width: 0.8"/>
      </g>
     </g>
     <g id="text_12">
      <!-- 0.20 -->
      <g transform="translate(28.334375 151.851918)scale(0.1 -0.1)">
       <use xlink:href="#DejaVuSans-30"/>
       <use xlink:href="#DejaVuSans-2e" x="63.623047"/>
       <use xlink:href="#DejaVuSans-32" x="95.410156"/>
       <use xlink:href="#DejaVuSans-30" x="159.033203"/>
      </g>
     </g>
    </g>
    <g id="ytick_6">
     <g id="line2d_23">
      <path d="M 57.6 111.13556 
L 414.72 111.13556 
" clip-path="url(#p9f34476ebd)" style="fill: none; stroke: #b0b0b0; stroke-width: 0.8; stroke-linecap: square"/>
     </g>
     <g id="line2d_24">
      <g>
       <use xlink:href="#mc670de1b2d" x="57.6" y="111.13556" style="stroke: #000000; stroke-width: 0.8"/>
      </g>
     </g>
     <g id="text_13">
      <!-- 0.25 -->
      <g transform="translate(28.334375 114.934779)scale(0.1 -0.1)">
       <use xlink:href="#DejaVuSans-30"/>
       <use xlink:href="#DejaVuSans-2e" x="63.623047"/>
       <use xlink:href="#DejaVuSans-32" x="95.410156"/>
       <use xlink:href="#DejaVuSans-35" x="159.033203"/>
      </g>
     </g>
    </g>
    <g id="ytick_7">
     <g id="line2d_25">
      <path d="M 57.6 74.218421 
L 414.72 74.218421 
" clip-path="url(#p9f34476ebd)" style="fill: none; stroke: #b0b0b0; stroke-width: 0.8; stroke-linecap: square"/>
     </g>
     <g id="line2d_26">
      <g>
       <use xlink:href="#mc670de1b2d" x="57.6" y="74.218421" style="stroke: #000000; stroke-width: 0.8"/>
      </g>
     </g>
     <g id="text_14">
      <!-- 0.30 -->
      <g transform="translate(28.334375 78.01764)scale(0.1 -0.1)">
       <defs>
        <path id="DejaVuSans-33" d="M 2597 2516 
Q 3050 2419 3304 2112 
Q 3559 1806 3559 1356 
Q 3559 666 3084 287 
Q 2609 -91 1734 -91 
Q 1441 -91 1130 -33 
Q 819 25 488 141 
L 488 750 
Q 750 597 1062 519 
Q 1375 441 1716 441 
Q 2309 441 2620 675 
Q 2931 909 2931 1356 
Q 2931 1769 2642 2001 
Q 2353 2234 1838 2234 
L 1294 2234 
L 1294 2753 
L 1863 2753 
Q 2328 2753 2575 2939 
Q 2822 3125 2822 3475 
Q 2822 3834 2567 4026 
Q 2313 4219 1838 4219 
Q 1578 4219 1281 4162 
Q 984 4106 628 3988 
L 628 4550 
Q 988 4650 1302 4700 
Q 1616 4750 1894 4750 
Q 2613 4750 3031 4423 
Q 3450 4097 3450 3541 
Q 3450 3153 3228 2886 
Q 3006 2619 2597 2516 
z
" transform="scale(0.015625)"/>
       </defs>
       <use xlink:href="#DejaVuSans-30"/>
       <use xlink:href="#DejaVuSans-2e" x="63.623047"/>
       <use xlink:href="#DejaVuSans-33" x="95.410156"/>
       <use xlink:href="#DejaVuSans-30" x="159.033203"/>
      </g>
     </g>
    </g>
    <g id="text_15">
     <!-- $\Delta$ -->
     <g transform="translate(22.254688 177.978)rotate(-90)scale(0.1 -0.1)">
      <defs>
       <path id="DejaVuSans-394" d="M 2188 4044 
L 906 525 
L 3472 525 
L 2188 4044 
z
M 50 0 
L 1831 4666 
L 2547 4666 
L 4325 0 
L 50 0 
z
" transform="scale(0.015625)"/>
      </defs>
      <use xlink:href="#DejaVuSans-394" transform="translate(0 0.09375)"/>
     </g>
    </g>
   </g>
   <g id="line2d_27">
    <path d="M 73.832727 295.488 
L 82.157203 294.066546 
L 90.481678 287.639103 
L 98.806154 273.698793 
L 107.130629 256.36176 
L 115.455105 238.644899 
L 123.77958 221.419785 
L 132.104056 205.353501 
L 140.428531 190.023155 
L 148.753007 176.199672 
L 157.077483 163.887993 
L 165.401958 152.443831 
L 173.726434 142.361164 
L 182.050909 133.301953 
L 190.375385 125.279283 
L 198.69986 117.990243 
L 207.024336 111.444101 
L 215.348811 105.588564 
L 223.673287 100.315086 
L 231.997762 95.558856 
L 240.322238 91.259202 
L 248.646713 87.363133 
L 256.971189 83.790906 
L 265.295664 80.556449 
L 273.62014 77.618137 
L 281.944615 74.935746 
L 290.269091 72.482496 
L 298.593566 70.23447 
L 306.918042 68.169907 
L 315.242517 66.270531 
L 323.566993 64.521302 
L 331.891469 62.907359 
L 340.215944 61.415686 
L 348.54042 60.034695 
L 356.864895 58.754049 
L 365.189371 57.564629 
L 373.513846 56.458318 
L 381.838322 55.427647 
L 390.162797 54.466187 
L 398.487273 53.568043 
" clip-path="url(#p9f34476ebd)" style="fill: none; stroke: #1f77b4; stroke-width: 1.5; stroke-linecap: square"/>
    <defs>
     <path id="mafeed83ff5" d="M 0 2 
C 0.530406 2 1.03916 1.789267 1.414214 1.414214 
C 1.789267 1.03916 2 0.530406 2 0 
C 2 -0.530406 1.789267 -1.03916 1.414214 -1.414214 
C 1.03916 -1.789267 0.530406 -2 0 -2 
C -0.530406 -2 -1.03916 -1.789267 -1.414214 -1.414214 
C -1.789267 -1.03916 -2 -0.530406 -2 0 
C -2 0.530406 -1.789267 1.03916 -1.414214 1.414214 
C -1.03916 1.789267 -0.530406 2 0 2 
z
" style="stroke: #1f77b4"/>
    </defs>
    <g clip-path="url(#p9f34476ebd)">
     <use xlink:href="#mafeed83ff5" x="73.832727" y="295.488" style="fill: #1f77b4; stroke: #1f77b4"/>
     <use xlink:href="#mafeed83ff5" x="82.157203" y="294.066546" style="fill: #1f77b4; stroke: #1f77b4"/>
     <use xlink:href="#mafeed83ff5" x="90.481678" y="287.639103" style="fill: #1f77b4; stroke: #1f77b4"/>
     <use xlink:href="#mafeed83ff5" x="98.806154" y="273.698793" style="fill: #1f77b4; stroke: #1f77b4"/>
     <use xlink:href="#mafeed83ff5" x="107.130629" y="256.36176" style="fill: #1f77b4; stroke: #1f77b4"/>
     <use xlink:href="#mafeed83ff5" x="115.455105" y="238.644899" style="fill: #1f77b4; stroke: #1f77b4"/>
     <use xlink:href="#mafeed83ff5" x="123.77958" y="221.419785" style="fill: #1f77b4; stroke: #1f77b4"/>
     <use xlink:href="#mafeed83ff5" x="132.104056" y="205.353501" style="fill: #1f77b4; stroke: #1f77b4"/>
     <use xlink:href="#mafeed83ff5" x="140.428531" y="190.023155" style="fill: #1f77b4; stroke: #1f77b4"/>
     <use xlink:href="#mafeed83ff5" x="148.753007" y="176.199672" style="fill: #1f77b4; stroke: #1f77b4"/>
     <use xlink:href="#mafeed83ff5" x="157.077483" y="163.887993" style="fill: #1f77b4; stroke: #1f77b4"/>
     <use xlink:href="#mafeed83ff5" x="165.401958" y="152.443831" style="fill: #1f77b4; stroke: #1f77b4"/>
     <use xlink:href="#mafeed83ff5" x="173.726434" y="142.361164" style="fill: #1f77b4; stroke: #1f77b4"/>
     <use xlink:href="#mafeed83ff5" x="182.050909" y="133.301953" style="fill: #1f77b4; stroke: #1f77b4"/>
     <use xlink:href="#mafeed83ff5" x="190.375385" y="125.279283" style="fill: #1f77b4; stroke: #1f77b4"/>
     <use xlink:href="#mafeed83ff5" x="198.69986" y="117.990243" style="fill: #1f77b4; stroke: #1f77b4"/>
     <use xlink:href="#mafeed83ff5" x="207.024336" y="111.444101" style="fill: #1f77b4; stroke: #1f77b4"/>
     <use xlink:href="#mafeed83ff5" x="215.348811" y="105.588564" style="fill: #1f77b4; stroke: #1f77b4"/>
     <use xlink:href="#mafeed83ff5" x="223.673287" y="100.315086" style="fill: #1f77b4; stroke: #1f77b4"/>
     <use xlink:href="#mafeed83ff5" x="231.997762" y="95.558856" style="fill: #1f77b4; stroke: #1f77b4"/>
     <use xlink:href="#mafeed83ff5" x="240.322238" y="91.259202" style="fill: #1f77b4; stroke: #1f77b4"/>
     <use xlink:href="#mafeed83ff5" x="248.646713" y="87.363133" style="fill: #1f77b4; stroke: #1f77b4"/>
     <use xlink:href="#mafeed83ff5" x="256.971189" y="83.790906" style="fill: #1f77b4; stroke: #1f77b4"/>
     <use xlink:href="#mafeed83ff5" x="265.295664" y="80.556449" style="fill: #1f77b4; stroke: #1f77b4"/>
     <use xlink:href="#mafeed83ff5" x="273.62014" y="77.618137" style="fill: #1f77b4; stroke: #1f77b4"/>
     <use xlink:href="#mafeed83ff5" x="281.944615" y="74.935746" style="fill: #1f77b4; stroke: #1f77b4"/>
     <use xlink:href="#mafeed83ff5" x="290.269091" y="72.482496" style="fill: #1f77b4; stroke: #1f77b4"/>
     <use xlink:href="#mafeed83ff5" x="298.593566" y="70.23447" style="fill: #1f77b4; stroke: #1f77b4"/>
     <use xlink:href="#mafeed83ff5" x="306.918042" y="68.169907" style="fill: #1f77b4; stroke: #1f77b4"/>
     <use xlink:href="#mafeed83ff5" x="315.242517" y="66.270531" style="fill: #1f77b4; stroke: #1f77b4"/>
     <use xlink:href="#mafeed83ff5" x="323.566993" y="64.521302" style="fill: #1f77b4; stroke: #1f77b4"/>
     <use xlink:href="#mafeed83ff5" x="331.891469" y="62.907359" style="fill: #1f77b4; stroke: #1f77b4"/>
     <use xlink:href="#mafeed83ff5" x="340.215944" y="61.415686" style="fill: #1f77b4; stroke: #1f77b4"/>
     <use xlink:href="#mafeed83ff5" x="348.54042" y="60.034695" style="fill: #1f77b4; stroke: #1f77b4"/>
     <use xlink:href="#mafeed83ff5" x="356.864895" y="58.754049" style="fill: #1f77b4; stroke: #1f77b4"/>
     <use xlink:href="#mafeed83ff5" x="365.189371" y="57.564629" style="fill: #1f77b4; stroke: #1f77b4"/>
     <use xlink:href="#mafeed83ff5" x="373.513846" y="56.458318" style="fill: #1f77b4; stroke: #1f77b4"/>
     <use xlink:href="#mafeed83ff5" x="381.838322" y="55.427647" style="fill: #1f77b4; stroke: #1f77b4"/>
     <use xlink:href="#mafeed83ff5" x="390.162797" y="54.466187" style="fill: #1f77b4; stroke: #1f77b4"/>
     <use xlink:href="#mafeed83ff5" x="398.487273" y="53.568043" style="fill: #1f77b4; stroke: #1f77b4"/>
    </g>
   </g>
   <g id="line2d_28">
    <path d="M 73.832727 295.488 
L 82.157203 294.066546 
L 90.481678 287.639103 
L 98.806154 273.698793 
L 107.130629 256.36176 
L 115.455105 238.644899 
L 123.77958 221.419785 
L 132.104056 205.353501 
L 140.428531 190.023155 
L 148.753007 176.199714 
L 157.077483 163.888013 
L 165.401958 152.443831 
L 173.726434 142.361164 
L 182.050909 133.301953 
L 190.375385 125.279283 
L 198.69986 117.990225 
L 207.024336 111.444101 
L 215.348811 105.58862 
L 223.673287 100.315086 
L 231.997762 95.558856 
L 240.322238 91.259202 
L 248.646713 87.363133 
L 256.971189 83.790906 
L 265.295664 80.556449 
L 273.62014 77.618024 
L 281.944615 74.935746 
L 290.269091 72.482496 
L 298.593566 70.234584 
L 306.918042 68.169907 
L 315.242517 66.270531 
L 323.566993 64.52126 
L 331.891469 62.907347 
L 340.215944 61.415686 
L 348.54042 60.034652 
L 356.864895 58.754049 
L 365.189371 57.564629 
L 373.513846 56.45818 
L 381.838322 55.42757 
L 390.162797 54.466109 
L 398.487273 53.568 
" clip-path="url(#p9f34476ebd)" style="fill: none; stroke: #ff7f0e; stroke-width: 1.5; stroke-linecap: square"/>
    <defs>
     <path id="m4c7edfe0a2" d="M 0 2 
C 0.530406 2 1.03916 1.789267 1.414214 1.414214 
C 1.789267 1.03916 2 0.530406 2 0 
C 2 -0.530406 1.789267 -1.03916 1.414214 -1.414214 
C 1.03916 -1.789267 0.530406 -2 0 -2 
C -0.530406 -2 -1.03916 -1.789267 -1.414214 -1.414214 
C -1.789267 -1.03916 -2 -0.530406 -2 0 
C -2 0.530406 -1.789267 1.03916 -1.414214 1.414214 
C -1.03916 1.789267 -0.530406 2 0 2 
z
" style="stroke: #ff7f0e"/>
    </defs>
    <g clip-path="url(#p9f34476ebd)">
     <use xlink:href="#m4c7edfe0a2" x="73.832727" y="295.488" style="fill: #ff7f0e; stroke: #ff7f0e"/>
     <use xlink:href="#m4c7edfe0a2" x="82.157203" y="294.066546" style="fill: #ff7f0e; stroke: #ff7f0e"/>
     <use xlink:href="#m4c7edfe0a2" x="90.481678" y="287.639103" style="fill: #ff7f0e; stroke: #ff7f0e"/>
     <use xlink:href="#m4c7edfe0a2" x="98.806154" y="273.698793" style="fill: #ff7f0e; stroke: #ff7f0e"/>
     <use xlink:href="#m4c7edfe0a2" x="107.130629" y="256.36176" style="fill: #ff7f0e; stroke: #ff7f0e"/>
     <use xlink:href="#m4c7edfe0a2" x="115.455105" y="238.644899" style="fill: #ff7f0e; stroke: #ff7f0e"/>
     <use xlink:href="#m4c7edfe0a2" x="123.77958" y="221.419785" style="fill: #ff7f0e; stroke: #ff7f0e"/>
     <use xlink:href="#m4c7edfe0a2" x="132.104056" y="205.353501" style="fill: #ff7f0e; stroke: #ff7f0e"/>
     <use xlink:href="#m4c7edfe0a2" x="140.428531" y="190.023155" style="fill: #ff7f0e; stroke: #ff7f0e"/>
     <use xlink:href="#m4c7edfe0a2" x="148.753007" y="176.199714" style="fill: #ff7f0e; stroke: #ff7f0e"/>
     <use xlink:href="#m4c7edfe0a2" x="157.077483" y="163.888013" style="fill: #ff7f0e; stroke: #ff7f0e"/>
     <use xlink:href="#m4c7edfe0a2" x="165.401958" y="152.443831" style="fill: #ff7f0e; stroke: #ff7f0e"/>
     <use xlink:href="#m4c7edfe0a2" x="173.726434" y="142.361164" style="fill: #ff7f0e; stroke: #ff7f0e"/>
     <use xlink:href="#m4c7edfe0a2" x="182.050909" y="133.301953" style="fill: #ff7f0e; stroke: #ff7f0e"/>
     <use xlink:href="#m4c7edfe0a2" x="190.375385" y="125.279283" style="fill: #ff7f0e; stroke: #ff7f0e"/>
     <use xlink:href="#m4c7edfe0a2" x="198.69986" y="117.990225" style="fill: #ff7f0e; stroke: #ff7f0e"/>
     <use xlink:href="#m4c7edfe0a2" x="207.024336" y="111.444101" style="fill: #ff7f0e; stroke: #ff7f0e"/>
     <use xlink:href="#m4c7edfe0a2" x="215.348811" y="105.58862" style="fill: #ff7f0e; stroke: #ff7f0e"/>
     <use xlink:href="#m4c7edfe0a2" x="223.673287" y="100.315086" style="fill: #ff7f0e; stroke: #ff7f0e"/>
     <use xlink:href="#m4c7edfe0a2" x="231.997762" y="95.558856" style="fill: #ff7f0e; stroke: #ff7f0e"/>
     <use xlink:href="#m4c7edfe0a2" x="240.322238" y="91.259202" style="fill: #ff7f0e; stroke: #ff7f0e"/>
     <use xlink:href="#m4c7edfe0a2" x="248.646713" y="87.363133" style="fill: #ff7f0e; stroke: #ff7f0e"/>
     <use xlink:href="#m4c7edfe0a2" x="256.971189" y="83.790906" style="fill: #ff7f0e; stroke: #ff7f0e"/>
     <use xlink:href="#m4c7edfe0a2" x="265.295664" y="80.556449" style="fill: #ff7f0e; stroke: #ff7f0e"/>
     <use xlink:href="#m4c7edfe0a2" x="273.62014" y="77.618024" style="fill: #ff7f0e; stroke: #ff7f0e"/>
     <use xlink:href="#m4c7edfe0a2" x="281.944615" y="74.935746" style="fill: #ff7f0e; stroke: #ff7f0e"/>
     <use xlink:href="#m4c7edfe0a2" x="290.269091" y="72.482496" style="fill: #ff7f0e; stroke: #ff7f0e"/>
     <use xlink:href="#m4c7edfe0a2" x="298.593566" y="70.234584" style="fill: #ff7f0e; stroke: #ff7f0e"/>
     <use xlink:href="#m4c7edfe0a2" x="306.918042" y="68.169907" style="fill: #ff7f0e; stroke: #ff7f0e"/>
     <use xlink:href="#m4c7edfe0a2" x="315.242517" y="66.270531" style="fill: #ff7f0e; stroke: #ff7f0e"/>
     <use xlink:href="#m4c7edfe0a2" x="323.566993" y="64.52126" style="fill: #ff7f0e; stroke: #ff7f0e"/>
     <use xlink:href="#m4c7edfe0a2" x="331.891469" y="62.907347" style="fill: #ff7f0e; stroke: #ff7f0e"/>
     <use xlink:href="#m4c7edfe0a2" x="340.215944" y="61.415686" style="fill: #ff7f0e; stroke: #ff7f0e"/>
     <use xlink:href="#m4c7edfe0a2" x="348.54042" y="60.034652" style="fill: #ff7f0e; stroke: #ff7f0e"/>
     <use xlink:href="#m4c7edfe0a2" x="356.864895" y="58.754049" style="fill: #ff7f0e; stroke: #ff7f0e"/>
     <use xlink:href="#m4c7edfe0a2" x="365.189371" y="57.564629" style="fill: #ff7f0e; stroke: #ff7f0e"/>
     <use xlink:href="#m4c7edfe0a2" x="373.513846" y="56.45818" style="fill: #ff7f0e; stroke: #ff7f0e"/>
     <use xlink:href="#m4c7edfe0a2" x="381.838322" y="55.42757" style="fill: #ff7f0e; stroke: #ff7f0e"/>
     <use xlink:href="#m4c7edfe0a2" x="390.162797" y="54.466109" style="fill: #ff7f0e; stroke: #ff7f0e"/>
     <use xlink:href="#m4c7edfe0a2" x="398.487273" y="53.568" style="fill: #ff7f0e; stroke: #ff7f0e"/>
    </g>
   </g>
   <g id="patch_3">
    <path d="M 57.6 307.584 
L 57.6 41.472 
" style="fill: none; stroke: #000000; stroke-width: 0.8; stroke-linejoin: miter; stroke-linecap: square"/>
   </g>
   <g id="patch_4">
    <path d="M 414.72 307.584 
L 414.72 41.472 
" style="fill: none; stroke: #000000; stroke-width: 0.8; stroke-linejoin: miter; stroke-linecap: square"/>
   </g>
   <g id="patch_5">
    <path d="M 57.6 307.584 
L 414.72 307.584 
" style="fill: none; stroke: #000000; stroke-width: 0.8; stroke-linejoin: miter; stroke-linecap: square"/>
   </g>
   <g id="patch_6">
    <path d="M 57.6 41.472 
L 414.72 41.472 
" style="fill: none; stroke: #000000; stroke-width: 0.8; stroke-linejoin: miter; stroke-linecap: square"/>
   </g>
   <g id="text_16">
    <!-- J=0.0 -->
    <g transform="translate(219.820312 35.472)scale(0.12 -0.12)">
     <defs>
      <path id="DejaVuSans-4a" d="M 628 4666 
L 1259 4666 
L 1259 325 
Q 1259 -519 939 -900 
Q 619 -1281 -91 -1281 
L -331 -1281 
L -331 -750 
L -134 -750 
Q 284 -750 456 -515 
Q 628 -281 628 325 
L 628 4666 
z
" transform="scale(0.015625)"/>
      <path id="DejaVuSans-3d" d="M 678 2906 
L 4684 2906 
L 4684 2381 
L 678 2381 
L 678 2906 
z
M 678 1631 
L 4684 1631 
L 4684 1100 
L 678 1100 
L 678 1631 
z
" transform="scale(0.015625)"/>
     </defs>
     <use xlink:href="#DejaVuSans-4a"/>
     <use xlink:href="#DejaVuSans-3d" x="29.492188"/>
     <use xlink:href="#DejaVuSans-30" x="113.28125"/>
     <use xlink:href="#DejaVuSans-2e" x="176.904297"/>
     <use xlink:href="#DejaVuSans-30" x="208.691406"/>
    </g>
   </g>
   <g id="legend_1">
    <g id="patch_7">
     <path d="M 64.6 78.82825 
L 121.170312 78.82825 
Q 123.170312 78.82825 123.170312 76.82825 
L 123.170312 48.472 
Q 123.170312 46.472 121.170312 46.472 
L 64.6 46.472 
Q 62.6 46.472 62.6 48.472 
L 62.6 76.82825 
Q 62.6 78.82825 64.6 78.82825 
z
" style="fill: #ffffff; opacity: 0.8; stroke: #cccccc; stroke-linejoin: miter"/>
    </g>
    <g id="line2d_29">
     <path d="M 66.6 54.570437 
L 76.6 54.570437 
L 86.6 54.570437 
" style="fill: none; stroke: #1f77b4; stroke-width: 1.5; stroke-linecap: square"/>
     <g>
      <use xlink:href="#mafeed83ff5" x="76.6" y="54.570437" style="fill: #1f77b4; stroke: #1f77b4"/>
     </g>
    </g>
    <g id="text_17">
     <!-- SC -->
     <g transform="translate(94.6 58.070437)scale(0.1 -0.1)">
      <defs>
       <path id="DejaVuSans-53" d="M 3425 4513 
L 3425 3897 
Q 3066 4069 2747 4153 
Q 2428 4238 2131 4238 
Q 1616 4238 1336 4038 
Q 1056 3838 1056 3469 
Q 1056 3159 1242 3001 
Q 1428 2844 1947 2747 
L 2328 2669 
Q 3034 2534 3370 2195 
Q 3706 1856 3706 1288 
Q 3706 609 3251 259 
Q 2797 -91 1919 -91 
Q 1588 -91 1214 -16 
Q 841 59 441 206 
L 441 856 
Q 825 641 1194 531 
Q 1563 422 1919 422 
Q 2459 422 2753 634 
Q 3047 847 3047 1241 
Q 3047 1584 2836 1778 
Q 2625 1972 2144 2069 
L 1759 2144 
Q 1053 2284 737 2584 
Q 422 2884 422 3419 
Q 422 4038 858 4394 
Q 1294 4750 2059 4750 
Q 2388 4750 2728 4690 
Q 3069 4631 3425 4513 
z
" transform="scale(0.015625)"/>
       <path id="DejaVuSans-43" d="M 4122 4306 
L 4122 3641 
Q 3803 3938 3442 4084 
Q 3081 4231 2675 4231 
Q 1875 4231 1450 3742 
Q 1025 3253 1025 2328 
Q 1025 1406 1450 917 
Q 1875 428 2675 428 
Q 3081 428 3442 575 
Q 3803 722 4122 1019 
L 4122 359 
Q 3791 134 3420 21 
Q 3050 -91 2638 -91 
Q 1578 -91 968 557 
Q 359 1206 359 2328 
Q 359 3453 968 4101 
Q 1578 4750 2638 4750 
Q 3056 4750 3426 4639 
Q 3797 4528 4122 4306 
z
" transform="scale(0.015625)"/>
      </defs>
      <use xlink:href="#DejaVuSans-53"/>
      <use xlink:href="#DejaVuSans-43" x="63.476562"/>
     </g>
    </g>
    <g id="line2d_30">
     <path d="M 66.6 69.248562 
L 76.6 69.248562 
L 86.6 69.248562 
" style="fill: none; stroke: #ff7f0e; stroke-width: 1.5; stroke-linecap: square"/>
     <g>
      <use xlink:href="#m4c7edfe0a2" x="76.6" y="69.248562" style="fill: #ff7f0e; stroke: #ff7f0e"/>
     </g>
    </g>
    <g id="text_18">
     <!-- CDW -->
     <g transform="translate(94.6 72.748562)scale(0.1 -0.1)">
      <defs>
       <path id="DejaVuSans-44" d="M 1259 4147 
L 1259 519 
L 2022 519 
Q 2988 519 3436 956 
Q 3884 1394 3884 2338 
Q 3884 3275 3436 3711 
Q 2988 4147 2022 4147 
L 1259 4147 
z
M 628 4666 
L 1925 4666 
Q 3281 4666 3915 4102 
Q 4550 3538 4550 2338 
Q 4550 1131 3912 565 
Q 3275 0 1925 0 
L 628 0 
L 628 4666 
z
" transform="scale(0.015625)"/>
       <path id="DejaVuSans-57" d="M 213 4666 
L 850 4666 
L 1831 722 
L 2809 4666 
L 3519 4666 
L 4500 722 
L 5478 4666 
L 6119 4666 
L 4947 0 
L 4153 0 
L 3169 4050 
L 2175 0 
L 1381 0 
L 213 4666 
z
" transform="scale(0.015625)"/>
      </defs>
      <use xlink:href="#DejaVuSans-43"/>
      <use xlink:href="#DejaVuSans-44" x="69.824219"/>
      <use xlink:href="#DejaVuSans-57" x="146.826172"/>
     </g>
    </g>
   </g>
  </g>
 </g>
 <defs>
  <clipPath id="p9f34476ebd">
   <rect x="57.6" y="41.472" width="357.12" height="266.112"/>
  </clipPath>
 </defs>
</svg>
