<?xml version="1.0" encoding="utf-8" standalone="no"?>
<!DOCTYPE svg PUBLIC "-//W3C//DTD SVG 1.1//EN"
  "http://www.w3.org/Graphics/SVG/1.1/DTD/svg11.dtd">
<svg xmlns:xlink="http://www.w3.org/1999/xlink" width="460.8pt" height="345.6pt" viewBox="0 0 460.8 345.6" xmlns="http://www.w3.org/2000/svg" version="1.1">
 <metadata>
  <rdf:RDF xmlns:dc="http://purl.org/dc/elements/1.1/" xmlns:cc="http://creativecommons.org/ns#" xmlns:rdf="http://www.w3.org/1999/02/22-rdf-syntax-ns#">
   <cc:Work>
    <dc:type rdf:resource="http://purl.org/dc/dcmitype/StillImage"/>
    <dc:date>2024-03-06T17:28:10.866753</dc:date>
    <dc:format>image/svg+xml</dc:format>
    <dc:creator>
     <cc:Agent>
      <dc:title>Matplotlib v3.5.3, https://matplotlib.org/</dc:title>
     </cc:Agent>
    </dc:creator>
   </cc:Work>
  </rdf:RDF>
 </metadata>
 <defs>
  <style type="text/css">*{stroke-linejoin: round; stroke-linecap: butt}</style>
 </defs>
 <g id="figure_1">
  <g id="patch_1">
   <path d="M 0 345.6 
L 460.8 345.6 
L 460.8 0 
L 0 0 
z
" style="fill: #ffffff"/>
  </g>
  <g id="axes_1">
   <g id="patch_2">
    <path d="M 57.6 307.584 
L 414.72 307.584 
L 414.72 41.472 
L 57.6 41.472 
z
" style="fill: #ffffff"/>
   </g>
   <g id="matplotlib.axis_1">
    <g id="xtick_1">
     <g id="line2d_1">
      <path d="M 70.553388 307.584 
L 70.553388 41.472 
" clip-path="url(#pdb58e446ae)" style="fill: none; stroke: #b0b0b0; stroke-width: 0.8; stroke-linecap: square"/>
     </g>
     <g id="line2d_2">
      <defs>
       <path id="mafac2c9dfe" d="M 0 0 
L 0 3.5 
" style="stroke: #000000; stroke-width: 0.8"/>
      </defs>
      <g>
       <use xlink:href="#mafac2c9dfe" x="70.553388" y="307.584" style="stroke: #000000; stroke-width: 0.8"/>
      </g>
     </g>
     <g id="text_1">
      <!-- 0 -->
      <g transform="translate(67.372138 322.182437)scale(0.1 -0.1)">
       <defs>
        <path id="DejaVuSans-30" d="M 2034 4250 
Q 1547 4250 1301 3770 
Q 1056 3291 1056 2328 
Q 1056 1369 1301 889 
Q 1547 409 2034 409 
Q 2525 409 2770 889 
Q 3016 1369 3016 2328 
Q 3016 3291 2770 3770 
Q 2525 4250 2034 4250 
z
M 2034 4750 
Q 2819 4750 3233 4129 
Q 3647 3509 3647 2328 
Q 3647 1150 3233 529 
Q 2819 -91 2034 -91 
Q 1250 -91 836 529 
Q 422 1150 422 2328 
Q 422 3509 836 4129 
Q 1250 4750 2034 4750 
z
" transform="scale(0.015625)"/>
       </defs>
       <use xlink:href="#DejaVuSans-30"/>
      </g>
     </g>
    </g>
    <g id="xtick_2">
     <g id="line2d_3">
      <path d="M 136.140165 307.584 
L 136.140165 41.472 
" clip-path="url(#pdb58e446ae)" style="fill: none; stroke: #b0b0b0; stroke-width: 0.8; stroke-linecap: square"/>
     </g>
     <g id="line2d_4">
      <g>
       <use xlink:href="#mafac2c9dfe" x="136.140165" y="307.584" style="stroke: #000000; stroke-width: 0.8"/>
      </g>
     </g>
     <g id="text_2">
      <!-- 2 -->
      <g transform="translate(132.958915 322.182437)scale(0.1 -0.1)">
       <defs>
        <path id="DejaVuSans-32" d="M 1228 531 
L 3431 531 
L 3431 0 
L 469 0 
L 469 531 
Q 828 903 1448 1529 
Q 2069 2156 2228 2338 
Q 2531 2678 2651 2914 
Q 2772 3150 2772 3378 
Q 2772 3750 2511 3984 
Q 2250 4219 1831 4219 
Q 1534 4219 1204 4116 
Q 875 4013 500 3803 
L 500 4441 
Q 881 4594 1212 4672 
Q 1544 4750 1819 4750 
Q 2544 4750 2975 4387 
Q 3406 4025 3406 3419 
Q 3406 3131 3298 2873 
Q 3191 2616 2906 2266 
Q 2828 2175 2409 1742 
Q 1991 1309 1228 531 
z
" transform="scale(0.015625)"/>
       </defs>
       <use xlink:href="#DejaVuSans-32"/>
      </g>
     </g>
    </g>
    <g id="xtick_3">
     <g id="line2d_5">
      <path d="M 201.726942 307.584 
L 201.726942 41.472 
" clip-path="url(#pdb58e446ae)" style="fill: none; stroke: #b0b0b0; stroke-width: 0.8; stroke-linecap: square"/>
     </g>
     <g id="line2d_6">
      <g>
       <use xlink:href="#mafac2c9dfe" x="201.726942" y="307.584" style="stroke: #000000; stroke-width: 0.8"/>
      </g>
     </g>
     <g id="text_3">
      <!-- 4 -->
      <g transform="translate(198.545692 322.182437)scale(0.1 -0.1)">
       <defs>
        <path id="DejaVuSans-34" d="M 2419 4116 
L 825 1625 
L 2419 1625 
L 2419 4116 
z
M 2253 4666 
L 3047 4666 
L 3047 1625 
L 3713 1625 
L 3713 1100 
L 3047 1100 
L 3047 0 
L 2419 0 
L 2419 1100 
L 313 1100 
L 313 1709 
L 2253 4666 
z
" transform="scale(0.015625)"/>
       </defs>
       <use xlink:href="#DejaVuSans-34"/>
      </g>
     </g>
    </g>
    <g id="xtick_4">
     <g id="line2d_7">
      <path d="M 267.313719 307.584 
L 267.313719 41.472 
" clip-path="url(#pdb58e446ae)" style="fill: none; stroke: #b0b0b0; stroke-width: 0.8; stroke-linecap: square"/>
     </g>
     <g id="line2d_8">
      <g>
       <use xlink:href="#mafac2c9dfe" x="267.313719" y="307.584" style="stroke: #000000; stroke-width: 0.8"/>
      </g>
     </g>
     <g id="text_4">
      <!-- 6 -->
      <g transform="translate(264.132469 322.182437)scale(0.1 -0.1)">
       <defs>
        <path id="DejaVuSans-36" d="M 2113 2584 
Q 1688 2584 1439 2293 
Q 1191 2003 1191 1497 
Q 1191 994 1439 701 
Q 1688 409 2113 409 
Q 2538 409 2786 701 
Q 3034 994 3034 1497 
Q 3034 2003 2786 2293 
Q 2538 2584 2113 2584 
z
M 3366 4563 
L 3366 3988 
Q 3128 4100 2886 4159 
Q 2644 4219 2406 4219 
Q 1781 4219 1451 3797 
Q 1122 3375 1075 2522 
Q 1259 2794 1537 2939 
Q 1816 3084 2150 3084 
Q 2853 3084 3261 2657 
Q 3669 2231 3669 1497 
Q 3669 778 3244 343 
Q 2819 -91 2113 -91 
Q 1303 -91 875 529 
Q 447 1150 447 2328 
Q 447 3434 972 4092 
Q 1497 4750 2381 4750 
Q 2619 4750 2861 4703 
Q 3103 4656 3366 4563 
z
" transform="scale(0.015625)"/>
       </defs>
       <use xlink:href="#DejaVuSans-36"/>
      </g>
     </g>
    </g>
    <g id="xtick_5">
     <g id="line2d_9">
      <path d="M 332.900496 307.584 
L 332.900496 41.472 
" clip-path="url(#pdb58e446ae)" style="fill: none; stroke: #b0b0b0; stroke-width: 0.8; stroke-linecap: square"/>
     </g>
     <g id="line2d_10">
      <g>
       <use xlink:href="#mafac2c9dfe" x="332.900496" y="307.584" style="stroke: #000000; stroke-width: 0.8"/>
      </g>
     </g>
     <g id="text_5">
      <!-- 8 -->
      <g transform="translate(329.719246 322.182437)scale(0.1 -0.1)">
       <defs>
        <path id="DejaVuSans-38" d="M 2034 2216 
Q 1584 2216 1326 1975 
Q 1069 1734 1069 1313 
Q 1069 891 1326 650 
Q 1584 409 2034 409 
Q 2484 409 2743 651 
Q 3003 894 3003 1313 
Q 3003 1734 2745 1975 
Q 2488 2216 2034 2216 
z
M 1403 2484 
Q 997 2584 770 2862 
Q 544 3141 544 3541 
Q 544 4100 942 4425 
Q 1341 4750 2034 4750 
Q 2731 4750 3128 4425 
Q 3525 4100 3525 3541 
Q 3525 3141 3298 2862 
Q 3072 2584 2669 2484 
Q 3125 2378 3379 2068 
Q 3634 1759 3634 1313 
Q 3634 634 3220 271 
Q 2806 -91 2034 -91 
Q 1263 -91 848 271 
Q 434 634 434 1313 
Q 434 1759 690 2068 
Q 947 2378 1403 2484 
z
M 1172 3481 
Q 1172 3119 1398 2916 
Q 1625 2713 2034 2713 
Q 2441 2713 2670 2916 
Q 2900 3119 2900 3481 
Q 2900 3844 2670 4047 
Q 2441 4250 2034 4250 
Q 1625 4250 1398 4047 
Q 1172 3844 1172 3481 
z
" transform="scale(0.015625)"/>
       </defs>
       <use xlink:href="#DejaVuSans-38"/>
      </g>
     </g>
    </g>
    <g id="xtick_6">
     <g id="line2d_11">
      <path d="M 398.487273 307.584 
L 398.487273 41.472 
" clip-path="url(#pdb58e446ae)" style="fill: none; stroke: #b0b0b0; stroke-width: 0.8; stroke-linecap: square"/>
     </g>
     <g id="line2d_12">
      <g>
       <use xlink:href="#mafac2c9dfe" x="398.487273" y="307.584" style="stroke: #000000; stroke-width: 0.8"/>
      </g>
     </g>
     <g id="text_6">
      <!-- 10 -->
      <g transform="translate(392.124773 322.182437)scale(0.1 -0.1)">
       <defs>
        <path id="DejaVuSans-31" d="M 794 531 
L 1825 531 
L 1825 4091 
L 703 3866 
L 703 4441 
L 1819 4666 
L 2450 4666 
L 2450 531 
L 3481 531 
L 3481 0 
L 794 0 
L 794 531 
z
" transform="scale(0.015625)"/>
       </defs>
       <use xlink:href="#DejaVuSans-31"/>
       <use xlink:href="#DejaVuSans-30" x="63.623047"/>
      </g>
     </g>
    </g>
    <g id="text_7">
     <!-- U -->
     <g transform="translate(232.500625 335.860562)scale(0.1 -0.1)">
      <defs>
       <path id="DejaVuSans-55" d="M 556 4666 
L 1191 4666 
L 1191 1831 
Q 1191 1081 1462 751 
Q 1734 422 2344 422 
Q 2950 422 3222 751 
Q 3494 1081 3494 1831 
L 3494 4666 
L 4128 4666 
L 4128 1753 
Q 4128 841 3676 375 
Q 3225 -91 2344 -91 
Q 1459 -91 1007 375 
Q 556 841 556 1753 
L 556 4666 
z
" transform="scale(0.015625)"/>
      </defs>
      <use xlink:href="#DejaVuSans-55"/>
     </g>
    </g>
   </g>
   <g id="matplotlib.axis_2">
    <g id="ytick_1">
     <g id="line2d_13">
      <path d="M 57.6 295.488 
L 414.72 295.488 
" clip-path="url(#pdb58e446ae)" style="fill: none; stroke: #b0b0b0; stroke-width: 0.8; stroke-linecap: square"/>
     </g>
     <g id="line2d_14">
      <defs>
       <path id="maf6dc14774" d="M 0 0 
L -3.5 0 
" style="stroke: #000000; stroke-width: 0.8"/>
      </defs>
      <g>
       <use xlink:href="#maf6dc14774" x="57.6" y="295.488" style="stroke: #000000; stroke-width: 0.8"/>
      </g>
     </g>
     <g id="text_8">
      <!-- 0.0 -->
      <g transform="translate(34.696875 299.287219)scale(0.1 -0.1)">
       <defs>
        <path id="DejaVuSans-2e" d="M 684 794 
L 1344 794 
L 1344 0 
L 684 0 
L 684 794 
z
" transform="scale(0.015625)"/>
       </defs>
       <use xlink:href="#DejaVuSans-30"/>
       <use xlink:href="#DejaVuSans-2e" x="63.623047"/>
       <use xlink:href="#DejaVuSans-30" x="95.410156"/>
      </g>
     </g>
    </g>
    <g id="ytick_2">
     <g id="line2d_15">
      <path d="M 57.6 247.104 
L 414.72 247.104 
" clip-path="url(#pdb58e446ae)" style="fill: none; stroke: #b0b0b0; stroke-width: 0.8; stroke-linecap: square"/>
     </g>
     <g id="line2d_16">
      <g>
       <use xlink:href="#maf6dc14774" x="57.6" y="247.104" style="stroke: #000000; stroke-width: 0.8"/>
      </g>
     </g>
     <g id="text_9">
      <!-- 0.2 -->
      <g transform="translate(34.696875 250.903219)scale(0.1 -0.1)">
       <use xlink:href="#DejaVuSans-30"/>
       <use xlink:href="#DejaVuSans-2e" x="63.623047"/>
       <use xlink:href="#DejaVuSans-32" x="95.410156"/>
      </g>
     </g>
    </g>
    <g id="ytick_3">
     <g id="line2d_17">
      <path d="M 57.6 198.72 
L 414.72 198.72 
" clip-path="url(#pdb58e446ae)" style="fill: none; stroke: #b0b0b0; stroke-width: 0.8; stroke-linecap: square"/>
     </g>
     <g id="line2d_18">
      <g>
       <use xlink:href="#maf6dc14774" x="57.6" y="198.72" style="stroke: #000000; stroke-width: 0.8"/>
      </g>
     </g>
     <g id="text_10">
      <!-- 0.4 -->
      <g transform="translate(34.696875 202.519219)scale(0.1 -0.1)">
       <use xlink:href="#DejaVuSans-30"/>
       <use xlink:href="#DejaVuSans-2e" x="63.623047"/>
       <use xlink:href="#DejaVuSans-34" x="95.410156"/>
      </g>
     </g>
    </g>
    <g id="ytick_4">
     <g id="line2d_19">
      <path d="M 57.6 150.336 
L 414.72 150.336 
" clip-path="url(#pdb58e446ae)" style="fill: none; stroke: #b0b0b0; stroke-width: 0.8; stroke-linecap: square"/>
     </g>
     <g id="line2d_20">
      <g>
       <use xlink:href="#maf6dc14774" x="57.6" y="150.336" style="stroke: #000000; stroke-width: 0.8"/>
      </g>
     </g>
     <g id="text_11">
      <!-- 0.6 -->
      <g transform="translate(34.696875 154.135219)scale(0.1 -0.1)">
       <use xlink:href="#DejaVuSans-30"/>
       <use xlink:href="#DejaVuSans-2e" x="63.623047"/>
       <use xlink:href="#DejaVuSans-36" x="95.410156"/>
      </g>
     </g>
    </g>
    <g id="ytick_5">
     <g id="line2d_21">
      <path d="M 57.6 101.952 
L 414.72 101.952 
" clip-path="url(#pdb58e446ae)" style="fill: none; stroke: #b0b0b0; stroke-width: 0.8; stroke-linecap: square"/>
     </g>
     <g id="line2d_22">
      <g>
       <use xlink:href="#maf6dc14774" x="57.6" y="101.952" style="stroke: #000000; stroke-width: 0.8"/>
      </g>
     </g>
     <g id="text_12">
      <!-- 0.8 -->
      <g transform="translate(34.696875 105.751219)scale(0.1 -0.1)">
       <use xlink:href="#DejaVuSans-30"/>
       <use xlink:href="#DejaVuSans-2e" x="63.623047"/>
       <use xlink:href="#DejaVuSans-38" x="95.410156"/>
      </g>
     </g>
    </g>
    <g id="ytick_6">
     <g id="line2d_23">
      <path d="M 57.6 53.568 
L 414.72 53.568 
" clip-path="url(#pdb58e446ae)" style="fill: none; stroke: #b0b0b0; stroke-width: 0.8; stroke-linecap: square"/>
     </g>
     <g id="line2d_24">
      <g>
       <use xlink:href="#maf6dc14774" x="57.6" y="53.568" style="stroke: #000000; stroke-width: 0.8"/>
      </g>
     </g>
     <g id="text_13">
      <!-- 1.0 -->
      <g transform="translate(34.696875 57.367219)scale(0.1 -0.1)">
       <use xlink:href="#DejaVuSans-31"/>
       <use xlink:href="#DejaVuSans-2e" x="63.623047"/>
       <use xlink:href="#DejaVuSans-30" x="95.410156"/>
      </g>
     </g>
    </g>
    <g id="text_14">
     <!-- $\Delta$ -->
     <g transform="translate(28.617188 177.978)rotate(-90)scale(0.1 -0.1)">
      <defs>
       <path id="DejaVuSans-394" d="M 2188 4044 
L 906 525 
L 3472 525 
L 2188 4044 
z
M 50 0 
L 1831 4666 
L 2547 4666 
L 4325 0 
L 50 0 
z
" transform="scale(0.015625)"/>
      </defs>
      <use xlink:href="#DejaVuSans-394" transform="translate(0 0.09375)"/>
     </g>
    </g>
   </g>
   <g id="line2d_25">
    <path d="M 73.832727 53.568 
L 82.157203 53.568 
L 90.481678 53.568 
L 98.806154 53.568 
L 107.130629 53.568 
L 115.455105 53.568 
L 123.77958 53.568 
L 132.104056 55.724813 
L 140.428531 295.488 
L 148.753007 295.488 
L 157.077483 295.488 
L 165.401958 295.488 
L 173.726434 295.488 
L 182.050909 295.488 
L 190.375385 295.488 
L 198.69986 295.488 
L 207.024336 295.488 
L 215.348811 295.487994 
L 223.673287 295.488 
L 231.997762 295.488 
L 240.322238 295.488 
L 248.646713 295.488 
L 256.971189 295.488 
L 265.295664 295.488 
L 273.62014 295.488 
L 281.944615 295.488 
L 290.269091 295.488 
L 298.593566 295.488 
L 306.918042 295.488 
L 315.242517 295.488 
L 323.566993 295.488 
L 331.891469 295.488 
L 340.215944 295.48799 
L 348.54042 295.488 
L 356.864895 295.488 
L 365.189371 295.488 
L 373.513846 295.488 
L 381.838322 295.488 
L 390.162797 295.488 
L 398.487273 295.488 
" clip-path="url(#pdb58e446ae)" style="fill: none; stroke: #1f77b4; stroke-width: 1.5; stroke-linecap: square"/>
    <defs>
     <path id="mba307b6064" d="M 0 2 
C 0.530406 2 1.03916 1.789267 1.414214 1.414214 
C 1.789267 1.03916 2 0.530406 2 0 
C 2 -0.530406 1.789267 -1.03916 1.414214 -1.414214 
C 1.03916 -1.789267 0.530406 -2 0 -2 
C -0.530406 -2 -1.03916 -1.789267 -1.414214 -1.414214 
C -1.789267 -1.03916 -2 -0.530406 -2 0 
C -2 0.530406 -1.789267 1.03916 -1.414214 1.414214 
C -1.03916 1.789267 -0.530406 2 0 2 
z
" style="stroke: #1f77b4"/>
    </defs>
    <g clip-path="url(#pdb58e446ae)">
     <use xlink:href="#mba307b6064" x="73.832727" y="53.568" style="fill: #1f77b4; stroke: #1f77b4"/>
     <use xlink:href="#mba307b6064" x="82.157203" y="53.568" style="fill: #1f77b4; stroke: #1f77b4"/>
     <use xlink:href="#mba307b6064" x="90.481678" y="53.568" style="fill: #1f77b4; stroke: #1f77b4"/>
     <use xlink:href="#mba307b6064" x="98.806154" y="53.568" style="fill: #1f77b4; stroke: #1f77b4"/>
     <use xlink:href="#mba307b6064" x="107.130629" y="53.568" style="fill: #1f77b4; stroke: #1f77b4"/>
     <use xlink:href="#mba307b6064" x="115.455105" y="53.568" style="fill: #1f77b4; stroke: #1f77b4"/>
     <use xlink:href="#mba307b6064" x="123.77958" y="53.568" style="fill: #1f77b4; stroke: #1f77b4"/>
     <use xlink:href="#mba307b6064" x="132.104056" y="55.724813" style="fill: #1f77b4; stroke: #1f77b4"/>
     <use xlink:href="#mba307b6064" x="140.428531" y="295.488" style="fill: #1f77b4; stroke: #1f77b4"/>
     <use xlink:href="#mba307b6064" x="148.753007" y="295.488" style="fill: #1f77b4; stroke: #1f77b4"/>
     <use xlink:href="#mba307b6064" x="157.077483" y="295.488" style="fill: #1f77b4; stroke: #1f77b4"/>
     <use xlink:href="#mba307b6064" x="165.401958" y="295.488" style="fill: #1f77b4; stroke: #1f77b4"/>
     <use xlink:href="#mba307b6064" x="173.726434" y="295.488" style="fill: #1f77b4; stroke: #1f77b4"/>
     <use xlink:href="#mba307b6064" x="182.050909" y="295.488" style="fill: #1f77b4; stroke: #1f77b4"/>
     <use xlink:href="#mba307b6064" x="190.375385" y="295.488" style="fill: #1f77b4; stroke: #1f77b4"/>
     <use xlink:href="#mba307b6064" x="198.69986" y="295.488" style="fill: #1f77b4; stroke: #1f77b4"/>
     <use xlink:href="#mba307b6064" x="207.024336" y="295.488" style="fill: #1f77b4; stroke: #1f77b4"/>
     <use xlink:href="#mba307b6064" x="215.348811" y="295.487994" style="fill: #1f77b4; stroke: #1f77b4"/>
     <use xlink:href="#mba307b6064" x="223.673287" y="295.488" style="fill: #1f77b4; stroke: #1f77b4"/>
     <use xlink:href="#mba307b6064" x="231.997762" y="295.488" style="fill: #1f77b4; stroke: #1f77b4"/>
     <use xlink:href="#mba307b6064" x="240.322238" y="295.488" style="fill: #1f77b4; stroke: #1f77b4"/>
     <use xlink:href="#mba307b6064" x="248.646713" y="295.488" style="fill: #1f77b4; stroke: #1f77b4"/>
     <use xlink:href="#mba307b6064" x="256.971189" y="295.488" style="fill: #1f77b4; stroke: #1f77b4"/>
     <use xlink:href="#mba307b6064" x="265.295664" y="295.488" style="fill: #1f77b4; stroke: #1f77b4"/>
     <use xlink:href="#mba307b6064" x="273.62014" y="295.488" style="fill: #1f77b4; stroke: #1f77b4"/>
     <use xlink:href="#mba307b6064" x="281.944615" y="295.488" style="fill: #1f77b4; stroke: #1f77b4"/>
     <use xlink:href="#mba307b6064" x="290.269091" y="295.488" style="fill: #1f77b4; stroke: #1f77b4"/>
     <use xlink:href="#mba307b6064" x="298.593566" y="295.488" style="fill: #1f77b4; stroke: #1f77b4"/>
     <use xlink:href="#mba307b6064" x="306.918042" y="295.488" style="fill: #1f77b4; stroke: #1f77b4"/>
     <use xlink:href="#mba307b6064" x="315.242517" y="295.488" style="fill: #1f77b4; stroke: #1f77b4"/>
     <use xlink:href="#mba307b6064" x="323.566993" y="295.488" style="fill: #1f77b4; stroke: #1f77b4"/>
     <use xlink:href="#mba307b6064" x="331.891469" y="295.488" style="fill: #1f77b4; stroke: #1f77b4"/>
     <use xlink:href="#mba307b6064" x="340.215944" y="295.48799" style="fill: #1f77b4; stroke: #1f77b4"/>
     <use xlink:href="#mba307b6064" x="348.54042" y="295.488" style="fill: #1f77b4; stroke: #1f77b4"/>
     <use xlink:href="#mba307b6064" x="356.864895" y="295.488" style="fill: #1f77b4; stroke: #1f77b4"/>
     <use xlink:href="#mba307b6064" x="365.189371" y="295.488" style="fill: #1f77b4; stroke: #1f77b4"/>
     <use xlink:href="#mba307b6064" x="373.513846" y="295.488" style="fill: #1f77b4; stroke: #1f77b4"/>
     <use xlink:href="#mba307b6064" x="381.838322" y="295.488" style="fill: #1f77b4; stroke: #1f77b4"/>
     <use xlink:href="#mba307b6064" x="390.162797" y="295.488" style="fill: #1f77b4; stroke: #1f77b4"/>
     <use xlink:href="#mba307b6064" x="398.487273" y="295.488" style="fill: #1f77b4; stroke: #1f77b4"/>
    </g>
   </g>
   <g id="line2d_26">
    <path d="M 73.832727 295.487889 
L 82.157203 295.488 
L 90.481678 295.488 
L 98.806154 295.488 
L 107.130629 295.488 
L 115.455105 295.488 
L 123.77958 295.488 
L 132.104056 263.255607 
L 140.428531 246.482684 
L 148.753007 240.050514 
L 157.077483 234.303805 
L 165.401958 229.109649 
L 173.726434 224.456625 
L 182.050909 220.295365 
L 190.375385 216.559805 
L 198.69986 213.122443 
L 207.024336 210.098029 
L 215.348811 207.378244 
L 223.673287 204.928521 
L 231.997762 202.718191 
L 240.322238 200.720158 
L 248.646713 198.910571 
L 256.971189 197.268444 
L 265.295664 195.775351 
L 273.62014 194.415081 
L 281.944615 193.173401 
L 290.269091 192.037787 
L 298.593566 190.997199 
L 306.918042 190.041914 
L 315.242517 189.211707 
L 323.566993 188.3977 
L 331.891469 187.646423 
L 340.215944 186.951906 
L 348.54042 186.30884 
L 356.864895 185.712486 
L 365.189371 185.158619 
L 373.513846 184.64345 
L 381.838322 184.163595 
L 390.162797 183.716008 
L 398.487273 183.297959 
" clip-path="url(#pdb58e446ae)" style="fill: none; stroke: #ff7f0e; stroke-width: 1.5; stroke-linecap: square"/>
    <defs>
     <path id="m42a9896a32" d="M 0 2 
C 0.530406 2 1.03916 1.789267 1.414214 1.414214 
C 1.789267 1.03916 2 0.530406 2 0 
C 2 -0.530406 1.789267 -1.03916 1.414214 -1.414214 
C 1.03916 -1.789267 0.530406 -2 0 -2 
C -0.530406 -2 -1.03916 -1.789267 -1.414214 -1.414214 
C -1.789267 -1.03916 -2 -0.530406 -2 0 
C -2 0.530406 -1.789267 1.03916 -1.414214 1.414214 
C -1.03916 1.789267 -0.530406 2 0 2 
z
" style="stroke: #ff7f0e"/>
    </defs>
    <g clip-path="url(#pdb58e446ae)">
     <use xlink:href="#m42a9896a32" x="73.832727" y="295.487889" style="fill: #ff7f0e; stroke: #ff7f0e"/>
     <use xlink:href="#m42a9896a32" x="82.157203" y="295.488" style="fill: #ff7f0e; stroke: #ff7f0e"/>
     <use xlink:href="#m42a9896a32" x="90.481678" y="295.488" style="fill: #ff7f0e; stroke: #ff7f0e"/>
     <use xlink:href="#m42a9896a32" x="98.806154" y="295.488" style="fill: #ff7f0e; stroke: #ff7f0e"/>
     <use xlink:href="#m42a9896a32" x="107.130629" y="295.488" style="fill: #ff7f0e; stroke: #ff7f0e"/>
     <use xlink:href="#m42a9896a32" x="115.455105" y="295.488" style="fill: #ff7f0e; stroke: #ff7f0e"/>
     <use xlink:href="#m42a9896a32" x="123.77958" y="295.488" style="fill: #ff7f0e; stroke: #ff7f0e"/>
     <use xlink:href="#m42a9896a32" x="132.104056" y="263.255607" style="fill: #ff7f0e; stroke: #ff7f0e"/>
     <use xlink:href="#m42a9896a32" x="140.428531" y="246.482684" style="fill: #ff7f0e; stroke: #ff7f0e"/>
     <use xlink:href="#m42a9896a32" x="148.753007" y="240.050514" style="fill: #ff7f0e; stroke: #ff7f0e"/>
     <use xlink:href="#m42a9896a32" x="157.077483" y="234.303805" style="fill: #ff7f0e; stroke: #ff7f0e"/>
     <use xlink:href="#m42a9896a32" x="165.401958" y="229.109649" style="fill: #ff7f0e; stroke: #ff7f0e"/>
     <use xlink:href="#m42a9896a32" x="173.726434" y="224.456625" style="fill: #ff7f0e; stroke: #ff7f0e"/>
     <use xlink:href="#m42a9896a32" x="182.050909" y="220.295365" style="fill: #ff7f0e; stroke: #ff7f0e"/>
     <use xlink:href="#m42a9896a32" x="190.375385" y="216.559805" style="fill: #ff7f0e; stroke: #ff7f0e"/>
     <use xlink:href="#m42a9896a32" x="198.69986" y="213.122443" style="fill: #ff7f0e; stroke: #ff7f0e"/>
     <use xlink:href="#m42a9896a32" x="207.024336" y="210.098029" style="fill: #ff7f0e; stroke: #ff7f0e"/>
     <use xlink:href="#m42a9896a32" x="215.348811" y="207.378244" style="fill: #ff7f0e; stroke: #ff7f0e"/>
     <use xlink:href="#m42a9896a32" x="223.673287" y="204.928521" style="fill: #ff7f0e; stroke: #ff7f0e"/>
     <use xlink:href="#m42a9896a32" x="231.997762" y="202.718191" style="fill: #ff7f0e; stroke: #ff7f0e"/>
     <use xlink:href="#m42a9896a32" x="240.322238" y="200.720158" style="fill: #ff7f0e; stroke: #ff7f0e"/>
     <use xlink:href="#m42a9896a32" x="248.646713" y="198.910571" style="fill: #ff7f0e; stroke: #ff7f0e"/>
     <use xlink:href="#m42a9896a32" x="256.971189" y="197.268444" style="fill: #ff7f0e; stroke: #ff7f0e"/>
     <use xlink:href="#m42a9896a32" x="265.295664" y="195.775351" style="fill: #ff7f0e; stroke: #ff7f0e"/>
     <use xlink:href="#m42a9896a32" x="273.62014" y="194.415081" style="fill: #ff7f0e; stroke: #ff7f0e"/>
     <use xlink:href="#m42a9896a32" x="281.944615" y="193.173401" style="fill: #ff7f0e; stroke: #ff7f0e"/>
     <use xlink:href="#m42a9896a32" x="290.269091" y="192.037787" style="fill: #ff7f0e; stroke: #ff7f0e"/>
     <use xlink:href="#m42a9896a32" x="298.593566" y="190.997199" style="fill: #ff7f0e; stroke: #ff7f0e"/>
     <use xlink:href="#m42a9896a32" x="306.918042" y="190.041914" style="fill: #ff7f0e; stroke: #ff7f0e"/>
     <use xlink:href="#m42a9896a32" x="315.242517" y="189.211707" style="fill: #ff7f0e; stroke: #ff7f0e"/>
     <use xlink:href="#m42a9896a32" x="323.566993" y="188.3977" style="fill: #ff7f0e; stroke: #ff7f0e"/>
     <use xlink:href="#m42a9896a32" x="331.891469" y="187.646423" style="fill: #ff7f0e; stroke: #ff7f0e"/>
     <use xlink:href="#m42a9896a32" x="340.215944" y="186.951906" style="fill: #ff7f0e; stroke: #ff7f0e"/>
     <use xlink:href="#m42a9896a32" x="348.54042" y="186.30884" style="fill: #ff7f0e; stroke: #ff7f0e"/>
     <use xlink:href="#m42a9896a32" x="356.864895" y="185.712486" style="fill: #ff7f0e; stroke: #ff7f0e"/>
     <use xlink:href="#m42a9896a32" x="365.189371" y="185.158619" style="fill: #ff7f0e; stroke: #ff7f0e"/>
     <use xlink:href="#m42a9896a32" x="373.513846" y="184.64345" style="fill: #ff7f0e; stroke: #ff7f0e"/>
     <use xlink:href="#m42a9896a32" x="381.838322" y="184.163595" style="fill: #ff7f0e; stroke: #ff7f0e"/>
     <use xlink:href="#m42a9896a32" x="390.162797" y="183.716008" style="fill: #ff7f0e; stroke: #ff7f0e"/>
     <use xlink:href="#m42a9896a32" x="398.487273" y="183.297959" style="fill: #ff7f0e; stroke: #ff7f0e"/>
    </g>
   </g>
   <g id="patch_3">
    <path d="M 57.6 307.584 
L 57.6 41.472 
" style="fill: none; stroke: #000000; stroke-width: 0.8; stroke-linejoin: miter; stroke-linecap: square"/>
   </g>
   <g id="patch_4">
    <path d="M 414.72 307.584 
L 414.72 41.472 
" style="fill: none; stroke: #000000; stroke-width: 0.8; stroke-linejoin: miter; stroke-linecap: square"/>
   </g>
   <g id="patch_5">
    <path d="M 57.6 307.584 
L 414.72 307.584 
" style="fill: none; stroke: #000000; stroke-width: 0.8; stroke-linejoin: miter; stroke-linecap: square"/>
   </g>
   <g id="patch_6">
    <path d="M 57.6 41.472 
L 414.72 41.472 
" style="fill: none; stroke: #000000; stroke-width: 0.8; stroke-linejoin: miter; stroke-linecap: square"/>
   </g>
   <g id="text_15">
    <!-- J=2.0 -->
    <g transform="translate(219.820312 35.472)scale(0.12 -0.12)">
     <defs>
      <path id="DejaVuSans-4a" d="M 628 4666 
L 1259 4666 
L 1259 325 
Q 1259 -519 939 -900 
Q 619 -1281 -91 -1281 
L -331 -1281 
L -331 -750 
L -134 -750 
Q 284 -750 456 -515 
Q 628 -281 628 325 
L 628 4666 
z
" transform="scale(0.015625)"/>
      <path id="DejaVuSans-3d" d="M 678 2906 
L 4684 2906 
L 4684 2381 
L 678 2381 
L 678 2906 
z
M 678 1631 
L 4684 1631 
L 4684 1100 
L 678 1100 
L 678 1631 
z
" transform="scale(0.015625)"/>
     </defs>
     <use xlink:href="#DejaVuSans-4a"/>
     <use xlink:href="#DejaVuSans-3d" x="29.492188"/>
     <use xlink:href="#DejaVuSans-32" x="113.28125"/>
     <use xlink:href="#DejaVuSans-2e" x="176.904297"/>
     <use xlink:href="#DejaVuSans-30" x="208.691406"/>
    </g>
   </g>
   <g id="legend_1">
    <g id="patch_7">
     <path d="M 351.149688 78.82825 
L 407.72 78.82825 
Q 409.72 78.82825 409.72 76.82825 
L 409.72 48.472 
Q 409.72 46.472 407.72 46.472 
L 351.149688 46.472 
Q 349.149688 46.472 349.149688 48.472 
L 349.149688 76.82825 
Q 349.149688 78.82825 351.149688 78.82825 
z
" style="fill: #ffffff; opacity: 0.8; stroke: #cccccc; stroke-linejoin: miter"/>
    </g>
    <g id="line2d_27">
     <path d="M 353.149688 54.570437 
L 363.149688 54.570437 
L 373.149688 54.570437 
" style="fill: none; stroke: #1f77b4; stroke-width: 1.5; stroke-linecap: square"/>
     <g>
      <use xlink:href="#mba307b6064" x="363.149688" y="54.570437" style="fill: #1f77b4; stroke: #1f77b4"/>
     </g>
    </g>
    <g id="text_16">
     <!-- SC -->
     <g transform="translate(381.149688 58.070437)scale(0.1 -0.1)">
      <defs>
       <path id="DejaVuSans-53" d="M 3425 4513 
L 3425 3897 
Q 3066 4069 2747 4153 
Q 2428 4238 2131 4238 
Q 1616 4238 1336 4038 
Q 1056 3838 1056 3469 
Q 1056 3159 1242 3001 
Q 1428 2844 1947 2747 
L 2328 2669 
Q 3034 2534 3370 2195 
Q 3706 1856 3706 1288 
Q 3706 609 3251 259 
Q 2797 -91 1919 -91 
Q 1588 -91 1214 -16 
Q 841 59 441 206 
L 441 856 
Q 825 641 1194 531 
Q 1563 422 1919 422 
Q 2459 422 2753 634 
Q 3047 847 3047 1241 
Q 3047 1584 2836 1778 
Q 2625 1972 2144 2069 
L 1759 2144 
Q 1053 2284 737 2584 
Q 422 2884 422 3419 
Q 422 4038 858 4394 
Q 1294 4750 2059 4750 
Q 2388 4750 2728 4690 
Q 3069 4631 3425 4513 
z
" transform="scale(0.015625)"/>
       <path id="DejaVuSans-43" d="M 4122 4306 
L 4122 3641 
Q 3803 3938 3442 4084 
Q 3081 4231 2675 4231 
Q 1875 4231 1450 3742 
Q 1025 3253 1025 2328 
Q 1025 1406 1450 917 
Q 1875 428 2675 428 
Q 3081 428 3442 575 
Q 3803 722 4122 1019 
L 4122 359 
Q 3791 134 3420 21 
Q 3050 -91 2638 -91 
Q 1578 -91 968 557 
Q 359 1206 359 2328 
Q 359 3453 968 4101 
Q 1578 4750 2638 4750 
Q 3056 4750 3426 4639 
Q 3797 4528 4122 4306 
z
" transform="scale(0.015625)"/>
      </defs>
      <use xlink:href="#DejaVuSans-53"/>
      <use xlink:href="#DejaVuSans-43" x="63.476562"/>
     </g>
    </g>
    <g id="line2d_28">
     <path d="M 353.149688 69.248562 
L 363.149688 69.248562 
L 373.149688 69.248562 
" style="fill: none; stroke: #ff7f0e; stroke-width: 1.5; stroke-linecap: square"/>
     <g>
      <use xlink:href="#m42a9896a32" x="363.149688" y="69.248562" style="fill: #ff7f0e; stroke: #ff7f0e"/>
     </g>
    </g>
    <g id="text_17">
     <!-- CDW -->
     <g transform="translate(381.149688 72.748562)scale(0.1 -0.1)">
      <defs>
       <path id="DejaVuSans-44" d="M 1259 4147 
L 1259 519 
L 2022 519 
Q 2988 519 3436 956 
Q 3884 1394 3884 2338 
Q 3884 3275 3436 3711 
Q 2988 4147 2022 4147 
L 1259 4147 
z
M 628 4666 
L 1925 4666 
Q 3281 4666 3915 4102 
Q 4550 3538 4550 2338 
Q 4550 1131 3912 565 
Q 3275 0 1925 0 
L 628 0 
L 628 4666 
z
" transform="scale(0.015625)"/>
       <path id="DejaVuSans-57" d="M 213 4666 
L 850 4666 
L 1831 722 
L 2809 4666 
L 3519 4666 
L 4500 722 
L 5478 4666 
L 6119 4666 
L 4947 0 
L 4153 0 
L 3169 4050 
L 2175 0 
L 1381 0 
L 213 4666 
z
" transform="scale(0.015625)"/>
      </defs>
      <use xlink:href="#DejaVuSans-43"/>
      <use xlink:href="#DejaVuSans-44" x="69.824219"/>
      <use xlink:href="#DejaVuSans-57" x="146.826172"/>
     </g>
    </g>
   </g>
  </g>
 </g>
 <defs>
  <clipPath id="pdb58e446ae">
   <rect x="57.6" y="41.472" width="357.12" height="266.112"/>
  </clipPath>
 </defs>
</svg>
