<?xml version="1.0" encoding="utf-8" standalone="no"?>
<!DOCTYPE svg PUBLIC "-//W3C//DTD SVG 1.1//EN"
  "http://www.w3.org/Graphics/SVG/1.1/DTD/svg11.dtd">
<svg xmlns:xlink="http://www.w3.org/1999/xlink" width="460.8pt" height="345.6pt" viewBox="0 0 460.8 345.6" xmlns="http://www.w3.org/2000/svg" version="1.1">
 <metadata>
  <rdf:RDF xmlns:dc="http://purl.org/dc/elements/1.1/" xmlns:cc="http://creativecommons.org/ns#" xmlns:rdf="http://www.w3.org/1999/02/22-rdf-syntax-ns#">
   <cc:Work>
    <dc:type rdf:resource="http://purl.org/dc/dcmitype/StillImage"/>
    <dc:date>2024-03-06T16:32:43.918964</dc:date>
    <dc:format>image/svg+xml</dc:format>
    <dc:creator>
     <cc:Agent>
      <dc:title>Matplotlib v3.5.3, https://matplotlib.org/</dc:title>
     </cc:Agent>
    </dc:creator>
   </cc:Work>
  </rdf:RDF>
 </metadata>
 <defs>
  <style type="text/css">*{stroke-linejoin: round; stroke-linecap: butt}</style>
 </defs>
 <g id="figure_1">
  <g id="patch_1">
   <path d="M 0 345.6 
L 460.8 345.6 
L 460.8 0 
L 0 0 
z
" style="fill: #ffffff"/>
  </g>
  <g id="axes_1">
   <g id="patch_2">
    <path d="M 57.6 307.584 
L 414.72 307.584 
L 414.72 41.472 
L 57.6 41.472 
z
" style="fill: #ffffff"/>
   </g>
   <g id="matplotlib.axis_1">
    <g id="xtick_1">
     <g id="line2d_1">
      <path d="M 70.553388 307.584 
L 70.553388 41.472 
" clip-path="url(#p19ddd03a0f)" style="fill: none; stroke: #b0b0b0; stroke-width: 0.8; stroke-linecap: square"/>
     </g>
     <g id="line2d_2">
      <defs>
       <path id="m1bbd30405e" d="M 0 0 
L 0 3.5 
" style="stroke: #000000; stroke-width: 0.8"/>
      </defs>
      <g>
       <use xlink:href="#m1bbd30405e" x="70.553388" y="307.584" style="stroke: #000000; stroke-width: 0.8"/>
      </g>
     </g>
     <g id="text_1">
      <!-- 0 -->
      <g transform="translate(67.372138 322.182437)scale(0.1 -0.1)">
       <defs>
        <path id="DejaVuSans-30" d="M 2034 4250 
Q 1547 4250 1301 3770 
Q 1056 3291 1056 2328 
Q 1056 1369 1301 889 
Q 1547 409 2034 409 
Q 2525 409 2770 889 
Q 3016 1369 3016 2328 
Q 3016 3291 2770 3770 
Q 2525 4250 2034 4250 
z
M 2034 4750 
Q 2819 4750 3233 4129 
Q 3647 3509 3647 2328 
Q 3647 1150 3233 529 
Q 2819 -91 2034 -91 
Q 1250 -91 836 529 
Q 422 1150 422 2328 
Q 422 3509 836 4129 
Q 1250 4750 2034 4750 
z
" transform="scale(0.015625)"/>
       </defs>
       <use xlink:href="#DejaVuSans-30"/>
      </g>
     </g>
    </g>
    <g id="xtick_2">
     <g id="line2d_3">
      <path d="M 136.140165 307.584 
L 136.140165 41.472 
" clip-path="url(#p19ddd03a0f)" style="fill: none; stroke: #b0b0b0; stroke-width: 0.8; stroke-linecap: square"/>
     </g>
     <g id="line2d_4">
      <g>
       <use xlink:href="#m1bbd30405e" x="136.140165" y="307.584" style="stroke: #000000; stroke-width: 0.8"/>
      </g>
     </g>
     <g id="text_2">
      <!-- 2 -->
      <g transform="translate(132.958915 322.182437)scale(0.1 -0.1)">
       <defs>
        <path id="DejaVuSans-32" d="M 1228 531 
L 3431 531 
L 3431 0 
L 469 0 
L 469 531 
Q 828 903 1448 1529 
Q 2069 2156 2228 2338 
Q 2531 2678 2651 2914 
Q 2772 3150 2772 3378 
Q 2772 3750 2511 3984 
Q 2250 4219 1831 4219 
Q 1534 4219 1204 4116 
Q 875 4013 500 3803 
L 500 4441 
Q 881 4594 1212 4672 
Q 1544 4750 1819 4750 
Q 2544 4750 2975 4387 
Q 3406 4025 3406 3419 
Q 3406 3131 3298 2873 
Q 3191 2616 2906 2266 
Q 2828 2175 2409 1742 
Q 1991 1309 1228 531 
z
" transform="scale(0.015625)"/>
       </defs>
       <use xlink:href="#DejaVuSans-32"/>
      </g>
     </g>
    </g>
    <g id="xtick_3">
     <g id="line2d_5">
      <path d="M 201.726942 307.584 
L 201.726942 41.472 
" clip-path="url(#p19ddd03a0f)" style="fill: none; stroke: #b0b0b0; stroke-width: 0.8; stroke-linecap: square"/>
     </g>
     <g id="line2d_6">
      <g>
       <use xlink:href="#m1bbd30405e" x="201.726942" y="307.584" style="stroke: #000000; stroke-width: 0.8"/>
      </g>
     </g>
     <g id="text_3">
      <!-- 4 -->
      <g transform="translate(198.545692 322.182437)scale(0.1 -0.1)">
       <defs>
        <path id="DejaVuSans-34" d="M 2419 4116 
L 825 1625 
L 2419 1625 
L 2419 4116 
z
M 2253 4666 
L 3047 4666 
L 3047 1625 
L 3713 1625 
L 3713 1100 
L 3047 1100 
L 3047 0 
L 2419 0 
L 2419 1100 
L 313 1100 
L 313 1709 
L 2253 4666 
z
" transform="scale(0.015625)"/>
       </defs>
       <use xlink:href="#DejaVuSans-34"/>
      </g>
     </g>
    </g>
    <g id="xtick_4">
     <g id="line2d_7">
      <path d="M 267.313719 307.584 
L 267.313719 41.472 
" clip-path="url(#p19ddd03a0f)" style="fill: none; stroke: #b0b0b0; stroke-width: 0.8; stroke-linecap: square"/>
     </g>
     <g id="line2d_8">
      <g>
       <use xlink:href="#m1bbd30405e" x="267.313719" y="307.584" style="stroke: #000000; stroke-width: 0.8"/>
      </g>
     </g>
     <g id="text_4">
      <!-- 6 -->
      <g transform="translate(264.132469 322.182437)scale(0.1 -0.1)">
       <defs>
        <path id="DejaVuSans-36" d="M 2113 2584 
Q 1688 2584 1439 2293 
Q 1191 2003 1191 1497 
Q 1191 994 1439 701 
Q 1688 409 2113 409 
Q 2538 409 2786 701 
Q 3034 994 3034 1497 
Q 3034 2003 2786 2293 
Q 2538 2584 2113 2584 
z
M 3366 4563 
L 3366 3988 
Q 3128 4100 2886 4159 
Q 2644 4219 2406 4219 
Q 1781 4219 1451 3797 
Q 1122 3375 1075 2522 
Q 1259 2794 1537 2939 
Q 1816 3084 2150 3084 
Q 2853 3084 3261 2657 
Q 3669 2231 3669 1497 
Q 3669 778 3244 343 
Q 2819 -91 2113 -91 
Q 1303 -91 875 529 
Q 447 1150 447 2328 
Q 447 3434 972 4092 
Q 1497 4750 2381 4750 
Q 2619 4750 2861 4703 
Q 3103 4656 3366 4563 
z
" transform="scale(0.015625)"/>
       </defs>
       <use xlink:href="#DejaVuSans-36"/>
      </g>
     </g>
    </g>
    <g id="xtick_5">
     <g id="line2d_9">
      <path d="M 332.900496 307.584 
L 332.900496 41.472 
" clip-path="url(#p19ddd03a0f)" style="fill: none; stroke: #b0b0b0; stroke-width: 0.8; stroke-linecap: square"/>
     </g>
     <g id="line2d_10">
      <g>
       <use xlink:href="#m1bbd30405e" x="332.900496" y="307.584" style="stroke: #000000; stroke-width: 0.8"/>
      </g>
     </g>
     <g id="text_5">
      <!-- 8 -->
      <g transform="translate(329.719246 322.182437)scale(0.1 -0.1)">
       <defs>
        <path id="DejaVuSans-38" d="M 2034 2216 
Q 1584 2216 1326 1975 
Q 1069 1734 1069 1313 
Q 1069 891 1326 650 
Q 1584 409 2034 409 
Q 2484 409 2743 651 
Q 3003 894 3003 1313 
Q 3003 1734 2745 1975 
Q 2488 2216 2034 2216 
z
M 1403 2484 
Q 997 2584 770 2862 
Q 544 3141 544 3541 
Q 544 4100 942 4425 
Q 1341 4750 2034 4750 
Q 2731 4750 3128 4425 
Q 3525 4100 3525 3541 
Q 3525 3141 3298 2862 
Q 3072 2584 2669 2484 
Q 3125 2378 3379 2068 
Q 3634 1759 3634 1313 
Q 3634 634 3220 271 
Q 2806 -91 2034 -91 
Q 1263 -91 848 271 
Q 434 634 434 1313 
Q 434 1759 690 2068 
Q 947 2378 1403 2484 
z
M 1172 3481 
Q 1172 3119 1398 2916 
Q 1625 2713 2034 2713 
Q 2441 2713 2670 2916 
Q 2900 3119 2900 3481 
Q 2900 3844 2670 4047 
Q 2441 4250 2034 4250 
Q 1625 4250 1398 4047 
Q 1172 3844 1172 3481 
z
" transform="scale(0.015625)"/>
       </defs>
       <use xlink:href="#DejaVuSans-38"/>
      </g>
     </g>
    </g>
    <g id="xtick_6">
     <g id="line2d_11">
      <path d="M 398.487273 307.584 
L 398.487273 41.472 
" clip-path="url(#p19ddd03a0f)" style="fill: none; stroke: #b0b0b0; stroke-width: 0.8; stroke-linecap: square"/>
     </g>
     <g id="line2d_12">
      <g>
       <use xlink:href="#m1bbd30405e" x="398.487273" y="307.584" style="stroke: #000000; stroke-width: 0.8"/>
      </g>
     </g>
     <g id="text_6">
      <!-- 10 -->
      <g transform="translate(392.124773 322.182437)scale(0.1 -0.1)">
       <defs>
        <path id="DejaVuSans-31" d="M 794 531 
L 1825 531 
L 1825 4091 
L 703 3866 
L 703 4441 
L 1819 4666 
L 2450 4666 
L 2450 531 
L 3481 531 
L 3481 0 
L 794 0 
L 794 531 
z
" transform="scale(0.015625)"/>
       </defs>
       <use xlink:href="#DejaVuSans-31"/>
       <use xlink:href="#DejaVuSans-30" x="63.623047"/>
      </g>
     </g>
    </g>
    <g id="text_7">
     <!-- U -->
     <g transform="translate(232.500625 335.860562)scale(0.1 -0.1)">
      <defs>
       <path id="DejaVuSans-55" d="M 556 4666 
L 1191 4666 
L 1191 1831 
Q 1191 1081 1462 751 
Q 1734 422 2344 422 
Q 2950 422 3222 751 
Q 3494 1081 3494 1831 
L 3494 4666 
L 4128 4666 
L 4128 1753 
Q 4128 841 3676 375 
Q 3225 -91 2344 -91 
Q 1459 -91 1007 375 
Q 556 841 556 1753 
L 556 4666 
z
" transform="scale(0.015625)"/>
      </defs>
      <use xlink:href="#DejaVuSans-55"/>
     </g>
    </g>
   </g>
   <g id="matplotlib.axis_2">
    <g id="ytick_1">
     <g id="line2d_13">
      <path d="M 57.6 295.488 
L 414.72 295.488 
" clip-path="url(#p19ddd03a0f)" style="fill: none; stroke: #b0b0b0; stroke-width: 0.8; stroke-linecap: square"/>
     </g>
     <g id="line2d_14">
      <defs>
       <path id="m5da498cf61" d="M 0 0 
L -3.5 0 
" style="stroke: #000000; stroke-width: 0.8"/>
      </defs>
      <g>
       <use xlink:href="#m5da498cf61" x="57.6" y="295.488" style="stroke: #000000; stroke-width: 0.8"/>
      </g>
     </g>
     <g id="text_8">
      <!-- 0.0 -->
      <g transform="translate(34.696875 299.287219)scale(0.1 -0.1)">
       <defs>
        <path id="DejaVuSans-2e" d="M 684 794 
L 1344 794 
L 1344 0 
L 684 0 
L 684 794 
z
" transform="scale(0.015625)"/>
       </defs>
       <use xlink:href="#DejaVuSans-30"/>
       <use xlink:href="#DejaVuSans-2e" x="63.623047"/>
       <use xlink:href="#DejaVuSans-30" x="95.410156"/>
      </g>
     </g>
    </g>
    <g id="ytick_2">
     <g id="line2d_15">
      <path d="M 57.6 247.104 
L 414.72 247.104 
" clip-path="url(#p19ddd03a0f)" style="fill: none; stroke: #b0b0b0; stroke-width: 0.8; stroke-linecap: square"/>
     </g>
     <g id="line2d_16">
      <g>
       <use xlink:href="#m5da498cf61" x="57.6" y="247.104" style="stroke: #000000; stroke-width: 0.8"/>
      </g>
     </g>
     <g id="text_9">
      <!-- 0.2 -->
      <g transform="translate(34.696875 250.903219)scale(0.1 -0.1)">
       <use xlink:href="#DejaVuSans-30"/>
       <use xlink:href="#DejaVuSans-2e" x="63.623047"/>
       <use xlink:href="#DejaVuSans-32" x="95.410156"/>
      </g>
     </g>
    </g>
    <g id="ytick_3">
     <g id="line2d_17">
      <path d="M 57.6 198.72 
L 414.72 198.72 
" clip-path="url(#p19ddd03a0f)" style="fill: none; stroke: #b0b0b0; stroke-width: 0.8; stroke-linecap: square"/>
     </g>
     <g id="line2d_18">
      <g>
       <use xlink:href="#m5da498cf61" x="57.6" y="198.72" style="stroke: #000000; stroke-width: 0.8"/>
      </g>
     </g>
     <g id="text_10">
      <!-- 0.4 -->
      <g transform="translate(34.696875 202.519219)scale(0.1 -0.1)">
       <use xlink:href="#DejaVuSans-30"/>
       <use xlink:href="#DejaVuSans-2e" x="63.623047"/>
       <use xlink:href="#DejaVuSans-34" x="95.410156"/>
      </g>
     </g>
    </g>
    <g id="ytick_4">
     <g id="line2d_19">
      <path d="M 57.6 150.336 
L 414.72 150.336 
" clip-path="url(#p19ddd03a0f)" style="fill: none; stroke: #b0b0b0; stroke-width: 0.8; stroke-linecap: square"/>
     </g>
     <g id="line2d_20">
      <g>
       <use xlink:href="#m5da498cf61" x="57.6" y="150.336" style="stroke: #000000; stroke-width: 0.8"/>
      </g>
     </g>
     <g id="text_11">
      <!-- 0.6 -->
      <g transform="translate(34.696875 154.135219)scale(0.1 -0.1)">
       <use xlink:href="#DejaVuSans-30"/>
       <use xlink:href="#DejaVuSans-2e" x="63.623047"/>
       <use xlink:href="#DejaVuSans-36" x="95.410156"/>
      </g>
     </g>
    </g>
    <g id="ytick_5">
     <g id="line2d_21">
      <path d="M 57.6 101.952 
L 414.72 101.952 
" clip-path="url(#p19ddd03a0f)" style="fill: none; stroke: #b0b0b0; stroke-width: 0.8; stroke-linecap: square"/>
     </g>
     <g id="line2d_22">
      <g>
       <use xlink:href="#m5da498cf61" x="57.6" y="101.952" style="stroke: #000000; stroke-width: 0.8"/>
      </g>
     </g>
     <g id="text_12">
      <!-- 0.8 -->
      <g transform="translate(34.696875 105.751219)scale(0.1 -0.1)">
       <use xlink:href="#DejaVuSans-30"/>
       <use xlink:href="#DejaVuSans-2e" x="63.623047"/>
       <use xlink:href="#DejaVuSans-38" x="95.410156"/>
      </g>
     </g>
    </g>
    <g id="ytick_6">
     <g id="line2d_23">
      <path d="M 57.6 53.568 
L 414.72 53.568 
" clip-path="url(#p19ddd03a0f)" style="fill: none; stroke: #b0b0b0; stroke-width: 0.8; stroke-linecap: square"/>
     </g>
     <g id="line2d_24">
      <g>
       <use xlink:href="#m5da498cf61" x="57.6" y="53.568" style="stroke: #000000; stroke-width: 0.8"/>
      </g>
     </g>
     <g id="text_13">
      <!-- 1.0 -->
      <g transform="translate(34.696875 57.367219)scale(0.1 -0.1)">
       <use xlink:href="#DejaVuSans-31"/>
       <use xlink:href="#DejaVuSans-2e" x="63.623047"/>
       <use xlink:href="#DejaVuSans-30" x="95.410156"/>
      </g>
     </g>
    </g>
    <g id="text_14">
     <!-- $\Delta$ -->
     <g transform="translate(28.617188 177.978)rotate(-90)scale(0.1 -0.1)">
      <defs>
       <path id="DejaVuSans-394" d="M 2188 4044 
L 906 525 
L 3472 525 
L 2188 4044 
z
M 50 0 
L 1831 4666 
L 2547 4666 
L 4325 0 
L 50 0 
z
" transform="scale(0.015625)"/>
      </defs>
      <use xlink:href="#DejaVuSans-394" transform="translate(0 0.09375)"/>
     </g>
    </g>
   </g>
   <g id="line2d_25">
    <path d="M 73.832727 53.568 
L 77.112066 53.568 
L 80.391405 53.568 
L 83.670744 53.568 
L 86.950083 53.568 
L 90.229421 53.568 
L 93.50876 53.568 
L 96.788099 53.568 
L 100.067438 53.568 
L 103.346777 53.568 
L 106.626116 53.568 
L 109.905455 53.568 
L 113.184793 53.568 
L 116.464132 53.568 
L 119.743471 53.568 
L 123.02281 53.568 
L 126.302149 53.568 
L 129.581488 53.568 
L 132.860826 53.568 
L 136.140165 53.568 
L 139.419504 53.568 
L 142.698843 53.568 
L 145.978182 53.568 
L 149.257521 53.568 
L 152.53686 53.568 
L 155.816198 53.568 
L 159.095537 53.568 
L 162.374876 53.568 
L 165.654215 53.568 
L 168.933554 53.568 
L 172.212893 53.568 
L 175.492231 53.568 
L 178.77157 53.568 
L 182.050909 53.568 
L 185.330248 53.568 
L 188.609587 53.568 
L 191.888926 53.568 
L 195.168264 53.568 
L 198.447603 53.568 
L 201.726942 53.568 
L 205.006281 53.568 
L 208.28562 53.568 
L 211.564959 53.568 
L 214.844298 53.568 
L 218.123636 53.568 
L 221.402975 53.568 
L 224.682314 53.568 
L 227.961653 53.568 
L 231.240992 53.568 
L 234.520331 295.488 
L 237.799669 295.488 
L 241.079008 295.488 
L 244.358347 295.488 
L 247.637686 295.488 
L 250.917025 295.488 
L 254.196364 295.488 
L 257.475702 295.488 
L 260.755041 295.488 
L 264.03438 295.488 
L 267.313719 295.488 
L 270.593058 295.488 
L 273.872397 295.488 
L 277.151736 295.488 
L 280.431074 295.488 
L 283.710413 295.488 
L 286.989752 295.488 
L 290.269091 295.488 
L 293.54843 295.488 
L 296.827769 295.488 
L 300.107107 295.488 
L 303.386446 295.488 
L 306.665785 295.488 
L 309.945124 295.488 
L 313.224463 295.488 
L 316.503802 295.488 
L 319.78314 295.488 
L 323.062479 295.488 
L 326.341818 295.488 
L 329.621157 295.488 
L 332.900496 295.488 
L 336.179835 295.488 
L 339.459174 295.488 
L 342.738512 295.488 
L 346.017851 295.488 
L 349.29719 295.488 
L 352.576529 295.488 
L 355.855868 295.488 
L 359.135207 295.488 
L 362.414545 295.488 
L 365.693884 295.488 
L 368.973223 295.488 
L 372.252562 295.488 
L 375.531901 295.488 
L 378.81124 295.487985 
L 382.090579 295.488 
L 385.369917 295.488 
L 388.649256 295.488 
L 391.928595 295.488 
L 395.207934 295.488 
L 398.487273 295.488 
" clip-path="url(#p19ddd03a0f)" style="fill: none; stroke: #1f77b4; stroke-width: 1.5; stroke-linecap: square"/>
    <defs>
     <path id="mdfbe4d98d1" d="M 0 2 
C 0.530406 2 1.03916 1.789267 1.414214 1.414214 
C 1.789267 1.03916 2 0.530406 2 0 
C 2 -0.530406 1.789267 -1.03916 1.414214 -1.414214 
C 1.03916 -1.789267 0.530406 -2 0 -2 
C -0.530406 -2 -1.03916 -1.789267 -1.414214 -1.414214 
C -1.789267 -1.03916 -2 -0.530406 -2 0 
C -2 0.530406 -1.789267 1.03916 -1.414214 1.414214 
C -1.03916 1.789267 -0.530406 2 0 2 
z
" style="stroke: #1f77b4"/>
    </defs>
    <g clip-path="url(#p19ddd03a0f)">
     <use xlink:href="#mdfbe4d98d1" x="73.832727" y="53.568" style="fill: #1f77b4; stroke: #1f77b4"/>
     <use xlink:href="#mdfbe4d98d1" x="77.112066" y="53.568" style="fill: #1f77b4; stroke: #1f77b4"/>
     <use xlink:href="#mdfbe4d98d1" x="80.391405" y="53.568" style="fill: #1f77b4; stroke: #1f77b4"/>
     <use xlink:href="#mdfbe4d98d1" x="83.670744" y="53.568" style="fill: #1f77b4; stroke: #1f77b4"/>
     <use xlink:href="#mdfbe4d98d1" x="86.950083" y="53.568" style="fill: #1f77b4; stroke: #1f77b4"/>
     <use xlink:href="#mdfbe4d98d1" x="90.229421" y="53.568" style="fill: #1f77b4; stroke: #1f77b4"/>
     <use xlink:href="#mdfbe4d98d1" x="93.50876" y="53.568" style="fill: #1f77b4; stroke: #1f77b4"/>
     <use xlink:href="#mdfbe4d98d1" x="96.788099" y="53.568" style="fill: #1f77b4; stroke: #1f77b4"/>
     <use xlink:href="#mdfbe4d98d1" x="100.067438" y="53.568" style="fill: #1f77b4; stroke: #1f77b4"/>
     <use xlink:href="#mdfbe4d98d1" x="103.346777" y="53.568" style="fill: #1f77b4; stroke: #1f77b4"/>
     <use xlink:href="#mdfbe4d98d1" x="106.626116" y="53.568" style="fill: #1f77b4; stroke: #1f77b4"/>
     <use xlink:href="#mdfbe4d98d1" x="109.905455" y="53.568" style="fill: #1f77b4; stroke: #1f77b4"/>
     <use xlink:href="#mdfbe4d98d1" x="113.184793" y="53.568" style="fill: #1f77b4; stroke: #1f77b4"/>
     <use xlink:href="#mdfbe4d98d1" x="116.464132" y="53.568" style="fill: #1f77b4; stroke: #1f77b4"/>
     <use xlink:href="#mdfbe4d98d1" x="119.743471" y="53.568" style="fill: #1f77b4; stroke: #1f77b4"/>
     <use xlink:href="#mdfbe4d98d1" x="123.02281" y="53.568" style="fill: #1f77b4; stroke: #1f77b4"/>
     <use xlink:href="#mdfbe4d98d1" x="126.302149" y="53.568" style="fill: #1f77b4; stroke: #1f77b4"/>
     <use xlink:href="#mdfbe4d98d1" x="129.581488" y="53.568" style="fill: #1f77b4; stroke: #1f77b4"/>
     <use xlink:href="#mdfbe4d98d1" x="132.860826" y="53.568" style="fill: #1f77b4; stroke: #1f77b4"/>
     <use xlink:href="#mdfbe4d98d1" x="136.140165" y="53.568" style="fill: #1f77b4; stroke: #1f77b4"/>
     <use xlink:href="#mdfbe4d98d1" x="139.419504" y="53.568" style="fill: #1f77b4; stroke: #1f77b4"/>
     <use xlink:href="#mdfbe4d98d1" x="142.698843" y="53.568" style="fill: #1f77b4; stroke: #1f77b4"/>
     <use xlink:href="#mdfbe4d98d1" x="145.978182" y="53.568" style="fill: #1f77b4; stroke: #1f77b4"/>
     <use xlink:href="#mdfbe4d98d1" x="149.257521" y="53.568" style="fill: #1f77b4; stroke: #1f77b4"/>
     <use xlink:href="#mdfbe4d98d1" x="152.53686" y="53.568" style="fill: #1f77b4; stroke: #1f77b4"/>
     <use xlink:href="#mdfbe4d98d1" x="155.816198" y="53.568" style="fill: #1f77b4; stroke: #1f77b4"/>
     <use xlink:href="#mdfbe4d98d1" x="159.095537" y="53.568" style="fill: #1f77b4; stroke: #1f77b4"/>
     <use xlink:href="#mdfbe4d98d1" x="162.374876" y="53.568" style="fill: #1f77b4; stroke: #1f77b4"/>
     <use xlink:href="#mdfbe4d98d1" x="165.654215" y="53.568" style="fill: #1f77b4; stroke: #1f77b4"/>
     <use xlink:href="#mdfbe4d98d1" x="168.933554" y="53.568" style="fill: #1f77b4; stroke: #1f77b4"/>
     <use xlink:href="#mdfbe4d98d1" x="172.212893" y="53.568" style="fill: #1f77b4; stroke: #1f77b4"/>
     <use xlink:href="#mdfbe4d98d1" x="175.492231" y="53.568" style="fill: #1f77b4; stroke: #1f77b4"/>
     <use xlink:href="#mdfbe4d98d1" x="178.77157" y="53.568" style="fill: #1f77b4; stroke: #1f77b4"/>
     <use xlink:href="#mdfbe4d98d1" x="182.050909" y="53.568" style="fill: #1f77b4; stroke: #1f77b4"/>
     <use xlink:href="#mdfbe4d98d1" x="185.330248" y="53.568" style="fill: #1f77b4; stroke: #1f77b4"/>
     <use xlink:href="#mdfbe4d98d1" x="188.609587" y="53.568" style="fill: #1f77b4; stroke: #1f77b4"/>
     <use xlink:href="#mdfbe4d98d1" x="191.888926" y="53.568" style="fill: #1f77b4; stroke: #1f77b4"/>
     <use xlink:href="#mdfbe4d98d1" x="195.168264" y="53.568" style="fill: #1f77b4; stroke: #1f77b4"/>
     <use xlink:href="#mdfbe4d98d1" x="198.447603" y="53.568" style="fill: #1f77b4; stroke: #1f77b4"/>
     <use xlink:href="#mdfbe4d98d1" x="201.726942" y="53.568" style="fill: #1f77b4; stroke: #1f77b4"/>
     <use xlink:href="#mdfbe4d98d1" x="205.006281" y="53.568" style="fill: #1f77b4; stroke: #1f77b4"/>
     <use xlink:href="#mdfbe4d98d1" x="208.28562" y="53.568" style="fill: #1f77b4; stroke: #1f77b4"/>
     <use xlink:href="#mdfbe4d98d1" x="211.564959" y="53.568" style="fill: #1f77b4; stroke: #1f77b4"/>
     <use xlink:href="#mdfbe4d98d1" x="214.844298" y="53.568" style="fill: #1f77b4; stroke: #1f77b4"/>
     <use xlink:href="#mdfbe4d98d1" x="218.123636" y="53.568" style="fill: #1f77b4; stroke: #1f77b4"/>
     <use xlink:href="#mdfbe4d98d1" x="221.402975" y="53.568" style="fill: #1f77b4; stroke: #1f77b4"/>
     <use xlink:href="#mdfbe4d98d1" x="224.682314" y="53.568" style="fill: #1f77b4; stroke: #1f77b4"/>
     <use xlink:href="#mdfbe4d98d1" x="227.961653" y="53.568" style="fill: #1f77b4; stroke: #1f77b4"/>
     <use xlink:href="#mdfbe4d98d1" x="231.240992" y="53.568" style="fill: #1f77b4; stroke: #1f77b4"/>
     <use xlink:href="#mdfbe4d98d1" x="234.520331" y="295.488" style="fill: #1f77b4; stroke: #1f77b4"/>
     <use xlink:href="#mdfbe4d98d1" x="237.799669" y="295.488" style="fill: #1f77b4; stroke: #1f77b4"/>
     <use xlink:href="#mdfbe4d98d1" x="241.079008" y="295.488" style="fill: #1f77b4; stroke: #1f77b4"/>
     <use xlink:href="#mdfbe4d98d1" x="244.358347" y="295.488" style="fill: #1f77b4; stroke: #1f77b4"/>
     <use xlink:href="#mdfbe4d98d1" x="247.637686" y="295.488" style="fill: #1f77b4; stroke: #1f77b4"/>
     <use xlink:href="#mdfbe4d98d1" x="250.917025" y="295.488" style="fill: #1f77b4; stroke: #1f77b4"/>
     <use xlink:href="#mdfbe4d98d1" x="254.196364" y="295.488" style="fill: #1f77b4; stroke: #1f77b4"/>
     <use xlink:href="#mdfbe4d98d1" x="257.475702" y="295.488" style="fill: #1f77b4; stroke: #1f77b4"/>
     <use xlink:href="#mdfbe4d98d1" x="260.755041" y="295.488" style="fill: #1f77b4; stroke: #1f77b4"/>
     <use xlink:href="#mdfbe4d98d1" x="264.03438" y="295.488" style="fill: #1f77b4; stroke: #1f77b4"/>
     <use xlink:href="#mdfbe4d98d1" x="267.313719" y="295.488" style="fill: #1f77b4; stroke: #1f77b4"/>
     <use xlink:href="#mdfbe4d98d1" x="270.593058" y="295.488" style="fill: #1f77b4; stroke: #1f77b4"/>
     <use xlink:href="#mdfbe4d98d1" x="273.872397" y="295.488" style="fill: #1f77b4; stroke: #1f77b4"/>
     <use xlink:href="#mdfbe4d98d1" x="277.151736" y="295.488" style="fill: #1f77b4; stroke: #1f77b4"/>
     <use xlink:href="#mdfbe4d98d1" x="280.431074" y="295.488" style="fill: #1f77b4; stroke: #1f77b4"/>
     <use xlink:href="#mdfbe4d98d1" x="283.710413" y="295.488" style="fill: #1f77b4; stroke: #1f77b4"/>
     <use xlink:href="#mdfbe4d98d1" x="286.989752" y="295.488" style="fill: #1f77b4; stroke: #1f77b4"/>
     <use xlink:href="#mdfbe4d98d1" x="290.269091" y="295.488" style="fill: #1f77b4; stroke: #1f77b4"/>
     <use xlink:href="#mdfbe4d98d1" x="293.54843" y="295.488" style="fill: #1f77b4; stroke: #1f77b4"/>
     <use xlink:href="#mdfbe4d98d1" x="296.827769" y="295.488" style="fill: #1f77b4; stroke: #1f77b4"/>
     <use xlink:href="#mdfbe4d98d1" x="300.107107" y="295.488" style="fill: #1f77b4; stroke: #1f77b4"/>
     <use xlink:href="#mdfbe4d98d1" x="303.386446" y="295.488" style="fill: #1f77b4; stroke: #1f77b4"/>
     <use xlink:href="#mdfbe4d98d1" x="306.665785" y="295.488" style="fill: #1f77b4; stroke: #1f77b4"/>
     <use xlink:href="#mdfbe4d98d1" x="309.945124" y="295.488" style="fill: #1f77b4; stroke: #1f77b4"/>
     <use xlink:href="#mdfbe4d98d1" x="313.224463" y="295.488" style="fill: #1f77b4; stroke: #1f77b4"/>
     <use xlink:href="#mdfbe4d98d1" x="316.503802" y="295.488" style="fill: #1f77b4; stroke: #1f77b4"/>
     <use xlink:href="#mdfbe4d98d1" x="319.78314" y="295.488" style="fill: #1f77b4; stroke: #1f77b4"/>
     <use xlink:href="#mdfbe4d98d1" x="323.062479" y="295.488" style="fill: #1f77b4; stroke: #1f77b4"/>
     <use xlink:href="#mdfbe4d98d1" x="326.341818" y="295.488" style="fill: #1f77b4; stroke: #1f77b4"/>
     <use xlink:href="#mdfbe4d98d1" x="329.621157" y="295.488" style="fill: #1f77b4; stroke: #1f77b4"/>
     <use xlink:href="#mdfbe4d98d1" x="332.900496" y="295.488" style="fill: #1f77b4; stroke: #1f77b4"/>
     <use xlink:href="#mdfbe4d98d1" x="336.179835" y="295.488" style="fill: #1f77b4; stroke: #1f77b4"/>
     <use xlink:href="#mdfbe4d98d1" x="339.459174" y="295.488" style="fill: #1f77b4; stroke: #1f77b4"/>
     <use xlink:href="#mdfbe4d98d1" x="342.738512" y="295.488" style="fill: #1f77b4; stroke: #1f77b4"/>
     <use xlink:href="#mdfbe4d98d1" x="346.017851" y="295.488" style="fill: #1f77b4; stroke: #1f77b4"/>
     <use xlink:href="#mdfbe4d98d1" x="349.29719" y="295.488" style="fill: #1f77b4; stroke: #1f77b4"/>
     <use xlink:href="#mdfbe4d98d1" x="352.576529" y="295.488" style="fill: #1f77b4; stroke: #1f77b4"/>
     <use xlink:href="#mdfbe4d98d1" x="355.855868" y="295.488" style="fill: #1f77b4; stroke: #1f77b4"/>
     <use xlink:href="#mdfbe4d98d1" x="359.135207" y="295.488" style="fill: #1f77b4; stroke: #1f77b4"/>
     <use xlink:href="#mdfbe4d98d1" x="362.414545" y="295.488" style="fill: #1f77b4; stroke: #1f77b4"/>
     <use xlink:href="#mdfbe4d98d1" x="365.693884" y="295.488" style="fill: #1f77b4; stroke: #1f77b4"/>
     <use xlink:href="#mdfbe4d98d1" x="368.973223" y="295.488" style="fill: #1f77b4; stroke: #1f77b4"/>
     <use xlink:href="#mdfbe4d98d1" x="372.252562" y="295.488" style="fill: #1f77b4; stroke: #1f77b4"/>
     <use xlink:href="#mdfbe4d98d1" x="375.531901" y="295.488" style="fill: #1f77b4; stroke: #1f77b4"/>
     <use xlink:href="#mdfbe4d98d1" x="378.81124" y="295.487985" style="fill: #1f77b4; stroke: #1f77b4"/>
     <use xlink:href="#mdfbe4d98d1" x="382.090579" y="295.488" style="fill: #1f77b4; stroke: #1f77b4"/>
     <use xlink:href="#mdfbe4d98d1" x="385.369917" y="295.488" style="fill: #1f77b4; stroke: #1f77b4"/>
     <use xlink:href="#mdfbe4d98d1" x="388.649256" y="295.488" style="fill: #1f77b4; stroke: #1f77b4"/>
     <use xlink:href="#mdfbe4d98d1" x="391.928595" y="295.488" style="fill: #1f77b4; stroke: #1f77b4"/>
     <use xlink:href="#mdfbe4d98d1" x="395.207934" y="295.488" style="fill: #1f77b4; stroke: #1f77b4"/>
     <use xlink:href="#mdfbe4d98d1" x="398.487273" y="295.488" style="fill: #1f77b4; stroke: #1f77b4"/>
    </g>
   </g>
   <g id="line2d_26">
    <path d="M 73.832727 295.488 
L 77.112066 295.488 
L 80.391405 295.488 
L 83.670744 295.488 
L 86.950083 295.488 
L 90.229421 295.488 
L 93.50876 295.488 
L 96.788099 295.488 
L 100.067438 295.488 
L 103.346777 295.488 
L 106.626116 295.488 
L 109.905455 295.488 
L 113.184793 295.488 
L 116.464132 295.488 
L 119.743471 295.488 
L 123.02281 295.488 
L 126.302149 295.488 
L 129.581488 295.488 
L 132.860826 295.488 
L 136.140165 295.488 
L 139.419504 295.488 
L 142.698843 295.487971 
L 145.978182 295.488 
L 149.257521 295.488 
L 152.53686 295.488 
L 155.816198 295.488 
L 159.095537 295.488 
L 162.374876 295.488 
L 165.654215 295.488 
L 168.933554 295.488 
L 172.212893 295.488 
L 175.492231 295.487986 
L 178.77157 295.487986 
L 182.050909 295.487986 
L 185.330248 295.488 
L 188.609587 295.487986 
L 191.888926 295.488 
L 195.168264 295.488 
L 198.447603 295.488 
L 201.726942 295.488 
L 205.006281 295.488 
L 208.28562 295.487971 
L 211.564959 295.488 
L 214.844298 295.488 
L 218.123636 295.487957 
L 221.402975 295.487986 
L 224.682314 295.487913 
L 227.961653 295.487928 
L 231.240992 295.487885 
L 234.520331 202.09146 
L 237.799669 201.304688 
L 241.079008 200.548199 
L 244.358347 199.820609 
L 247.637686 199.120603 
L 250.917025 198.446931 
L 254.196364 197.798401 
L 257.475702 197.173886 
L 260.755041 196.572314 
L 264.03438 195.992663 
L 267.313719 195.433965 
L 270.593058 194.895292 
L 273.872397 194.375779 
L 277.151736 193.874588 
L 280.431074 193.390929 
L 283.710413 192.924044 
L 286.989752 192.473223 
L 290.269091 192.037786 
L 293.54843 191.61708 
L 296.827769 191.210489 
L 300.107107 190.817429 
L 303.386446 190.437344 
L 306.665785 190.069695 
L 309.945124 189.713976 
L 313.224463 189.36971 
L 316.503802 189.08408 
L 319.78314 188.759543 
L 323.062479 188.445185 
L 326.341818 188.140612 
L 329.621157 187.845449 
L 332.900496 187.559326 
L 336.179835 187.281902 
L 339.459174 187.012843 
L 342.738512 186.751832 
L 346.017851 186.498571 
L 349.29719 186.252764 
L 352.576529 186.014139 
L 355.855868 185.782431 
L 359.135207 185.557385 
L 362.414545 185.338764 
L 365.693884 185.126332 
L 368.973223 184.919866 
L 372.252562 184.719159 
L 375.531901 184.524001 
L 378.81124 184.3342 
L 382.090579 184.149573 
L 385.369917 183.969933 
L 388.649256 183.795114 
L 391.928595 183.62495 
L 395.207934 183.459281 
L 398.487273 183.297957 
" clip-path="url(#p19ddd03a0f)" style="fill: none; stroke: #ff7f0e; stroke-width: 1.5; stroke-linecap: square"/>
    <defs>
     <path id="m3b231ca317" d="M 0 2 
C 0.530406 2 1.03916 1.789267 1.414214 1.414214 
C 1.789267 1.03916 2 0.530406 2 0 
C 2 -0.530406 1.789267 -1.03916 1.414214 -1.414214 
C 1.03916 -1.789267 0.530406 -2 0 -2 
C -0.530406 -2 -1.03916 -1.789267 -1.414214 -1.414214 
C -1.789267 -1.03916 -2 -0.530406 -2 0 
C -2 0.530406 -1.789267 1.03916 -1.414214 1.414214 
C -1.03916 1.789267 -0.530406 2 0 2 
z
" style="stroke: #ff7f0e"/>
    </defs>
    <g clip-path="url(#p19ddd03a0f)">
     <use xlink:href="#m3b231ca317" x="73.832727" y="295.488" style="fill: #ff7f0e; stroke: #ff7f0e"/>
     <use xlink:href="#m3b231ca317" x="77.112066" y="295.488" style="fill: #ff7f0e; stroke: #ff7f0e"/>
     <use xlink:href="#m3b231ca317" x="80.391405" y="295.488" style="fill: #ff7f0e; stroke: #ff7f0e"/>
     <use xlink:href="#m3b231ca317" x="83.670744" y="295.488" style="fill: #ff7f0e; stroke: #ff7f0e"/>
     <use xlink:href="#m3b231ca317" x="86.950083" y="295.488" style="fill: #ff7f0e; stroke: #ff7f0e"/>
     <use xlink:href="#m3b231ca317" x="90.229421" y="295.488" style="fill: #ff7f0e; stroke: #ff7f0e"/>
     <use xlink:href="#m3b231ca317" x="93.50876" y="295.488" style="fill: #ff7f0e; stroke: #ff7f0e"/>
     <use xlink:href="#m3b231ca317" x="96.788099" y="295.488" style="fill: #ff7f0e; stroke: #ff7f0e"/>
     <use xlink:href="#m3b231ca317" x="100.067438" y="295.488" style="fill: #ff7f0e; stroke: #ff7f0e"/>
     <use xlink:href="#m3b231ca317" x="103.346777" y="295.488" style="fill: #ff7f0e; stroke: #ff7f0e"/>
     <use xlink:href="#m3b231ca317" x="106.626116" y="295.488" style="fill: #ff7f0e; stroke: #ff7f0e"/>
     <use xlink:href="#m3b231ca317" x="109.905455" y="295.488" style="fill: #ff7f0e; stroke: #ff7f0e"/>
     <use xlink:href="#m3b231ca317" x="113.184793" y="295.488" style="fill: #ff7f0e; stroke: #ff7f0e"/>
     <use xlink:href="#m3b231ca317" x="116.464132" y="295.488" style="fill: #ff7f0e; stroke: #ff7f0e"/>
     <use xlink:href="#m3b231ca317" x="119.743471" y="295.488" style="fill: #ff7f0e; stroke: #ff7f0e"/>
     <use xlink:href="#m3b231ca317" x="123.02281" y="295.488" style="fill: #ff7f0e; stroke: #ff7f0e"/>
     <use xlink:href="#m3b231ca317" x="126.302149" y="295.488" style="fill: #ff7f0e; stroke: #ff7f0e"/>
     <use xlink:href="#m3b231ca317" x="129.581488" y="295.488" style="fill: #ff7f0e; stroke: #ff7f0e"/>
     <use xlink:href="#m3b231ca317" x="132.860826" y="295.488" style="fill: #ff7f0e; stroke: #ff7f0e"/>
     <use xlink:href="#m3b231ca317" x="136.140165" y="295.488" style="fill: #ff7f0e; stroke: #ff7f0e"/>
     <use xlink:href="#m3b231ca317" x="139.419504" y="295.488" style="fill: #ff7f0e; stroke: #ff7f0e"/>
     <use xlink:href="#m3b231ca317" x="142.698843" y="295.487971" style="fill: #ff7f0e; stroke: #ff7f0e"/>
     <use xlink:href="#m3b231ca317" x="145.978182" y="295.488" style="fill: #ff7f0e; stroke: #ff7f0e"/>
     <use xlink:href="#m3b231ca317" x="149.257521" y="295.488" style="fill: #ff7f0e; stroke: #ff7f0e"/>
     <use xlink:href="#m3b231ca317" x="152.53686" y="295.488" style="fill: #ff7f0e; stroke: #ff7f0e"/>
     <use xlink:href="#m3b231ca317" x="155.816198" y="295.488" style="fill: #ff7f0e; stroke: #ff7f0e"/>
     <use xlink:href="#m3b231ca317" x="159.095537" y="295.488" style="fill: #ff7f0e; stroke: #ff7f0e"/>
     <use xlink:href="#m3b231ca317" x="162.374876" y="295.488" style="fill: #ff7f0e; stroke: #ff7f0e"/>
     <use xlink:href="#m3b231ca317" x="165.654215" y="295.488" style="fill: #ff7f0e; stroke: #ff7f0e"/>
     <use xlink:href="#m3b231ca317" x="168.933554" y="295.488" style="fill: #ff7f0e; stroke: #ff7f0e"/>
     <use xlink:href="#m3b231ca317" x="172.212893" y="295.488" style="fill: #ff7f0e; stroke: #ff7f0e"/>
     <use xlink:href="#m3b231ca317" x="175.492231" y="295.487986" style="fill: #ff7f0e; stroke: #ff7f0e"/>
     <use xlink:href="#m3b231ca317" x="178.77157" y="295.487986" style="fill: #ff7f0e; stroke: #ff7f0e"/>
     <use xlink:href="#m3b231ca317" x="182.050909" y="295.487986" style="fill: #ff7f0e; stroke: #ff7f0e"/>
     <use xlink:href="#m3b231ca317" x="185.330248" y="295.488" style="fill: #ff7f0e; stroke: #ff7f0e"/>
     <use xlink:href="#m3b231ca317" x="188.609587" y="295.487986" style="fill: #ff7f0e; stroke: #ff7f0e"/>
     <use xlink:href="#m3b231ca317" x="191.888926" y="295.488" style="fill: #ff7f0e; stroke: #ff7f0e"/>
     <use xlink:href="#m3b231ca317" x="195.168264" y="295.488" style="fill: #ff7f0e; stroke: #ff7f0e"/>
     <use xlink:href="#m3b231ca317" x="198.447603" y="295.488" style="fill: #ff7f0e; stroke: #ff7f0e"/>
     <use xlink:href="#m3b231ca317" x="201.726942" y="295.488" style="fill: #ff7f0e; stroke: #ff7f0e"/>
     <use xlink:href="#m3b231ca317" x="205.006281" y="295.488" style="fill: #ff7f0e; stroke: #ff7f0e"/>
     <use xlink:href="#m3b231ca317" x="208.28562" y="295.487971" style="fill: #ff7f0e; stroke: #ff7f0e"/>
     <use xlink:href="#m3b231ca317" x="211.564959" y="295.488" style="fill: #ff7f0e; stroke: #ff7f0e"/>
     <use xlink:href="#m3b231ca317" x="214.844298" y="295.488" style="fill: #ff7f0e; stroke: #ff7f0e"/>
     <use xlink:href="#m3b231ca317" x="218.123636" y="295.487957" style="fill: #ff7f0e; stroke: #ff7f0e"/>
     <use xlink:href="#m3b231ca317" x="221.402975" y="295.487986" style="fill: #ff7f0e; stroke: #ff7f0e"/>
     <use xlink:href="#m3b231ca317" x="224.682314" y="295.487913" style="fill: #ff7f0e; stroke: #ff7f0e"/>
     <use xlink:href="#m3b231ca317" x="227.961653" y="295.487928" style="fill: #ff7f0e; stroke: #ff7f0e"/>
     <use xlink:href="#m3b231ca317" x="231.240992" y="295.487885" style="fill: #ff7f0e; stroke: #ff7f0e"/>
     <use xlink:href="#m3b231ca317" x="234.520331" y="202.09146" style="fill: #ff7f0e; stroke: #ff7f0e"/>
     <use xlink:href="#m3b231ca317" x="237.799669" y="201.304688" style="fill: #ff7f0e; stroke: #ff7f0e"/>
     <use xlink:href="#m3b231ca317" x="241.079008" y="200.548199" style="fill: #ff7f0e; stroke: #ff7f0e"/>
     <use xlink:href="#m3b231ca317" x="244.358347" y="199.820609" style="fill: #ff7f0e; stroke: #ff7f0e"/>
     <use xlink:href="#m3b231ca317" x="247.637686" y="199.120603" style="fill: #ff7f0e; stroke: #ff7f0e"/>
     <use xlink:href="#m3b231ca317" x="250.917025" y="198.446931" style="fill: #ff7f0e; stroke: #ff7f0e"/>
     <use xlink:href="#m3b231ca317" x="254.196364" y="197.798401" style="fill: #ff7f0e; stroke: #ff7f0e"/>
     <use xlink:href="#m3b231ca317" x="257.475702" y="197.173886" style="fill: #ff7f0e; stroke: #ff7f0e"/>
     <use xlink:href="#m3b231ca317" x="260.755041" y="196.572314" style="fill: #ff7f0e; stroke: #ff7f0e"/>
     <use xlink:href="#m3b231ca317" x="264.03438" y="195.992663" style="fill: #ff7f0e; stroke: #ff7f0e"/>
     <use xlink:href="#m3b231ca317" x="267.313719" y="195.433965" style="fill: #ff7f0e; stroke: #ff7f0e"/>
     <use xlink:href="#m3b231ca317" x="270.593058" y="194.895292" style="fill: #ff7f0e; stroke: #ff7f0e"/>
     <use xlink:href="#m3b231ca317" x="273.872397" y="194.375779" style="fill: #ff7f0e; stroke: #ff7f0e"/>
     <use xlink:href="#m3b231ca317" x="277.151736" y="193.874588" style="fill: #ff7f0e; stroke: #ff7f0e"/>
     <use xlink:href="#m3b231ca317" x="280.431074" y="193.390929" style="fill: #ff7f0e; stroke: #ff7f0e"/>
     <use xlink:href="#m3b231ca317" x="283.710413" y="192.924044" style="fill: #ff7f0e; stroke: #ff7f0e"/>
     <use xlink:href="#m3b231ca317" x="286.989752" y="192.473223" style="fill: #ff7f0e; stroke: #ff7f0e"/>
     <use xlink:href="#m3b231ca317" x="290.269091" y="192.037786" style="fill: #ff7f0e; stroke: #ff7f0e"/>
     <use xlink:href="#m3b231ca317" x="293.54843" y="191.61708" style="fill: #ff7f0e; stroke: #ff7f0e"/>
     <use xlink:href="#m3b231ca317" x="296.827769" y="191.210489" style="fill: #ff7f0e; stroke: #ff7f0e"/>
     <use xlink:href="#m3b231ca317" x="300.107107" y="190.817429" style="fill: #ff7f0e; stroke: #ff7f0e"/>
     <use xlink:href="#m3b231ca317" x="303.386446" y="190.437344" style="fill: #ff7f0e; stroke: #ff7f0e"/>
     <use xlink:href="#m3b231ca317" x="306.665785" y="190.069695" style="fill: #ff7f0e; stroke: #ff7f0e"/>
     <use xlink:href="#m3b231ca317" x="309.945124" y="189.713976" style="fill: #ff7f0e; stroke: #ff7f0e"/>
     <use xlink:href="#m3b231ca317" x="313.224463" y="189.36971" style="fill: #ff7f0e; stroke: #ff7f0e"/>
     <use xlink:href="#m3b231ca317" x="316.503802" y="189.08408" style="fill: #ff7f0e; stroke: #ff7f0e"/>
     <use xlink:href="#m3b231ca317" x="319.78314" y="188.759543" style="fill: #ff7f0e; stroke: #ff7f0e"/>
     <use xlink:href="#m3b231ca317" x="323.062479" y="188.445185" style="fill: #ff7f0e; stroke: #ff7f0e"/>
     <use xlink:href="#m3b231ca317" x="326.341818" y="188.140612" style="fill: #ff7f0e; stroke: #ff7f0e"/>
     <use xlink:href="#m3b231ca317" x="329.621157" y="187.845449" style="fill: #ff7f0e; stroke: #ff7f0e"/>
     <use xlink:href="#m3b231ca317" x="332.900496" y="187.559326" style="fill: #ff7f0e; stroke: #ff7f0e"/>
     <use xlink:href="#m3b231ca317" x="336.179835" y="187.281902" style="fill: #ff7f0e; stroke: #ff7f0e"/>
     <use xlink:href="#m3b231ca317" x="339.459174" y="187.012843" style="fill: #ff7f0e; stroke: #ff7f0e"/>
     <use xlink:href="#m3b231ca317" x="342.738512" y="186.751832" style="fill: #ff7f0e; stroke: #ff7f0e"/>
     <use xlink:href="#m3b231ca317" x="346.017851" y="186.498571" style="fill: #ff7f0e; stroke: #ff7f0e"/>
     <use xlink:href="#m3b231ca317" x="349.29719" y="186.252764" style="fill: #ff7f0e; stroke: #ff7f0e"/>
     <use xlink:href="#m3b231ca317" x="352.576529" y="186.014139" style="fill: #ff7f0e; stroke: #ff7f0e"/>
     <use xlink:href="#m3b231ca317" x="355.855868" y="185.782431" style="fill: #ff7f0e; stroke: #ff7f0e"/>
     <use xlink:href="#m3b231ca317" x="359.135207" y="185.557385" style="fill: #ff7f0e; stroke: #ff7f0e"/>
     <use xlink:href="#m3b231ca317" x="362.414545" y="185.338764" style="fill: #ff7f0e; stroke: #ff7f0e"/>
     <use xlink:href="#m3b231ca317" x="365.693884" y="185.126332" style="fill: #ff7f0e; stroke: #ff7f0e"/>
     <use xlink:href="#m3b231ca317" x="368.973223" y="184.919866" style="fill: #ff7f0e; stroke: #ff7f0e"/>
     <use xlink:href="#m3b231ca317" x="372.252562" y="184.719159" style="fill: #ff7f0e; stroke: #ff7f0e"/>
     <use xlink:href="#m3b231ca317" x="375.531901" y="184.524001" style="fill: #ff7f0e; stroke: #ff7f0e"/>
     <use xlink:href="#m3b231ca317" x="378.81124" y="184.3342" style="fill: #ff7f0e; stroke: #ff7f0e"/>
     <use xlink:href="#m3b231ca317" x="382.090579" y="184.149573" style="fill: #ff7f0e; stroke: #ff7f0e"/>
     <use xlink:href="#m3b231ca317" x="385.369917" y="183.969933" style="fill: #ff7f0e; stroke: #ff7f0e"/>
     <use xlink:href="#m3b231ca317" x="388.649256" y="183.795114" style="fill: #ff7f0e; stroke: #ff7f0e"/>
     <use xlink:href="#m3b231ca317" x="391.928595" y="183.62495" style="fill: #ff7f0e; stroke: #ff7f0e"/>
     <use xlink:href="#m3b231ca317" x="395.207934" y="183.459281" style="fill: #ff7f0e; stroke: #ff7f0e"/>
     <use xlink:href="#m3b231ca317" x="398.487273" y="183.297957" style="fill: #ff7f0e; stroke: #ff7f0e"/>
    </g>
   </g>
   <g id="patch_3">
    <path d="M 57.6 307.584 
L 57.6 41.472 
" style="fill: none; stroke: #000000; stroke-width: 0.8; stroke-linejoin: miter; stroke-linecap: square"/>
   </g>
   <g id="patch_4">
    <path d="M 414.72 307.584 
L 414.72 41.472 
" style="fill: none; stroke: #000000; stroke-width: 0.8; stroke-linejoin: miter; stroke-linecap: square"/>
   </g>
   <g id="patch_5">
    <path d="M 57.6 307.584 
L 414.72 307.584 
" style="fill: none; stroke: #000000; stroke-width: 0.8; stroke-linejoin: miter; stroke-linecap: square"/>
   </g>
   <g id="patch_6">
    <path d="M 57.6 41.472 
L 414.72 41.472 
" style="fill: none; stroke: #000000; stroke-width: 0.8; stroke-linejoin: miter; stroke-linecap: square"/>
   </g>
   <g id="text_15">
    <!-- J=5.0 -->
    <g transform="translate(219.820312 35.472)scale(0.12 -0.12)">
     <defs>
      <path id="DejaVuSans-4a" d="M 628 4666 
L 1259 4666 
L 1259 325 
Q 1259 -519 939 -900 
Q 619 -1281 -91 -1281 
L -331 -1281 
L -331 -750 
L -134 -750 
Q 284 -750 456 -515 
Q 628 -281 628 325 
L 628 4666 
z
" transform="scale(0.015625)"/>
      <path id="DejaVuSans-3d" d="M 678 2906 
L 4684 2906 
L 4684 2381 
L 678 2381 
L 678 2906 
z
M 678 1631 
L 4684 1631 
L 4684 1100 
L 678 1100 
L 678 1631 
z
" transform="scale(0.015625)"/>
      <path id="DejaVuSans-35" d="M 691 4666 
L 3169 4666 
L 3169 4134 
L 1269 4134 
L 1269 2991 
Q 1406 3038 1543 3061 
Q 1681 3084 1819 3084 
Q 2600 3084 3056 2656 
Q 3513 2228 3513 1497 
Q 3513 744 3044 326 
Q 2575 -91 1722 -91 
Q 1428 -91 1123 -41 
Q 819 9 494 109 
L 494 744 
Q 775 591 1075 516 
Q 1375 441 1709 441 
Q 2250 441 2565 725 
Q 2881 1009 2881 1497 
Q 2881 1984 2565 2268 
Q 2250 2553 1709 2553 
Q 1456 2553 1204 2497 
Q 953 2441 691 2322 
L 691 4666 
z
" transform="scale(0.015625)"/>
     </defs>
     <use xlink:href="#DejaVuSans-4a"/>
     <use xlink:href="#DejaVuSans-3d" x="29.492188"/>
     <use xlink:href="#DejaVuSans-35" x="113.28125"/>
     <use xlink:href="#DejaVuSans-2e" x="176.904297"/>
     <use xlink:href="#DejaVuSans-30" x="208.691406"/>
    </g>
   </g>
   <g id="legend_1">
    <g id="patch_7">
     <path d="M 351.149688 78.82825 
L 407.72 78.82825 
Q 409.72 78.82825 409.72 76.82825 
L 409.72 48.472 
Q 409.72 46.472 407.72 46.472 
L 351.149688 46.472 
Q 349.149688 46.472 349.149688 48.472 
L 349.149688 76.82825 
Q 349.149688 78.82825 351.149688 78.82825 
z
" style="fill: #ffffff; opacity: 0.8; stroke: #cccccc; stroke-linejoin: miter"/>
    </g>
    <g id="line2d_27">
     <path d="M 353.149688 54.570437 
L 363.149688 54.570437 
L 373.149688 54.570437 
" style="fill: none; stroke: #1f77b4; stroke-width: 1.5; stroke-linecap: square"/>
     <g>
      <use xlink:href="#mdfbe4d98d1" x="363.149688" y="54.570437" style="fill: #1f77b4; stroke: #1f77b4"/>
     </g>
    </g>
    <g id="text_16">
     <!-- SC -->
     <g transform="translate(381.149688 58.070437)scale(0.1 -0.1)">
      <defs>
       <path id="DejaVuSans-53" d="M 3425 4513 
L 3425 3897 
Q 3066 4069 2747 4153 
Q 2428 4238 2131 4238 
Q 1616 4238 1336 4038 
Q 1056 3838 1056 3469 
Q 1056 3159 1242 3001 
Q 1428 2844 1947 2747 
L 2328 2669 
Q 3034 2534 3370 2195 
Q 3706 1856 3706 1288 
Q 3706 609 3251 259 
Q 2797 -91 1919 -91 
Q 1588 -91 1214 -16 
Q 841 59 441 206 
L 441 856 
Q 825 641 1194 531 
Q 1563 422 1919 422 
Q 2459 422 2753 634 
Q 3047 847 3047 1241 
Q 3047 1584 2836 1778 
Q 2625 1972 2144 2069 
L 1759 2144 
Q 1053 2284 737 2584 
Q 422 2884 422 3419 
Q 422 4038 858 4394 
Q 1294 4750 2059 4750 
Q 2388 4750 2728 4690 
Q 3069 4631 3425 4513 
z
" transform="scale(0.015625)"/>
       <path id="DejaVuSans-43" d="M 4122 4306 
L 4122 3641 
Q 3803 3938 3442 4084 
Q 3081 4231 2675 4231 
Q 1875 4231 1450 3742 
Q 1025 3253 1025 2328 
Q 1025 1406 1450 917 
Q 1875 428 2675 428 
Q 3081 428 3442 575 
Q 3803 722 4122 1019 
L 4122 359 
Q 3791 134 3420 21 
Q 3050 -91 2638 -91 
Q 1578 -91 968 557 
Q 359 1206 359 2328 
Q 359 3453 968 4101 
Q 1578 4750 2638 4750 
Q 3056 4750 3426 4639 
Q 3797 4528 4122 4306 
z
" transform="scale(0.015625)"/>
      </defs>
      <use xlink:href="#DejaVuSans-53"/>
      <use xlink:href="#DejaVuSans-43" x="63.476562"/>
     </g>
    </g>
    <g id="line2d_28">
     <path d="M 353.149688 69.248562 
L 363.149688 69.248562 
L 373.149688 69.248562 
" style="fill: none; stroke: #ff7f0e; stroke-width: 1.5; stroke-linecap: square"/>
     <g>
      <use xlink:href="#m3b231ca317" x="363.149688" y="69.248562" style="fill: #ff7f0e; stroke: #ff7f0e"/>
     </g>
    </g>
    <g id="text_17">
     <!-- CDW -->
     <g transform="translate(381.149688 72.748562)scale(0.1 -0.1)">
      <defs>
       <path id="DejaVuSans-44" d="M 1259 4147 
L 1259 519 
L 2022 519 
Q 2988 519 3436 956 
Q 3884 1394 3884 2338 
Q 3884 3275 3436 3711 
Q 2988 4147 2022 4147 
L 1259 4147 
z
M 628 4666 
L 1925 4666 
Q 3281 4666 3915 4102 
Q 4550 3538 4550 2338 
Q 4550 1131 3912 565 
Q 3275 0 1925 0 
L 628 0 
L 628 4666 
z
" transform="scale(0.015625)"/>
       <path id="DejaVuSans-57" d="M 213 4666 
L 850 4666 
L 1831 722 
L 2809 4666 
L 3519 4666 
L 4500 722 
L 5478 4666 
L 6119 4666 
L 4947 0 
L 4153 0 
L 3169 4050 
L 2175 0 
L 1381 0 
L 213 4666 
z
" transform="scale(0.015625)"/>
      </defs>
      <use xlink:href="#DejaVuSans-43"/>
      <use xlink:href="#DejaVuSans-44" x="69.824219"/>
      <use xlink:href="#DejaVuSans-57" x="146.826172"/>
     </g>
    </g>
   </g>
  </g>
 </g>
 <defs>
  <clipPath id="p19ddd03a0f">
   <rect x="57.6" y="41.472" width="357.12" height="266.112"/>
  </clipPath>
 </defs>
</svg>
