<?xml version="1.0" encoding="utf-8" standalone="no"?>
<!DOCTYPE svg PUBLIC "-//W3C//DTD SVG 1.1//EN"
  "http://www.w3.org/Graphics/SVG/1.1/DTD/svg11.dtd">
<svg xmlns:xlink="http://www.w3.org/1999/xlink" width="576pt" height="432pt" viewBox="0 0 576 432" xmlns="http://www.w3.org/2000/svg" version="1.1">
 <metadata>
  <rdf:RDF xmlns:dc="http://purl.org/dc/elements/1.1/" xmlns:cc="http://creativecommons.org/ns#" xmlns:rdf="http://www.w3.org/1999/02/22-rdf-syntax-ns#">
   <cc:Work>
    <dc:type rdf:resource="http://purl.org/dc/dcmitype/StillImage"/>
    <dc:date>2024-03-03T23:56:27.102214</dc:date>
    <dc:format>image/svg+xml</dc:format>
    <dc:creator>
     <cc:Agent>
      <dc:title>Matplotlib v3.7.2, https://matplotlib.org/</dc:title>
     </cc:Agent>
    </dc:creator>
   </cc:Work>
  </rdf:RDF>
 </metadata>
 <defs>
  <style type="text/css">*{stroke-linejoin: round; stroke-linecap: butt}</style>
 </defs>
 <g id="figure_1">
  <g id="patch_1">
   <path d="M 0 432 
L 576 432 
L 576 0 
L 0 0 
z
" style="fill: #ffffff"/>
  </g>
  <g id="patch_2">
   <path d="M 128.88 384.48 
L 461.52 384.48 
L 461.52 51.84 
L 128.88 51.84 
z
" style="fill: #ffffff"/>
  </g>
  <g id="pane3d_1">
   <g id="patch_3">
    <path d="M 153.996614 302.461636 
L 263.845206 210.384369 
L 262.318205 77.592489 
L 147.212792 161.591176 
" style="fill: #f2f2f2; opacity: 0.5; stroke: #f2f2f2; stroke-linejoin: miter"/>
   </g>
  </g>
  <g id="pane3d_2">
   <g id="patch_4">
    <path d="M 263.845206 210.384369 
L 440.113001 261.618458 
L 446.403377 124.252714 
L 262.318205 77.592489 
" style="fill: #e6e6e6; opacity: 0.5; stroke: #e6e6e6; stroke-linejoin: miter"/>
   </g>
  </g>
  <g id="pane3d_3">
   <g id="patch_5">
    <path d="M 153.996614 302.461636 
L 340.849086 363.487653 
L 440.113001 261.618458 
L 263.845206 210.384369 
" style="fill: #ececec; opacity: 0.5; stroke: #ececec; stroke-linejoin: miter"/>
   </g>
  </g>
  <g id="axis3d_1">
   <g id="line2d_1">
    <path d="M 153.996614 302.461636 
L 340.849086 363.487653 
" style="fill: none; stroke: #000000; stroke-width: 0.8; stroke-linecap: square"/>
   </g>
   <g id="text_1">
    <!-- $\Delta$ -->
    <g transform="translate(224.559212 368.935705) rotate(-341.912962) scale(0.1 -0.1)">
     <defs>
      <path id="DejaVuSans-394" d="M 2188 4044 
L 906 525 
L 3472 525 
L 2188 4044 
z
M 50 0 
L 1831 4666 
L 2547 4666 
L 4325 0 
L 50 0 
z
" transform="scale(0.015625)"/>
     </defs>
     <use xlink:href="#DejaVuSans-394" transform="translate(0 0.09375)"/>
    </g>
   </g>
   <g id="Line3DCollection_1">
    <path d="M 165.31338 306.157692 
L 274.565273 213.500269 
L 273.491525 80.4246 
" style="fill: none; stroke: #b0b0b0; stroke-width: 0.8"/>
    <path d="M 196.738161 316.421025 
L 304.303022 222.143859 
L 304.501618 88.284754 
" style="fill: none; stroke: #b0b0b0; stroke-width: 0.8"/>
    <path d="M 228.738703 326.872402 
L 334.54022 230.932618 
L 336.055172 96.28266 
" style="fill: none; stroke: #b0b0b0; stroke-width: 0.8"/>
    <path d="M 261.330976 337.517039 
L 365.289555 239.870236 
L 368.1666 104.421971 
" style="fill: none; stroke: #b0b0b0; stroke-width: 0.8"/>
    <path d="M 294.531545 348.360344 
L 396.56415 248.960526 
L 400.850829 112.706471 
" style="fill: none; stroke: #b0b0b0; stroke-width: 0.8"/>
    <path d="M 328.357601 359.407934 
L 428.377579 258.207434 
L 434.123324 121.140078 
" style="fill: none; stroke: #b0b0b0; stroke-width: 0.8"/>
   </g>
   <g id="xtick_1">
    <g id="line2d_2">
     <path d="M 166.264739 305.350836 
L 163.406579 307.774866 
" style="fill: none; stroke: #000000; stroke-width: 0.8; stroke-linecap: square"/>
    </g>
    <g id="text_2">
     <!-- 0.0 -->
     <g transform="translate(149.838361 329.45517) scale(0.1 -0.1)">
      <defs>
       <path id="DejaVuSans-30" d="M 2034 4250 
Q 1547 4250 1301 3770 
Q 1056 3291 1056 2328 
Q 1056 1369 1301 889 
Q 1547 409 2034 409 
Q 2525 409 2770 889 
Q 3016 1369 3016 2328 
Q 3016 3291 2770 3770 
Q 2525 4250 2034 4250 
z
M 2034 4750 
Q 2819 4750 3233 4129 
Q 3647 3509 3647 2328 
Q 3647 1150 3233 529 
Q 2819 -91 2034 -91 
Q 1250 -91 836 529 
Q 422 1150 422 2328 
Q 422 3509 836 4129 
Q 1250 4750 2034 4750 
z
" transform="scale(0.015625)"/>
       <path id="DejaVuSans-2e" d="M 684 794 
L 1344 794 
L 1344 0 
L 684 0 
L 684 794 
z
" transform="scale(0.015625)"/>
      </defs>
      <use xlink:href="#DejaVuSans-30"/>
      <use xlink:href="#DejaVuSans-2e" x="63.623047"/>
      <use xlink:href="#DejaVuSans-30" x="95.410156"/>
     </g>
    </g>
   </g>
   <g id="xtick_2">
    <g id="line2d_3">
     <path d="M 197.675521 315.59946 
L 194.859383 318.067714 
" style="fill: none; stroke: #000000; stroke-width: 0.8; stroke-linecap: square"/>
    </g>
    <g id="text_3">
     <!-- 0.2 -->
     <g transform="translate(181.288873 339.892219) scale(0.1 -0.1)">
      <defs>
       <path id="DejaVuSans-32" d="M 1228 531 
L 3431 531 
L 3431 0 
L 469 0 
L 469 531 
Q 828 903 1448 1529 
Q 2069 2156 2228 2338 
Q 2531 2678 2651 2914 
Q 2772 3150 2772 3378 
Q 2772 3750 2511 3984 
Q 2250 4219 1831 4219 
Q 1534 4219 1204 4116 
Q 875 4013 500 3803 
L 500 4441 
Q 881 4594 1212 4672 
Q 1544 4750 1819 4750 
Q 2544 4750 2975 4387 
Q 3406 4025 3406 3419 
Q 3406 3131 3298 2873 
Q 3191 2616 2906 2266 
Q 2828 2175 2409 1742 
Q 1991 1309 1228 531 
z
" transform="scale(0.015625)"/>
      </defs>
      <use xlink:href="#DejaVuSans-30"/>
      <use xlink:href="#DejaVuSans-2e" x="63.623047"/>
      <use xlink:href="#DejaVuSans-32" x="95.410156"/>
     </g>
    </g>
   </g>
   <g id="xtick_3">
    <g id="line2d_4">
     <path d="M 229.661388 326.035721 
L 226.889301 328.549422 
" style="fill: none; stroke: #000000; stroke-width: 0.8; stroke-linecap: square"/>
    </g>
    <g id="text_4">
     <!-- 0.4 -->
     <g transform="translate(213.317362 350.521073) scale(0.1 -0.1)">
      <defs>
       <path id="DejaVuSans-34" d="M 2419 4116 
L 825 1625 
L 2419 1625 
L 2419 4116 
z
M 2253 4666 
L 3047 4666 
L 3047 1625 
L 3713 1625 
L 3713 1100 
L 3047 1100 
L 3047 0 
L 2419 0 
L 2419 1100 
L 313 1100 
L 313 1709 
L 2253 4666 
z
" transform="scale(0.015625)"/>
      </defs>
      <use xlink:href="#DejaVuSans-30"/>
      <use xlink:href="#DejaVuSans-2e" x="63.623047"/>
      <use xlink:href="#DejaVuSans-34" x="95.410156"/>
     </g>
    </g>
   </g>
   <g id="xtick_4">
    <g id="line2d_5">
     <path d="M 262.238281 336.66482 
L 259.512363 339.225235 
" style="fill: none; stroke: #000000; stroke-width: 0.8; stroke-linecap: square"/>
    </g>
    <g id="text_5">
     <!-- 0.6 -->
     <g transform="translate(245.939906 361.347069) scale(0.1 -0.1)">
      <defs>
       <path id="DejaVuSans-36" d="M 2113 2584 
Q 1688 2584 1439 2293 
Q 1191 2003 1191 1497 
Q 1191 994 1439 701 
Q 1688 409 2113 409 
Q 2538 409 2786 701 
Q 3034 994 3034 1497 
Q 3034 2003 2786 2293 
Q 2538 2584 2113 2584 
z
M 3366 4563 
L 3366 3988 
Q 3128 4100 2886 4159 
Q 2644 4219 2406 4219 
Q 1781 4219 1451 3797 
Q 1122 3375 1075 2522 
Q 1259 2794 1537 2939 
Q 1816 3084 2150 3084 
Q 2853 3084 3261 2657 
Q 3669 2231 3669 1497 
Q 3669 778 3244 343 
Q 2819 -91 2113 -91 
Q 1303 -91 875 529 
Q 447 1150 447 2328 
Q 447 3434 972 4092 
Q 1497 4750 2381 4750 
Q 2619 4750 2861 4703 
Q 3103 4656 3366 4563 
z
" transform="scale(0.015625)"/>
      </defs>
      <use xlink:href="#DejaVuSans-30"/>
      <use xlink:href="#DejaVuSans-2e" x="63.623047"/>
      <use xlink:href="#DejaVuSans-36" x="95.410156"/>
     </g>
    </g>
   </g>
   <g id="xtick_5">
    <g id="line2d_6">
     <path d="M 295.422733 347.492152 
L 292.745201 350.100595 
" style="fill: none; stroke: #000000; stroke-width: 0.8; stroke-linecap: square"/>
    </g>
    <g id="text_6">
     <!-- 0.8 -->
     <g transform="translate(279.173189 372.375742) scale(0.1 -0.1)">
      <defs>
       <path id="DejaVuSans-38" d="M 2034 2216 
Q 1584 2216 1326 1975 
Q 1069 1734 1069 1313 
Q 1069 891 1326 650 
Q 1584 409 2034 409 
Q 2484 409 2743 651 
Q 3003 894 3003 1313 
Q 3003 1734 2745 1975 
Q 2488 2216 2034 2216 
z
M 1403 2484 
Q 997 2584 770 2862 
Q 544 3141 544 3541 
Q 544 4100 942 4425 
Q 1341 4750 2034 4750 
Q 2731 4750 3128 4425 
Q 3525 4100 3525 3541 
Q 3525 3141 3298 2862 
Q 3072 2584 2669 2484 
Q 3125 2378 3379 2068 
Q 3634 1759 3634 1313 
Q 3634 634 3220 271 
Q 2806 -91 2034 -91 
Q 1263 -91 848 271 
Q 434 634 434 1313 
Q 434 1759 690 2068 
Q 947 2378 1403 2484 
z
M 1172 3481 
Q 1172 3119 1398 2916 
Q 1625 2713 2034 2713 
Q 2441 2713 2670 2916 
Q 2900 3119 2900 3481 
Q 2900 3844 2670 4047 
Q 2441 4250 2034 4250 
Q 1625 4250 1398 4047 
Q 1172 3844 1172 3481 
z
" transform="scale(0.015625)"/>
      </defs>
      <use xlink:href="#DejaVuSans-30"/>
      <use xlink:href="#DejaVuSans-2e" x="63.623047"/>
      <use xlink:href="#DejaVuSans-38" x="95.410156"/>
     </g>
    </g>
   </g>
   <g id="xtick_6">
    <g id="line2d_7">
     <path d="M 329.231902 358.523314 
L 326.605071 361.18115 
" style="fill: none; stroke: #000000; stroke-width: 0.8; stroke-linecap: square"/>
    </g>
    <g id="text_7">
     <!-- 1.0 -->
     <g transform="translate(313.034524 383.612838) scale(0.1 -0.1)">
      <defs>
       <path id="DejaVuSans-31" d="M 794 531 
L 1825 531 
L 1825 4091 
L 703 3866 
L 703 4441 
L 1819 4666 
L 2450 4666 
L 2450 531 
L 3481 531 
L 3481 0 
L 794 0 
L 794 531 
z
" transform="scale(0.015625)"/>
      </defs>
      <use xlink:href="#DejaVuSans-31"/>
      <use xlink:href="#DejaVuSans-2e" x="63.623047"/>
      <use xlink:href="#DejaVuSans-30" x="95.410156"/>
     </g>
    </g>
   </g>
  </g>
  <g id="axis3d_2">
   <g id="line2d_8">
    <path d="M 440.113001 261.618458 
L 340.849086 363.487653 
" style="fill: none; stroke: #000000; stroke-width: 0.8; stroke-linecap: square"/>
   </g>
   <g id="text_8">
    <!-- $\alpha$ -->
    <g transform="translate(419.340166 342.565791) rotate(-45.742112) scale(0.1 -0.1)">
     <defs>
      <path id="DejaVuSans-Oblique-3b1" d="M 2619 1628 
L 2622 2350 
Q 2625 3088 2069 3091 
Q 1653 3094 1394 2747 
Q 1069 2319 959 1747 
Q 825 1059 994 731 
Q 1169 397 1547 397 
Q 1966 397 2319 1063 
L 2619 1628 
z
M 2166 3578 
Q 3141 3594 3128 2584 
Q 3128 2584 3616 3500 
L 4128 3500 
L 3119 1603 
L 3109 919 
Q 3109 766 3194 638 
Q 3291 488 3391 488 
L 3669 488 
L 3575 0 
L 3228 0 
Q 2934 0 2722 263 
Q 2622 394 2619 669 
Q 2416 334 2066 50 
Q 1900 -81 1453 -78 
Q 722 -72 456 397 
Q 184 884 353 1747 
Q 534 2675 1009 3097 
Q 1544 3569 2166 3578 
z
" transform="scale(0.015625)"/>
     </defs>
     <use xlink:href="#DejaVuSans-Oblique-3b1" transform="translate(0 0.84375)"/>
    </g>
   </g>
   <g id="Line3DCollection_2">
    <path d="M 155.172616 155.782459 
L 161.56611 296.116734 
L 347.717381 356.439093 
" style="fill: none; stroke: #b0b0b0; stroke-width: 0.8"/>
    <path d="M 176.531541 140.195689 
L 181.897278 279.074747 
L 366.144457 337.52838 
" style="fill: none; stroke: #b0b0b0; stroke-width: 0.8"/>
    <path d="M 197.221831 125.096857 
L 201.619298 262.543358 
L 383.990651 319.213795 
" style="fill: none; stroke: #b0b0b0; stroke-width: 0.8"/>
    <path d="M 217.274401 110.463405 
L 220.759142 246.499962 
L 401.283003 301.467587 
" style="fill: none; stroke: #b0b0b0; stroke-width: 0.8"/>
    <path d="M 236.718286 96.274143 
L 239.342214 230.923262 
L 418.046902 284.263704 
" style="fill: none; stroke: #b0b0b0; stroke-width: 0.8"/>
    <path d="M 255.580787 82.509149 
L 257.392459 215.793189 
L 434.306206 267.577658 
" style="fill: none; stroke: #b0b0b0; stroke-width: 0.8"/>
   </g>
   <g id="xtick_7">
    <g id="line2d_9">
     <path d="M 346.148678 355.930755 
L 350.858842 357.457085 
" style="fill: none; stroke: #000000; stroke-width: 0.8; stroke-linecap: square"/>
    </g>
    <g id="text_9">
     <!-- 0.0 -->
     <g transform="translate(352.64491 377.459216) scale(0.1 -0.1)">
      <use xlink:href="#DejaVuSans-30"/>
      <use xlink:href="#DejaVuSans-2e" x="63.623047"/>
      <use xlink:href="#DejaVuSans-30" x="95.410156"/>
     </g>
    </g>
   </g>
   <g id="xtick_8">
    <g id="line2d_10">
     <path d="M 364.59306 337.036189 
L 369.251199 338.514014 
" style="fill: none; stroke: #000000; stroke-width: 0.8; stroke-linecap: square"/>
    </g>
    <g id="text_10">
     <!-- 0.2 -->
     <g transform="translate(370.874327 358.324553) scale(0.1 -0.1)">
      <use xlink:href="#DejaVuSans-30"/>
      <use xlink:href="#DejaVuSans-2e" x="63.623047"/>
      <use xlink:href="#DejaVuSans-32" x="95.410156"/>
     </g>
    </g>
   </g>
   <g id="xtick_9">
    <g id="line2d_11">
     <path d="M 382.456256 318.736994 
L 387.063284 320.168591 
" style="fill: none; stroke: #000000; stroke-width: 0.8; stroke-linecap: square"/>
    </g>
    <g id="text_11">
     <!-- 0.4 -->
     <g transform="translate(388.528826 339.793358) scale(0.1 -0.1)">
      <use xlink:href="#DejaVuSans-30"/>
      <use xlink:href="#DejaVuSans-2e" x="63.623047"/>
      <use xlink:href="#DejaVuSans-34" x="95.410156"/>
     </g>
    </g>
   </g>
   <g id="xtick_10">
    <g id="line2d_12">
     <path d="M 399.76531 301.005466 
L 404.322131 302.39297 
" style="fill: none; stroke: #000000; stroke-width: 0.8; stroke-linecap: square"/>
    </g>
    <g id="text_12">
     <!-- 0.6 -->
     <g transform="translate(405.635182 321.837526) scale(0.1 -0.1)">
      <use xlink:href="#DejaVuSans-30"/>
      <use xlink:href="#DejaVuSans-2e" x="63.623047"/>
      <use xlink:href="#DejaVuSans-36" x="95.410156"/>
     </g>
    </g>
   </g>
   <g id="xtick_11">
    <g id="line2d_13">
     <path d="M 416.545614 283.815594 
L 421.053122 285.161012 
" style="fill: none; stroke: #000000; stroke-width: 0.8; stroke-linecap: square"/>
    </g>
    <g id="text_13">
     <!-- 0.8 -->
     <g transform="translate(422.218533 304.43067) scale(0.1 -0.1)">
      <use xlink:href="#DejaVuSans-30"/>
      <use xlink:href="#DejaVuSans-2e" x="63.623047"/>
      <use xlink:href="#DejaVuSans-38" x="95.410156"/>
     </g>
    </g>
   </g>
   <g id="xtick_12">
    <g id="line2d_14">
     <path d="M 432.821031 267.142932 
L 437.280107 268.448149 
" style="fill: none; stroke: #000000; stroke-width: 0.8; stroke-linecap: square"/>
    </g>
    <g id="text_14">
     <!-- 1.0 -->
     <g transform="translate(438.302503 287.547993) scale(0.1 -0.1)">
      <use xlink:href="#DejaVuSans-31"/>
      <use xlink:href="#DejaVuSans-2e" x="63.623047"/>
      <use xlink:href="#DejaVuSans-30" x="95.410156"/>
     </g>
    </g>
   </g>
  </g>
  <g id="axis3d_3">
   <g id="line2d_15">
    <path d="M 440.113001 261.618458 
L 446.403377 124.252714 
" style="fill: none; stroke: #000000; stroke-width: 0.8; stroke-linecap: square"/>
   </g>
   <g id="text_15">
    <!-- Energy -->
    <g transform="translate(485.574411 206.637924) rotate(-87.378092) scale(0.1 -0.1)">
     <defs>
      <path id="DejaVuSans-45" d="M 628 4666 
L 3578 4666 
L 3578 4134 
L 1259 4134 
L 1259 2753 
L 3481 2753 
L 3481 2222 
L 1259 2222 
L 1259 531 
L 3634 531 
L 3634 0 
L 628 0 
L 628 4666 
z
" transform="scale(0.015625)"/>
      <path id="DejaVuSans-6e" d="M 3513 2113 
L 3513 0 
L 2938 0 
L 2938 2094 
Q 2938 2591 2744 2837 
Q 2550 3084 2163 3084 
Q 1697 3084 1428 2787 
Q 1159 2491 1159 1978 
L 1159 0 
L 581 0 
L 581 3500 
L 1159 3500 
L 1159 2956 
Q 1366 3272 1645 3428 
Q 1925 3584 2291 3584 
Q 2894 3584 3203 3211 
Q 3513 2838 3513 2113 
z
" transform="scale(0.015625)"/>
      <path id="DejaVuSans-65" d="M 3597 1894 
L 3597 1613 
L 953 1613 
Q 991 1019 1311 708 
Q 1631 397 2203 397 
Q 2534 397 2845 478 
Q 3156 559 3463 722 
L 3463 178 
Q 3153 47 2828 -22 
Q 2503 -91 2169 -91 
Q 1331 -91 842 396 
Q 353 884 353 1716 
Q 353 2575 817 3079 
Q 1281 3584 2069 3584 
Q 2775 3584 3186 3129 
Q 3597 2675 3597 1894 
z
M 3022 2063 
Q 3016 2534 2758 2815 
Q 2500 3097 2075 3097 
Q 1594 3097 1305 2825 
Q 1016 2553 972 2059 
L 3022 2063 
z
" transform="scale(0.015625)"/>
      <path id="DejaVuSans-72" d="M 2631 2963 
Q 2534 3019 2420 3045 
Q 2306 3072 2169 3072 
Q 1681 3072 1420 2755 
Q 1159 2438 1159 1844 
L 1159 0 
L 581 0 
L 581 3500 
L 1159 3500 
L 1159 2956 
Q 1341 3275 1631 3429 
Q 1922 3584 2338 3584 
Q 2397 3584 2469 3576 
Q 2541 3569 2628 3553 
L 2631 2963 
z
" transform="scale(0.015625)"/>
      <path id="DejaVuSans-67" d="M 2906 1791 
Q 2906 2416 2648 2759 
Q 2391 3103 1925 3103 
Q 1463 3103 1205 2759 
Q 947 2416 947 1791 
Q 947 1169 1205 825 
Q 1463 481 1925 481 
Q 2391 481 2648 825 
Q 2906 1169 2906 1791 
z
M 3481 434 
Q 3481 -459 3084 -895 
Q 2688 -1331 1869 -1331 
Q 1566 -1331 1297 -1286 
Q 1028 -1241 775 -1147 
L 775 -588 
Q 1028 -725 1275 -790 
Q 1522 -856 1778 -856 
Q 2344 -856 2625 -561 
Q 2906 -266 2906 331 
L 2906 616 
Q 2728 306 2450 153 
Q 2172 0 1784 0 
Q 1141 0 747 490 
Q 353 981 353 1791 
Q 353 2603 747 3093 
Q 1141 3584 1784 3584 
Q 2172 3584 2450 3431 
Q 2728 3278 2906 2969 
L 2906 3500 
L 3481 3500 
L 3481 434 
z
" transform="scale(0.015625)"/>
      <path id="DejaVuSans-79" d="M 2059 -325 
Q 1816 -950 1584 -1140 
Q 1353 -1331 966 -1331 
L 506 -1331 
L 506 -850 
L 844 -850 
Q 1081 -850 1212 -737 
Q 1344 -625 1503 -206 
L 1606 56 
L 191 3500 
L 800 3500 
L 1894 763 
L 2988 3500 
L 3597 3500 
L 2059 -325 
z
" transform="scale(0.015625)"/>
     </defs>
     <use xlink:href="#DejaVuSans-45"/>
     <use xlink:href="#DejaVuSans-6e" x="63.183594"/>
     <use xlink:href="#DejaVuSans-65" x="126.5625"/>
     <use xlink:href="#DejaVuSans-72" x="188.085938"/>
     <use xlink:href="#DejaVuSans-67" x="227.449219"/>
     <use xlink:href="#DejaVuSans-79" x="290.925781"/>
    </g>
   </g>
   <g id="Line3DCollection_3">
    <path d="M 440.408139 255.173385 
L 263.773416 204.14135 
L 153.678834 295.862739 
" style="fill: none; stroke: #b0b0b0; stroke-width: 0.8"/>
    <path d="M 441.163188 238.685059 
L 263.589822 188.175568 
L 152.865636 278.976137 
" style="fill: none; stroke: #b0b0b0; stroke-width: 0.8"/>
    <path d="M 441.926383 222.01883 
L 263.404342 172.045747 
L 152.043328 261.90039 
" style="fill: none; stroke: #b0b0b0; stroke-width: 0.8"/>
    <path d="M 442.697857 205.171803 
L 263.216946 155.749346 
L 151.211758 244.632303 
" style="fill: none; stroke: #b0b0b0; stroke-width: 0.8"/>
    <path d="M 443.477746 188.14102 
L 263.027605 139.283771 
L 150.370769 227.168608 
" style="fill: none; stroke: #b0b0b0; stroke-width: 0.8"/>
    <path d="M 444.266188 170.923457 
L 262.836289 122.646374 
L 149.520198 209.505962 
" style="fill: none; stroke: #b0b0b0; stroke-width: 0.8"/>
    <path d="M 445.063325 153.516026 
L 262.642965 105.834452 
L 148.659882 191.640946 
" style="fill: none; stroke: #b0b0b0; stroke-width: 0.8"/>
    <path d="M 445.869301 135.915568 
L 262.447603 88.845244 
L 147.789653 173.570062 
" style="fill: none; stroke: #b0b0b0; stroke-width: 0.8"/>
   </g>
   <g id="xtick_13">
    <g id="line2d_16">
     <path d="M 438.925542 254.745044 
L 443.376868 256.031089 
" style="fill: none; stroke: #000000; stroke-width: 0.8; stroke-linecap: square"/>
    </g>
    <g id="text_16">
     <!-- −1.2 -->
     <g transform="translate(446.563899 260.175298) scale(0.1 -0.1)">
      <defs>
       <path id="DejaVuSans-2212" d="M 678 2272 
L 4684 2272 
L 4684 1741 
L 678 1741 
L 678 2272 
z
" transform="scale(0.015625)"/>
      </defs>
      <use xlink:href="#DejaVuSans-2212"/>
      <use xlink:href="#DejaVuSans-31" x="83.789062"/>
      <use xlink:href="#DejaVuSans-2e" x="147.412109"/>
      <use xlink:href="#DejaVuSans-32" x="179.199219"/>
     </g>
    </g>
   </g>
   <g id="xtick_14">
    <g id="line2d_17">
     <path d="M 439.672337 238.260997 
L 444.148462 239.5342 
" style="fill: none; stroke: #000000; stroke-width: 0.8; stroke-linecap: square"/>
    </g>
    <g id="text_17">
     <!-- −1.0 -->
     <g transform="translate(447.415064 243.71294) scale(0.1 -0.1)">
      <use xlink:href="#DejaVuSans-2212"/>
      <use xlink:href="#DejaVuSans-31" x="83.789062"/>
      <use xlink:href="#DejaVuSans-2e" x="147.412109"/>
      <use xlink:href="#DejaVuSans-30" x="179.199219"/>
     </g>
    </g>
   </g>
   <g id="xtick_15">
    <g id="line2d_18">
     <path d="M 440.427186 221.599165 
L 444.928388 222.859172 
" style="fill: none; stroke: #000000; stroke-width: 0.8; stroke-linecap: square"/>
    </g>
    <g id="text_18">
     <!-- −0.8 -->
     <g transform="translate(448.275391 227.073392) scale(0.1 -0.1)">
      <use xlink:href="#DejaVuSans-2212"/>
      <use xlink:href="#DejaVuSans-30" x="83.789062"/>
      <use xlink:href="#DejaVuSans-2e" x="147.412109"/>
      <use xlink:href="#DejaVuSans-38" x="179.199219"/>
     </g>
    </g>
   </g>
   <g id="xtick_16">
    <g id="line2d_19">
     <path d="M 441.190221 204.756655 
L 445.716781 206.003104 
" style="fill: none; stroke: #000000; stroke-width: 0.8; stroke-linecap: square"/>
    </g>
    <g id="text_19">
     <!-- −0.6 -->
     <g transform="translate(449.145028 210.253775) scale(0.1 -0.1)">
      <use xlink:href="#DejaVuSans-2212"/>
      <use xlink:href="#DejaVuSans-30" x="83.789062"/>
      <use xlink:href="#DejaVuSans-2e" x="147.412109"/>
      <use xlink:href="#DejaVuSans-36" x="179.199219"/>
     </g>
    </g>
   </g>
   <g id="xtick_17">
    <g id="line2d_20">
     <path d="M 441.961575 187.730513 
L 446.513781 188.963032 
" style="fill: none; stroke: #000000; stroke-width: 0.8; stroke-linecap: square"/>
    </g>
    <g id="text_20">
     <!-- −0.4 -->
     <g transform="translate(450.024128 193.251153) scale(0.1 -0.1)">
      <use xlink:href="#DejaVuSans-2212"/>
      <use xlink:href="#DejaVuSans-30" x="83.789062"/>
      <use xlink:href="#DejaVuSans-2e" x="147.412109"/>
      <use xlink:href="#DejaVuSans-34" x="179.199219"/>
     </g>
    </g>
   </g>
   <g id="xtick_18">
    <g id="line2d_21">
     <path d="M 442.741385 170.517719 
L 447.319529 171.735927 
" style="fill: none; stroke: #000000; stroke-width: 0.8; stroke-linecap: square"/>
    </g>
    <g id="text_21">
     <!-- −0.2 -->
     <g transform="translate(450.912844 176.062521) scale(0.1 -0.1)">
      <use xlink:href="#DejaVuSans-2212"/>
      <use xlink:href="#DejaVuSans-30" x="83.789062"/>
      <use xlink:href="#DejaVuSans-2e" x="147.412109"/>
      <use xlink:href="#DejaVuSans-32" x="179.199219"/>
     </g>
    </g>
   </g>
   <g id="xtick_19">
    <g id="line2d_22">
     <path d="M 443.529791 153.115186 
L 448.134169 154.318693 
" style="fill: none; stroke: #000000; stroke-width: 0.8; stroke-linecap: square"/>
    </g>
    <g id="text_22">
     <!-- 0.0 -->
     <g transform="translate(456.001181 158.684811) scale(0.1 -0.1)">
      <use xlink:href="#DejaVuSans-30"/>
      <use xlink:href="#DejaVuSans-2e" x="63.623047"/>
      <use xlink:href="#DejaVuSans-30" x="95.410156"/>
     </g>
    </g>
   </g>
   <g id="xtick_20">
    <g id="line2d_23">
     <path d="M 444.326936 135.519761 
L 448.95785 136.708163 
" style="fill: none; stroke: #000000; stroke-width: 0.8; stroke-linecap: square"/>
    </g>
    <g id="text_23">
     <!-- 0.2 -->
     <g transform="translate(456.909612 141.114884) scale(0.1 -0.1)">
      <use xlink:href="#DejaVuSans-30"/>
      <use xlink:href="#DejaVuSans-2e" x="63.623047"/>
      <use xlink:href="#DejaVuSans-32" x="95.410156"/>
     </g>
    </g>
   </g>
  </g>
  <g id="axes_1">
   <g id="Poly3DCollection_1">
    <path d="M 263.263751 204.701963 
L 271.131247 206.730341 
L 275.795552 200.490443 
L 267.941658 198.487603 
z
" clip-path="url(#pb71147e1e4)" style="fill: #46337f"/>
    <path d="M 271.131247 206.730341 
L 279.031562 208.269914 
L 283.682816 201.995047 
L 275.795552 200.490443 
z
" clip-path="url(#pb71147e1e4)" style="fill: #463480"/>
    <path d="M 258.554644 210.783745 
L 266.436209 212.837968 
L 271.131247 206.730341 
L 263.263751 204.701963 
z
" clip-path="url(#pb71147e1e4)" style="fill: #472d7b"/>
    <path d="M 279.031562 208.269914 
L 286.968691 209.307825 
L 291.607525 202.989577 
L 283.682816 201.995047 
z
" clip-path="url(#pb71147e1e4)" style="fill: #453781"/>
    <path d="M 266.436209 212.837968 
L 274.350068 214.413436 
L 279.031562 208.269914 
L 271.131247 206.730341 
z
" clip-path="url(#pb71147e1e4)" style="fill: #472e7c"/>
    <path d="M 253.813296 216.734803 
L 261.709396 218.815233 
L 266.436209 212.837968 
L 258.554644 210.783745 
z
" clip-path="url(#pb71147e1e4)" style="fill: #482677"/>
    <path d="M 286.968691 209.307825 
L 294.946801 209.825296 
L 299.573922 203.45674 
L 291.607525 202.989577 
z
" clip-path="url(#pb71147e1e4)" style="fill: #443a83"/>
    <path d="M 274.350068 214.413436 
L 282.30013 215.49608 
L 286.968691 209.307825 
L 279.031562 208.269914 
z
" clip-path="url(#pb71147e1e4)" style="fill: #46307e"/>
    <path d="M 261.709396 218.815233 
L 269.637298 220.42766 
L 274.350068 214.413436 
L 266.436209 212.837968 
z
" clip-path="url(#pb71147e1e4)" style="fill: #482878"/>
    <path d="M 249.038657 222.557123 
L 256.949759 224.664188 
L 261.709396 218.815233 
L 253.813296 216.734803 
z
" clip-path="url(#pb71147e1e4)" style="fill: #482173"/>
    <path d="M 294.946801 209.825296 
L 302.970307 209.799124 
L 307.586488 203.375008 
L 299.573922 203.45674 
z
" clip-path="url(#pb71147e1e4)" style="fill: #424086"/>
    <path d="M 282.30013 215.49608 
L 290.290476 216.06539 
L 294.946801 209.825296 
L 286.968691 209.307825 
z
" clip-path="url(#pb71147e1e4)" style="fill: #463480"/>
    <path d="M 269.637298 220.42766 
L 277.600813 221.556561 
L 282.30013 215.49608 
L 274.350068 214.413436 
z
" clip-path="url(#pb71147e1e4)" style="fill: #472a7a"/>
    <path d="M 256.949759 224.664188 
L 264.892209 226.3148 
L 269.637298 220.42766 
L 261.709396 218.815233 
z
" clip-path="url(#pb71147e1e4)" style="fill: #482374"/>
    <path d="M 244.229668 228.252854 
L 252.156243 230.387062 
L 256.949759 224.664188 
L 249.038657 222.557123 
z
" clip-path="url(#pb71147e1e4)" style="fill: #481c6e"/>
    <path d="M 302.970307 209.799124 
L 311.043927 209.203189 
L 315.649997 202.719901 
L 307.586488 203.375008 
z
" clip-path="url(#pb71147e1e4)" style="fill: #404688"/>
    <path d="M 290.290476 216.06539 
L 298.325447 216.096247 
L 302.970307 209.799124 
L 294.946801 209.825296 
z
" clip-path="url(#pb71147e1e4)" style="fill: #443a83"/>
    <path d="M 277.600813 221.556561 
L 285.603924 222.179391 
L 290.290476 216.06539 
L 282.30013 215.49608 
z
" clip-path="url(#pb71147e1e4)" style="fill: #472f7d"/>
    <path d="M 264.892209 226.3148 
L 272.869704 227.491674 
L 277.600813 221.556561 
L 269.637298 220.42766 
z
" clip-path="url(#pb71147e1e4)" style="fill: #482576"/>
    <path d="M 252.156243 230.387062 
L 260.113753 232.077272 
L 264.892209 226.3148 
L 256.949759 224.664188 
z
" clip-path="url(#pb71147e1e4)" style="fill: #481d6f"/>
    <path d="M 239.385267 233.824336 
L 247.327786 235.986292 
L 252.156243 230.387062 
L 244.229668 228.252854 
z
" clip-path="url(#pb71147e1e4)" style="fill: #48186a"/>
    <path d="M 298.325447 216.096247 
L 306.409703 215.560714 
L 311.043927 209.203189 
L 302.970307 209.799124 
z
" clip-path="url(#pb71147e1e4)" style="fill: #424086"/>
    <path d="M 285.603924 222.179391 
L 293.650892 222.268845 
L 298.325447 216.096247 
L 290.290476 216.06539 
z
" clip-path="url(#pb71147e1e4)" style="fill: #463480"/>
    <path d="M 311.043927 209.203189 
L 319.172718 208.00973 
L 323.769543 201.465101 
L 315.649997 202.719901 
z
" clip-path="url(#pb71147e1e4)" style="fill: #3d4e8a"/>
    <path d="M 272.869704 227.491674 
L 280.886119 228.169867 
L 285.603924 222.179391 
L 277.600813 221.556561 
z
" clip-path="url(#pb71147e1e4)" style="fill: #482979"/>
    <path d="M 260.113753 232.077272 
L 268.105764 233.304053 
L 272.869704 227.491674 
L 264.892209 226.3148 
z
" clip-path="url(#pb71147e1e4)" style="fill: #482071"/>
    <path d="M 247.327786 235.986292 
L 255.300875 237.717739 
L 260.113753 232.077272 
L 252.156243 230.387062 
z
" clip-path="url(#pb71147e1e4)" style="fill: #481a6c"/>
    <path d="M 234.504387 239.274147 
L 242.463325 241.464571 
L 247.327786 235.986292 
L 239.385267 233.824336 
z
" clip-path="url(#pb71147e1e4)" style="fill: #481467"/>
    <path d="M 293.650892 222.268845 
L 301.746312 221.794974 
L 306.409703 215.560714 
L 298.325447 216.096247 
z
" clip-path="url(#pb71147e1e4)" style="fill: #443a83"/>
    <path d="M 306.409703 215.560714 
L 314.548258 214.429474 
L 319.172718 208.00973 
L 311.043927 209.203189 
z
" clip-path="url(#pb71147e1e4)" style="fill: #3f4889"/>
    <path d="M 280.886119 228.169867 
L 288.94562 228.319574 
L 293.650892 222.268845 
L 285.603924 222.179391 
z
" clip-path="url(#pb71147e1e4)" style="fill: #472f7d"/>
    <path d="M 319.172718 208.00973 
L 327.36209 206.190249 
L 331.950565 199.583297 
L 323.769543 201.465101 
z
" clip-path="url(#pb71147e1e4)" style="fill: #38588c"/>
    <path d="M 268.105764 233.304053 
L 276.136027 234.039617 
L 280.886119 228.169867 
L 272.869704 227.491674 
z
" clip-path="url(#pb71147e1e4)" style="fill: #482475"/>
    <path d="M 255.300875 237.717739 
L 263.30795 238.996605 
L 268.105764 233.304053 
L 260.113753 232.077272 
z
" clip-path="url(#pb71147e1e4)" style="fill: #481c6e"/>
    <path d="M 242.463325 241.464571 
L 250.452523 243.239166 
L 255.300875 237.717739 
L 247.327786 235.986292 
z
" clip-path="url(#pb71147e1e4)" style="fill: #481668"/>
    <path d="M 288.94562 228.319574 
L 297.052736 227.908632 
L 301.746312 221.794974 
L 293.650892 222.268845 
z
" clip-path="url(#pb71147e1e4)" style="fill: #453581"/>
    <path d="M 301.746312 221.794974 
L 309.895154 220.726801 
L 314.548258 214.429474 
L 306.409703 215.560714 
z
" clip-path="url(#pb71147e1e4)" style="fill: #414287"/>
    <path d="M 229.585963 244.605149 
L 237.561797 246.824911 
L 242.463325 241.464571 
L 234.504387 239.274147 
z
" clip-path="url(#pb71147e1e4)" style="fill: #471063"/>
    <path d="M 276.136027 234.039617 
L 284.208606 234.251304 
L 288.94562 228.319574 
L 280.886119 228.169867 
z
" clip-path="url(#pb71147e1e4)" style="fill: #472a7a"/>
    <path d="M 314.548258 214.429474 
L 322.746496 212.672799 
L 327.36209 206.190249 
L 319.172718 208.00973 
z
" clip-path="url(#pb71147e1e4)" style="fill: #3b518b"/>
    <path d="M 263.30795 238.996605 
L 271.352615 239.791713 
L 276.136027 234.039617 
L 268.105764 233.304053 
z
" clip-path="url(#pb71147e1e4)" style="fill: #482071"/>
    <path d="M 327.36209 206.190249 
L 335.617821 203.716071 
L 340.198856 197.046727 
L 331.950565 199.583297 
z
" clip-path="url(#pb71147e1e4)" style="fill: #34618d"/>
    <path d="M 250.452523 243.239166 
L 258.475218 244.572566 
L 263.30795 238.996605 
L 255.300875 237.717739 
z
" clip-path="url(#pb71147e1e4)" style="fill: #48186a"/>
    <path d="M 237.561797 246.824911 
L 245.567645 248.644889 
L 250.452523 243.239166 
L 242.463325 241.464571 
z
" clip-path="url(#pb71147e1e4)" style="fill: #471164"/>
    <path d="M 297.052736 227.908632 
L 305.21239 226.904306 
L 309.895154 220.726801 
L 301.746312 221.794974 
z
" clip-path="url(#pb71147e1e4)" style="fill: #433e85"/>
    <path d="M 284.208606 234.251304 
L 292.327953 233.90453 
L 297.052736 227.908632 
L 288.94562 228.319574 
z
" clip-path="url(#pb71147e1e4)" style="fill: #46307e"/>
    <path d="M 309.895154 220.726801 
L 318.102773 219.033329 
L 322.746496 212.672799 
L 314.548258 214.429474 
z
" clip-path="url(#pb71147e1e4)" style="fill: #3e4c8a"/>
    <path d="M 224.628932 249.820556 
L 232.622142 252.070713 
L 237.561797 246.824911 
L 229.585963 244.605149 
z
" clip-path="url(#pb71147e1e4)" style="fill: #470d60"/>
    <path d="M 271.352615 239.791713 
L 279.438819 240.06715 
L 284.208606 234.251304 
L 276.136027 234.039617 
z
" clip-path="url(#pb71147e1e4)" style="fill: #482576"/>
    <path d="M 322.746496 212.672799 
L 331.010177 210.261093 
L 335.617821 203.716071 
L 327.36209 206.190249 
z
" clip-path="url(#pb71147e1e4)" style="fill: #365c8d"/>
    <path d="M 258.475218 244.572566 
L 266.534847 245.429544 
L 271.352615 239.791713 
L 263.30795 238.996605 
z
" clip-path="url(#pb71147e1e4)" style="fill: #481c6e"/>
    <path d="M 335.617821 203.716071 
L 343.946056 200.558608 
L 348.520572 193.827474 
L 340.198856 197.046727 
z
" clip-path="url(#pb71147e1e4)" style="fill: #2f6c8e"/>
    <path d="M 245.567645 248.644889 
L 253.60653 250.035569 
L 258.475218 244.572566 
L 250.452523 243.239166 
z
" clip-path="url(#pb71147e1e4)" style="fill: #481467"/>
    <path d="M 232.622142 252.070713 
L 240.645196 253.938707 
L 245.567645 248.644889 
L 237.561797 246.824911 
z
" clip-path="url(#pb71147e1e4)" style="fill: #470e61"/>
    <path d="M 292.327953 233.90453 
L 300.498944 232.964724 
L 305.21239 226.904306 
L 297.052736 227.908632 
z
" clip-path="url(#pb71147e1e4)" style="fill: #453882"/>
    <path d="M 279.438819 240.06715 
L 287.570937 239.785708 
L 292.327953 233.90453 
L 284.208606 234.251304 
z
" clip-path="url(#pb71147e1e4)" style="fill: #472c7a"/>
    <path d="M 305.21239 226.904306 
L 313.429908 225.274316 
L 318.102773 219.033329 
L 309.895154 220.726801 
z
" clip-path="url(#pb71147e1e4)" style="fill: #3f4788"/>
    <path d="M 266.534847 245.429544 
L 274.635231 245.770498 
L 279.438819 240.06715 
L 271.352615 239.791713 
z
" clip-path="url(#pb71147e1e4)" style="fill: #482173"/>
    <path d="M 318.102773 219.033329 
L 326.374915 216.684056 
L 331.010177 210.261093 
L 322.746496 212.672799 
z
" clip-path="url(#pb71147e1e4)" style="fill: #39568c"/>
    <path d="M 219.632238 254.924019 
L 227.643313 257.205875 
L 232.622142 252.070713 
L 224.628932 249.820556 
z
" clip-path="url(#pb71147e1e4)" style="fill: #460a5d"/>
    <path d="M 253.60653 250.035569 
L 261.681694 250.956869 
L 266.534847 245.429544 
L 258.475218 244.572566 
z
" clip-path="url(#pb71147e1e4)" style="fill: #48186a"/>
    <path d="M 331.010177 210.261093 
L 339.345438 207.165119 
L 343.946056 200.558608 
L 335.617821 203.716071 
z
" clip-path="url(#pb71147e1e4)" style="fill: #31678e"/>
    <path d="M 240.645196 253.938707 
L 248.700855 255.389731 
L 253.60653 250.035569 
L 245.567645 248.644889 
z
" clip-path="url(#pb71147e1e4)" style="fill: #471063"/>
    <path d="M 343.946056 200.558608 
L 352.353313 196.689416 
L 356.922233 189.897568 
L 348.520572 193.827474 
z
" clip-path="url(#pb71147e1e4)" style="fill: #2a778e"/>
    <path d="M 227.643313 257.205875 
L 235.684145 259.125 
L 240.645196 253.938707 
L 232.622142 252.070713 
z
" clip-path="url(#pb71147e1e4)" style="fill: #460b5e"/>
    <path d="M 287.570937 239.785708 
L 295.753792 238.910937 
L 300.498944 232.964724 
L 292.327953 233.90453 
z
" clip-path="url(#pb71147e1e4)" style="fill: #463480"/>
    <path d="M 300.498944 232.964724 
L 308.726878 231.398336 
L 313.429908 225.274316 
L 305.21239 226.904306 
z
" clip-path="url(#pb71147e1e4)" style="fill: #424186"/>
    <path d="M 274.635231 245.770498 
L 282.780658 245.555416 
L 287.570937 239.785708 
L 279.438819 240.06715 
z
" clip-path="url(#pb71147e1e4)" style="fill: #482878"/>
    <path d="M 313.429908 225.274316 
L 321.71102 222.987286 
L 326.374915 216.684056 
L 318.102773 219.033329 
z
" clip-path="url(#pb71147e1e4)" style="fill: #3b518b"/>
    <path d="M 261.681694 250.956869 
L 269.796815 251.365035 
L 274.635231 245.770498 
L 266.534847 245.429544 
z
" clip-path="url(#pb71147e1e4)" style="fill: #481d6f"/>
    <path d="M 214.594845 259.919741 
L 222.624276 262.234928 
L 227.643313 257.205875 
L 219.632238 254.924019 
z
" clip-path="url(#pb71147e1e4)" style="fill: #46075a"/>
    <path d="M 326.374915 216.684056 
L 334.717707 213.64913 
L 339.345438 207.165119 
L 331.010177 210.261093 
z
" clip-path="url(#pb71147e1e4)" style="fill: #34618d"/>
    <path d="M 248.700855 255.389731 
L 256.792132 256.377874 
L 261.681694 250.956869 
L 253.60653 250.035569 
z
" clip-path="url(#pb71147e1e4)" style="fill: #481467"/>
    <path d="M 339.345438 207.165119 
L 347.758793 203.355992 
L 352.353313 196.689416 
L 343.946056 200.558608 
z
" clip-path="url(#pb71147e1e4)" style="fill: #2c728e"/>
    <path d="M 235.684145 259.125 
L 243.757175 260.639745 
L 248.700855 255.389731 
L 240.645196 253.938707 
z
" clip-path="url(#pb71147e1e4)" style="fill: #470d60"/>
    <path d="M 222.624276 262.234928 
L 230.683481 264.208888 
L 235.684145 259.125 
L 227.643313 257.205875 
z
" clip-path="url(#pb71147e1e4)" style="fill: #46085c"/>
    <path d="M 282.780658 245.555416 
L 290.975901 244.745971 
L 295.753792 238.910937 
L 287.570937 239.785708 
z
" clip-path="url(#pb71147e1e4)" style="fill: #472f7d"/>
    <path d="M 352.353313 196.689416 
L 360.846485 192.080119 
L 365.410733 185.228952 
L 356.922233 189.897568 
z
" clip-path="url(#pb71147e1e4)" style="fill: #25848e"/>
    <path d="M 295.753792 238.910937 
L 303.992655 237.408061 
L 308.726878 231.398336 
L 300.498944 232.964724 
z
" clip-path="url(#pb71147e1e4)" style="fill: #433d84"/>
    <path d="M 269.796815 251.365035 
L 277.956089 251.217122 
L 282.780658 245.555416 
L 274.635231 245.770498 
z
" clip-path="url(#pb71147e1e4)" style="fill: #482475"/>
    <path d="M 308.726878 231.398336 
L 317.017468 229.173169 
L 321.71102 222.987286 
L 313.429908 225.274316 
z
" clip-path="url(#pb71147e1e4)" style="fill: #3d4d8a"/>
    <path d="M 256.792132 256.377874 
L 264.922546 256.854777 
L 269.796815 251.365035 
L 261.681694 250.956869 
z
" clip-path="url(#pb71147e1e4)" style="fill: #481a6c"/>
    <path d="M 321.71102 222.987286 
L 330.061847 220.0128 
L 334.717707 213.64913 
L 326.374915 216.684056 
z
" clip-path="url(#pb71147e1e4)" style="fill: #365d8d"/>
    <path d="M 209.515736 264.812636 
L 217.56403 267.163235 
L 222.624276 262.234928 
L 214.594845 259.919741 
z
" clip-path="url(#pb71147e1e4)" style="fill: #450559"/>
    <path d="M 243.757175 260.639745 
L 251.865149 261.697224 
L 256.792132 256.377874 
L 248.700855 255.389731 
z
" clip-path="url(#pb71147e1e4)" style="fill: #471164"/>
    <path d="M 334.717707 213.64913 
L 343.137663 209.899273 
L 347.758793 203.355992 
L 339.345438 207.165119 
z
" clip-path="url(#pb71147e1e4)" style="fill: #2e6e8e"/>
    <path d="M 230.683481 264.208888 
L 238.774496 265.791006 
L 243.757175 260.639745 
L 235.684145 259.125 
z
" clip-path="url(#pb71147e1e4)" style="fill: #460a5d"/>
    <path d="M 347.758793 203.355992 
L 356.257138 198.805057 
L 360.846485 192.080119 
L 352.353313 196.689416 
z
" clip-path="url(#pb71147e1e4)" style="fill: #27808e"/>
    <path d="M 290.975901 244.745971 
L 299.226205 243.30625 
L 303.992655 237.408061 
L 295.753792 238.910937 
z
" clip-path="url(#pb71147e1e4)" style="fill: #443983"/>
    <path d="M 277.956089 251.217122 
L 286.16424 250.472994 
L 290.975901 244.745971 
L 282.780658 245.555416 
z
" clip-path="url(#pb71147e1e4)" style="fill: #472c7a"/>
    <path d="M 217.56403 267.163235 
L 225.642229 269.19644 
L 230.683481 264.208888 
L 222.624276 262.234928 
z
" clip-path="url(#pb71147e1e4)" style="fill: #450559"/>
    <path d="M 303.992655 237.408061 
L 312.293228 235.244145 
L 317.017468 229.173169 
L 308.726878 231.398336 
z
" clip-path="url(#pb71147e1e4)" style="fill: #3f4788"/>
    <path d="M 264.922546 256.854777 
L 273.096201 256.774518 
L 277.956089 251.217122 
L 269.796815 251.365035 
z
" clip-path="url(#pb71147e1e4)" style="fill: #482071"/>
    <path d="M 317.017468 229.173169 
L 325.376831 226.258315 
L 330.061847 220.0128 
L 321.71102 222.987286 
z
" clip-path="url(#pb71147e1e4)" style="fill: #38588c"/>
    <path d="M 251.865149 261.697224 
L 260.01141 262.244081 
L 264.922546 256.854777 
L 256.792132 256.377874 
z
" clip-path="url(#pb71147e1e4)" style="fill: #481769"/>
    <path d="M 360.846485 192.080119 
L 369.432855 186.702251 
L 373.993353 179.793366 
L 365.410733 185.228952 
z
" clip-path="url(#pb71147e1e4)" style="fill: #20938c"/>
    <path d="M 204.393935 269.608552 
L 212.461616 271.997282 
L 217.56403 267.163235 
L 209.515736 264.812636 
z
" clip-path="url(#pb71147e1e4)" style="fill: #450457"/>
    <path d="M 330.061847 220.0128 
L 338.488903 216.321245 
L 343.137663 209.899273 
L 334.717707 213.64913 
z
" clip-path="url(#pb71147e1e4)" style="fill: #30698e"/>
    <path d="M 238.774496 265.791006 
L 246.899749 266.920125 
L 251.865149 261.697224 
L 243.757175 260.639745 
z
" clip-path="url(#pb71147e1e4)" style="fill: #470e61"/>
    <path d="M 225.642229 269.19644 
L 233.751851 270.849741 
L 238.774496 265.791006 
L 230.683481 264.208888 
z
" clip-path="url(#pb71147e1e4)" style="fill: #46085c"/>
    <path d="M 343.137663 209.899273 
L 351.64168 205.405593 
L 356.257138 198.805057 
L 347.758793 203.355992 
z
" clip-path="url(#pb71147e1e4)" style="fill: #297a8e"/>
    <path d="M 286.16424 250.472994 
L 294.426491 249.09574 
L 299.226205 243.30625 
L 290.975901 244.745971 
z
" clip-path="url(#pb71147e1e4)" style="fill: #463480"/>
    <path d="M 273.096201 256.774518 
L 281.317774 256.095303 
L 286.16424 250.472994 
L 277.956089 251.217122 
z
" clip-path="url(#pb71147e1e4)" style="fill: #482878"/>
    <path d="M 299.226205 243.30625 
L 307.537262 241.202698 
L 312.293228 235.244145 
L 303.992655 237.408061 
z
" clip-path="url(#pb71147e1e4)" style="fill: #414487"/>
    <path d="M 260.01141 262.244081 
L 268.199971 262.231504 
L 273.096201 256.774518 
L 264.922546 256.854777 
z
" clip-path="url(#pb71147e1e4)" style="fill: #481c6e"/>
    <path d="M 212.461616 271.997282 
L 220.559461 274.094955 
L 225.642229 269.19644 
L 217.56403 267.163235 
z
" clip-path="url(#pb71147e1e4)" style="fill: #450457"/>
    <path d="M 312.293228 235.244145 
L 320.661625 232.387884 
L 325.376831 226.258315 
L 317.017468 229.173169 
z
" clip-path="url(#pb71147e1e4)" style="fill: #3a538b"/>
    <path d="M 356.257138 198.805057 
L 364.847758 193.483676 
L 369.432855 186.702251 
L 360.846485 192.080119 
z
" clip-path="url(#pb71147e1e4)" style="fill: #218e8d"/>
    <path d="M 246.899749 266.920125 
L 255.062401 267.537649 
L 260.01141 262.244081 
L 251.865149 261.697224 
z
" clip-path="url(#pb71147e1e4)" style="fill: #471365"/>
    <path d="M 325.376831 226.258315 
L 333.811483 222.623897 
L 338.488903 216.321245 
L 330.061847 220.0128 
z
" clip-path="url(#pb71147e1e4)" style="fill: #32648e"/>
    <path d="M 233.751851 270.849741 
L 241.894958 272.052352 
L 246.899749 266.920125 
L 238.774496 265.791006 
z
" clip-path="url(#pb71147e1e4)" style="fill: #460b5e"/>
    <path d="M 199.228525 274.314609 
L 207.31614 276.745132 
L 212.461616 271.997282 
L 204.393935 269.608552 
z
" clip-path="url(#pb71147e1e4)" style="fill: #440256"/>
    <path d="M 338.488903 216.321245 
L 346.999088 211.883546 
L 351.64168 205.405593 
L 343.137663 209.899273 
z
" clip-path="url(#pb71147e1e4)" style="fill: #2b758e"/>
    <path d="M 369.432855 186.702251 
L 378.1201 180.527049 
L 382.677765 173.56217 
L 373.993353 179.793366 
z
" clip-path="url(#pb71147e1e4)" style="fill: #20a386"/>
    <path d="M 220.559461 274.094955 
L 228.688316 275.823141 
L 233.751851 270.849741 
L 225.642229 269.19644 
z
" clip-path="url(#pb71147e1e4)" style="fill: #46075a"/>
    <path d="M 281.317774 256.095303 
L 289.592468 254.779428 
L 294.426491 249.09574 
L 286.16424 250.472994 
z
" clip-path="url(#pb71147e1e4)" style="fill: #46307e"/>
    <path d="M 294.426491 249.09574 
L 302.748525 247.051337 
L 307.537262 241.202698 
L 299.226205 243.30625 
z
" clip-path="url(#pb71147e1e4)" style="fill: #423f85"/>
    <path d="M 268.199971 262.231504 
L 276.435468 261.616301 
L 281.317774 256.095303 
L 273.096201 256.774518 
z
" clip-path="url(#pb71147e1e4)" style="fill: #482475"/>
    <path d="M 351.64168 205.405593 
L 360.237049 200.139325 
L 364.847758 193.483676 
L 356.257138 198.805057 
z
" clip-path="url(#pb71147e1e4)" style="fill: #23888e"/>
    <path d="M 307.537262 241.202698 
L 315.915185 238.403718 
L 320.661625 232.387884 
L 312.293228 235.244145 
z
" clip-path="url(#pb71147e1e4)" style="fill: #3c4f8a"/>
    <path d="M 255.062401 267.537649 
L 263.266378 267.592164 
L 268.199971 262.231504 
L 260.01141 262.244081 
z
" clip-path="url(#pb71147e1e4)" style="fill: #481a6c"/>
    <path d="M 207.31614 276.745132 
L 215.434318 278.913337 
L 220.559461 274.094955 
L 212.461616 271.997282 
z
" clip-path="url(#pb71147e1e4)" style="fill: #440256"/>
    <path d="M 241.894958 272.052352 
L 250.074526 272.740507 
L 255.062401 267.537649 
L 246.899749 266.920125 
z
" clip-path="url(#pb71147e1e4)" style="fill: #471164"/>
    <path d="M 320.661625 232.387884 
L 329.104363 228.809212 
L 333.811483 222.623897 
L 325.376831 226.258315 
z
" clip-path="url(#pb71147e1e4)" style="fill: #34608d"/>
    <path d="M 364.847758 193.483676 
L 373.538337 187.362996 
L 378.1201 180.527049 
L 369.432855 186.702251 
z
" clip-path="url(#pb71147e1e4)" style="fill: #1f9e89"/>
    <path d="M 228.688316 275.823141 
L 236.84983 277.100256 
L 241.894958 272.052352 
L 233.751851 270.849741 
z
" clip-path="url(#pb71147e1e4)" style="fill: #460a5d"/>
    <path d="M 333.811483 222.623897 
L 342.328328 218.240716 
L 346.999088 211.883546 
L 338.488903 216.321245 
z
" clip-path="url(#pb71147e1e4)" style="fill: #2c718e"/>
    <path d="M 194.018672 278.939742 
L 202.126819 281.417154 
L 207.31614 276.745132 
L 199.228525 274.314609 
z
" clip-path="url(#pb71147e1e4)" style="fill: #440154"/>
    <path d="M 215.434318 278.913337 
L 223.583017 280.719467 
L 228.688316 275.823141 
L 220.559461 274.094955 
z
" clip-path="url(#pb71147e1e4)" style="fill: #450559"/>
    <path d="M 276.435468 261.616301 
L 284.72309 260.360236 
L 289.592468 254.779428 
L 281.317774 256.095303 
z
" clip-path="url(#pb71147e1e4)" style="fill: #472e7c"/>
    <path d="M 289.592468 254.779428 
L 297.925964 252.792577 
L 302.748525 247.051337 
L 294.426491 249.09574 
z
" clip-path="url(#pb71147e1e4)" style="fill: #443b84"/>
    <path d="M 346.999088 211.883546 
L 355.599699 206.670857 
L 360.237049 200.139325 
L 351.64168 205.405593 
z
" clip-path="url(#pb71147e1e4)" style="fill: #25838e"/>
    <path d="M 263.266378 267.592164 
L 271.516285 267.039457 
L 276.435468 261.616301 
L 268.199971 262.231504 
z
" clip-path="url(#pb71147e1e4)" style="fill: #482173"/>
    <path d="M 302.748525 247.051337 
L 311.136458 244.308022 
L 315.915185 238.403718 
L 307.537262 241.202698 
z
" clip-path="url(#pb71147e1e4)" style="fill: #3e4c8a"/>
    <path d="M 378.1201 180.527049 
L 386.916314 173.52523 
L 391.472058 166.506151 
L 382.677765 173.56217 
z
" clip-path="url(#pb71147e1e4)" style="fill: #2fb47c"/>
    <path d="M 250.074526 272.740507 
L 258.294408 272.860718 
L 263.266378 267.592164 
L 255.062401 267.537649 
z
" clip-path="url(#pb71147e1e4)" style="fill: #481769"/>
    <path d="M 315.915185 238.403718 
L 324.366496 234.879153 
L 329.104363 228.809212 
L 320.661625 232.387884 
z
" clip-path="url(#pb71147e1e4)" style="fill: #365c8d"/>
    <path d="M 202.126819 281.417154 
L 210.266041 283.662528 
L 215.434318 278.913337 
L 207.31614 276.745132 
z
" clip-path="url(#pb71147e1e4)" style="fill: #440256"/>
    <path d="M 236.84983 277.100256 
L 245.046809 277.857936 
L 250.074526 272.740507 
L 241.894958 272.052352 
z
" clip-path="url(#pb71147e1e4)" style="fill: #470e61"/>
    <path d="M 360.237049 200.139325 
L 368.931459 194.071558 
L 373.538337 187.362996 
L 364.847758 193.483676 
z
" clip-path="url(#pb71147e1e4)" style="fill: #1f988b"/>
    <path d="M 329.104363 228.809212 
L 337.628356 224.478879 
L 342.328328 218.240716 
L 333.811483 222.623897 
z
" clip-path="url(#pb71147e1e4)" style="fill: #2e6d8e"/>
    <path d="M 223.583017 280.719467 
L 231.763449 282.070696 
L 236.84983 277.100256 
L 228.688316 275.823141 
z
" clip-path="url(#pb71147e1e4)" style="fill: #46085c"/>
    <path d="M 188.763684 283.495636 
L 196.893034 286.027292 
L 202.126819 281.417154 
L 194.018672 278.939742 
z
" clip-path="url(#pb71147e1e4)" style="fill: #440154"/>
    <path d="M 342.328328 218.240716 
L 350.934671 213.079896 
L 355.599699 206.670857 
L 346.999088 211.883546 
z
" clip-path="url(#pb71147e1e4)" style="fill: #27808e"/>
    <path d="M 271.516285 267.039457 
L 279.817305 265.841082 
L 284.72309 260.360236 
L 276.435468 261.616301 
z
" clip-path="url(#pb71147e1e4)" style="fill: #472a7a"/>
    <path d="M 284.72309 260.360236 
L 293.068521 258.428914 
L 297.925964 252.792577 
L 289.592468 254.779428 
z
" clip-path="url(#pb71147e1e4)" style="fill: #453882"/>
    <path d="M 210.266041 283.662528 
L 218.435143 285.548046 
L 223.583017 280.719467 
L 215.434318 278.913337 
z
" clip-path="url(#pb71147e1e4)" style="fill: #450457"/>
    <path d="M 373.538337 187.362996 
L 382.336974 180.413691 
L 386.916314 173.52523 
L 378.1201 180.527049 
z
" clip-path="url(#pb71147e1e4)" style="fill: #28ae80"/>
    <path d="M 258.294408 272.860718 
L 266.559188 272.368259 
L 271.516285 267.039457 
L 263.266378 267.592164 
z
" clip-path="url(#pb71147e1e4)" style="fill: #481f70"/>
    <path d="M 297.925964 252.792577 
L 306.324384 250.102971 
L 311.136458 244.308022 
L 302.748525 247.051337 
z
" clip-path="url(#pb71147e1e4)" style="fill: #3f4788"/>
    <path d="M 245.046809 277.857936 
L 253.283052 278.041443 
L 258.294408 272.860718 
L 250.074526 272.740507 
z
" clip-path="url(#pb71147e1e4)" style="fill: #481668"/>
    <path d="M 311.136458 244.308022 
L 319.596821 240.835646 
L 324.366496 234.879153 
L 315.915185 238.403718 
z
" clip-path="url(#pb71147e1e4)" style="fill: #38588c"/>
    <path d="M 355.599699 206.670857 
L 364.298433 200.654245 
L 368.931459 194.071558 
L 360.237049 200.139325 
z
" clip-path="url(#pb71147e1e4)" style="fill: #20938c"/>
    <path d="M 196.893034 286.027292 
L 205.053999 288.355925 
L 210.266041 283.662528 
L 202.126819 281.417154 
z
" clip-path="url(#pb71147e1e4)" style="fill: #440154"/>
    <path d="M 231.763449 282.070696 
L 239.978284 282.895363 
L 245.046809 277.857936 
L 236.84983 277.100256 
z
" clip-path="url(#pb71147e1e4)" style="fill: #470d60"/>
    <path d="M 324.366496 234.879153 
L 332.898117 230.599769 
L 337.628356 224.478879 
L 329.104363 228.809212 
z
" clip-path="url(#pb71147e1e4)" style="fill: #30698e"/>
    <path d="M 386.916314 173.52523 
L 395.830024 165.666753 
L 400.384753 158.595301 
L 391.472058 166.506151 
z
" clip-path="url(#pb71147e1e4)" style="fill: #52c569"/>
    <path d="M 218.435143 285.548046 
L 226.634931 286.970869 
L 231.763449 282.070696 
L 223.583017 280.719467 
z
" clip-path="url(#pb71147e1e4)" style="fill: #46075a"/>
    <path d="M 337.628356 224.478879 
L 346.240915 219.368026 
L 350.934671 213.079896 
L 342.328328 218.240716 
z
" clip-path="url(#pb71147e1e4)" style="fill: #297b8e"/>
    <path d="M 183.463104 287.998581 
L 191.614451 290.595272 
L 196.893034 286.027292 
L 188.763684 283.495636 
z
" clip-path="url(#pb71147e1e4)" style="fill: #440154"/>
    <path d="M 368.931459 194.071558 
L 377.733017 187.172951 
L 382.336974 180.413691 
L 373.538337 187.362996 
z
" clip-path="url(#pb71147e1e4)" style="fill: #23a983"/>
    <path d="M 279.817305 265.841082 
L 288.175129 263.962787 
L 293.068521 258.428914 
L 284.72309 260.360236 
z
" clip-path="url(#pb71147e1e4)" style="fill: #453581"/>
    <path d="M 266.559188 272.368259 
L 274.874055 271.224827 
L 279.817305 265.841082 
L 271.516285 267.039457 
z
" clip-path="url(#pb71147e1e4)" style="fill: #482878"/>
    <path d="M 293.068521 258.428914 
L 301.477892 255.790683 
L 306.324384 250.102971 
L 297.925964 252.792577 
z
" clip-path="url(#pb71147e1e4)" style="fill: #404588"/>
    <path d="M 205.053999 288.355925 
L 213.24395 290.319049 
L 218.435143 285.548046 
L 210.266041 283.662528 
z
" clip-path="url(#pb71147e1e4)" style="fill: #440256"/>
    <path d="M 253.283052 278.041443 
L 261.56314 277.606135 
L 266.559188 272.368259 
L 258.294408 272.860718 
z
" clip-path="url(#pb71147e1e4)" style="fill: #481c6e"/>
    <path d="M 306.324384 250.102971 
L 314.794267 246.680566 
L 319.596821 240.835646 
L 311.136458 244.308022 
z
" clip-path="url(#pb71147e1e4)" style="fill: #3a548c"/>
    <path d="M 350.934671 213.079896 
L 359.638218 207.11252 
L 364.298433 200.654245 
L 355.599699 206.670857 
z
" clip-path="url(#pb71147e1e4)" style="fill: #218f8d"/>
    <path d="M 239.978284 282.895363 
L 248.231303 283.138563 
L 253.283052 278.041443 
L 245.046809 277.857936 
z
" clip-path="url(#pb71147e1e4)" style="fill: #471365"/>
    <path d="M 319.596821 240.835646 
L 328.136544 236.605066 
L 332.898117 230.599769 
L 324.366496 234.879153 
z
" clip-path="url(#pb71147e1e4)" style="fill: #31668e"/>
    <path d="M 191.614451 290.595272 
L 199.797714 293.009359 
L 205.053999 288.355925 
L 196.893034 286.027292 
z
" clip-path="url(#pb71147e1e4)" style="fill: #440154"/>
    <path d="M 382.336974 180.413691 
L 391.252205 172.605707 
L 395.830024 165.666753 
L 386.916314 173.52523 
z
" clip-path="url(#pb71147e1e4)" style="fill: #46c06f"/>
    <path d="M 226.634931 286.970869 
L 234.868004 287.858175 
L 239.978284 282.895363 
L 231.763449 282.070696 
z
" clip-path="url(#pb71147e1e4)" style="fill: #460b5e"/>
    <path d="M 364.298433 200.654245 
L 373.103406 193.804383 
L 377.733017 187.172951 
L 368.931459 194.071558 
z
" clip-path="url(#pb71147e1e4)" style="fill: #20a486"/>
    <path d="M 332.898117 230.599769 
L 341.517371 225.536779 
L 346.240915 219.368026 
L 337.628356 224.478879 
z
" clip-path="url(#pb71147e1e4)" style="fill: #2a778e"/>
    <path d="M 213.24395 290.319049 
L 221.463419 291.807983 
L 226.634931 286.970869 
L 218.435143 285.548046 
z
" clip-path="url(#pb71147e1e4)" style="fill: #450559"/>
    <path d="M 178.116938 292.474063 
L 186.291188 295.149737 
L 191.614451 290.595272 
L 183.463104 287.998581 
z
" clip-path="url(#pb71147e1e4)" style="fill: #440154"/>
    <path d="M 274.874055 271.224827 
L 283.244711 269.396537 
L 288.175129 263.962787 
L 279.817305 265.841082 
z
" clip-path="url(#pb71147e1e4)" style="fill: #46337f"/>
    <path d="M 261.56314 277.606135 
L 269.892277 276.514213 
L 274.874055 271.224827 
L 266.559188 272.368259 
z
" clip-path="url(#pb71147e1e4)" style="fill: #482576"/>
    <path d="M 288.175129 263.962787 
L 296.5959 261.373194 
L 301.477892 255.790683 
L 293.068521 258.428914 
z
" clip-path="url(#pb71147e1e4)" style="fill: #424186"/>
    <path d="M 248.231303 283.138563 
L 256.5271 282.756367 
L 261.56314 277.606135 
L 253.283052 278.041443 
z
" clip-path="url(#pb71147e1e4)" style="fill: #481b6d"/>
    <path d="M 346.240915 219.368026 
L 354.949758 213.447796 
L 359.638218 207.11252 
L 350.934671 213.079896 
z
" clip-path="url(#pb71147e1e4)" style="fill: #228b8d"/>
    <path d="M 199.797714 293.009359 
L 208.008746 295.042843 
L 213.24395 290.319049 
L 205.053999 288.355925 
z
" clip-path="url(#pb71147e1e4)" style="fill: #440256"/>
    <path d="M 301.477892 255.790683 
L 309.957753 252.41571 
L 314.794267 246.680566 
L 306.324384 250.102971 
z
" clip-path="url(#pb71147e1e4)" style="fill: #3b518b"/>
    <path d="M 395.830024 165.666753 
L 404.870219 156.92058 
L 409.424831 149.798592 
L 400.384753 158.595301 
z
" clip-path="url(#pb71147e1e4)" style="fill: #81d34d"/>
    <path d="M 234.868004 287.858175 
L 243.138158 288.156102 
L 248.231303 283.138563 
L 239.978284 282.895363 
z
" clip-path="url(#pb71147e1e4)" style="fill: #471164"/>
    <path d="M 377.733017 187.172951 
L 386.650267 179.41346 
L 391.252205 172.605707 
L 382.336974 180.413691 
z
" clip-path="url(#pb71147e1e4)" style="fill: #3bbb75"/>
    <path d="M 314.794267 246.680566 
L 323.342557 242.496382 
L 328.136544 236.605066 
L 319.596821 240.835646 
z
" clip-path="url(#pb71147e1e4)" style="fill: #33628d"/>
    <path d="M 221.463419 291.807983 
L 229.715023 292.751462 
L 234.868004 287.858175 
L 226.634931 286.970869 
z
" clip-path="url(#pb71147e1e4)" style="fill: #460a5d"/>
    <path d="M 186.291188 295.149737 
L 194.496837 297.639744 
L 199.797714 293.009359 
L 191.614451 290.595272 
z
" clip-path="url(#pb71147e1e4)" style="fill: #440154"/>
    <path d="M 359.638218 207.11252 
L 368.447094 200.309305 
L 373.103406 193.804383 
L 364.298433 200.654245 
z
" clip-path="url(#pb71147e1e4)" style="fill: #1fa088"/>
    <path d="M 328.136544 236.605066 
L 336.762962 231.587617 
L 341.517371 225.536779 
L 332.898117 230.599769 
z
" clip-path="url(#pb71147e1e4)" style="fill: #2c738e"/>
    <path d="M 208.008746 295.042843 
L 216.248069 296.588747 
L 221.463419 291.807983 
L 213.24395 290.319049 
z
" clip-path="url(#pb71147e1e4)" style="fill: #450559"/>
    <path d="M 269.892277 276.514213 
L 278.276183 274.732364 
L 283.244711 269.396537 
L 274.874055 271.224827 
z
" clip-path="url(#pb71147e1e4)" style="fill: #46307e"/>
    <path d="M 391.252205 172.605707 
L 400.293024 163.90801 
L 404.870219 156.92058 
L 395.830024 165.666753 
z
" clip-path="url(#pb71147e1e4)" style="fill: #73d056"/>
    <path d="M 172.726634 296.978106 
L 180.923843 299.726814 
L 186.291188 295.149737 
L 178.116938 292.474063 
z
" clip-path="url(#pb71147e1e4)" style="fill: #440154"/>
    <path d="M 283.244711 269.396537 
L 291.677317 266.852424 
L 296.5959 261.373194 
L 288.175129 263.962787 
z
" clip-path="url(#pb71147e1e4)" style="fill: #423f85"/>
    <path d="M 256.5271 282.756367 
L 264.8709 281.7118 
L 269.892277 276.514213 
L 261.56314 277.606135 
z
" clip-path="url(#pb71147e1e4)" style="fill: #482475"/>
    <path d="M 341.517371 225.536779 
L 350.231985 219.66142 
L 354.949758 213.447796 
L 346.240915 219.368026 
z
" clip-path="url(#pb71147e1e4)" style="fill: #24878e"/>
    <path d="M 296.5959 261.373194 
L 305.086185 258.042776 
L 309.957753 252.41571 
L 301.477892 255.790683 
z
" clip-path="url(#pb71147e1e4)" style="fill: #3c4f8a"/>
    <path d="M 243.138158 288.156102 
L 251.450019 287.821982 
L 256.5271 282.756367 
L 248.231303 283.138563 
z
" clip-path="url(#pb71147e1e4)" style="fill: #481a6c"/>
    <path d="M 373.103406 193.804383 
L 382.023171 186.09126 
L 386.650267 179.41346 
L 377.733017 187.172951 
z
" clip-path="url(#pb71147e1e4)" style="fill: #34b679"/>
    <path d="M 194.496837 297.639744 
L 202.728861 299.7288 
L 208.008746 295.042843 
L 199.797714 293.009359 
z
" clip-path="url(#pb71147e1e4)" style="fill: #440154"/>
    <path d="M 229.715023 292.751462 
L 238.002608 293.097706 
L 243.138158 288.156102 
L 234.868004 287.858175 
z
" clip-path="url(#pb71147e1e4)" style="fill: #471063"/>
    <path d="M 309.957753 252.41571 
L 318.515064 248.275241 
L 323.342557 242.496382 
L 314.794267 246.680566 
z
" clip-path="url(#pb71147e1e4)" style="fill: #355f8d"/>
    <path d="M 354.949758 213.447796 
L 363.76302 206.688973 
L 368.447094 200.309305 
L 359.638218 207.11252 
z
" clip-path="url(#pb71147e1e4)" style="fill: #1e9c89"/>
    <path d="M 216.248069 296.588747 
L 224.518395 297.57969 
L 229.715023 292.751462 
L 221.463419 291.807983 
z
" clip-path="url(#pb71147e1e4)" style="fill: #46085c"/>
    <path d="M 323.342557 242.496382 
L 331.976602 237.521926 
L 336.762962 231.587617 
L 328.136544 236.605066 
z
" clip-path="url(#pb71147e1e4)" style="fill: #2d718e"/>
    <path d="M 180.923843 299.726814 
L 189.15102 302.26125 
L 194.496837 297.639744 
L 186.291188 295.149737 
z
" clip-path="url(#pb71147e1e4)" style="fill: #440154"/>
    <path d="M 404.870219 156.92058 
L 414.046373 147.254437 
L 418.601761 140.083753 
L 409.424831 149.798592 
z
" clip-path="url(#pb71147e1e4)" style="fill: #c0df25"/>
    <path d="M 386.650267 179.41346 
L 395.692213 170.762071 
L 400.293024 163.90801 
L 391.252205 172.605707 
z
" clip-path="url(#pb71147e1e4)" style="fill: #67cc5c"/>
    <path d="M 202.728861 299.7288 
L 210.988027 301.318701 
L 216.248069 296.588747 
L 208.008746 295.042843 
z
" clip-path="url(#pb71147e1e4)" style="fill: #450457"/>
    <path d="M 336.762962 231.587617 
L 345.483817 225.754666 
L 350.231985 219.66142 
L 341.517371 225.536779 
z
" clip-path="url(#pb71147e1e4)" style="fill: #25838e"/>
    <path d="M 264.8709 281.7118 
L 273.268447 279.972269 
L 278.276183 274.732364 
L 269.892277 276.514213 
z
" clip-path="url(#pb71147e1e4)" style="fill: #472e7c"/>
    <path d="M 278.276183 274.732364 
L 286.721037 272.230135 
L 291.677317 266.852424 
L 283.244711 269.396537 
z
" clip-path="url(#pb71147e1e4)" style="fill: #433d84"/>
    <path d="M 251.450019 287.821982 
L 259.808841 286.819883 
L 264.8709 281.7118 
L 256.5271 282.756367 
z
" clip-path="url(#pb71147e1e4)" style="fill: #482374"/>
    <path d="M 368.447094 200.309305 
L 377.369864 192.640289 
L 382.023171 186.09126 
L 373.103406 193.804383 
z
" clip-path="url(#pb71147e1e4)" style="fill: #2db27d"/>
    <path d="M 291.677317 266.852424 
L 300.178456 263.563335 
L 305.086185 258.042776 
L 296.5959 261.373194 
z
" clip-path="url(#pb71147e1e4)" style="fill: #3e4c8a"/>
    <path d="M 238.002608 293.097706 
L 246.330841 292.805631 
L 251.450019 287.821982 
L 243.138158 288.156102 
z
" clip-path="url(#pb71147e1e4)" style="fill: #48186a"/>
    <path d="M 189.15102 302.26125 
L 197.403581 304.383622 
L 202.728861 299.7288 
L 194.496837 297.639744 
z
" clip-path="url(#pb71147e1e4)" style="fill: #440154"/>
    <path d="M 305.086185 258.042776 
L 313.652959 253.943057 
L 318.515064 248.275241 
L 309.957753 252.41571 
z
" clip-path="url(#pb71147e1e4)" style="fill: #365d8d"/>
    <path d="M 224.518395 297.57969 
L 232.823634 297.966437 
L 238.002608 293.097706 
L 229.715023 292.751462 
z
" clip-path="url(#pb71147e1e4)" style="fill: #471063"/>
    <path d="M 350.231985 219.66142 
L 359.050109 212.944574 
L 363.76302 206.688973 
L 354.949758 213.447796 
z
" clip-path="url(#pb71147e1e4)" style="fill: #1f978b"/>
    <path d="M 318.515064 248.275241 
L 327.157187 243.340993 
L 331.976602 237.521926 
L 323.342557 242.496382 
z
" clip-path="url(#pb71147e1e4)" style="fill: #2e6e8e"/>
    <path d="M 400.293024 163.90801 
L 409.468915 154.288336 
L 414.046373 147.254437 
L 404.870219 156.92058 
z
" clip-path="url(#pb71147e1e4)" style="fill: #b0dd2f"/>
    <path d="M 210.988027 301.318701 
L 219.277154 302.346341 
L 224.518395 297.57969 
L 216.248069 296.588747 
z
" clip-path="url(#pb71147e1e4)" style="fill: #46085c"/>
    <path d="M 382.023171 186.09126 
L 391.066743 177.483893 
L 395.692213 170.762071 
L 386.650267 179.41346 
z
" clip-path="url(#pb71147e1e4)" style="fill: #5ac864"/>
    <path d="M 331.976602 237.521926 
L 340.704157 231.728721 
L 345.483817 225.754666 
L 336.762962 231.587617 
z
" clip-path="url(#pb71147e1e4)" style="fill: #27808e"/>
    <path d="M 363.76302 206.688973 
L 372.689278 199.061667 
L 377.369864 192.640289 
L 368.447094 200.309305 
z
" clip-path="url(#pb71147e1e4)" style="fill: #27ad81"/>
    <path d="M 197.403581 304.383622 
L 205.6824 306.001496 
L 210.988027 301.318701 
L 202.728861 299.7288 
z
" clip-path="url(#pb71147e1e4)" style="fill: #450457"/>
    <path d="M 259.808841 286.819883 
L 268.220392 285.118002 
L 273.268447 279.972269 
L 264.8709 281.7118 
z
" clip-path="url(#pb71147e1e4)" style="fill: #472d7b"/>
    <path d="M 273.268447 279.972269 
L 281.725942 277.507897 
L 286.721037 272.230135 
L 278.276183 274.732364 
z
" clip-path="url(#pb71147e1e4)" style="fill: #443a83"/>
    <path d="M 246.330841 292.805631 
L 254.705003 291.84041 
L 259.808841 286.819883 
L 251.450019 287.821982 
z
" clip-path="url(#pb71147e1e4)" style="fill: #482173"/>
    <path d="M 286.721037 272.230135 
L 295.233443 268.978801 
L 300.178456 263.563335 
L 291.677317 266.852424 
z
" clip-path="url(#pb71147e1e4)" style="fill: #3e4989"/>
    <path d="M 232.823634 297.966437 
L 241.16849 297.709459 
L 246.330841 292.805631 
L 238.002608 293.097706 
z
" clip-path="url(#pb71147e1e4)" style="fill: #481769"/>
    <path d="M 300.178456 263.563335 
L 308.75512 259.501114 
L 313.652959 253.943057 
L 305.086185 258.042776 
z
" clip-path="url(#pb71147e1e4)" style="fill: #375a8c"/>
    <path d="M 345.483817 225.754666 
L 354.307271 219.077212 
L 359.050109 212.944574 
L 350.231985 219.66142 
z
" clip-path="url(#pb71147e1e4)" style="fill: #1f948c"/>
    <path d="M 414.046373 147.254437 
L 423.368486 136.63457 
L 427.925533 129.417027 
L 418.601761 140.083753 
z
" clip-path="url(#pb71147e1e4)" style="fill: #fde725"/>
    <path d="M 395.692213 170.762071 
L 404.86835 161.186539 
L 409.468915 154.288336 
L 400.293024 163.90801 
z
" clip-path="url(#pb71147e1e4)" style="fill: #a0da39"/>
    <path d="M 219.277154 302.346341 
L 227.600193 302.764574 
L 232.823634 297.966437 
L 224.518395 297.57969 
z
" clip-path="url(#pb71147e1e4)" style="fill: #470e61"/>
    <path d="M 313.652959 253.943057 
L 322.303599 249.045996 
L 327.157187 243.340993 
L 318.515064 248.275241 
z
" clip-path="url(#pb71147e1e4)" style="fill: #2f6b8e"/>
    <path d="M 377.369864 192.640289 
L 386.415554 184.074541 
L 391.066743 177.483893 
L 382.023171 186.09126 
z
" clip-path="url(#pb71147e1e4)" style="fill: #50c46a"/>
    <path d="M 205.6824 306.001496 
L 213.990297 307.053567 
L 219.277154 302.346341 
L 210.988027 301.318701 
z
" clip-path="url(#pb71147e1e4)" style="fill: #46085c"/>
    <path d="M 359.050109 212.944574 
L 367.980332 205.356434 
L 372.689278 199.061667 
L 363.76302 206.688973 
z
" clip-path="url(#pb71147e1e4)" style="fill: #24aa83"/>
    <path d="M 327.157187 243.340993 
L 335.891892 237.584673 
L 340.704157 231.728721 
L 331.976602 237.521926 
z
" clip-path="url(#pb71147e1e4)" style="fill: #287d8e"/>
    <path d="M 268.220392 285.118002 
L 276.690894 282.687046 
L 281.725942 277.507897 
L 273.268447 279.972269 
z
" clip-path="url(#pb71147e1e4)" style="fill: #443983"/>
    <path d="M 254.705003 291.84041 
L 263.130889 290.171002 
L 268.220392 285.118002 
L 259.808841 286.819883 
z
" clip-path="url(#pb71147e1e4)" style="fill: #472c7a"/>
    <path d="M 281.725942 277.507897 
L 290.250006 274.290405 
L 295.233443 268.978801 
L 286.721037 272.230135 
z
" clip-path="url(#pb71147e1e4)" style="fill: #3f4788"/>
    <path d="M 241.16849 297.709459 
L 249.558271 296.774901 
L 254.705003 291.84041 
L 246.330841 292.805631 
z
" clip-path="url(#pb71147e1e4)" style="fill: #482071"/>
    <path d="M 409.468915 154.288336 
L 418.789888 143.712941 
L 423.368486 136.63457 
L 414.046373 147.254437 
z
" clip-path="url(#pb71147e1e4)" style="fill: #efe51c"/>
    <path d="M 340.704157 231.728721 
L 349.5334 225.087904 
L 354.307271 219.077212 
L 345.483817 225.754666 
z
" clip-path="url(#pb71147e1e4)" style="fill: #21918c"/>
    <path d="M 295.233443 268.978801 
L 303.820409 264.950547 
L 308.75512 259.501114 
L 300.178456 263.563335 
z
" clip-path="url(#pb71147e1e4)" style="fill: #38588c"/>
    <path d="M 391.066743 177.483893 
L 400.243627 167.950071 
L 404.86835 161.186539 
L 395.692213 170.762071 
z
" clip-path="url(#pb71147e1e4)" style="fill: #90d743"/>
    <path d="M 227.600193 302.764574 
L 235.961869 302.534989 
L 241.16849 297.709459 
L 232.823634 297.966437 
z
" clip-path="url(#pb71147e1e4)" style="fill: #481769"/>
    <path d="M 372.689278 199.061667 
L 381.737571 190.535006 
L 386.415554 184.074541 
L 377.369864 192.640289 
z
" clip-path="url(#pb71147e1e4)" style="fill: #48c16e"/>
    <path d="M 308.75512 259.501114 
L 317.414705 254.637982 
L 322.303599 249.045996 
L 313.652959 253.943057 
z
" clip-path="url(#pb71147e1e4)" style="fill: #30698e"/>
    <path d="M 213.990297 307.053567 
L 222.33121 307.493428 
L 227.600193 302.764574 
L 219.277154 302.346341 
z
" clip-path="url(#pb71147e1e4)" style="fill: #470e61"/>
    <path d="M 354.307271 219.077212 
L 363.241927 211.525549 
L 367.980332 205.356434 
L 359.050109 212.944574 
z
" clip-path="url(#pb71147e1e4)" style="fill: #21a685"/>
    <path d="M 322.303599 249.045996 
L 331.045894 243.323498 
L 335.891892 237.584673 
L 327.157187 243.340993 
z
" clip-path="url(#pb71147e1e4)" style="fill: #297a8e"/>
    <path d="M 404.86835 161.186539 
L 414.188695 150.653137 
L 418.789888 143.712941 
L 409.468915 154.288336 
z
" clip-path="url(#pb71147e1e4)" style="fill: #dfe318"/>
    <path d="M 263.130889 290.171002 
L 271.614738 287.768641 
L 276.690894 282.687046 
L 268.220392 285.118002 
z
" clip-path="url(#pb71147e1e4)" style="fill: #453882"/>
    <path d="M 249.558271 296.774901 
L 257.998787 295.132344 
L 263.130889 290.171002 
L 254.705003 291.84041 
z
" clip-path="url(#pb71147e1e4)" style="fill: #472a7a"/>
    <path d="M 386.415554 184.074541 
L 395.59368 174.579884 
L 400.243627 167.950071 
L 391.066743 177.483893 
z
" clip-path="url(#pb71147e1e4)" style="fill: #84d44b"/>
    <path d="M 276.690894 282.687046 
L 285.226989 279.499159 
L 290.250006 274.290405 
L 281.725942 277.507897 
z
" clip-path="url(#pb71147e1e4)" style="fill: #404688"/>
    <path d="M 235.961869 302.534989 
L 244.367502 301.624371 
L 249.558271 296.774901 
L 241.16849 297.709459 
z
" clip-path="url(#pb71147e1e4)" style="fill: #481f70"/>
    <path d="M 335.891892 237.584673 
L 344.727375 230.977565 
L 349.5334 225.087904 
L 340.704157 231.728721 
z
" clip-path="url(#pb71147e1e4)" style="fill: #218e8d"/>
    <path d="M 290.250006 274.290405 
L 298.847669 270.29231 
L 303.820409 264.950547 
L 295.233443 268.978801 
z
" clip-path="url(#pb71147e1e4)" style="fill: #39558c"/>
    <path d="M 367.980332 205.356434 
L 377.031706 196.8662 
L 381.737571 190.535006 
L 372.689278 199.061667 
z
" clip-path="url(#pb71147e1e4)" style="fill: #3fbc73"/>
    <path d="M 222.33121 307.493428 
L 230.709849 307.283012 
L 235.961869 302.534989 
L 227.600193 302.764574 
z
" clip-path="url(#pb71147e1e4)" style="fill: #481668"/>
    <path d="M 303.820409 264.950547 
L 312.48935 260.117851 
L 317.414705 254.637982 
L 308.75512 259.501114 
z
" clip-path="url(#pb71147e1e4)" style="fill: #31678e"/>
    <path d="M 349.5334 225.087904 
L 358.47295 217.569878 
L 363.241927 211.525549 
L 354.307271 219.077212 
z
" clip-path="url(#pb71147e1e4)" style="fill: #20a386"/>
    <path d="M 317.414705 254.637982 
L 326.165016 248.946042 
L 331.045894 243.323498 
L 322.303599 249.045996 
z
" clip-path="url(#pb71147e1e4)" style="fill: #2a788e"/>
    <path d="M 400.243627 167.950071 
L 409.563851 157.456084 
L 414.188695 150.653137 
L 404.86835 161.186539 
z
" clip-path="url(#pb71147e1e4)" style="fill: #d2e21b"/>
    <path d="M 381.737571 190.535006 
L 390.917428 181.076859 
L 395.59368 174.579884 
L 386.415554 184.074541 
z
" clip-path="url(#pb71147e1e4)" style="fill: #77d153"/>
    <path d="M 257.998787 295.132344 
L 266.496295 292.753424 
L 271.614738 287.768641 
L 263.130889 290.171002 
z
" clip-path="url(#pb71147e1e4)" style="fill: #453781"/>
    <path d="M 244.367502 301.624371 
L 252.82291 300.002685 
L 257.998787 295.132344 
L 249.558271 296.774901 
z
" clip-path="url(#pb71147e1e4)" style="fill: #472a7a"/>
    <path d="M 271.614738 287.768641 
L 280.163212 284.60583 
L 285.226989 279.499159 
L 276.690894 282.687046 
z
" clip-path="url(#pb71147e1e4)" style="fill: #404588"/>
    <path d="M 331.045894 243.323498 
L 339.888055 236.746997 
L 344.727375 230.977565 
L 335.891892 237.584673 
z
" clip-path="url(#pb71147e1e4)" style="fill: #228b8d"/>
    <path d="M 363.241927 211.525549 
L 372.296853 203.068952 
L 377.031706 196.8662 
L 367.980332 205.356434 
z
" clip-path="url(#pb71147e1e4)" style="fill: #38b977"/>
    <path d="M 230.709849 307.283012 
L 239.131525 306.389268 
L 244.367502 301.624371 
L 235.961869 302.534989 
z
" clip-path="url(#pb71147e1e4)" style="fill: #481f70"/>
    <path d="M 285.226989 279.499159 
L 293.835724 275.527162 
L 298.847669 270.29231 
L 290.250006 274.290405 
z
" clip-path="url(#pb71147e1e4)" style="fill: #3a548c"/>
    <path d="M 298.847669 270.29231 
L 307.526363 265.486338 
L 312.48935 260.117851 
L 303.820409 264.950547 
z
" clip-path="url(#pb71147e1e4)" style="fill: #32658e"/>
    <path d="M 344.727375 230.977565 
L 353.672268 223.490183 
L 358.47295 217.569878 
L 349.5334 225.087904 
z
" clip-path="url(#pb71147e1e4)" style="fill: #1fa088"/>
    <path d="M 312.48935 260.117851 
L 321.24809 254.453012 
L 326.165016 248.946042 
L 317.414705 254.637982 
z
" clip-path="url(#pb71147e1e4)" style="fill: #2a768e"/>
    <path d="M 395.59368 174.579884 
L 404.914284 164.122636 
L 409.563851 157.456084 
L 400.243627 167.950071 
z
" clip-path="url(#pb71147e1e4)" style="fill: #c5e021"/>
    <path d="M 377.031706 196.8662 
L 386.213775 187.441791 
L 390.917428 181.076859 
L 381.737571 190.535006 
z
" clip-path="url(#pb71147e1e4)" style="fill: #6ece58"/>
    <path d="M 326.165016 248.946042 
L 335.014281 242.396878 
L 339.888055 236.746997 
L 331.045894 243.323498 
z
" clip-path="url(#pb71147e1e4)" style="fill: #23888e"/>
    <path d="M 252.82291 300.002685 
L 261.33436 297.641794 
L 266.496295 292.753424 
L 257.998787 295.132344 
z
" clip-path="url(#pb71147e1e4)" style="fill: #453581"/>
    <path d="M 358.47295 217.569878 
L 367.531889 209.143994 
L 372.296853 203.068952 
L 363.241927 211.525549 
z
" clip-path="url(#pb71147e1e4)" style="fill: #34b679"/>
    <path d="M 266.496295 292.753424 
L 275.057471 289.610911 
L 280.163212 284.60583 
L 271.614738 287.768641 
z
" clip-path="url(#pb71147e1e4)" style="fill: #414487"/>
    <path d="M 239.131525 306.389268 
L 247.602053 304.782227 
L 252.82291 300.002685 
L 244.367502 301.624371 
z
" clip-path="url(#pb71147e1e4)" style="fill: #482979"/>
    <path d="M 280.163212 284.60583 
L 288.783373 280.655639 
L 293.835724 275.527162 
L 285.226989 279.499159 
z
" clip-path="url(#pb71147e1e4)" style="fill: #3a538b"/>
    <path d="M 293.835724 275.527162 
L 302.524549 270.743992 
L 307.526363 265.486338 
L 298.847669 270.29231 
z
" clip-path="url(#pb71147e1e4)" style="fill: #33638d"/>
    <path d="M 339.888055 236.746997 
L 348.838732 229.287119 
L 353.672268 223.490183 
L 344.727375 230.977565 
z
" clip-path="url(#pb71147e1e4)" style="fill: #1e9d89"/>
    <path d="M 390.917428 181.076859 
L 400.238905 170.653569 
L 404.914284 164.122636 
L 395.59368 174.579884 
z
" clip-path="url(#pb71147e1e4)" style="fill: #b8de29"/>
    <path d="M 307.526363 265.486338 
L 316.29393 259.844959 
L 321.24809 254.453012 
L 312.48935 260.117851 
z
" clip-path="url(#pb71147e1e4)" style="fill: #2b748e"/>
    <path d="M 372.296853 203.068952 
L 381.481608 193.675391 
L 386.213775 187.441791 
L 377.031706 196.8662 
z
" clip-path="url(#pb71147e1e4)" style="fill: #65cb5e"/>
    <path d="M 353.672268 223.490183 
L 362.735673 215.091958 
L 367.531889 209.143994 
L 358.47295 217.569878 
z
" clip-path="url(#pb71147e1e4)" style="fill: #2eb37c"/>
    <path d="M 321.24809 254.453012 
L 330.104875 247.92775 
L 335.014281 242.396878 
L 326.165016 248.946042 
z
" clip-path="url(#pb71147e1e4)" style="fill: #24868e"/>
    <path d="M 247.602053 304.782227 
L 256.127697 302.433768 
L 261.33436 297.641794 
L 252.82291 300.002685 
z
" clip-path="url(#pb71147e1e4)" style="fill: #453581"/>
    <path d="M 261.33436 297.641794 
L 269.908536 294.514597 
L 275.057471 289.610911 
L 266.496295 292.753424 
z
" clip-path="url(#pb71147e1e4)" style="fill: #414287"/>
    <path d="M 275.057471 289.610911 
L 283.689392 285.678037 
L 288.783373 280.655639 
L 280.163212 284.60583 
z
" clip-path="url(#pb71147e1e4)" style="fill: #3b528b"/>
    <path d="M 288.783373 280.655639 
L 297.48269 275.891166 
L 302.524549 270.743992 
L 293.835724 275.527162 
z
" clip-path="url(#pb71147e1e4)" style="fill: #33628d"/>
    <path d="M 386.213775 187.441791 
L 395.536611 177.049576 
L 400.238905 170.653569 
L 390.917428 181.076859 
z
" clip-path="url(#pb71147e1e4)" style="fill: #aadc32"/>
    <path d="M 335.014281 242.396878 
L 343.97117 234.961217 
L 348.838732 229.287119 
L 339.888055 236.746997 
z
" clip-path="url(#pb71147e1e4)" style="fill: #1e9b8a"/>
    <path d="M 367.531889 209.143994 
L 376.719794 199.778273 
L 381.481608 193.675391 
L 372.296853 203.068952 
z
" clip-path="url(#pb71147e1e4)" style="fill: #5cc863"/>
    <path d="M 302.524549 270.743992 
L 311.301324 265.122261 
L 316.29393 259.844959 
L 307.526363 265.486338 
z
" clip-path="url(#pb71147e1e4)" style="fill: #2c728e"/>
    <path d="M 348.838732 229.287119 
L 357.907044 220.913364 
L 362.735673 215.091958 
L 353.672268 223.490183 
z
" clip-path="url(#pb71147e1e4)" style="fill: #2ab07f"/>
    <path d="M 316.29393 259.844959 
L 325.158633 253.340008 
L 330.104875 247.92775 
L 321.24809 254.453012 
z
" clip-path="url(#pb71147e1e4)" style="fill: #25848e"/>
    <path d="M 256.127697 302.433768 
L 264.715146 299.316766 
L 269.908536 294.514597 
L 261.33436 297.641794 
z
" clip-path="url(#pb71147e1e4)" style="fill: #414287"/>
    <path d="M 269.908536 294.514597 
L 278.552528 290.594391 
L 283.689392 285.678037 
L 275.057471 289.610911 
z
" clip-path="url(#pb71147e1e4)" style="fill: #3b518b"/>
    <path d="M 381.481608 193.675391 
L 390.80628 183.311258 
L 395.536611 177.049576 
L 386.213775 187.441791 
z
" clip-path="url(#pb71147e1e4)" style="fill: #a0da39"/>
    <path d="M 330.104875 247.92775 
L 339.068391 240.512877 
L 343.97117 234.961217 
L 335.014281 242.396878 
z
" clip-path="url(#pb71147e1e4)" style="fill: #1f988b"/>
    <path d="M 283.689392 285.678037 
L 292.39954 280.927994 
L 297.48269 275.891166 
L 288.783373 280.655639 
z
" clip-path="url(#pb71147e1e4)" style="fill: #34618d"/>
    <path d="M 362.735673 215.091958 
L 371.927183 205.75095 
L 376.719794 199.778273 
L 367.531889 209.143994 
z
" clip-path="url(#pb71147e1e4)" style="fill: #56c667"/>
    <path d="M 297.48269 275.891166 
L 306.269038 270.285117 
L 311.301324 265.122261 
L 302.524549 270.743992 
z
" clip-path="url(#pb71147e1e4)" style="fill: #2c718e"/>
    <path d="M 343.97117 234.961217 
L 353.044819 226.608618 
L 357.907044 220.913364 
L 348.838732 229.287119 
z
" clip-path="url(#pb71147e1e4)" style="fill: #28ae80"/>
    <path d="M 311.301324 265.122261 
L 320.174331 258.633887 
L 325.158633 253.340008 
L 316.29393 259.844959 
z
" clip-path="url(#pb71147e1e4)" style="fill: #25838e"/>
    <path d="M 376.719794 199.778273 
L 386.04677 189.439126 
L 390.80628 183.311258 
L 381.481608 193.675391 
z
" clip-path="url(#pb71147e1e4)" style="fill: #98d83e"/>
    <path d="M 264.715146 299.316766 
L 273.371495 295.404463 
L 278.552528 290.594391 
L 269.908536 294.514597 
z
" clip-path="url(#pb71147e1e4)" style="fill: #3b518b"/>
    <path d="M 325.158633 253.340008 
L 334.12918 245.942361 
L 339.068391 240.512877 
L 330.104875 247.92775 
z
" clip-path="url(#pb71147e1e4)" style="fill: #1f978b"/>
    <path d="M 278.552528 290.594391 
L 287.273827 285.85438 
L 292.39954 280.927994 
L 283.689392 285.678037 
z
" clip-path="url(#pb71147e1e4)" style="fill: #34618d"/>
    <path d="M 357.907044 220.913364 
L 367.102602 211.593829 
L 371.927183 205.75095 
L 362.735673 215.091958 
z
" clip-path="url(#pb71147e1e4)" style="fill: #50c46a"/>
    <path d="M 292.39954 280.927994 
L 301.195808 275.333528 
L 306.269038 270.285117 
L 297.48269 275.891166 
z
" clip-path="url(#pb71147e1e4)" style="fill: #2d718e"/>
    <path d="M 339.068391 240.512877 
L 348.147796 232.177996 
L 353.044819 226.608618 
L 343.97117 234.961217 
z
" clip-path="url(#pb71147e1e4)" style="fill: #25ac82"/>
    <path d="M 306.269038 270.285117 
L 315.150717 263.809455 
L 320.174331 258.633887 
L 311.301324 265.122261 
z
" clip-path="url(#pb71147e1e4)" style="fill: #26828e"/>
    <path d="M 371.927183 205.75095 
L 381.25692 195.433586 
L 386.04677 189.439126 
L 376.719794 199.778273 
z
" clip-path="url(#pb71147e1e4)" style="fill: #8ed645"/>
    <path d="M 320.174331 258.633887 
L 329.152295 251.249782 
L 334.12918 245.942361 
L 325.158633 253.340008 
z
" clip-path="url(#pb71147e1e4)" style="fill: #1f958b"/>
    <path d="M 353.044819 226.608618 
L 362.24486 217.3072 
L 367.102602 211.593829 
L 357.907044 220.913364 
z
" clip-path="url(#pb71147e1e4)" style="fill: #4ac16d"/>
    <path d="M 273.371495 295.404463 
L 282.104246 290.669991 
L 287.273827 285.85438 
L 278.552528 290.594391 
z
" clip-path="url(#pb71147e1e4)" style="fill: #34608d"/>
    <path d="M 287.273827 285.85438 
L 296.080342 280.267289 
L 301.195808 275.333528 
L 292.39954 280.927994 
z
" clip-path="url(#pb71147e1e4)" style="fill: #2d708e"/>
    <path d="M 334.12918 245.942361 
L 343.214745 237.621645 
L 348.147796 232.177996 
L 339.068391 240.512877 
z
" clip-path="url(#pb71147e1e4)" style="fill: #24aa83"/>
    <path d="M 301.195808 275.333528 
L 310.086511 268.866599 
L 315.150717 263.809455 
L 306.269038 270.285117 
z
" clip-path="url(#pb71147e1e4)" style="fill: #26828e"/>
    <path d="M 367.102602 211.593829 
L 376.435551 201.294939 
L 381.25692 195.433586 
L 371.927183 205.75095 
z
" clip-path="url(#pb71147e1e4)" style="fill: #86d549"/>
    <path d="M 315.150717 263.809455 
L 324.136472 256.435092 
L 329.152295 251.249782 
L 320.174331 258.633887 
z
" clip-path="url(#pb71147e1e4)" style="fill: #1f948c"/>
    <path d="M 348.147796 232.177996 
L 357.35274 222.891231 
L 362.24486 217.3072 
L 353.044819 226.608618 
z
" clip-path="url(#pb71147e1e4)" style="fill: #46c06f"/>
    <path d="M 282.104246 290.669991 
L 290.921316 285.08598 
L 296.080342 280.267289 
L 287.273827 285.85438 
z
" clip-path="url(#pb71147e1e4)" style="fill: #2d708e"/>
    <path d="M 329.152295 251.249782 
L 338.244412 242.939565 
L 343.214745 237.621645 
L 334.12918 245.942361 
z
" clip-path="url(#pb71147e1e4)" style="fill: #23a983"/>
    <path d="M 362.24486 217.3072 
L 371.581456 207.023374 
L 376.435551 201.294939 
L 367.102602 211.593829 
z
" clip-path="url(#pb71147e1e4)" style="fill: #7fd34e"/>
    <path d="M 296.080342 280.267289 
L 304.980404 273.805019 
L 310.086511 268.866599 
L 301.195808 275.333528 
z
" clip-path="url(#pb71147e1e4)" style="fill: #26818e"/>
    <path d="M 343.214745 237.621645 
L 352.425001 228.345963 
L 357.35274 222.891231 
L 348.147796 232.177996 
z
" clip-path="url(#pb71147e1e4)" style="fill: #42be71"/>
    <path d="M 310.086511 268.866599 
L 319.080413 261.498079 
L 324.136472 256.435092 
L 315.150717 263.809455 
z
" clip-path="url(#pb71147e1e4)" style="fill: #20938c"/>
    <path d="M 324.136472 256.435092 
L 333.235517 248.131611 
L 338.244412 242.939565 
L 329.152295 251.249782 
z
" clip-path="url(#pb71147e1e4)" style="fill: #22a785"/>
    <path d="M 357.35274 222.891231 
L 366.693409 212.618961 
L 371.581456 207.023374 
L 362.24486 217.3072 
z
" clip-path="url(#pb71147e1e4)" style="fill: #7ad151"/>
    <path d="M 290.921316 285.08598 
L 299.831053 278.62422 
L 304.980404 273.805019 
L 296.080342 280.267289 
z
" clip-path="url(#pb71147e1e4)" style="fill: #26818e"/>
    <path d="M 338.244412 242.939565 
L 347.460375 233.6713 
L 352.425001 228.345963 
L 343.214745 237.621645 
z
" clip-path="url(#pb71147e1e4)" style="fill: #3fbc73"/>
    <path d="M 304.980404 273.805019 
L 313.982793 266.438359 
L 319.080413 261.498079 
L 310.086511 268.866599 
z
" clip-path="url(#pb71147e1e4)" style="fill: #20928c"/>
    <path d="M 319.080413 261.498079 
L 328.186748 253.197481 
L 333.235517 248.131611 
L 324.136472 256.435092 
z
" clip-path="url(#pb71147e1e4)" style="fill: #21a685"/>
    <path d="M 352.425001 228.345963 
L 361.770155 218.081645 
L 366.693409 212.618961 
L 357.35274 222.891231 
z
" clip-path="url(#pb71147e1e4)" style="fill: #75d054"/>
    <path d="M 333.235517 248.131611 
L 342.457568 238.867006 
L 347.460375 233.6713 
L 338.244412 242.939565 
z
" clip-path="url(#pb71147e1e4)" style="fill: #3dbc74"/>
    <path d="M 299.831053 278.62422 
L 308.842252 271.255366 
L 313.982793 266.438359 
L 304.980404 273.805019 
z
" clip-path="url(#pb71147e1e4)" style="fill: #20928c"/>
    <path d="M 313.982793 266.438359 
L 323.096763 258.136711 
L 328.186748 253.197481 
L 319.080413 261.498079 
z
" clip-path="url(#pb71147e1e4)" style="fill: #21a685"/>
    <path d="M 347.460375 233.6713 
L 356.810414 223.41124 
L 361.770155 218.081645 
L 352.425001 228.345963 
z
" clip-path="url(#pb71147e1e4)" style="fill: #70cf57"/>
    <path d="M 328.186748 253.197481 
L 337.415252 243.932695 
L 342.457568 238.867006 
L 333.235517 248.131611 
z
" clip-path="url(#pb71147e1e4)" style="fill: #3bbb75"/>
    <path d="M 308.842252 271.255366 
L 317.964185 262.948671 
L 323.096763 258.136711 
L 313.982793 266.438359 
z
" clip-path="url(#pb71147e1e4)" style="fill: #21a585"/>
    <path d="M 342.457568 238.867006 
L 351.812877 228.607427 
L 356.810414 223.41124 
L 347.460375 233.6713 
z
" clip-path="url(#pb71147e1e4)" style="fill: #6ece58"/>
    <path d="M 323.096763 258.136711 
L 332.332071 248.867832 
L 337.415252 243.932695 
L 328.186748 253.197481 
z
" clip-path="url(#pb71147e1e4)" style="fill: #3aba76"/>
    <path d="M 337.415252 243.932695 
L 346.776202 233.669743 
L 351.812877 228.607427 
L 342.457568 238.867006 
z
" clip-path="url(#pb71147e1e4)" style="fill: #6ccd5a"/>
    <path d="M 317.964185 262.948671 
L 327.206631 253.671722 
L 332.332071 248.867832 
L 323.096763 258.136711 
z
" clip-path="url(#pb71147e1e4)" style="fill: #3aba76"/>
    <path d="M 332.332071 248.867832 
L 341.699017 238.597583 
L 346.776202 233.669743 
L 337.415252 243.932695 
z
" clip-path="url(#pb71147e1e4)" style="fill: #69cd5b"/>
    <path d="M 327.206631 253.671722 
L 336.579913 243.390187 
L 341.699017 238.597583 
L 332.332071 248.867832 
z
" clip-path="url(#pb71147e1e4)" style="fill: #69cd5b"/>
   </g>
  </g>
 </g>
 <defs>
  <clipPath id="pb71147e1e4">
   <rect x="128.88" y="51.84" width="332.64" height="332.64"/>
  </clipPath>
 </defs>
</svg>
